<svg width="51" height="72" viewBox="0 0 51 72" fill="none" xmlns="http://www.w3.org/2000/svg">
<path d="M24 48C20.8483 48 17.7274 47.3792 14.8156 46.1731C11.9038 44.967 9.25804 43.1992 7.02943 40.9706C4.80083 38.742 3.033 36.0962 1.82689 33.1844C0.620777 30.2726 -8.39104e-07 27.1517 0 24C8.39106e-07 20.8483 0.62078 17.7274 1.82689 14.8156C3.03301 11.9038 4.80084 9.25804 7.02944 7.02943C9.25805 4.80083 11.9038 3.033 14.8156 1.82689C17.7274 0.620775 20.8483 -1.54044e-06 24 0L24 24L24 48Z" fill="black"/>
<path d="M27 24C30.1517 24 33.2726 24.6208 36.1844 25.8269C39.0962 27.033 41.742 28.8008 43.9706 31.0294C46.1992 33.2581 47.967 35.9038 49.1731 38.8156C50.3792 41.7274 51 44.8483 51 48C51 51.1517 50.3792 54.2726 49.1731 57.1844C47.967 60.0962 46.1992 62.742 43.9705 64.9706C41.7419 67.1992 39.0962 68.967 36.1844 70.1731C33.2726 71.3792 30.1517 72 27 72L27 48V24Z" fill="black"/>
</svg>
