<svg width="48" height="72" viewBox="0 0 48 72" fill="none" xmlns="http://www.w3.org/2000/svg">
<path d="M48 48C48 51.1517 47.3792 54.2726 46.1731 57.1844C44.967 60.0962 43.1992 62.742 40.9706 64.9706C38.742 67.1992 36.0962 68.967 33.1844 70.1731C30.2726 71.3792 27.1517 72 24 72C20.8483 72 17.7274 71.3792 14.8156 70.1731C11.9038 68.967 9.25804 67.1992 7.02943 64.9706C4.80083 62.742 3.033 60.0962 1.82689 57.1844C0.620776 54.2726 -1.02696e-06 51.1517 0 48L24 48H48Z" fill="black"/>
<path d="M48 24C48 27.1517 47.3792 30.2726 46.1731 33.1844C44.967 36.0962 43.1992 38.742 40.9706 40.9706C38.742 43.1992 36.0962 44.967 33.1844 46.1731C30.2726 47.3792 27.1517 48 24 48C20.8483 48 17.7274 47.3792 14.8156 46.1731C11.9038 44.967 9.25804 43.1992 7.02943 40.9706C4.80083 38.742 3.033 36.0962 1.82689 33.1844C0.620776 30.2726 -1.02696e-06 27.1517 0 24L24 24H48Z" fill="black"/>
<circle cx="24" cy="12" r="12" fill="black"/>
</svg>
