<svg width="72" height="72" viewBox="0 0 72 72" fill="none" xmlns="http://www.w3.org/2000/svg">
<path d="M48 48C48 51.1517 47.3792 54.2726 46.1731 57.1844C44.967 60.0962 43.1992 62.742 40.9706 64.9706C38.742 67.1992 36.0962 68.967 33.1844 70.1731C30.2726 71.3792 27.1517 72 24 72C20.8483 72 17.7274 71.3792 14.8156 70.1731C11.9038 68.967 9.25804 67.1992 7.02944 64.9706C4.80083 62.742 3.033 60.0962 1.82689 57.1844C0.620778 54.2726 -2.75532e-07 51.1517 0 48L24 48H48Z" fill="black"/>
<path d="M24 48C17.6348 48 11.5303 45.4714 7.02944 40.9706C2.52856 36.4697 -1.77068e-07 30.3652 0 24C1.77068e-07 17.6348 2.52856 11.5303 7.02944 7.02944C11.5303 2.52856 17.6348 -7.59042e-08 24 0V24L24 48Z" fill="black"/>
<path d="M24 24C24 17.6348 26.5286 11.5303 31.0294 7.02944C35.5303 2.52856 41.6348 6.82886e-07 48 0C54.3652 -6.82886e-07 60.4697 2.52856 64.9706 7.02943C69.4714 11.5303 72 17.6348 72 24L48 24L24 24Z" fill="black"/>
<path d="M48 24C54.3652 24 60.4697 26.5286 64.9706 31.0294C69.4714 35.5303 72 41.6348 72 48C72 54.3652 69.4714 60.4697 64.9706 64.9706C60.4697 69.4714 54.3652 72 48 72L48 48V24Z" fill="black"/>
</svg>
