<svg width="72" height="72" viewBox="0 0 72 72" fill="none" xmlns="http://www.w3.org/2000/svg">
<path d="M48 48C48 52.7468 46.5924 57.3869 43.9553 61.3337C41.3181 65.2805 37.5698 68.3566 33.1844 70.1731C28.799 71.9896 23.9734 72.4649 19.3178 71.5388C14.6623 70.6128 10.3859 68.327 7.02944 64.9706C3.67298 61.6141 1.3872 57.3377 0.461153 52.6822C-0.464892 48.0266 0.0103881 43.201 1.82689 38.8156C3.64339 34.4302 6.71953 30.6819 10.6663 28.0447C14.6131 25.4076 19.2532 24 24 24V48H48Z" fill="black"/>
<path d="M24 24C24 19.2532 25.4076 14.6131 28.0447 10.6663C30.6819 6.71953 34.4302 3.64339 38.8156 1.82689C43.201 0.0103872 48.0266 -0.464892 52.6822 0.461154C57.3377 1.3872 61.6141 3.67298 64.9706 7.02944C68.327 10.3859 70.6128 14.6623 71.5388 19.3178C72.4649 23.9734 71.9896 28.799 70.1731 33.1844C68.3566 37.5698 65.2805 41.3181 61.3337 43.9553C57.3869 46.5924 52.7467 48 48 48L48 24L24 24Z" fill="black"/>
</svg>
