<svg width="915" height="517" viewBox="0 0 915 517" fill="none" xmlns="http://www.w3.org/2000/svg">
<path d="M404.784 532.373C398.205 532.372 391.839 530.395 386.818 526.792C381.797 523.189 378.447 518.194 377.363 512.696L377.354 512.65L377.389 512.615C379.168 510.811 380.605 508.783 381.651 506.606C380.406 507.957 378.904 509.122 377.204 510.051L377.03 510.15L377.02 509.973C376.998 509.582 376.986 509.195 376.986 508.82C376.971 504.815 378.168 500.874 380.463 497.373C382.758 493.872 386.075 490.928 390.096 488.822C386.017 485.217 382.948 480.88 381.116 476.132C379.284 471.385 378.736 466.349 379.513 461.399C380.29 456.448 382.372 451.708 385.604 447.532C388.836 443.355 393.136 439.848 398.186 437.27C403.235 434.693 408.904 433.111 414.773 432.642C420.641 432.173 426.56 432.829 432.089 434.561C437.617 436.293 442.616 439.057 446.713 442.648C450.81 446.239 453.901 450.565 455.756 455.306L455.791 455.395L455.688 455.43C453.321 456.295 450.774 456.75 448.196 456.768C450.88 457.411 453.666 457.697 456.454 457.613L456.549 457.611L456.573 457.69C457.352 460.336 457.745 463.054 457.744 465.781C457.744 465.88 457.744 465.978 457.743 466.076C457.735 468.197 458.255 470.295 459.269 472.235C460.283 474.174 461.767 475.91 463.626 477.331C466.596 479.62 468.945 482.427 470.512 485.559C472.079 488.69 472.826 492.073 472.703 495.473C472.58 498.873 471.589 502.209 469.798 505.254C468.007 508.298 465.459 510.978 462.329 513.108L462.272 513.147L462.206 513.122C458.096 511.542 455.234 509.778 453.285 507.613C454.603 510.339 456.525 512.827 458.946 514.941L459.052 515.033L458.921 515.098C454.767 517.148 450.056 518.251 445.249 518.3C440.442 518.348 435.701 517.34 431.491 515.374C429.8 520.27 426.285 524.571 421.472 527.634C416.658 530.698 410.804 532.36 404.784 532.373V532.373Z" fill="#F2F2F2"/>
<path d="M394.881 569.888C394.759 569.888 394.642 569.851 394.55 569.784C394.459 569.716 394.399 569.623 394.381 569.521C393.061 559.542 392.982 549.474 394.146 539.481C395.889 523.718 401.487 501.013 418.257 482.365C418.297 482.32 418.347 482.283 418.405 482.254C418.462 482.226 418.526 482.207 418.591 482.199C418.657 482.192 418.724 482.195 418.789 482.209C418.853 482.224 418.913 482.249 418.966 482.283C419.019 482.317 419.064 482.36 419.097 482.408C419.13 482.457 419.152 482.511 419.161 482.567C419.17 482.623 419.165 482.68 419.148 482.734C419.131 482.788 419.101 482.839 419.061 482.884C402.436 501.37 396.882 523.909 395.152 539.561C393.994 549.487 394.071 559.488 395.382 569.4C395.392 569.461 395.386 569.523 395.366 569.582C395.345 569.64 395.31 569.695 395.263 569.741C395.215 569.787 395.156 569.824 395.091 569.85C395.025 569.875 394.953 569.888 394.881 569.888V569.888Z" fill="#3F3D56"/>
<path d="M403.265 507.022C403.159 507.022 403.055 506.994 402.968 506.94C402.882 506.887 402.818 506.812 402.785 506.727C402.752 506.641 402.751 506.548 402.784 506.462C402.817 506.376 402.882 506.301 402.968 506.248C407.746 503.507 412.908 501.281 418.335 499.62C426.814 496.99 439.706 494.606 452.979 498.185C453.107 498.219 453.213 498.295 453.275 498.396C453.336 498.497 453.348 498.614 453.307 498.722C453.267 498.831 453.177 498.921 453.058 498.973C452.939 499.025 452.8 499.035 452.673 499C439.672 495.495 427.013 497.84 418.682 500.424C413.343 502.056 408.264 504.245 403.562 506.94C403.476 506.993 403.372 507.022 403.265 507.022V507.022Z" fill="#3F3D56"/>
<path d="M145.01 96.6254H138.729V63.855C138.729 59.4264 136.652 55.1792 132.957 52.0477C129.261 48.9162 124.248 47.1569 119.021 47.1569H91.8024V0H87.4371V47.1569H50.3325V96.6254H13.7734V570.968H218.94V159.265C218.94 142.652 211.151 126.719 197.287 114.972C183.422 103.225 164.618 96.6254 145.01 96.6254V96.6254Z" fill="#3F3D56"/>
<path d="M332.944 385.577H327.526V379.159C327.524 374.903 325.602 370.808 322.153 367.713C318.704 364.618 313.989 362.757 308.974 362.511V319.003H304.609V362.461H284.965V385.577H215.121V571.431H370.088V417.048C370.088 412.915 369.127 408.823 367.26 405.005C365.394 401.186 362.658 397.717 359.209 394.795C355.76 391.873 351.665 389.554 347.159 387.973C342.652 386.391 337.822 385.577 332.944 385.577V385.577Z" fill="#3F3D56"/>
<path d="M632.003 252.528V241.387C632 237.13 630.078 233.036 626.629 229.941C623.18 226.846 618.466 224.985 613.45 224.738V181.23H609.085V224.689H589.441V252.428H496.68V571.431H701.847V315.067C701.846 299.054 694.607 283.65 681.617 272.018C668.627 260.387 650.873 253.413 632.003 252.528Z" fill="#3F3D56"/>
<path d="M557.795 297.735H530.512V316.228H557.795V297.735Z" fill="white"/>
<path d="M602.537 297.735H575.254V316.228H602.537V297.735Z" fill="white"/>
<path d="M647.281 297.735H619.998V316.228H647.281V297.735Z" fill="white"/>
<path d="M557.795 344.893H530.512V363.385H557.795V344.893Z" fill="white"/>
<path d="M602.537 344.893H575.254V363.385H602.537V344.893Z" fill="white"/>
<path d="M647.281 344.893H619.998V363.385H647.281V344.893Z" fill="white"/>
<path d="M557.795 392.05H530.512V410.543H557.795V392.05Z" fill="white"/>
<path d="M602.537 392.05H575.254V410.543H602.537V392.05Z" fill="white"/>
<path d="M647.281 392.05H619.998V410.543H647.281V392.05Z" fill="white"/>
<path d="M557.795 439.206H530.512V457.699H557.795V439.206Z" fill="white"/>
<path d="M602.537 439.206H575.254V457.699H602.537V439.206Z" fill="white"/>
<path d="M647.281 439.206H619.998V457.699H647.281V439.206Z" fill="white"/>
<path d="M557.795 486.363H530.512V504.856H557.795V486.363Z" fill="white"/>
<path d="M602.537 486.363H575.254V504.856H602.537V486.363Z" fill="white"/>
<path d="M647.281 486.363H619.998V504.856H647.281V486.363Z" fill="white"/>
<path d="M160.555 134.073H72.1582V139.621H160.555V134.073Z" fill="white"/>
<path d="M160.555 168.285H72.1582V173.833H160.555V168.285Z" fill="white"/>
<path d="M160.555 202.497H72.1582V208.045H160.555V202.497Z" fill="white"/>
<path d="M160.555 236.709H72.1582V242.257H160.555V236.709Z" fill="white"/>
<path d="M160.555 270.921H72.1582V276.469H160.555V270.921Z" fill="white"/>
<path d="M160.555 305.133H72.1582V310.681H160.555V305.133Z" fill="white"/>
<path d="M160.555 339.345H72.1582V344.893H160.555V339.345Z" fill="white"/>
<path d="M160.555 373.557H72.1582V379.105H160.555V373.557Z" fill="white"/>
<path d="M160.555 407.769H72.1582V413.316H160.555V407.769Z" fill="white"/>
<path d="M160.555 441.98H72.1582V447.528H160.555V441.98Z" fill="white"/>
<path d="M160.555 476.192H72.1582V481.74H160.555V476.192Z" fill="white"/>
<path d="M160.555 510.404H72.1582V515.952H160.555V510.404Z" fill="white"/>
<path d="M261.502 410.542H234.219V429.035H261.502V410.542Z" fill="white"/>
<path d="M306.246 410.542H278.963V429.035H306.246V410.542Z" fill="white"/>
<path d="M350.99 410.542H323.707V429.035H350.99V410.542Z" fill="white"/>
<path d="M262.048 457.699H234.766V476.192H262.048V457.699Z" fill="white"/>
<path d="M306.791 457.699H279.508V476.192H306.791V457.699Z" fill="white"/>
<path d="M351.535 457.699H324.252V476.192H351.535V457.699Z" fill="white"/>
<path d="M262.593 504.856H235.311V523.349H262.593V504.856Z" fill="white"/>
<path d="M307.338 504.856H280.055V523.349H307.338V504.856Z" fill="white"/>
<path d="M352.082 504.856H324.799V523.349H352.082V504.856Z" fill="white"/>
<path d="M108.172 57.3281H80.8887V75.821H108.172V57.3281Z" fill="white"/>
<path d="M21.2663 525.382C23.4349 510.608 34.2419 496.05 50.8723 491.242C44.3137 506.449 44.3151 523.132 50.8763 538.339C53.4317 544.195 56.9938 550.484 54.59 556.387C53.0945 560.059 49.4358 562.869 45.346 564.626C41.256 566.384 36.717 567.221 32.2348 568.042L31.3526 568.66C24.2372 555.047 19.0977 540.157 21.2663 525.382Z" fill="#CACACA"/>
<path d="M51.0362 491.521C41.3514 500.716 35.3321 512.262 33.8331 524.519C33.4551 527.153 33.5695 529.821 34.1721 532.425C34.8558 534.945 36.3236 537.265 38.4229 539.142C40.3389 540.925 42.5426 542.562 43.9135 544.709C44.5959 545.817 44.9943 547.035 45.0824 548.282C45.1705 549.53 44.9464 550.779 44.4247 551.948C43.2144 554.889 40.8289 557.286 38.3998 559.562C35.7028 562.089 32.8542 564.678 31.7078 568.028C31.5689 568.433 30.8337 568.227 30.9724 567.822C32.967 561.993 39.6446 558.683 42.8291 553.433C44.3151 550.984 44.9388 548.14 43.5457 545.554C42.3275 543.293 40.0569 541.604 38.0985 539.812C36.0188 538.007 34.4926 535.797 33.6532 533.376C32.8961 530.807 32.6606 528.147 32.9567 525.511C33.5117 519.566 35.1663 513.733 37.86 508.224C40.8931 501.923 45.1761 496.107 50.5238 491.029C50.8549 490.715 51.3652 491.209 51.0362 491.521H51.0362Z" fill="white"/>
<path d="M34.0422 520.549C31.6491 520.057 29.5404 518.86 28.0927 517.172C26.645 515.484 25.9526 513.415 26.1392 511.334C26.1787 510.913 26.9525 510.945 26.913 511.367C26.735 513.304 27.3802 515.231 28.732 516.801C30.0839 518.37 32.0534 519.479 34.2851 519.926C34.7699 520.024 34.5243 520.646 34.0422 520.549H34.0422Z" fill="white"/>
<path d="M41.613 502.544C42.4921 502.898 43.4612 503.061 44.4333 503.02C45.4053 502.978 46.3499 502.732 47.1822 502.304C47.6082 502.084 47.9538 502.672 47.5306 502.891C46.6084 503.359 45.5648 503.63 44.4909 503.678C43.417 503.726 42.3456 503.551 41.3701 503.167C41.2746 503.137 41.1959 503.078 41.1502 503.001C41.1044 502.924 41.095 502.835 41.1238 502.753C41.1564 502.67 41.2261 502.602 41.3177 502.563C41.4093 502.524 41.5154 502.517 41.6129 502.544H41.613Z" fill="white"/>
<path d="M101.564 517.631C101.302 517.775 101.041 517.919 100.779 518.069C97.2766 520.02 93.9672 522.21 90.8832 524.615C90.6413 524.798 90.3994 524.986 90.1641 525.174C82.8071 531.037 76.7986 538.005 72.4441 545.726C70.7147 548.8 69.2638 551.981 68.1039 555.241C66.5024 559.743 65.1887 564.733 62.0185 568.416C61.6928 568.803 61.3392 569.173 60.9595 569.524H32.3105C32.2454 569.496 32.18 569.474 32.1146 569.446L30.9707 569.49C31.0167 569.319 31.0687 569.141 31.1146 568.97C31.1408 568.87 31.1734 568.77 31.1995 568.671C31.219 568.604 31.2388 568.538 31.2519 568.477C31.2583 568.455 31.265 568.433 31.2714 568.416C31.2845 568.355 31.3043 568.3 31.3174 568.244C31.6049 567.253 31.9012 566.262 32.2062 565.27C32.2062 565.265 32.2062 565.265 32.2126 565.259C34.4514 557.687 37.7426 550.366 42.0172 543.45C42.148 543.245 42.2785 543.035 42.4225 542.83C44.4018 539.769 46.6732 536.85 49.2138 534.102C50.6107 532.601 52.0964 531.161 53.6652 529.788C57.7266 526.245 62.4204 523.266 67.5744 520.96C77.8497 516.363 89.7458 514.602 100.727 517.41C101.008 517.482 101.283 517.554 101.564 517.631Z" fill="#CACACA"/>
<path d="M541.824 525.382C543.992 510.608 554.8 496.05 571.43 491.242C564.871 506.449 564.873 523.132 571.434 538.339C573.989 544.195 577.551 550.484 575.148 556.387C573.652 560.059 569.993 562.869 565.904 564.626C561.814 566.384 557.275 567.221 552.792 568.042L551.91 568.66C544.795 555.047 539.655 540.157 541.824 525.382Z" fill="#CACACA"/>
<path d="M571.595 491.521C561.91 500.716 555.891 512.262 554.392 524.519C554.014 527.153 554.128 529.821 554.731 532.425C555.414 534.945 556.882 537.265 558.981 539.142C560.897 540.925 563.101 542.562 564.472 544.709C565.154 545.817 565.553 547.035 565.641 548.282C565.729 549.53 565.505 550.779 564.983 551.948C563.773 554.889 561.387 557.286 558.958 559.562C556.261 562.089 553.413 564.678 552.266 568.028C552.128 568.433 551.392 568.227 551.531 567.822C553.526 561.993 560.203 558.683 563.388 553.433C564.874 550.984 565.497 548.14 564.104 545.554C562.886 543.293 560.615 541.604 558.657 539.812C556.577 538.007 555.051 535.797 554.212 533.376C553.455 530.807 553.219 528.147 553.515 525.511C554.07 519.566 555.725 513.733 558.419 508.224C561.452 501.923 565.735 496.107 571.082 491.029C571.413 490.715 571.924 491.209 571.595 491.521V491.521Z" fill="white"/>
<path d="M554.599 520.549C552.206 520.057 550.097 518.86 548.649 517.172C547.202 515.484 546.509 513.415 546.696 511.334C546.735 510.913 547.509 510.945 547.47 511.367C547.292 513.304 547.937 515.231 549.289 516.801C550.641 518.37 552.61 519.479 554.842 519.926C555.327 520.024 555.081 520.646 554.599 520.549V520.549Z" fill="white"/>
<path d="M562.17 502.544C563.049 502.898 564.018 503.061 564.99 503.02C565.962 502.978 566.907 502.732 567.739 502.304C568.165 502.084 568.51 502.672 568.087 502.891C567.165 503.359 566.121 503.63 565.047 503.678C563.974 503.726 562.902 503.551 561.927 503.167C561.831 503.137 561.753 503.078 561.707 503.001C561.661 502.924 561.652 502.835 561.68 502.753C561.713 502.67 561.783 502.602 561.874 502.563C561.966 502.524 562.072 502.517 562.17 502.544H562.17Z" fill="white"/>
<path d="M622.12 517.631C621.859 517.775 621.597 517.919 621.336 518.069C617.833 520.02 614.524 522.21 611.44 524.615C611.198 524.798 610.956 524.986 610.721 525.174C603.364 531.037 597.355 538.005 593.001 545.726C591.271 548.8 589.82 551.981 588.661 555.241C587.059 559.743 585.745 564.733 582.575 568.416C582.249 568.803 581.896 569.173 581.516 569.524H552.867C552.802 569.496 552.737 569.474 552.671 569.446L551.527 569.49C551.573 569.319 551.625 569.141 551.671 568.97C551.697 568.87 551.73 568.77 551.756 568.671C551.776 568.604 551.795 568.538 551.809 568.477C551.815 568.455 551.822 568.433 551.828 568.416C551.841 568.355 551.861 568.3 551.874 568.244C552.162 567.253 552.458 566.262 552.763 565.27C552.763 565.265 552.763 565.265 552.769 565.259C555.008 557.687 558.299 550.366 562.574 543.45C562.705 543.245 562.835 543.035 562.979 542.83C564.959 539.769 567.23 536.85 569.77 534.102C571.167 532.601 572.653 531.161 574.222 529.788C578.283 526.245 582.977 523.266 588.131 520.96C598.406 516.363 610.302 514.602 621.284 517.41C621.565 517.482 621.839 517.554 622.12 517.631Z" fill="#CACACA"/>
<path d="M296.323 39.7453C291.777 34.3686 286.804 28.7619 281.242 28.986C267.78 29.5285 260.521 62.5993 247.073 61.4363C238.496 60.6946 232.803 46.0948 224.818 40.801C214.421 33.9094 201.191 47.3878 200.057 66.0262L201.392 63.9784C241.805 80.4878 283.743 83.7345 324.892 73.5392C315.369 62.2746 305.846 51.0099 296.323 39.7453Z" fill="#F0F0F0"/>
<path d="M522.42 8.84863C517.816 4.42941 512.779 -0.178878 507.146 0.00534717C493.511 0.451211 486.16 27.6327 472.539 26.6768C463.853 26.0672 458.086 14.0673 449.998 9.71628C439.469 4.05195 426.069 15.1301 424.92 30.4494L426.272 28.7663C467.203 42.3356 509.679 45.0041 551.356 36.6244C541.711 27.3658 532.065 18.1072 522.42 8.84863Z" fill="#F0F0F0"/>
<path d="M477.648 437.863C477.706 437.831 477.755 437.789 477.789 437.738C477.823 437.688 477.842 437.631 477.845 437.573C477.788 437.616 477.732 437.66 477.674 437.702C477.666 437.756 477.663 437.807 477.648 437.863Z" fill="#2F2E41"/>
<path d="M379.217 312.651L374.351 314.763C374.305 314.783 374.251 314.787 374.202 314.773C374.152 314.76 374.111 314.73 374.088 314.691C374.064 314.652 374.06 314.607 374.076 314.565C374.092 314.523 374.127 314.488 374.173 314.468L379.039 312.357C379.061 312.347 379.086 312.34 379.112 312.338C379.138 312.337 379.164 312.339 379.188 312.346C379.213 312.352 379.235 312.363 379.255 312.377C379.275 312.391 379.291 312.408 379.303 312.428C379.314 312.447 379.321 312.469 379.323 312.49C379.325 312.512 379.322 312.534 379.314 312.555C379.306 312.575 379.294 312.595 379.277 312.611C379.26 312.628 379.24 312.641 379.217 312.651V312.651Z" fill="white"/>
<path d="M379.893 312.305C379.979 312.305 380.049 312.245 380.049 312.172C380.049 312.099 379.979 312.04 379.893 312.04C379.806 312.04 379.736 312.099 379.736 312.172C379.736 312.245 379.806 312.305 379.893 312.305Z" fill="white"/>
<path d="M370.486 326.478C370.403 326.514 370.306 326.521 370.218 326.496C370.129 326.472 370.055 326.419 370.013 326.349L369.3 325.171C369.258 325.101 369.25 325.019 369.279 324.944C369.307 324.869 369.37 324.806 369.453 324.77C369.536 324.734 369.632 324.727 369.721 324.752C369.81 324.776 369.884 324.829 369.926 324.899L370.638 326.077C370.681 326.148 370.688 326.229 370.66 326.304C370.631 326.38 370.568 326.442 370.486 326.478V326.478Z" fill="#3F3D56"/>
<path d="M371.803 328.658C371.72 328.694 371.623 328.7 371.534 328.676C371.446 328.652 371.372 328.599 371.329 328.528L370.617 327.35C370.596 327.316 370.583 327.278 370.579 327.239C370.575 327.199 370.581 327.16 370.595 327.123C370.609 327.086 370.632 327.051 370.662 327.021C370.692 326.991 370.728 326.967 370.769 326.949C370.811 326.931 370.855 326.92 370.902 326.917C370.948 326.914 370.994 326.918 371.038 326.931C371.082 326.943 371.123 326.962 371.158 326.987C371.193 327.013 371.222 327.044 371.243 327.079L371.955 328.257C371.998 328.327 372.005 328.409 371.977 328.484C371.948 328.559 371.885 328.622 371.803 328.658V328.658Z" fill="#3F3D56"/>
<g clip-path="url(#clip0_436_2546)">
<path d="M957.952 515.94H622.207V291.361L620.664 290.23L675.162 229.722C702.709 199.03 739.619 181.702 778.138 181.379L878.323 180.335L878.467 180.53L958.185 288.636L957.95 291.629L957.952 515.94Z" fill="#3F3D56"/>
<path d="M886.242 222.712H685.443V224.877H886.242V222.712Z" fill="white"/>
<path d="M866.301 245.441H665.502V247.606H866.301V245.441Z" fill="white"/>
<path d="M936.082 183.976H903.352V313.104H936.082V183.976Z" fill="#3F3D56"/>
<path d="M957.952 515.938H778.277V367.112C778.287 332.697 789.049 299.411 808.634 273.22L878.186 180.27L957.952 288.514V515.938Z" fill="#3F3D56"/>
<path d="M899.131 404.017H862.631V440.793H899.131V404.017Z" fill="white"/>
<path d="M899.131 340.361H862.631V376.554H899.131V340.361Z" fill="white"/>
<path d="M724.783 394.258H688.283V431.034H724.783V394.258Z" fill="white"/>
<path d="M724.783 330.604H688.283V366.796H724.783V330.604Z" fill="white"/>
<path d="M674.305 113.134H634.586V269.863H674.305V113.134Z" fill="#3F3D56"/>
<path d="M700.248 243.786L700.249 515.437H293.945V243.415V243.162L293.74 243.012L292.374 242.009L292.432 241.946L292.432 241.946L366.827 159.344L366.827 159.343C394.538 128.467 431.653 111.049 470.371 110.724L470.372 110.724L603.9 109.334L700.512 240.348L700.249 243.748L700.248 243.767V243.786Z" fill="#3F3D56"/>
<path d="M700.248 243.786L700.249 515.437H293.945V243.415V243.162L293.74 243.012L292.374 242.009L292.432 241.946L292.432 241.946L366.827 159.344L366.827 159.343C394.538 128.467 431.653 111.049 470.371 110.724L470.372 110.724L603.9 109.334L700.512 240.348L700.249 243.748L700.248 243.767V243.786Z" stroke="black"/>
<path d="M700.248 243.786L700.249 515.437H293.945V243.415V243.162L293.74 243.012L292.374 242.009L292.432 241.946L292.432 241.946L366.827 159.344L366.827 159.343C394.538 128.467 431.653 111.049 470.371 110.724L470.372 110.724L603.9 109.334L700.512 240.348L700.249 243.748L700.248 243.767V243.786Z" stroke="black" stroke-opacity="0.2"/>
<path d="M700.751 515.937H482.873V315.829C482.881 286.727 491.982 258.58 508.543 236.433L604.036 108.814L700.751 240.057V515.937Z" fill="#3F3D56"/>
<path d="M628.83 380.208H593.598V415.707H628.83V380.208Z" fill="white"/>
<path d="M628.83 318.513H593.598V354.012H628.83V318.513Z" fill="white"/>
<path d="M417.847 368.362H373.545V412.999H417.847V368.362Z" fill="white"/>
<path d="M417.847 291.103H373.545V335.031H417.847V291.103Z" fill="white"/>
<path d="M1129 514.293H248V516.766H1129V514.293Z" fill="#3F3D56"/>
<path d="M344.312 321.78L303.107 346.904L303.976 348.755L345.181 323.631L344.312 321.78Z" fill="#3F3D56"/>
<path d="M876.421 130.374L886.409 121.267C878.649 120.293 875.461 125.115 874.16 128.933C868.098 126.064 861.498 129.824 861.498 129.824L881.483 138.095C880.475 135.025 878.72 132.346 876.424 130.373L876.421 130.374Z" fill="#3F3D56"/>
<path d="M695.921 60.2343L705.909 51.1272C698.15 50.153 694.961 54.975 693.66 58.7937C687.598 55.9243 680.998 59.6845 680.998 59.6845L700.983 67.955C699.974 64.8851 698.218 62.2069 695.921 60.2343V60.2343Z" fill="#3F3D56"/>
<path d="M522.723 499.985C520.067 499.985 517.458 500.783 515.159 502.299C512.824 499.894 509.927 498.313 506.82 497.747C503.713 497.182 500.528 497.657 497.653 499.114C494.778 500.572 492.335 502.949 490.622 505.958C488.909 508.967 487.999 512.478 488.002 516.065H537.859C537.587 511.7 535.875 507.614 533.066 504.631C530.258 501.648 526.562 499.988 522.724 499.986L522.723 499.985Z" fill="#3F3D56"/>
<path d="M782.047 499.985C779.391 499.985 776.782 500.783 774.483 502.299C772.148 499.894 769.252 498.313 766.144 497.747C763.037 497.182 759.852 497.657 756.977 499.114C754.102 500.572 751.659 502.949 749.946 505.958C748.233 508.967 747.323 512.478 747.326 516.065H797.183C796.912 511.7 795.199 507.614 792.391 504.63C789.582 501.646 785.886 499.987 782.047 499.985V499.985Z" fill="#3F3D56"/>
<path d="M643.153 458.572C645.942 458.572 648.203 455.995 648.203 452.816C648.203 449.637 645.942 447.06 643.153 447.06C640.364 447.06 638.104 449.637 638.104 452.816C638.104 455.995 640.364 458.572 643.153 458.572Z" fill="#A0616A"/>
<path d="M629.202 195.764L620.687 173.244L603.594 173.591L593.225 196.043L593.434 196.342H593.359V243.04H629.179V196.342L629.202 195.764Z" fill="#3F3D56"/>
<path d="M895.418 252.132L888.536 235.671L874.723 235.925L866.344 252.335L866.513 252.554H866.453V286.688H895.399V252.554L895.418 252.132Z" fill="#3F3D56"/>
<path d="M562.998 163.41H362.199V165.575H562.998V163.41Z" fill="white"/>
<path d="M543.057 186.14H342.258V188.304H543.057V186.14Z" fill="white"/>
<path d="M936.082 190.243H903.352V192.408H936.082V190.243Z" fill="white"/>
<path d="M936.082 212.973H903.352V215.137H936.082V212.973Z" fill="white"/>
<path d="M674.305 120.971H634.586V123.135H674.305V120.971Z" fill="white"/>
<path d="M674.305 143.7H634.586V145.865H674.305V143.7Z" fill="white"/>
</g>
<defs>
<clipPath id="clip0_436_2546">
<rect width="881" height="466" fill="white" transform="translate(248 51)"/>
</clipPath>
</defs>
</svg>
