<svg width="658" height="424" viewBox="0 0 658 424" fill="none" xmlns="http://www.w3.org/2000/svg">
    <g clip-path="url(#clip0_397_2589)">
        <path d="M638.515 421.314C647.318 419.105 658.031 409.919 655.738 397.292C654.6 391.03 650.234 386.976 645.707 384.355C639.445 380.73 632.314 379.363 625.441 379.018C617.514 378.62 609.596 379.624 601.728 380.686C593.961 381.734 586.193 382.672 578.391 383.245C547.862 385.469 517.147 383.351 487.306 376.962C479.941 375.384 472.621 373.531 465.344 371.406C458.449 369.521 451.707 367.18 445.171 364.402C436.52 360.544 422.451 353.036 423.598 339.131C424.206 331.759 428.88 325.871 433.594 321.768C439.295 316.808 445.891 313.544 452.351 310.375C482.401 295.634 512.51 281.067 542.589 266.415C549.609 262.995 556.676 259.667 563.489 255.659C569.868 251.907 576.216 247.549 581.35 241.522C585.833 236.259 589.84 229.193 589.698 221.294C589.581 214.743 586.372 209.184 582.442 205.03C572.711 194.744 558.946 190.574 546.505 188.389C531.048 185.675 515.368 185.689 499.901 183.068C487.413 180.952 474.069 176.867 463.912 167.295C459.616 163.401 456.577 158.469 455.139 153.056C453.842 147.386 454.473 141.482 456.943 136.159C459.694 130.055 464.083 125.192 468.698 121.21C473.999 116.7 480.011 112.969 486.526 110.146C500.243 104.074 514.668 100.912 528.719 96.2527C535.61 93.9674 542.57 91.4615 548.969 87.5362C554.39 84.2106 560.295 79.728 563.311 73.0621C569.534 59.3086 554.689 51.1117 546.277 48.0068C540.559 45.9924 534.67 44.4264 528.671 43.3251C527.403 43.0721 527.941 40.7202 529.204 40.972C535.518 42.1155 541.707 43.7941 547.692 45.9866C552.764 47.9444 557.998 50.5173 561.982 54.9447C563.797 56.9437 565.138 59.2747 565.919 61.7864C566.701 64.2982 566.905 66.9345 566.518 69.5242C565.463 76.1233 560.875 81.208 556.567 84.891C550.869 89.7614 544.373 92.9421 537.786 95.5348C530.849 98.2654 523.765 100.394 516.683 102.481C502.533 106.652 487.747 110.369 474.973 119.245C466.037 125.454 453.897 137.095 456.87 151.525C458.189 157.931 462.196 162.939 466.52 166.622C471.598 170.82 477.454 174.128 483.803 176.384C512.111 186.967 543.266 179.399 570.844 193.772C580.221 198.659 591.611 207.557 591.702 221.557C591.75 228.83 588.611 235.5 584.732 240.772C580.085 247.087 574.067 251.756 567.945 255.659C561.498 259.618 554.804 263.218 547.898 266.44C540.354 270.121 532.809 273.797 525.262 277.468L479.461 299.779L456.704 310.865C449.759 314.248 442.635 317.493 436.321 322.46C431.15 326.526 425.041 333.198 425.569 341.482C425.988 348.061 430.693 352.809 434.992 355.983C440.559 360.093 446.813 362.752 453.035 364.961C460.212 367.509 467.507 369.623 474.816 371.523C489.788 375.41 505.068 378.189 520.513 379.832C535.919 381.48 551.44 382.017 566.936 381.439C574.765 381.146 582.582 380.565 590.387 379.694C598.433 378.794 606.444 377.407 614.51 376.792C621.806 376.235 629.172 376.364 636.357 378.153C642.357 379.646 648.695 382.308 653.249 387.503C656.605 391.468 658.286 396.436 657.975 401.472C657.667 406.498 655.738 411.322 652.439 415.316C649.088 419.395 644.38 422.331 639.047 423.667C637.789 423.982 637.251 421.631 638.514 421.314L638.515 421.314Z" fill="#E6E6E6" />
        <path d="M412.238 422.428L640.968 422.428V423.897L412.238 423.897V422.428Z" fill="#3F3D56" />
        <path d="M429.858 353.215C421.605 353.215 414.915 347 414.915 339.334C414.915 331.668 421.605 325.454 429.858 325.454C438.11 325.454 444.8 331.668 444.8 339.334C444.8 347 438.11 353.215 429.858 353.215Z" fill="#E6E6E6" />
        <path d="M584.884 227.741C576.632 227.741 569.942 221.527 569.942 213.861C569.942 206.195 576.632 199.98 584.884 199.98C593.136 199.98 599.826 206.195 599.826 213.861C599.826 221.527 593.136 227.741 584.884 227.741Z" fill="#E6E6E6" />
        <path d="M557.071 367.291C557.071 367.291 569.988 383.547 572.904 386.256C575.821 388.966 576.654 399.029 576.654 399.029L571.654 409.866L574.571 415.284L597.07 394.384L572.904 361.099L557.071 367.291Z" fill="#FFB8B8" />
        <path d="M502.073 267.821C502.073 267.821 548.825 400.154 553.825 403.25C558.825 406.346 583.448 386.912 590.531 382.267C597.614 377.623 537.072 289.266 537.072 289.266C546.655 260.238 542.072 253.501 542.072 253.501L502.073 267.821Z" fill="#2F2E41" />
        <path d="M575.404 412.188C575.404 412.188 575.404 407.543 573.795 405.226C572.186 402.908 569.155 413.349 569.155 413.349C569.155 413.349 550.822 417.993 559.155 423.025C567.488 428.056 592.071 412.188 599.154 407.93C606.237 403.673 603.737 398.641 599.987 395.158L592.695 388.385L575.404 412.188Z" fill="#2F2E41" />
        <path d="M487.074 375.806C487.074 375.806 483.324 385.869 479.991 395.545C476.657 405.221 460.825 410.252 460.825 410.252L457.908 417.219L466.658 421.089L492.074 415.284C492.074 415.284 491.24 407.543 491.24 404.834C491.24 402.124 504.573 379.289 504.573 379.289L487.074 375.806Z" fill="#FFB8B8" />
        <path d="M519.989 152.097C510.325 152.097 502.49 144.819 502.49 135.842C502.49 126.864 510.325 119.586 519.989 119.586C529.654 119.586 537.489 126.864 537.489 135.842C537.489 144.819 529.654 152.097 519.989 152.097Z" fill="#FFB8B8" />
        <path d="M529.573 144.356C529.573 146.679 542.072 164.483 542.072 164.483L523.761 172.074L515.406 149.775L529.573 144.356Z" fill="#FFB8B8" />
        <path d="M512.906 229.117C509.469 229.101 506.161 230.338 503.693 232.561C501.226 234.785 499.795 237.818 499.708 241.011L499.157 261.242L496.24 265.886C496.24 265.886 478.295 390.2 478.295 394.07C478.295 397.94 496.114 408.614 506.531 407.84C511.683 407.457 523.237 363.481 527.821 339.405C531.085 322.265 534.269 303.613 537.468 289.843C538.536 284.878 539.934 279.979 541.656 275.175C550.822 251.566 534.989 229.117 534.989 229.117H512.906V229.117Z" fill="#2F2E41" />
        <path d="M464.366 415.478C464.366 415.478 462.075 416.058 464.575 415.284C467.075 414.51 466.241 410.253 466.138 408.089C466.036 405.925 441.659 412.962 441.659 418.381C441.659 423.799 472.908 423.799 482.074 423.025C491.241 422.251 493.324 423.025 494.574 417.606C495.824 412.188 491.032 404.641 491.032 404.641L464.366 415.478Z" fill="#2F2E41" />
        <path d="M533.335 239.905C530.076 239.905 523.068 232.13 519.4 235.537C516.733 238.015 514.469 240.395 512.472 242.495C506.74 248.524 501.728 254.049 498.245 250.085C497.719 249.485 499.489 250.869 498.013 249.937C497.401 249.549 496.934 248.995 496.676 248.35C496.418 247.705 496.382 247.002 496.574 246.337C501.627 231.631 504.774 217.543 500.756 205.775C500.457 204.841 500.315 203.87 500.333 202.896C500.333 202.753 500.326 202.611 500.312 202.468C500.099 200.296 500.153 192.519 509.746 183.607C518.513 175.463 520.196 170.458 520.417 168.2C520.469 167.674 534.603 154.052 534.603 154.052C535.343 153.764 536.166 153.716 536.939 153.918C537.712 154.119 538.388 154.558 538.858 155.162L543.385 160.944C548.307 169.995 550.454 180.129 549.594 190.237C548.368 203.358 546.24 229.305 544.493 238.665C544.348 239.518 543.861 240.288 543.13 240.822C542.626 241.184 542.025 241.413 541.393 241.482C540.76 241.552 540.118 241.46 539.537 241.217C537.593 240.376 535.479 239.929 533.335 239.905Z" fill="#536DFE" />
        <path d="M515.79 136.462L518.931 133.378C518.67 149.617 502.177 158.677 502.177 158.677L539.001 155.267L539.932 150.959L541.856 154.507L546.351 153.449L547.645 150.823L550.419 152.225L544.726 131.343C539.104 111.423 521.96 114.345 521.96 114.345C497.955 107.37 500.897 128.639 500.897 128.639L515.79 136.462Z" fill="#2F2E41" />
        <path opacity="0.2" d="M529.815 344.671L536.493 289.804L528.282 340.629L529.815 344.671Z" fill="black" />
        <path d="M541.701 123.154C536.587 123.154 532.442 119.303 532.442 114.552C532.442 109.802 536.587 105.951 541.701 105.951C546.815 105.951 550.96 109.802 550.96 114.552C550.96 119.303 546.815 123.154 541.701 123.154Z" fill="#2F2E41" />
        <path d="M540.231 121.521C540.038 121.52 539.846 121.525 539.651 121.513L539.632 121.512C537.182 121.362 534.897 120.315 533.278 118.6C531.66 116.886 530.84 114.644 531 112.369C531.16 110.093 532.287 107.969 534.132 106.465C535.977 104.961 538.39 104.199 540.839 104.346C541.034 104.358 541.224 104.385 541.415 104.408C539.061 104.401 536.792 105.23 535.072 106.724C533.353 108.217 532.311 110.264 532.16 112.447C532.009 114.63 532.76 116.783 534.259 118.47C535.759 120.156 537.895 121.247 540.231 121.521V121.521Z" fill="#2F2E41" />
        <path d="M518.553 140.894C516.955 140.894 515.659 139.21 515.659 137.131C515.659 135.053 516.955 133.368 518.553 133.368C520.151 133.368 521.446 135.053 521.446 137.131C521.446 139.21 520.151 140.894 518.553 140.894Z" fill="#FFB8B8" />
        <path d="M483.898 261.928L472.002 269.748C470.967 270.429 470.111 271.319 469.498 272.351C468.886 273.383 468.533 274.53 468.466 275.707C468.399 276.884 468.62 278.059 469.112 279.145C469.604 280.231 470.355 281.2 471.307 281.978C472.225 282.728 473.307 283.282 474.479 283.603C475.651 283.924 476.884 284.004 478.092 283.837C479.301 283.67 480.455 283.26 481.476 282.636C482.496 282.012 483.357 281.188 484 280.223L490.883 269.884L515.107 235.879L505.07 229.019L483.898 261.928Z" fill="#FEB8B8" />
        <path opacity="0.2" d="M503.001 231.453C502.953 237.479 509.365 242.713 518.422 243.47L539.197 202.465C541.378 198.161 542.194 193.369 541.552 188.65C540.909 183.931 538.834 179.479 535.569 175.815L514.596 199.491C513.945 209.782 509.218 220.45 503.001 231.453Z" fill="black" />
        <path d="M503.001 228.83C502.953 234.856 506.542 238.778 515.598 239.535L536.373 198.53C538.554 194.226 539.371 189.435 538.728 184.716C538.086 179.997 536.01 175.545 532.745 171.881L511.773 195.556C511.121 205.848 509.218 217.827 503.001 228.83Z" fill="#536DFE" />
        <path d="M412.985 150.705H390.459C388.72 150.778 387.04 151.313 385.618 152.246C384.196 153.18 383.093 154.473 382.44 155.972L377.332 169.637L373.245 180.219L367.524 195.545C366.927 197.374 366.122 199.14 365.124 200.811C364.089 199.134 363.266 197.35 362.672 195.497L357.206 180.266C356.134 177.324 354.346 172.579 353.222 169.637L348.114 155.972C347.457 154.466 346.346 153.168 344.915 152.234C343.483 151.3 341.792 150.769 340.044 150.705H253.413C252.621 150.705 251.837 150.85 251.106 151.131C250.375 151.413 249.71 151.825 249.151 152.345C248.591 152.865 248.147 153.482 247.844 154.162C247.541 154.841 247.385 155.569 247.385 156.304V188.237C247.385 189.735 246.745 191.171 245.605 192.23C244.465 193.289 242.919 193.884 241.307 193.884H216.176C214.568 193.871 213.029 193.273 211.892 192.216C210.755 191.16 210.111 189.731 210.097 188.237V156.304C210.099 154.859 209.499 153.47 208.423 152.427C207.347 151.383 205.879 150.766 204.325 150.705H183.383C181.779 150.705 180.241 151.294 179.103 152.342C177.964 153.391 177.318 154.815 177.304 156.304V171.061C188.44 184.252 188.44 208.261 177.304 244.037V261.072C177.318 262.561 177.964 263.985 179.103 265.034C180.241 266.082 181.779 266.671 183.383 266.671H204.325C205.117 266.671 205.901 266.526 206.632 266.244C207.363 265.963 208.028 265.551 208.587 265.031C209.147 264.511 209.591 263.894 209.894 263.214C210.197 262.535 210.353 261.807 210.353 261.072V226.244C210.351 224.787 210.956 223.385 212.042 222.333C213.127 221.281 214.608 220.659 216.176 220.598H241.307C242.905 220.585 244.444 221.163 245.584 222.204C246.724 223.245 247.372 224.664 247.385 226.149L247.385 226.197L247.385 261.024C247.385 262.509 248.02 263.933 249.151 264.983C250.281 266.033 251.814 266.623 253.413 266.623H324.056C325.654 266.623 327.187 266.033 328.318 264.983C329.448 263.933 330.083 262.509 330.083 261.024V246.6C330.083 245.115 329.448 243.691 328.318 242.641C327.187 241.591 325.654 241.001 324.056 241.001H286.563C284.96 240.988 283.427 240.388 282.298 239.33C281.169 238.273 280.536 236.844 280.536 235.354V225.864C280.536 224.375 281.169 222.946 282.298 221.889C283.427 220.831 284.96 220.231 286.563 220.218H309.192C310.79 220.218 312.323 219.628 313.454 218.578C314.584 217.528 315.219 216.104 315.219 214.619V200.195C315.219 198.71 314.584 197.285 313.454 196.235C312.323 195.185 310.79 194.596 309.192 194.596H286.563C284.96 194.583 283.427 193.983 282.298 192.925C281.169 191.868 280.536 190.438 280.536 188.949V182.022C280.522 180.537 281.144 179.108 282.265 178.049C283.386 176.99 284.914 176.388 286.512 176.375L286.563 176.375H317.211C318.991 176.464 320.714 176.984 322.211 177.883C323.707 178.782 324.924 180.029 325.741 181.5L345.611 221.594C347.169 224.991 348.035 228.627 348.165 232.318V261.072C348.165 262.557 348.8 263.981 349.931 265.031C351.061 266.081 352.594 266.671 354.193 266.671H375.135C376.734 266.683 378.272 266.105 379.412 265.064C380.552 264.023 381.2 262.604 381.214 261.119L381.214 261.072V232.318C381.351 228.633 382.199 225.001 383.717 221.594L416.51 155.782C416.879 155.246 417.075 154.623 417.073 153.986C417.072 153.35 416.874 152.727 416.503 152.192C416.131 151.657 415.603 151.233 414.979 150.969C414.355 150.706 413.663 150.614 412.985 150.705V150.705Z" fill="url(#paint0_linear_397_2589)" />
        <path d="M148.139 170.444C140.114 172.463 132.836 176.483 127.094 182.069C120.403 160.242 105.998 127.218 91.9516 121.809C90.4669 121.168 88.8381 120.868 87.2025 120.934C85.5668 121 83.9722 121.43 82.553 122.188C73.7673 126.933 68.0464 142.212 73.0522 171.156C53.7441 138.321 47.0016 138.368 43.8858 138.321C42.389 138.34 40.9317 138.769 39.696 139.554C38.4604 140.339 37.5014 141.445 36.9389 142.734C34.8447 147.052 30.6562 160.527 40.8721 189.518C28.5619 173.86 24.782 171.867 20.4403 172.057C19.0509 172.133 17.7096 172.557 16.5585 173.284C15.4075 174.011 14.4896 175.013 13.9021 176.185C10.2244 182.638 10.633 198.866 22.0749 223.065C18.1559 219.853 13.1939 217.949 7.97688 217.656C6.5719 217.747 5.214 218.164 4.02725 218.869C2.84049 219.573 1.86273 220.543 1.1833 221.689C-3.46496 229.613 6.29125 251.867 18.346 266.955C28.1022 279.339 47.6657 298.367 76.0659 298.367C80.0424 298.361 84.0096 298.012 87.9163 297.323C89.275 297.099 90.4826 296.384 91.2737 295.333C92.0647 294.283 92.3744 292.984 92.1347 291.722C91.8951 290.459 91.1256 289.337 89.9955 288.602C88.8654 287.866 87.4671 287.578 86.1081 287.8C86.0466 287.81 85.9853 287.821 85.9242 287.833C62.3255 292.103 44.5498 280.051 33.772 269.233C17.682 253.053 10.633 233.599 10.2243 227.667C13.5956 228.949 23.3007 234.263 42.2002 256.754C42.9995 257.792 44.2099 258.493 45.5654 258.702C46.9209 258.911 48.3103 258.611 49.4279 257.869C50.5456 257.126 51.2999 256.002 51.525 254.743C51.7501 253.484 51.4276 252.193 50.6283 251.155C24.0669 213.717 21.4619 191.037 22.3302 183.398C30.1454 190.8 49.6578 217.94 64.3687 238.438C65.1082 239.477 66.2513 240.21 67.559 240.484C68.8667 240.758 70.2377 240.551 71.3855 239.908C72.5332 239.265 73.3688 238.234 73.7175 237.032C74.0662 235.829 73.901 234.548 73.2565 233.456C42.6088 181.262 43.6814 157.538 45.4692 149.566C50.0664 153.884 62.2744 168.926 87.9674 220.74C88.5407 221.86 89.5552 222.732 90.8012 223.177C92.0473 223.621 93.4296 223.604 94.6625 223.129C95.8954 222.654 96.8847 221.757 97.4259 220.624C97.9671 219.49 98.0188 218.207 97.5703 217.039C72.6435 154.169 83.4724 132.864 87.6098 130.444C92.9731 130.444 108.042 154.454 117.44 185.912C118.002 187.858 118.564 189.756 119.075 191.606C117.756 193.759 116.727 196.053 116.01 198.439C110.902 215.853 105.794 255.378 115.652 266.244C116.633 267.382 117.902 268.276 119.346 268.848C120.79 269.419 122.364 269.649 123.927 269.518C125.907 269.318 127.813 268.712 129.509 267.743C131.205 266.775 132.649 265.469 133.735 263.919C142.878 251.534 137.514 220.455 130.21 193.267C135.186 186.729 142.381 181.934 150.642 179.649C152.407 179.134 154.29 179.073 156.089 179.474C157.889 179.876 159.537 180.723 160.858 181.927C165.046 186.292 172.351 202.614 150.182 260.17C149.954 260.768 149.855 261.402 149.891 262.036C149.927 262.67 150.096 263.291 150.39 263.864C150.984 265.02 152.049 265.911 153.349 266.338C154.65 266.766 156.08 266.697 157.325 266.145C158.571 265.593 159.529 264.605 159.99 263.397C177.663 217.513 180.421 187.953 168.622 175.521C166.054 172.988 162.777 171.171 159.158 170.274C155.54 169.377 151.724 169.436 148.139 170.444ZM125.153 258.557C124.771 259.194 124.155 259.683 123.417 259.933C119.586 255.71 119.586 230.704 123.774 210.206C131.691 245.651 127.094 256.042 125.153 258.557V258.557Z" fill="url(#paint1_linear_397_2589)" />
        <path d="M490.902 0.580188L532.392 17.3348C534.224 18.0771 535.665 19.4643 536.397 21.192C537.13 22.9197 537.095 24.8469 536.3 26.5507L523.417 54.0799C522.618 55.7821 521.125 57.1204 519.265 57.8011C517.405 58.4818 515.33 58.4494 513.496 57.711L472.006 40.9564C470.174 40.2141 468.733 38.8269 468 37.0992C467.267 35.3715 467.302 33.4443 468.097 31.7404L480.981 4.21122C481.78 2.50903 483.273 1.17077 485.133 0.490059C486.993 -0.190655 489.067 -0.158241 490.902 0.580188ZM489.184 4.25075C488.936 4.15163 488.675 4.08193 488.408 4.0433L502.436 28.6275L531.246 21.3037C531.067 21.1865 530.875 21.0866 530.674 21.0054L489.184 4.25075ZM473.724 37.2858L515.214 54.0404C516 54.3569 516.889 54.3708 517.686 54.079C518.483 53.7873 519.123 53.2138 519.466 52.4842L532.233 25.2023L501.909 32.9111C501.436 33.0311 500.934 32.9981 500.485 32.8176C500.036 32.6371 499.666 32.3198 499.436 31.918L484.755 6.18605L472.049 33.3361C471.708 34.0663 471.693 34.8923 472.007 35.6327C472.321 36.3732 472.939 36.9677 473.724 37.2858H473.724Z" fill="#E6E6E6" />
    </g>
    <defs>
        <linearGradient id="paint0_linear_397_2589" x1="-9.71606" y1="208.673" x2="419.711" y2="208.673" gradientUnits="userSpaceOnUse">
            <stop stop-color="#2D6DD0" />
            <stop offset="0.99" stop-color="#6C139C" />
        </linearGradient>
        <linearGradient id="paint1_linear_397_2589" x1="-9.66583" y1="209.646" x2="419.74" y2="209.646" gradientUnits="userSpaceOnUse">
            <stop stop-color="#2D6DD0" />
            <stop offset="0.99" stop-color="#6C139C" />
        </linearGradient>
        <clipPath id="clip0_397_2589">
            <rect width="658" height="424" fill="white" transform="matrix(-1 0 0 1 658 0)" />
        </clipPath>
    </defs>
</svg>