<svg width="977" height="686" viewBox="0 0 977 686" fill="none" xmlns="http://www.w3.org/2000/svg">
<path d="M518.352 301C518.538 301 518.723 300.996 518.91 300.987C521.091 300.894 523.221 300.185 525.118 298.919C527.015 297.654 528.623 295.87 529.806 293.718C538.666 278.187 549.539 264.373 562.032 252.775C569.595 245.685 577.498 239.093 585.14 232.717C604.857 216.274 623.425 200.788 633.732 179.389C656.204 132.729 629.739 67.7384 591.932 38.5923C549.526 5.90327 493.748 0.77573 439.789 0.103761C434.181 0.0342062 428.57 -0.000362368 422.955 2.86387e-06C325.732 0.0437266 228.713 10.4486 133.096 31.0862C101.301 37.9664 68.0192 46.3949 41.2745 66.8494C14.6885 87.1829 -1.47071 119.203 0.105723 148.427C2.40743 191.09 40.9663 222.968 76.0776 231.302C109.544 239.24 144.311 233.876 181.117 228.195C189.243 226.942 197.644 225.645 205.952 224.518C296.245 212.277 465.867 250.007 473.043 251.62L480.162 253.218L507.786 294.913C509.029 296.813 510.629 298.351 512.462 299.407C514.294 300.463 516.31 301.008 518.352 301Z" fill="white"/>
<path d="M98.1136 86V68.5455H100.227V76.3182H109.534V68.5455H111.648V86H109.534V78.1932H100.227V86H98.1136ZM119.459 86.3068C118.629 86.3068 117.876 86.1506 117.2 85.8381C116.524 85.5199 115.987 85.0625 115.589 84.4659C115.192 83.8636 114.993 83.1364 114.993 82.2841C114.993 81.5341 115.141 80.9261 115.436 80.4602C115.732 79.9886 116.126 79.6193 116.621 79.3523C117.115 79.0852 117.661 78.8864 118.257 78.7557C118.859 78.6193 119.464 78.5114 120.072 78.4318C120.868 78.3295 121.513 78.2528 122.007 78.2017C122.507 78.1449 122.871 78.0511 123.098 77.9205C123.331 77.7898 123.447 77.5625 123.447 77.2386V77.1705C123.447 76.3295 123.217 75.6761 122.757 75.2102C122.303 74.7443 121.612 74.5114 120.686 74.5114C119.726 74.5114 118.973 74.7216 118.428 75.142C117.882 75.5625 117.499 76.0114 117.277 76.4886L115.368 75.8068C115.709 75.0114 116.163 74.392 116.732 73.9489C117.305 73.5 117.93 73.1875 118.607 73.0114C119.288 72.8295 119.959 72.7386 120.618 72.7386C121.038 72.7386 121.521 72.7898 122.067 72.892C122.618 72.9886 123.149 73.1903 123.661 73.4972C124.178 73.804 124.607 74.267 124.947 74.8864C125.288 75.5057 125.459 76.3352 125.459 77.375V86H123.447V84.2273H123.345C123.209 84.5114 122.982 84.8153 122.663 85.1392C122.345 85.4631 121.922 85.7386 121.393 85.9659C120.865 86.1932 120.22 86.3068 119.459 86.3068ZM119.766 84.5C120.561 84.5 121.232 84.3438 121.777 84.0312C122.328 83.7188 122.743 83.3153 123.021 82.821C123.305 82.3267 123.447 81.8068 123.447 81.2614V79.4205C123.362 79.5227 123.175 79.6165 122.885 79.7017C122.601 79.7812 122.271 79.8523 121.896 79.9148C121.527 79.9716 121.166 80.0227 120.814 80.0682C120.467 80.108 120.186 80.142 119.97 80.1705C119.447 80.2386 118.959 80.3494 118.504 80.5028C118.055 80.6506 117.692 80.875 117.413 81.1761C117.141 81.4716 117.004 81.875 117.004 82.3864C117.004 83.0852 117.263 83.6136 117.78 83.9716C118.303 84.3239 118.964 84.5 119.766 84.5ZM131.141 68.5455V86H129.13V68.5455H131.141ZM136.837 68.5455V86H134.825V68.5455H136.837ZM145.839 86.2727C144.657 86.2727 143.62 85.9915 142.728 85.429C141.842 84.8665 141.148 84.0795 140.648 83.0682C140.154 82.0568 139.907 80.875 139.907 79.5227C139.907 78.1591 140.154 76.9687 140.648 75.9517C141.148 74.9347 141.842 74.1449 142.728 73.5824C143.62 73.0199 144.657 72.7386 145.839 72.7386C147.021 72.7386 148.055 73.0199 148.941 73.5824C149.833 74.1449 150.526 74.9347 151.021 75.9517C151.521 76.9687 151.771 78.1591 151.771 79.5227C151.771 80.875 151.521 82.0568 151.021 83.0682C150.526 84.0795 149.833 84.8665 148.941 85.429C148.055 85.9915 147.021 86.2727 145.839 86.2727ZM145.839 84.4659C146.737 84.4659 147.475 84.2358 148.055 83.7756C148.634 83.3153 149.063 82.7102 149.342 81.9602C149.62 81.2102 149.759 80.3977 149.759 79.5227C149.759 78.6477 149.62 77.8324 149.342 77.0767C149.063 76.321 148.634 75.7102 148.055 75.2443C147.475 74.7784 146.737 74.5455 145.839 74.5455C144.941 74.5455 144.202 74.7784 143.623 75.2443C143.043 75.7102 142.614 76.321 142.336 77.0767C142.058 77.8324 141.918 78.6477 141.918 79.5227C141.918 80.3977 142.058 81.2102 142.336 81.9602C142.614 82.7102 143.043 83.3153 143.623 83.7756C144.202 84.2358 144.941 84.4659 145.839 84.4659ZM143.384 70.7273C143.026 70.7273 142.708 70.5909 142.43 70.3182C142.157 70.0398 142.021 69.7216 142.021 69.3636C142.021 68.9716 142.157 68.6477 142.43 68.392C142.708 68.1307 143.026 68 143.384 68C143.776 68 144.1 68.1307 144.356 68.392C144.617 68.6477 144.748 68.9716 144.748 69.3636C144.748 69.7216 144.617 70.0398 144.356 70.3182C144.1 70.5909 143.776 70.7273 143.384 70.7273ZM148.293 70.7273C147.935 70.7273 147.617 70.5909 147.339 70.3182C147.066 70.0398 146.93 69.7216 146.93 69.3636C146.93 68.9716 147.066 68.6477 147.339 68.392C147.617 68.1307 147.935 68 148.293 68C148.685 68 149.009 68.1307 149.265 68.392C149.526 68.6477 149.657 68.9716 149.657 69.3636C149.657 69.7216 149.526 70.0398 149.265 70.3182C149.009 70.5909 148.685 70.7273 148.293 70.7273ZM160.159 86.2727C158.932 86.2727 157.875 85.983 156.989 85.4034C156.102 84.8239 155.42 84.0256 154.943 83.0085C154.466 81.9915 154.227 80.8295 154.227 79.5227C154.227 78.1932 154.472 77.0199 154.96 76.0028C155.455 74.9801 156.142 74.1818 157.023 73.608C157.909 73.0284 158.943 72.7386 160.125 72.7386C161.045 72.7386 161.875 72.9091 162.614 73.25C163.352 73.5909 163.957 74.0682 164.429 74.6818C164.901 75.2955 165.193 76.0114 165.307 76.8295H163.295C163.142 76.233 162.801 75.7045 162.273 75.2443C161.75 74.7784 161.045 74.5455 160.159 74.5455C159.375 74.5455 158.688 74.75 158.097 75.1591C157.511 75.5625 157.054 76.1335 156.724 76.8722C156.401 77.6051 156.239 78.4659 156.239 79.4545C156.239 80.4659 156.398 81.3466 156.716 82.0966C157.04 82.8466 157.494 83.429 158.08 83.8438C158.67 84.2585 159.364 84.4659 160.159 84.4659C160.682 84.4659 161.156 84.375 161.582 84.1932C162.009 84.0114 162.369 83.75 162.665 83.4091C162.96 83.0682 163.17 82.6591 163.295 82.1818H165.307C165.193 82.9545 164.912 83.6506 164.463 84.2699C164.02 84.8835 163.432 85.3722 162.699 85.7358C161.972 86.0938 161.125 86.2727 160.159 86.2727ZM170.259 78.125V86H168.247V68.5455H170.259V74.9545H170.429C170.736 74.2784 171.196 73.7415 171.81 73.3438C172.429 72.9403 173.253 72.7386 174.281 72.7386C175.173 72.7386 175.955 72.9176 176.625 73.2756C177.295 73.6278 177.815 74.1705 178.185 74.9034C178.56 75.6307 178.747 76.5568 178.747 77.6818V86H176.736V77.8182C176.736 76.7784 176.466 75.9744 175.926 75.4062C175.392 74.8324 174.651 74.5455 173.702 74.5455C173.043 74.5455 172.452 74.6847 171.929 74.9631C171.412 75.2415 171.003 75.6477 170.702 76.1818C170.406 76.7159 170.259 77.3636 170.259 78.125ZM187.915 86.2727C186.654 86.2727 185.566 85.9943 184.651 85.4375C183.742 84.875 183.04 84.0909 182.546 83.0852C182.058 82.0739 181.813 80.8977 181.813 79.5568C181.813 78.2159 182.058 77.0341 182.546 76.0114C183.04 74.983 183.728 74.1818 184.609 73.608C185.495 73.0284 186.529 72.7386 187.711 72.7386C188.393 72.7386 189.066 72.8523 189.731 73.0795C190.396 73.3068 191.001 73.6761 191.546 74.1875C192.092 74.6932 192.526 75.3636 192.85 76.1989C193.174 77.0341 193.336 78.0625 193.336 79.2841V80.1364H183.245V78.3977H191.29C191.29 77.6591 191.143 77 190.847 76.4205C190.558 75.8409 190.143 75.3835 189.603 75.0483C189.069 74.7131 188.438 74.5455 187.711 74.5455C186.91 74.5455 186.217 74.7443 185.631 75.142C185.052 75.5341 184.606 76.0455 184.293 76.6761C183.981 77.3068 183.825 77.983 183.825 78.7045V79.8636C183.825 80.8523 183.995 81.6903 184.336 82.3778C184.683 83.0597 185.163 83.5795 185.776 83.9375C186.39 84.2898 187.103 84.4659 187.915 84.4659C188.444 84.4659 188.921 84.392 189.347 84.2443C189.779 84.0909 190.151 83.8636 190.464 83.5625C190.776 83.2557 191.018 82.875 191.188 82.4205L193.131 82.9659C192.927 83.625 192.583 84.2045 192.1 84.7045C191.617 85.1989 191.021 85.5852 190.31 85.8636C189.6 86.1364 188.802 86.2727 187.915 86.2727ZM198.407 78.125V86H196.396V72.9091H198.339V74.9545H198.509C198.816 74.2898 199.282 73.7557 199.907 73.3523C200.532 72.9432 201.339 72.7386 202.327 72.7386C203.214 72.7386 203.989 72.9205 204.654 73.2841C205.319 73.642 205.836 74.1875 206.205 74.9205C206.575 75.6477 206.759 76.5682 206.759 77.6818V86H204.748V77.8182C204.748 76.7898 204.481 75.9886 203.947 75.4148C203.413 74.8352 202.68 74.5455 201.748 74.5455C201.106 74.5455 200.532 74.6847 200.026 74.9631C199.526 75.2415 199.131 75.6477 198.842 76.1818C198.552 76.7159 198.407 77.3636 198.407 78.125ZM213.094 68.5455L212.923 81.0909H210.946L210.776 68.5455H213.094ZM211.935 86.1364C211.514 86.1364 211.153 85.9858 210.852 85.6847C210.551 85.3835 210.401 85.0227 210.401 84.6023C210.401 84.1818 210.551 83.821 210.852 83.5199C211.153 83.2187 211.514 83.0682 211.935 83.0682C212.355 83.0682 212.716 83.2187 213.017 83.5199C213.318 83.821 213.469 84.1818 213.469 84.6023C213.469 84.8807 213.398 85.1364 213.256 85.3693C213.119 85.6023 212.935 85.7898 212.702 85.9318C212.474 86.0682 212.219 86.1364 211.935 86.1364ZM227.308 86L222.535 68.5455H224.683L228.33 82.7614H228.501L232.217 68.5455H234.603L238.319 82.7614H238.489L242.137 68.5455H244.285L239.512 86H237.33L233.478 72.0909H233.342L229.489 86H227.308ZM250.915 86.2727C249.654 86.2727 248.566 85.9943 247.651 85.4375C246.742 84.875 246.04 84.0909 245.546 83.0852C245.058 82.0739 244.813 80.8977 244.813 79.5568C244.813 78.2159 245.058 77.0341 245.546 76.0114C246.04 74.983 246.728 74.1818 247.609 73.608C248.495 73.0284 249.529 72.7386 250.711 72.7386C251.393 72.7386 252.066 72.8523 252.731 73.0795C253.396 73.3068 254.001 73.6761 254.546 74.1875C255.092 74.6932 255.526 75.3636 255.85 76.1989C256.174 77.0341 256.336 78.0625 256.336 79.2841V80.1364H246.245V78.3977H254.29C254.29 77.6591 254.143 77 253.847 76.4205C253.558 75.8409 253.143 75.3835 252.603 75.0483C252.069 74.7131 251.438 74.5455 250.711 74.5455C249.91 74.5455 249.217 74.7443 248.631 75.142C248.052 75.5341 247.606 76.0455 247.293 76.6761C246.981 77.3068 246.825 77.983 246.825 78.7045V79.8636C246.825 80.8523 246.995 81.6903 247.336 82.3778C247.683 83.0597 248.163 83.5795 248.776 83.9375C249.39 84.2898 250.103 84.4659 250.915 84.4659C251.444 84.4659 251.921 84.392 252.347 84.2443C252.779 84.0909 253.151 83.8636 253.464 83.5625C253.776 83.2557 254.018 82.875 254.188 82.4205L256.131 82.9659C255.927 83.625 255.583 84.2045 255.1 84.7045C254.617 85.1989 254.021 85.5852 253.31 85.8636C252.6 86.1364 251.802 86.2727 250.915 86.2727ZM261.407 78.125V86H259.396V72.9091H261.339V74.9545H261.509C261.816 74.2898 262.282 73.7557 262.907 73.3523C263.532 72.9432 264.339 72.7386 265.327 72.7386C266.214 72.7386 266.989 72.9205 267.654 73.2841C268.319 73.642 268.836 74.1875 269.205 74.9205C269.575 75.6477 269.759 76.5682 269.759 77.6818V86H267.748V77.8182C267.748 76.7898 267.481 75.9886 266.947 75.4148C266.413 74.8352 265.68 74.5455 264.748 74.5455C264.106 74.5455 263.532 74.6847 263.026 74.9631C262.526 75.2415 262.131 75.6477 261.842 76.1818C261.552 76.7159 261.407 77.3636 261.407 78.125ZM275.446 78.125V86H273.435V72.9091H275.378V74.9545H275.548C275.855 74.2898 276.321 73.7557 276.946 73.3523C277.571 72.9432 278.378 72.7386 279.366 72.7386C280.253 72.7386 281.028 72.9205 281.693 73.2841C282.358 73.642 282.875 74.1875 283.244 74.9205C283.614 75.6477 283.798 76.5682 283.798 77.6818V86H281.787V77.8182C281.787 76.7898 281.52 75.9886 280.986 75.4148C280.452 74.8352 279.719 74.5455 278.787 74.5455C278.145 74.5455 277.571 74.6847 277.065 74.9631C276.565 75.2415 276.17 75.6477 275.881 76.1818C275.591 76.7159 275.446 77.3636 275.446 78.125ZM299.167 86.2727C298.076 86.2727 297.113 85.9972 296.278 85.446C295.442 84.8892 294.789 84.1051 294.317 83.0938C293.846 82.0767 293.61 80.875 293.61 79.4886C293.61 78.1136 293.846 76.9205 294.317 75.9091C294.789 74.8977 295.445 74.1165 296.286 73.5653C297.127 73.0142 298.099 72.7386 299.201 72.7386C300.053 72.7386 300.727 72.8807 301.221 73.1648C301.721 73.4432 302.102 73.7614 302.363 74.1193C302.63 74.4716 302.837 74.7614 302.985 74.9886H303.156V68.5455H305.167V86H303.224V83.9886H302.985C302.837 84.2273 302.627 84.5284 302.354 84.892C302.082 85.25 301.692 85.571 301.187 85.8551C300.681 86.1335 300.008 86.2727 299.167 86.2727ZM299.44 84.4659C300.246 84.4659 300.928 84.2557 301.485 83.8352C302.042 83.4091 302.465 82.821 302.755 82.071C303.045 81.3153 303.19 80.4432 303.19 79.4545C303.19 78.4773 303.048 77.6222 302.763 76.8892C302.479 76.1506 302.059 75.5767 301.502 75.1676C300.945 74.7528 300.258 74.5455 299.44 74.5455C298.587 74.5455 297.877 74.7642 297.309 75.2017C296.746 75.6335 296.323 76.2216 296.039 76.9659C295.761 77.7045 295.621 78.5341 295.621 79.4545C295.621 80.3864 295.763 81.233 296.048 81.9943C296.337 82.75 296.763 83.3523 297.326 83.8011C297.894 84.2443 298.599 84.4659 299.44 84.4659ZM317.38 80.6477V72.9091H319.391V86H317.38V83.7841H317.244C316.937 84.4489 316.46 85.0142 315.812 85.4801C315.164 85.9403 314.346 86.1705 313.357 86.1705C312.539 86.1705 311.812 85.9915 311.175 85.6335C310.539 85.2699 310.039 84.7244 309.675 83.9972C309.312 83.2642 309.13 82.3409 309.13 81.2273V72.9091H311.141V81.0909C311.141 82.0455 311.408 82.8068 311.942 83.375C312.482 83.9432 313.17 84.2273 314.005 84.2273C314.505 84.2273 315.013 84.0994 315.531 83.8438C316.053 83.5881 316.491 83.196 316.843 82.6676C317.201 82.1392 317.38 81.4659 317.38 80.6477ZM331.837 78.125V86H329.825V72.9091H331.768V74.9545H331.939C332.246 74.2898 332.712 73.7557 333.337 73.3523C333.962 72.9432 334.768 72.7386 335.757 72.7386C336.643 72.7386 337.419 72.9205 338.084 73.2841C338.749 73.642 339.266 74.1875 339.635 74.9205C340.004 75.6477 340.189 76.5682 340.189 77.6818V86H338.178V77.8182C338.178 76.7898 337.911 75.9886 337.376 75.4148C336.842 74.8352 336.109 74.5455 335.178 74.5455C334.536 74.5455 333.962 74.6847 333.456 74.9631C332.956 75.2415 332.561 75.6477 332.271 76.1818C331.982 76.7159 331.837 77.3636 331.837 78.125ZM349.183 86.2727C348.001 86.2727 346.964 85.9915 346.072 85.429C345.185 84.8665 344.492 84.0795 343.992 83.0682C343.498 82.0568 343.251 80.875 343.251 79.5227C343.251 78.1591 343.498 76.9687 343.992 75.9517C344.492 74.9347 345.185 74.1449 346.072 73.5824C346.964 73.0199 348.001 72.7386 349.183 72.7386C350.364 72.7386 351.398 73.0199 352.285 73.5824C353.177 74.1449 353.87 74.9347 354.364 75.9517C354.864 76.9687 355.114 78.1591 355.114 79.5227C355.114 80.875 354.864 82.0568 354.364 83.0682C353.87 84.0795 353.177 84.8665 352.285 85.429C351.398 85.9915 350.364 86.2727 349.183 86.2727ZM349.183 84.4659C350.08 84.4659 350.819 84.2358 351.398 83.7756C351.978 83.3153 352.407 82.7102 352.685 81.9602C352.964 81.2102 353.103 80.3977 353.103 79.5227C353.103 78.6477 352.964 77.8324 352.685 77.0767C352.407 76.321 351.978 75.7102 351.398 75.2443C350.819 74.7784 350.08 74.5455 349.183 74.5455C348.285 74.5455 347.546 74.7784 346.967 75.2443C346.387 75.7102 345.958 76.321 345.68 77.0767C345.401 77.8324 345.262 78.6477 345.262 79.5227C345.262 80.3977 345.401 81.2102 345.68 81.9602C345.958 82.7102 346.387 83.3153 346.967 83.7756C347.546 84.2358 348.285 84.4659 349.183 84.4659ZM363.503 86.2727C362.276 86.2727 361.219 85.983 360.332 85.4034C359.446 84.8239 358.764 84.0256 358.287 83.0085C357.81 81.9915 357.571 80.8295 357.571 79.5227C357.571 78.1932 357.815 77.0199 358.304 76.0028C358.798 74.9801 359.486 74.1818 360.366 73.608C361.253 73.0284 362.287 72.7386 363.469 72.7386C364.389 72.7386 365.219 72.9091 365.957 73.25C366.696 73.5909 367.301 74.0682 367.773 74.6818C368.244 75.2955 368.537 76.0114 368.651 76.8295H366.639C366.486 76.233 366.145 75.7045 365.616 75.2443C365.094 74.7784 364.389 74.5455 363.503 74.5455C362.719 74.5455 362.031 74.75 361.44 75.1591C360.855 75.5625 360.398 76.1335 360.068 76.8722C359.744 77.6051 359.582 78.4659 359.582 79.4545C359.582 80.4659 359.741 81.3466 360.06 82.0966C360.384 82.8466 360.838 83.429 361.423 83.8438C362.014 84.2585 362.707 84.4659 363.503 84.4659C364.026 84.4659 364.5 84.375 364.926 84.1932C365.352 84.0114 365.713 83.75 366.009 83.4091C366.304 83.0682 366.514 82.6591 366.639 82.1818H368.651C368.537 82.9545 368.256 83.6506 367.807 84.2699C367.364 84.8835 366.776 85.3722 366.043 85.7358C365.315 86.0938 364.469 86.2727 363.503 86.2727ZM373.602 78.125V86H371.591V68.5455H373.602V74.9545H373.773C374.08 74.2784 374.54 73.7415 375.153 73.3438C375.773 72.9403 376.597 72.7386 377.625 72.7386C378.517 72.7386 379.298 72.9176 379.969 73.2756C380.639 73.6278 381.159 74.1705 381.528 74.9034C381.903 75.6307 382.091 76.5568 382.091 77.6818V86H380.08V77.8182C380.08 76.7784 379.81 75.9744 379.27 75.4062C378.736 74.8324 377.994 74.5455 377.045 74.5455C376.386 74.5455 375.795 74.6847 375.273 74.9631C374.756 75.2415 374.347 75.6477 374.045 76.1818C373.75 76.7159 373.602 77.3636 373.602 78.125ZM394.532 78.125V86H392.521V72.9091H394.464V74.9545H394.634C394.941 74.2898 395.407 73.7557 396.032 73.3523C396.657 72.9432 397.464 72.7386 398.452 72.7386C399.339 72.7386 400.114 72.9205 400.779 73.2841C401.444 73.642 401.961 74.1875 402.33 74.9205C402.7 75.6477 402.884 76.5682 402.884 77.6818V86H400.873V77.8182C400.873 76.7898 400.606 75.9886 400.072 75.4148C399.538 74.8352 398.805 74.5455 397.873 74.5455C397.231 74.5455 396.657 74.6847 396.151 74.9631C395.651 75.2415 395.256 75.6477 394.967 76.1818C394.677 76.7159 394.532 77.3636 394.532 78.125ZM406.56 86V72.9091H408.571V86H406.56ZM407.582 70.7273C407.19 70.7273 406.852 70.5938 406.568 70.3267C406.29 70.0597 406.151 69.7386 406.151 69.3636C406.151 68.9886 406.29 68.6676 406.568 68.4006C406.852 68.1335 407.19 68 407.582 68C407.974 68 408.31 68.1335 408.588 68.4006C408.872 68.6676 409.014 68.9886 409.014 69.3636C409.014 69.7386 408.872 70.0597 408.588 70.3267C408.31 70.5938 407.974 70.7273 407.582 70.7273ZM417.573 86.2727C416.346 86.2727 415.289 85.983 414.403 85.4034C413.516 84.8239 412.835 84.0256 412.357 83.0085C411.88 81.9915 411.641 80.8295 411.641 79.5227C411.641 78.1932 411.886 77.0199 412.374 76.0028C412.869 74.9801 413.556 74.1818 414.437 73.608C415.323 73.0284 416.357 72.7386 417.539 72.7386C418.46 72.7386 419.289 72.9091 420.028 73.25C420.766 73.5909 421.371 74.0682 421.843 74.6818C422.315 75.2955 422.607 76.0114 422.721 76.8295H420.71C420.556 76.233 420.215 75.7045 419.687 75.2443C419.164 74.7784 418.46 74.5455 417.573 74.5455C416.789 74.5455 416.102 74.75 415.511 75.1591C414.925 75.5625 414.468 76.1335 414.138 76.8722C413.815 77.6051 413.653 78.4659 413.653 79.4545C413.653 80.4659 413.812 81.3466 414.13 82.0966C414.454 82.8466 414.908 83.429 415.494 83.8438C416.085 84.2585 416.778 84.4659 417.573 84.4659C418.096 84.4659 418.57 84.375 418.996 84.1932C419.423 84.0114 419.783 83.75 420.079 83.4091C420.374 83.0682 420.585 82.6591 420.71 82.1818H422.721C422.607 82.9545 422.326 83.6506 421.877 84.2699C421.434 84.8835 420.846 85.3722 420.113 85.7358C419.386 86.0938 418.539 86.2727 417.573 86.2727ZM427.673 78.125V86H425.661V68.5455H427.673V74.9545H427.843C428.15 74.2784 428.61 73.7415 429.224 73.3438C429.843 72.9403 430.667 72.7386 431.695 72.7386C432.587 72.7386 433.369 72.9176 434.039 73.2756C434.71 73.6278 435.229 74.1705 435.599 74.9034C435.974 75.6307 436.161 76.5568 436.161 77.6818V86H434.15V77.8182C434.15 76.7784 433.88 75.9744 433.34 75.4062C432.806 74.8324 432.065 74.5455 431.116 74.5455C430.457 74.5455 429.866 74.6847 429.343 74.9631C428.826 75.2415 428.417 75.6477 428.116 76.1818C427.82 76.7159 427.673 77.3636 427.673 78.125ZM445.534 72.9091V74.6136H438.75V72.9091H445.534ZM440.727 69.7727H442.739V82.25C442.739 82.8182 442.821 83.2443 442.986 83.5284C443.156 83.8068 443.372 83.9943 443.634 84.0909C443.901 84.1818 444.182 84.2273 444.477 84.2273C444.699 84.2273 444.881 84.2159 445.023 84.1932C445.165 84.1648 445.278 84.142 445.364 84.125L445.773 85.9318C445.636 85.983 445.446 86.0341 445.202 86.0852C444.957 86.142 444.648 86.1705 444.273 86.1705C443.705 86.1705 443.148 86.0483 442.602 85.804C442.063 85.5597 441.614 85.1875 441.256 84.6875C440.903 84.1875 440.727 83.5568 440.727 82.7955V69.7727ZM458.276 86L454.287 72.9091H456.401L459.23 82.9318H459.366L462.162 72.9091H464.31L467.071 82.8977H467.207L470.037 72.9091H472.151L468.162 86H466.185L463.321 75.9432H463.116L460.253 86H458.276ZM483.06 80.6477V72.9091H485.071V86H483.06V83.7841H482.923C482.616 84.4489 482.139 85.0142 481.491 85.4801C480.844 85.9403 480.026 86.1705 479.037 86.1705C478.219 86.1705 477.491 85.9915 476.855 85.6335C476.219 85.2699 475.719 84.7244 475.355 83.9972C474.991 83.2642 474.81 82.3409 474.81 81.2273V72.9091H476.821V81.0909C476.821 82.0455 477.088 82.8068 477.622 83.375C478.162 83.9432 478.849 84.2273 479.685 84.2273C480.185 84.2273 480.693 84.0994 481.21 83.8438C481.733 83.5881 482.17 83.196 482.523 82.6676C482.881 82.1392 483.06 81.4659 483.06 80.6477ZM498.028 75.8409L496.221 76.3523C496.107 76.0511 495.94 75.7585 495.718 75.4744C495.502 75.1847 495.207 74.946 494.832 74.7585C494.457 74.571 493.977 74.4773 493.391 74.4773C492.59 74.4773 491.923 74.6619 491.388 75.0312C490.86 75.3949 490.596 75.858 490.596 76.4205C490.596 76.9205 490.778 77.3153 491.141 77.6051C491.505 77.8949 492.073 78.1364 492.846 78.3295L494.789 78.8068C495.96 79.0909 496.832 79.5256 497.406 80.1108C497.979 80.6903 498.266 81.4375 498.266 82.3523C498.266 83.1023 498.05 83.7727 497.619 84.3636C497.192 84.9545 496.596 85.4205 495.829 85.7614C495.062 86.1023 494.17 86.2727 493.153 86.2727C491.817 86.2727 490.712 85.983 489.837 85.4034C488.962 84.8239 488.408 83.9773 488.175 82.8636L490.085 82.3864C490.266 83.0909 490.61 83.6193 491.116 83.9716C491.627 84.3239 492.295 84.5 493.119 84.5C494.056 84.5 494.8 84.3011 495.352 83.9034C495.908 83.5 496.187 83.017 496.187 82.4545C496.187 82 496.028 81.6193 495.71 81.3125C495.391 81 494.903 80.767 494.244 80.6136L492.062 80.1023C490.863 79.8182 489.982 79.3778 489.42 78.7812C488.863 78.179 488.585 77.4261 488.585 76.5227C488.585 75.7841 488.792 75.1307 489.207 74.5625C489.627 73.9943 490.198 73.5483 490.92 73.2244C491.647 72.9006 492.471 72.7386 493.391 72.7386C494.687 72.7386 495.704 73.0227 496.442 73.5909C497.187 74.1591 497.715 74.9091 498.028 75.8409ZM510.567 75.8409L508.76 76.3523C508.646 76.0511 508.479 75.7585 508.257 75.4744C508.041 75.1847 507.746 74.946 507.371 74.7585C506.996 74.571 506.516 74.4773 505.93 74.4773C505.129 74.4773 504.462 74.6619 503.928 75.0312C503.399 75.3949 503.135 75.858 503.135 76.4205C503.135 76.9205 503.317 77.3153 503.68 77.6051C504.044 77.8949 504.612 78.1364 505.385 78.3295L507.328 78.8068C508.499 79.0909 509.371 79.5256 509.945 80.1108C510.518 80.6903 510.805 81.4375 510.805 82.3523C510.805 83.1023 510.589 83.7727 510.158 84.3636C509.732 84.9545 509.135 85.4205 508.368 85.7614C507.601 86.1023 506.709 86.2727 505.692 86.2727C504.357 86.2727 503.251 85.983 502.376 85.4034C501.501 84.8239 500.947 83.9773 500.714 82.8636L502.624 82.3864C502.805 83.0909 503.149 83.6193 503.655 83.9716C504.166 84.3239 504.834 84.5 505.658 84.5C506.595 84.5 507.339 84.3011 507.891 83.9034C508.447 83.5 508.726 83.017 508.726 82.4545C508.726 82 508.567 81.6193 508.249 81.3125C507.93 81 507.442 80.767 506.783 80.6136L504.601 80.1023C503.402 79.8182 502.521 79.3778 501.959 78.7812C501.402 78.179 501.124 77.4261 501.124 76.5227C501.124 75.7841 501.331 75.1307 501.746 74.5625C502.166 73.9943 502.737 73.5483 503.459 73.2244C504.186 72.9006 505.01 72.7386 505.93 72.7386C507.226 72.7386 508.243 73.0227 508.982 73.5909C509.726 74.1591 510.254 74.9091 510.567 75.8409ZM519.526 72.9091V74.6136H512.742V72.9091H519.526ZM514.719 69.7727H516.731V82.25C516.731 82.8182 516.813 83.2443 516.978 83.5284C517.148 83.8068 517.364 83.9943 517.626 84.0909C517.893 84.1818 518.174 84.2273 518.469 84.2273C518.691 84.2273 518.873 84.2159 519.015 84.1932C519.157 84.1648 519.271 84.142 519.356 84.125L519.765 85.9318C519.629 85.983 519.438 86.0341 519.194 86.0852C518.95 86.142 518.64 86.1705 518.265 86.1705C517.697 86.1705 517.14 86.0483 516.594 85.804C516.055 85.5597 515.606 85.1875 515.248 84.6875C514.896 84.1875 514.719 83.5568 514.719 82.7955V69.7727ZM527.9 86.2727C526.638 86.2727 525.55 85.9943 524.636 85.4375C523.727 84.875 523.025 84.0909 522.531 83.0852C522.042 82.0739 521.798 80.8977 521.798 79.5568C521.798 78.2159 522.042 77.0341 522.531 76.0114C523.025 74.983 523.712 74.1818 524.593 73.608C525.479 73.0284 526.513 72.7386 527.695 72.7386C528.377 72.7386 529.05 72.8523 529.715 73.0795C530.38 73.3068 530.985 73.6761 531.531 74.1875C532.076 74.6932 532.511 75.3636 532.835 76.1989C533.158 77.0341 533.32 78.0625 533.32 79.2841V80.1364H523.229V78.3977H531.275C531.275 77.6591 531.127 77 530.832 76.4205C530.542 75.8409 530.127 75.3835 529.587 75.0483C529.053 74.7131 528.423 74.5455 527.695 74.5455C526.894 74.5455 526.201 74.7443 525.616 75.142C525.036 75.5341 524.59 76.0455 524.278 76.6761C523.965 77.3068 523.809 77.983 523.809 78.7045V79.8636C523.809 80.8523 523.979 81.6903 524.32 82.3778C524.667 83.0597 525.147 83.5795 525.761 83.9375C526.374 84.2898 527.087 84.4659 527.9 84.4659C528.428 84.4659 528.906 84.392 529.332 84.2443C529.763 84.0909 530.136 83.8636 530.448 83.5625C530.761 83.2557 531.002 82.875 531.173 82.4205L533.116 82.9659C532.911 83.625 532.567 84.2045 532.085 84.7045C531.602 85.1989 531.005 85.5852 530.295 85.8636C529.585 86.1364 528.786 86.2727 527.9 86.2727ZM545.653 75.8409L543.846 76.3523C543.732 76.0511 543.565 75.7585 543.343 75.4744C543.127 75.1847 542.832 74.946 542.457 74.7585C542.082 74.571 541.602 74.4773 541.016 74.4773C540.215 74.4773 539.548 74.6619 539.013 75.0312C538.485 75.3949 538.221 75.858 538.221 76.4205C538.221 76.9205 538.403 77.3153 538.766 77.6051C539.13 77.8949 539.698 78.1364 540.471 78.3295L542.414 78.8068C543.585 79.0909 544.457 79.5256 545.031 80.1108C545.604 80.6903 545.891 81.4375 545.891 82.3523C545.891 83.1023 545.675 83.7727 545.244 84.3636C544.817 84.9545 544.221 85.4205 543.454 85.7614C542.687 86.1023 541.795 86.2727 540.778 86.2727C539.442 86.2727 538.337 85.983 537.462 85.4034C536.587 84.8239 536.033 83.9773 535.8 82.8636L537.71 82.3864C537.891 83.0909 538.235 83.6193 538.741 83.9716C539.252 84.3239 539.92 84.5 540.744 84.5C541.681 84.5 542.425 84.3011 542.977 83.9034C543.533 83.5 543.812 83.017 543.812 82.4545C543.812 82 543.653 81.6193 543.335 81.3125C543.016 81 542.528 80.767 541.869 80.6136L539.687 80.1023C538.488 79.8182 537.607 79.3778 537.045 78.7812C536.488 78.179 536.21 77.4261 536.21 76.5227C536.21 75.7841 536.417 75.1307 536.832 74.5625C537.252 73.9943 537.823 73.5483 538.545 73.2244C539.272 72.9006 540.096 72.7386 541.016 72.7386C542.312 72.7386 543.329 73.0227 544.067 73.5909C544.812 74.1591 545.34 74.9091 545.653 75.8409ZM554.612 72.9091V74.6136H547.828V72.9091H554.612ZM549.805 69.7727H551.817V82.25C551.817 82.8182 551.899 83.2443 552.064 83.5284C552.234 83.8068 552.45 83.9943 552.712 84.0909C552.979 84.1818 553.26 84.2273 553.555 84.2273C553.777 84.2273 553.959 84.2159 554.101 84.1932C554.243 84.1648 554.357 84.142 554.442 84.125L554.851 85.9318C554.714 85.983 554.524 86.0341 554.28 86.0852C554.036 86.142 553.726 86.1705 553.351 86.1705C552.783 86.1705 552.226 86.0483 551.68 85.804C551.141 85.5597 550.692 85.1875 550.334 84.6875C549.982 84.1875 549.805 83.5568 549.805 82.7955V69.7727ZM560.638 83.6136L560.501 84.5341C560.405 85.1818 560.257 85.875 560.058 86.6136C559.865 87.3523 559.663 88.0483 559.453 88.7017C559.243 89.3551 559.07 89.875 558.933 90.2614H557.399C557.473 89.8977 557.57 89.4176 557.689 88.821C557.808 88.2244 557.928 87.5568 558.047 86.8182C558.172 86.0852 558.274 85.3352 558.354 84.5682L558.456 83.6136H560.638ZM102.784 115.273C101.693 115.273 100.73 114.997 99.8949 114.446C99.0597 113.889 98.4063 113.105 97.9347 112.094C97.4631 111.077 97.2273 109.875 97.2273 108.489C97.2273 107.114 97.4631 105.92 97.9347 104.909C98.4063 103.898 99.0625 103.116 99.9034 102.565C100.744 102.014 101.716 101.739 102.818 101.739C103.67 101.739 104.344 101.881 104.838 102.165C105.338 102.443 105.719 102.761 105.98 103.119C106.247 103.472 106.455 103.761 106.602 103.989H106.773V97.5455H108.784V115H106.841V112.989H106.602C106.455 113.227 106.244 113.528 105.972 113.892C105.699 114.25 105.31 114.571 104.804 114.855C104.298 115.134 103.625 115.273 102.784 115.273ZM103.057 113.466C103.864 113.466 104.545 113.256 105.102 112.835C105.659 112.409 106.082 111.821 106.372 111.071C106.662 110.315 106.807 109.443 106.807 108.455C106.807 107.477 106.665 106.622 106.381 105.889C106.097 105.151 105.676 104.577 105.119 104.168C104.563 103.753 103.875 103.545 103.057 103.545C102.205 103.545 101.494 103.764 100.926 104.202C100.364 104.634 99.9403 105.222 99.6562 105.966C99.3778 106.705 99.2386 107.534 99.2386 108.455C99.2386 109.386 99.3807 110.233 99.6648 110.994C99.9545 111.75 100.381 112.352 100.943 112.801C101.511 113.244 102.216 113.466 103.057 113.466ZM120.997 109.648V101.909H123.009V115H120.997V112.784H120.861C120.554 113.449 120.077 114.014 119.429 114.48C118.781 114.94 117.963 115.17 116.974 115.17C116.156 115.17 115.429 114.991 114.793 114.634C114.156 114.27 113.656 113.724 113.293 112.997C112.929 112.264 112.747 111.341 112.747 110.227V101.909H114.759V110.091C114.759 111.045 115.026 111.807 115.56 112.375C116.099 112.943 116.787 113.227 117.622 113.227C118.122 113.227 118.631 113.099 119.148 112.844C119.67 112.588 120.108 112.196 120.46 111.668C120.818 111.139 120.997 110.466 120.997 109.648ZM133.715 115V97.5455H135.727V103.989H135.897C136.045 103.761 136.249 103.472 136.511 103.119C136.778 102.761 137.158 102.443 137.653 102.165C138.153 101.881 138.829 101.739 139.681 101.739C140.783 101.739 141.755 102.014 142.596 102.565C143.437 103.116 144.093 103.898 144.565 104.909C145.036 105.92 145.272 107.114 145.272 108.489C145.272 109.875 145.036 111.077 144.565 112.094C144.093 113.105 143.44 113.889 142.604 114.446C141.769 114.997 140.806 115.273 139.715 115.273C138.874 115.273 138.201 115.134 137.695 114.855C137.19 114.571 136.8 114.25 136.528 113.892C136.255 113.528 136.045 113.227 135.897 112.989H135.658V115H133.715ZM135.692 108.455C135.692 109.443 135.837 110.315 136.127 111.071C136.417 111.821 136.84 112.409 137.397 112.835C137.954 113.256 138.636 113.466 139.442 113.466C140.283 113.466 140.985 113.244 141.548 112.801C142.116 112.352 142.542 111.75 142.826 110.994C143.116 110.233 143.261 109.386 143.261 108.455C143.261 107.534 143.119 106.705 142.835 105.966C142.556 105.222 142.133 104.634 141.565 104.202C141.002 103.764 140.295 103.545 139.442 103.545C138.624 103.545 137.937 103.753 137.38 104.168C136.823 104.577 136.403 105.151 136.119 105.889C135.835 106.622 135.692 107.477 135.692 108.455ZM148.349 115V101.909H150.36V115H148.349ZM149.371 99.7273C148.979 99.7273 148.641 99.5938 148.357 99.3267C148.079 99.0597 147.94 98.7386 147.94 98.3636C147.94 97.9886 148.079 97.6676 148.357 97.4006C148.641 97.1335 148.979 97 149.371 97C149.763 97 150.099 97.1335 150.377 97.4006C150.661 97.6676 150.803 97.9886 150.803 98.3636C150.803 98.7386 150.661 99.0597 150.377 99.3267C150.099 99.5938 149.763 99.7273 149.371 99.7273ZM163.317 104.841L161.51 105.352C161.396 105.051 161.229 104.759 161.007 104.474C160.791 104.185 160.496 103.946 160.121 103.759C159.746 103.571 159.266 103.477 158.68 103.477C157.879 103.477 157.212 103.662 156.678 104.031C156.149 104.395 155.885 104.858 155.885 105.42C155.885 105.92 156.067 106.315 156.43 106.605C156.794 106.895 157.362 107.136 158.135 107.33L160.078 107.807C161.249 108.091 162.121 108.526 162.695 109.111C163.268 109.69 163.555 110.437 163.555 111.352C163.555 112.102 163.339 112.773 162.908 113.364C162.482 113.955 161.885 114.42 161.118 114.761C160.351 115.102 159.459 115.273 158.442 115.273C157.107 115.273 156.001 114.983 155.126 114.403C154.251 113.824 153.697 112.977 153.464 111.864L155.374 111.386C155.555 112.091 155.899 112.619 156.405 112.972C156.916 113.324 157.584 113.5 158.408 113.5C159.345 113.5 160.089 113.301 160.641 112.903C161.197 112.5 161.476 112.017 161.476 111.455C161.476 111 161.317 110.619 160.999 110.312C160.68 110 160.192 109.767 159.533 109.614L157.351 109.102C156.152 108.818 155.271 108.378 154.709 107.781C154.152 107.179 153.874 106.426 153.874 105.523C153.874 104.784 154.081 104.131 154.496 103.562C154.916 102.994 155.487 102.548 156.209 102.224C156.936 101.901 157.76 101.739 158.68 101.739C159.976 101.739 160.993 102.023 161.732 102.591C162.476 103.159 163.004 103.909 163.317 104.841ZM172.276 101.909V103.614H165.492V101.909H172.276ZM167.469 98.7727H169.481V111.25C169.481 111.818 169.563 112.244 169.728 112.528C169.898 112.807 170.114 112.994 170.376 113.091C170.643 113.182 170.924 113.227 171.219 113.227C171.441 113.227 171.623 113.216 171.765 113.193C171.907 113.165 172.021 113.142 172.106 113.125L172.515 114.932C172.379 114.983 172.188 115.034 171.944 115.085C171.7 115.142 171.39 115.17 171.015 115.17C170.447 115.17 169.89 115.048 169.344 114.804C168.805 114.56 168.356 114.188 167.998 113.688C167.646 113.188 167.469 112.557 167.469 111.795V98.7727ZM187.54 115.273C186.279 115.273 185.191 114.994 184.276 114.438C183.367 113.875 182.665 113.091 182.171 112.085C181.683 111.074 181.438 109.898 181.438 108.557C181.438 107.216 181.683 106.034 182.171 105.011C182.665 103.983 183.353 103.182 184.234 102.608C185.12 102.028 186.154 101.739 187.336 101.739C188.018 101.739 188.691 101.852 189.356 102.08C190.021 102.307 190.626 102.676 191.171 103.188C191.717 103.693 192.151 104.364 192.475 105.199C192.799 106.034 192.961 107.062 192.961 108.284V109.136H182.87V107.398H190.915C190.915 106.659 190.768 106 190.472 105.42C190.183 104.841 189.768 104.384 189.228 104.048C188.694 103.713 188.063 103.545 187.336 103.545C186.535 103.545 185.842 103.744 185.256 104.142C184.677 104.534 184.231 105.045 183.918 105.676C183.606 106.307 183.45 106.983 183.45 107.705V108.864C183.45 109.852 183.62 110.69 183.961 111.378C184.308 112.06 184.788 112.58 185.401 112.938C186.015 113.29 186.728 113.466 187.54 113.466C188.069 113.466 188.546 113.392 188.972 113.244C189.404 113.091 189.776 112.864 190.089 112.562C190.401 112.256 190.643 111.875 190.813 111.42L192.756 111.966C192.552 112.625 192.208 113.205 191.725 113.705C191.242 114.199 190.646 114.585 189.935 114.864C189.225 115.136 188.427 115.273 187.54 115.273ZM196.021 115V101.909H198.032V115H196.021ZM197.043 99.7273C196.651 99.7273 196.313 99.5938 196.029 99.3267C195.751 99.0597 195.612 98.7386 195.612 98.3636C195.612 97.9886 195.751 97.6676 196.029 97.4006C196.313 97.1335 196.651 97 197.043 97C197.435 97 197.771 97.1335 198.049 97.4006C198.333 97.6676 198.475 97.9886 198.475 98.3636C198.475 98.7386 198.333 99.0597 198.049 99.3267C197.771 99.5938 197.435 99.7273 197.043 99.7273ZM203.727 107.125V115H201.716V101.909H203.659V103.955H203.83C204.136 103.29 204.602 102.756 205.227 102.352C205.852 101.943 206.659 101.739 207.648 101.739C208.534 101.739 209.31 101.92 209.974 102.284C210.639 102.642 211.156 103.188 211.526 103.92C211.895 104.648 212.08 105.568 212.08 106.682V115H210.068V106.818C210.068 105.79 209.801 104.989 209.267 104.415C208.733 103.835 208 103.545 207.068 103.545C206.426 103.545 205.852 103.685 205.347 103.963C204.847 104.241 204.452 104.648 204.162 105.182C203.872 105.716 203.727 106.364 203.727 107.125ZM224.891 97.5455V115H222.778V97.5455H224.891ZM230.868 107.125V115H228.857V101.909H230.8V103.955H230.97C231.277 103.29 231.743 102.756 232.368 102.352C232.993 101.943 233.8 101.739 234.788 101.739C235.675 101.739 236.45 101.92 237.115 102.284C237.78 102.642 238.297 103.188 238.666 103.92C239.036 104.648 239.22 105.568 239.22 106.682V115H237.209V106.818C237.209 105.79 236.942 104.989 236.408 104.415C235.874 103.835 235.141 103.545 234.209 103.545C233.567 103.545 232.993 103.685 232.487 103.963C231.987 104.241 231.592 104.648 231.303 105.182C231.013 105.716 230.868 106.364 230.868 107.125ZM248.18 120.182C247.208 120.182 246.373 120.057 245.674 119.807C244.975 119.562 244.393 119.239 243.927 118.835C243.467 118.438 243.1 118.011 242.827 117.557L244.43 116.432C244.612 116.67 244.842 116.943 245.12 117.25C245.398 117.562 245.779 117.832 246.262 118.06C246.751 118.293 247.39 118.409 248.18 118.409C249.237 118.409 250.109 118.153 250.796 117.642C251.484 117.131 251.827 116.33 251.827 115.239V112.58H251.657C251.509 112.818 251.299 113.114 251.026 113.466C250.759 113.812 250.373 114.122 249.867 114.395C249.367 114.662 248.691 114.795 247.839 114.795C246.782 114.795 245.833 114.545 244.992 114.045C244.157 113.545 243.495 112.818 243.006 111.864C242.523 110.909 242.282 109.75 242.282 108.386C242.282 107.045 242.518 105.878 242.989 104.884C243.461 103.884 244.117 103.111 244.958 102.565C245.799 102.014 246.771 101.739 247.873 101.739C248.725 101.739 249.401 101.881 249.901 102.165C250.407 102.443 250.793 102.761 251.06 103.119C251.333 103.472 251.543 103.761 251.691 103.989H251.896V101.909H253.839V115.375C253.839 116.5 253.583 117.415 253.072 118.119C252.566 118.83 251.884 119.349 251.026 119.679C250.174 120.014 249.225 120.182 248.18 120.182ZM248.112 112.989C248.918 112.989 249.6 112.804 250.157 112.435C250.714 112.065 251.137 111.534 251.427 110.841C251.717 110.148 251.862 109.318 251.862 108.352C251.862 107.409 251.719 106.577 251.435 105.855C251.151 105.134 250.731 104.568 250.174 104.159C249.617 103.75 248.93 103.545 248.112 103.545C247.259 103.545 246.549 103.761 245.981 104.193C245.418 104.625 244.995 105.205 244.711 105.932C244.433 106.659 244.293 107.466 244.293 108.352C244.293 109.261 244.435 110.065 244.719 110.764C245.009 111.457 245.435 112.003 245.998 112.401C246.566 112.793 247.271 112.989 248.112 112.989ZM263.009 115.273C261.748 115.273 260.66 114.994 259.745 114.438C258.836 113.875 258.134 113.091 257.64 112.085C257.151 111.074 256.907 109.898 256.907 108.557C256.907 107.216 257.151 106.034 257.64 105.011C258.134 103.983 258.822 103.182 259.702 102.608C260.589 102.028 261.623 101.739 262.805 101.739C263.487 101.739 264.16 101.852 264.825 102.08C265.489 102.307 266.094 102.676 266.64 103.188C267.185 103.693 267.62 104.364 267.944 105.199C268.268 106.034 268.43 107.062 268.43 108.284V109.136H258.339V107.398H266.384C266.384 106.659 266.237 106 265.941 105.42C265.651 104.841 265.237 104.384 264.697 104.048C264.163 103.713 263.532 103.545 262.805 103.545C262.004 103.545 261.31 103.744 260.725 104.142C260.146 104.534 259.7 105.045 259.387 105.676C259.075 106.307 258.918 106.983 258.918 107.705V108.864C258.918 109.852 259.089 110.69 259.43 111.378C259.776 112.06 260.256 112.58 260.87 112.938C261.484 113.29 262.197 113.466 263.009 113.466C263.538 113.466 264.015 113.392 264.441 113.244C264.873 113.091 265.245 112.864 265.558 112.562C265.87 112.256 266.112 111.875 266.282 111.42L268.225 111.966C268.021 112.625 267.677 113.205 267.194 113.705C266.711 114.199 266.114 114.585 265.404 114.864C264.694 115.136 263.896 115.273 263.009 115.273ZM273.501 107.125V115H271.489V101.909H273.433V103.955H273.603C273.91 103.29 274.376 102.756 275.001 102.352C275.626 101.943 276.433 101.739 277.421 101.739C278.308 101.739 279.083 101.92 279.748 102.284C280.413 102.642 280.93 103.188 281.299 103.92C281.668 104.648 281.853 105.568 281.853 106.682V115H279.842V106.818C279.842 105.79 279.575 104.989 279.04 104.415C278.506 103.835 277.773 103.545 276.842 103.545C276.2 103.545 275.626 103.685 275.12 103.963C274.62 104.241 274.225 104.648 273.935 105.182C273.646 105.716 273.501 106.364 273.501 107.125ZM285.528 115V101.909H287.54V115H285.528ZM286.551 99.7273C286.159 99.7273 285.821 99.5938 285.537 99.3267C285.259 99.0597 285.119 98.7386 285.119 98.3636C285.119 97.9886 285.259 97.6676 285.537 97.4006C285.821 97.1335 286.159 97 286.551 97C286.943 97 287.278 97.1335 287.557 97.4006C287.841 97.6676 287.983 97.9886 287.983 98.3636C287.983 98.7386 287.841 99.0597 287.557 99.3267C287.278 99.5938 286.943 99.7273 286.551 99.7273ZM299.474 109.648V101.909H301.485V115H299.474V112.784H299.337C299.031 113.449 298.553 114.014 297.906 114.48C297.258 114.94 296.44 115.17 295.451 115.17C294.633 115.17 293.906 114.991 293.269 114.634C292.633 114.27 292.133 113.724 291.769 112.997C291.406 112.264 291.224 111.341 291.224 110.227V101.909H293.235V110.091C293.235 111.045 293.502 111.807 294.036 112.375C294.576 112.943 295.263 113.227 296.099 113.227C296.599 113.227 297.107 113.099 297.624 112.844C298.147 112.588 298.585 112.196 298.937 111.668C299.295 111.139 299.474 110.466 299.474 109.648ZM310.658 115.273C309.396 115.273 308.308 114.994 307.393 114.438C306.484 113.875 305.783 113.091 305.288 112.085C304.8 111.074 304.555 109.898 304.555 108.557C304.555 107.216 304.8 106.034 305.288 105.011C305.783 103.983 306.47 103.182 307.351 102.608C308.237 102.028 309.271 101.739 310.453 101.739C311.135 101.739 311.808 101.852 312.473 102.08C313.138 102.307 313.743 102.676 314.288 103.188C314.834 103.693 315.268 104.364 315.592 105.199C315.916 106.034 316.078 107.062 316.078 108.284V109.136H305.987V107.398H314.033C314.033 106.659 313.885 106 313.589 105.42C313.3 104.841 312.885 104.384 312.345 104.048C311.811 103.713 311.18 103.545 310.453 103.545C309.652 103.545 308.959 103.744 308.374 104.142C307.794 104.534 307.348 105.045 307.036 105.676C306.723 106.307 306.567 106.983 306.567 107.705V108.864C306.567 109.852 306.737 110.69 307.078 111.378C307.425 112.06 307.905 112.58 308.518 112.938C309.132 113.29 309.845 113.466 310.658 113.466C311.186 113.466 311.663 113.392 312.089 113.244C312.521 113.091 312.893 112.864 313.206 112.562C313.518 112.256 313.76 111.875 313.93 111.42L315.874 111.966C315.669 112.625 315.325 113.205 314.842 113.705C314.359 114.199 313.763 114.585 313.053 114.864C312.342 115.136 311.544 115.273 310.658 115.273ZM319.138 115V101.909H321.081V103.886H321.217C321.456 103.239 321.888 102.713 322.513 102.31C323.138 101.906 323.842 101.705 324.626 101.705C324.774 101.705 324.959 101.707 325.18 101.713C325.402 101.719 325.57 101.727 325.683 101.739V103.784C325.615 103.767 325.459 103.741 325.214 103.707C324.976 103.668 324.723 103.648 324.456 103.648C323.82 103.648 323.251 103.781 322.751 104.048C322.257 104.31 321.865 104.673 321.575 105.139C321.291 105.599 321.149 106.125 321.149 106.716V115H319.138ZM343.067 109.648V101.909H345.079V115H343.067V112.784H342.931C342.624 113.449 342.147 114.014 341.499 114.48C340.852 114.94 340.033 115.17 339.045 115.17C338.227 115.17 337.499 114.991 336.863 114.634C336.227 114.27 335.727 113.724 335.363 112.997C334.999 112.264 334.817 111.341 334.817 110.227V101.909H336.829V110.091C336.829 111.045 337.096 111.807 337.63 112.375C338.17 112.943 338.857 113.227 339.692 113.227C340.192 113.227 340.701 113.099 341.218 112.844C341.741 112.588 342.178 112.196 342.531 111.668C342.888 111.139 343.067 110.466 343.067 109.648ZM350.774 107.125V115H348.763V101.909H350.706V103.955H350.876C351.183 103.29 351.649 102.756 352.274 102.352C352.899 101.943 353.706 101.739 354.695 101.739C355.581 101.739 356.357 101.92 357.021 102.284C357.686 102.642 358.203 103.188 358.572 103.92C358.942 104.648 359.126 105.568 359.126 106.682V115H357.115V106.818C357.115 105.79 356.848 104.989 356.314 104.415C355.78 103.835 355.047 103.545 354.115 103.545C353.473 103.545 352.899 103.685 352.393 103.963C351.893 104.241 351.499 104.648 351.209 105.182C350.919 105.716 350.774 106.364 350.774 107.125ZM367.745 115.273C366.654 115.273 365.691 114.997 364.856 114.446C364.021 113.889 363.367 113.105 362.896 112.094C362.424 111.077 362.188 109.875 362.188 108.489C362.188 107.114 362.424 105.92 362.896 104.909C363.367 103.898 364.023 103.116 364.864 102.565C365.705 102.014 366.677 101.739 367.779 101.739C368.631 101.739 369.305 101.881 369.799 102.165C370.299 102.443 370.68 102.761 370.941 103.119C371.208 103.472 371.415 103.761 371.563 103.989H371.734V97.5455H373.745V115H371.802V112.989H371.563C371.415 113.227 371.205 113.528 370.933 113.892C370.66 114.25 370.271 114.571 369.765 114.855C369.259 115.134 368.586 115.273 367.745 115.273ZM368.018 113.466C368.825 113.466 369.506 113.256 370.063 112.835C370.62 112.409 371.043 111.821 371.333 111.071C371.623 110.315 371.768 109.443 371.768 108.455C371.768 107.477 371.626 106.622 371.342 105.889C371.058 105.151 370.637 104.577 370.08 104.168C369.523 103.753 368.836 103.545 368.018 103.545C367.165 103.545 366.455 103.764 365.887 104.202C365.325 104.634 364.901 105.222 364.617 105.966C364.339 106.705 364.2 107.534 364.2 108.455C364.2 109.386 364.342 110.233 364.626 110.994C364.915 111.75 365.342 112.352 365.904 112.801C366.472 113.244 367.177 113.466 368.018 113.466ZM388.31 115.307C387.481 115.307 386.728 115.151 386.052 114.838C385.376 114.52 384.839 114.062 384.441 113.466C384.043 112.864 383.844 112.136 383.844 111.284C383.844 110.534 383.992 109.926 384.288 109.46C384.583 108.989 384.978 108.619 385.472 108.352C385.967 108.085 386.512 107.886 387.109 107.756C387.711 107.619 388.316 107.511 388.924 107.432C389.719 107.33 390.364 107.253 390.859 107.202C391.359 107.145 391.722 107.051 391.95 106.92C392.183 106.79 392.299 106.562 392.299 106.239V106.17C392.299 105.33 392.069 104.676 391.609 104.21C391.154 103.744 390.464 103.511 389.538 103.511C388.577 103.511 387.825 103.722 387.279 104.142C386.734 104.562 386.35 105.011 386.129 105.489L384.219 104.807C384.56 104.011 385.015 103.392 385.583 102.949C386.157 102.5 386.782 102.187 387.458 102.011C388.14 101.83 388.81 101.739 389.469 101.739C389.89 101.739 390.373 101.79 390.918 101.892C391.469 101.989 392.001 102.19 392.512 102.497C393.029 102.804 393.458 103.267 393.799 103.886C394.14 104.506 394.31 105.335 394.31 106.375V115H392.299V113.227H392.197C392.06 113.511 391.833 113.815 391.515 114.139C391.197 114.463 390.773 114.739 390.245 114.966C389.717 115.193 389.072 115.307 388.31 115.307ZM388.617 113.5C389.413 113.5 390.083 113.344 390.629 113.031C391.18 112.719 391.594 112.315 391.873 111.821C392.157 111.327 392.299 110.807 392.299 110.261V108.42C392.214 108.523 392.026 108.616 391.737 108.702C391.452 108.781 391.123 108.852 390.748 108.915C390.379 108.972 390.018 109.023 389.665 109.068C389.319 109.108 389.038 109.142 388.822 109.17C388.299 109.239 387.81 109.349 387.356 109.503C386.907 109.651 386.543 109.875 386.265 110.176C385.992 110.472 385.856 110.875 385.856 111.386C385.856 112.085 386.114 112.614 386.631 112.972C387.154 113.324 387.816 113.5 388.617 113.5ZM397.982 115V101.909H399.925V103.886H400.061C400.3 103.239 400.732 102.713 401.357 102.31C401.982 101.906 402.686 101.705 403.47 101.705C403.618 101.705 403.803 101.707 404.024 101.713C404.246 101.719 404.413 101.727 404.527 101.739V103.784C404.459 103.767 404.303 103.741 404.058 103.707C403.82 103.668 403.567 103.648 403.3 103.648C402.663 103.648 402.095 103.781 401.595 104.048C401.101 104.31 400.709 104.673 400.419 105.139C400.135 105.599 399.993 106.125 399.993 106.716V115H397.982ZM407.184 115V97.5455H409.195V103.989H409.366C409.513 103.761 409.718 103.472 409.979 103.119C410.246 102.761 410.627 102.443 411.121 102.165C411.621 101.881 412.298 101.739 413.15 101.739C414.252 101.739 415.224 102.014 416.065 102.565C416.906 103.116 417.562 103.898 418.033 104.909C418.505 105.92 418.741 107.114 418.741 108.489C418.741 109.875 418.505 111.077 418.033 112.094C417.562 113.105 416.908 113.889 416.073 114.446C415.238 114.997 414.275 115.273 413.184 115.273C412.343 115.273 411.67 115.134 411.164 114.855C410.658 114.571 410.269 114.25 409.996 113.892C409.724 113.528 409.513 113.227 409.366 112.989H409.127V115H407.184ZM409.161 108.455C409.161 109.443 409.306 110.315 409.596 111.071C409.886 111.821 410.309 112.409 410.866 112.835C411.423 113.256 412.104 113.466 412.911 113.466C413.752 113.466 414.454 113.244 415.016 112.801C415.585 112.352 416.011 111.75 416.295 110.994C416.585 110.233 416.729 109.386 416.729 108.455C416.729 107.534 416.587 106.705 416.303 105.966C416.025 105.222 415.602 104.634 415.033 104.202C414.471 103.764 413.763 103.545 412.911 103.545C412.093 103.545 411.406 103.753 410.849 104.168C410.292 104.577 409.871 105.151 409.587 105.889C409.303 106.622 409.161 107.477 409.161 108.455ZM427.306 115.273C426.045 115.273 424.957 114.994 424.042 114.438C423.133 113.875 422.431 113.091 421.937 112.085C421.448 111.074 421.204 109.898 421.204 108.557C421.204 107.216 421.448 106.034 421.937 105.011C422.431 103.983 423.119 103.182 423.999 102.608C424.886 102.028 425.92 101.739 427.102 101.739C427.783 101.739 428.457 101.852 429.121 102.08C429.786 102.307 430.391 102.676 430.937 103.188C431.482 103.693 431.917 104.364 432.241 105.199C432.565 106.034 432.727 107.062 432.727 108.284V109.136H422.636V107.398H430.681C430.681 106.659 430.533 106 430.238 105.42C429.948 104.841 429.533 104.384 428.994 104.048C428.46 103.713 427.829 103.545 427.102 103.545C426.3 103.545 425.607 103.744 425.022 104.142C424.442 104.534 423.996 105.045 423.684 105.676C423.371 106.307 423.215 106.983 423.215 107.705V108.864C423.215 109.852 423.386 110.69 423.727 111.378C424.073 112.06 424.553 112.58 425.167 112.938C425.781 113.29 426.494 113.466 427.306 113.466C427.835 113.466 428.312 113.392 428.738 113.244C429.17 113.091 429.542 112.864 429.854 112.562C430.167 112.256 430.408 111.875 430.579 111.42L432.522 111.966C432.317 112.625 431.974 113.205 431.491 113.705C431.008 114.199 430.411 114.585 429.701 114.864C428.991 115.136 428.192 115.273 427.306 115.273ZM435.786 115V101.909H437.798V115H435.786ZM436.809 99.7273C436.417 99.7273 436.079 99.5938 435.795 99.3267C435.516 99.0597 435.377 98.7386 435.377 98.3636C435.377 97.9886 435.516 97.6676 435.795 97.4006C436.079 97.1335 436.417 97 436.809 97C437.201 97 437.536 97.1335 437.815 97.4006C438.099 97.6676 438.241 97.9886 438.241 98.3636C438.241 98.7386 438.099 99.0597 437.815 99.3267C437.536 99.5938 437.201 99.7273 436.809 99.7273ZM447.175 101.909V103.614H440.391V101.909H447.175ZM442.368 98.7727H444.379V111.25C444.379 111.818 444.462 112.244 444.626 112.528C444.797 112.807 445.013 112.994 445.274 113.091C445.541 113.182 445.822 113.227 446.118 113.227C446.339 113.227 446.521 113.216 446.663 113.193C446.805 113.165 446.919 113.142 447.004 113.125L447.413 114.932C447.277 114.983 447.087 115.034 446.842 115.085C446.598 115.142 446.288 115.17 445.913 115.17C445.345 115.17 444.788 115.048 444.243 114.804C443.703 114.56 443.254 114.188 442.896 113.688C442.544 113.188 442.368 112.557 442.368 111.795V98.7727ZM455.548 115.273C454.287 115.273 453.199 114.994 452.284 114.438C451.375 113.875 450.673 113.091 450.179 112.085C449.69 111.074 449.446 109.898 449.446 108.557C449.446 107.216 449.69 106.034 450.179 105.011C450.673 103.983 451.361 103.182 452.241 102.608C453.128 102.028 454.162 101.739 455.344 101.739C456.026 101.739 456.699 101.852 457.364 102.08C458.028 102.307 458.634 102.676 459.179 103.188C459.724 103.693 460.159 104.364 460.483 105.199C460.807 106.034 460.969 107.062 460.969 108.284V109.136H450.878V107.398H458.923C458.923 106.659 458.776 106 458.48 105.42C458.19 104.841 457.776 104.384 457.236 104.048C456.702 103.713 456.071 103.545 455.344 103.545C454.543 103.545 453.849 103.744 453.264 104.142C452.685 104.534 452.239 105.045 451.926 105.676C451.614 106.307 451.457 106.983 451.457 107.705V108.864C451.457 109.852 451.628 110.69 451.969 111.378C452.315 112.06 452.795 112.58 453.409 112.938C454.023 113.29 454.736 113.466 455.548 113.466C456.077 113.466 456.554 113.392 456.98 113.244C457.412 113.091 457.784 112.864 458.097 112.562C458.409 112.256 458.651 111.875 458.821 111.42L460.764 111.966C460.56 112.625 460.216 113.205 459.733 113.705C459.25 114.199 458.653 114.585 457.943 114.864C457.233 115.136 456.435 115.273 455.548 115.273ZM473.301 104.841L471.494 105.352C471.381 105.051 471.213 104.759 470.991 104.474C470.776 104.185 470.48 103.946 470.105 103.759C469.73 103.571 469.25 103.477 468.665 103.477C467.864 103.477 467.196 103.662 466.662 104.031C466.134 104.395 465.869 104.858 465.869 105.42C465.869 105.92 466.051 106.315 466.415 106.605C466.778 106.895 467.347 107.136 468.119 107.33L470.062 107.807C471.233 108.091 472.105 108.526 472.679 109.111C473.253 109.69 473.54 110.437 473.54 111.352C473.54 112.102 473.324 112.773 472.892 113.364C472.466 113.955 471.869 114.42 471.102 114.761C470.335 115.102 469.443 115.273 468.426 115.273C467.091 115.273 465.986 114.983 465.111 114.403C464.236 113.824 463.682 112.977 463.449 111.864L465.358 111.386C465.54 112.091 465.884 112.619 466.389 112.972C466.901 113.324 467.568 113.5 468.392 113.5C469.33 113.5 470.074 113.301 470.625 112.903C471.182 112.5 471.46 112.017 471.46 111.455C471.46 111 471.301 110.619 470.983 110.312C470.665 110 470.176 109.767 469.517 109.614L467.335 109.102C466.136 108.818 465.256 108.378 464.693 107.781C464.136 107.179 463.858 106.426 463.858 105.523C463.858 104.784 464.065 104.131 464.48 103.562C464.901 102.994 465.472 102.548 466.193 102.224C466.92 101.901 467.744 101.739 468.665 101.739C469.96 101.739 470.977 102.023 471.716 102.591C472.46 103.159 472.989 103.909 473.301 104.841ZM482.261 101.909V103.614H475.477V101.909H482.261ZM477.454 98.7727H479.465V111.25C479.465 111.818 479.548 112.244 479.712 112.528C479.883 112.807 480.099 112.994 480.36 113.091C480.627 113.182 480.908 113.227 481.204 113.227C481.425 113.227 481.607 113.216 481.749 113.193C481.891 113.165 482.005 113.142 482.09 113.125L482.499 114.932C482.363 114.983 482.173 115.034 481.928 115.085C481.684 115.142 481.374 115.17 480.999 115.17C480.431 115.17 479.874 115.048 479.329 114.804C478.789 114.56 478.34 114.188 477.982 113.688C477.63 113.188 477.454 112.557 477.454 111.795V98.7727ZM492.309 115V97.5455H494.32V103.989H494.491C494.638 103.761 494.843 103.472 495.104 103.119C495.371 102.761 495.752 102.443 496.246 102.165C496.746 101.881 497.423 101.739 498.275 101.739C499.377 101.739 500.349 102.014 501.19 102.565C502.031 103.116 502.687 103.898 503.158 104.909C503.63 105.92 503.866 107.114 503.866 108.489C503.866 109.875 503.63 111.077 503.158 112.094C502.687 113.105 502.033 113.889 501.198 114.446C500.363 114.997 499.4 115.273 498.309 115.273C497.468 115.273 496.795 115.134 496.289 114.855C495.783 114.571 495.394 114.25 495.121 113.892C494.849 113.528 494.638 113.227 494.491 112.989H494.252V115H492.309ZM494.286 108.455C494.286 109.443 494.431 110.315 494.721 111.071C495.011 111.821 495.434 112.409 495.991 112.835C496.548 113.256 497.229 113.466 498.036 113.466C498.877 113.466 499.579 113.244 500.141 112.801C500.71 112.352 501.136 111.75 501.42 110.994C501.71 110.233 501.854 109.386 501.854 108.455C501.854 107.534 501.712 106.705 501.428 105.966C501.15 105.222 500.727 104.634 500.158 104.202C499.596 103.764 498.888 103.545 498.036 103.545C497.218 103.545 496.531 103.753 495.974 104.168C495.417 104.577 494.996 105.151 494.712 105.889C494.428 106.622 494.286 107.477 494.286 108.455ZM512.431 115.273C511.17 115.273 510.082 114.994 509.167 114.438C508.258 113.875 507.556 113.091 507.062 112.085C506.573 111.074 506.329 109.898 506.329 108.557C506.329 107.216 506.573 106.034 507.062 105.011C507.556 103.983 508.244 103.182 509.124 102.608C510.011 102.028 511.045 101.739 512.227 101.739C512.908 101.739 513.582 101.852 514.246 102.08C514.911 102.307 515.516 102.676 516.062 103.188C516.607 103.693 517.042 104.364 517.366 105.199C517.69 106.034 517.852 107.062 517.852 108.284V109.136H507.761V107.398H515.806C515.806 106.659 515.658 106 515.363 105.42C515.073 104.841 514.658 104.384 514.119 104.048C513.585 103.713 512.954 103.545 512.227 103.545C511.425 103.545 510.732 103.744 510.147 104.142C509.567 104.534 509.121 105.045 508.809 105.676C508.496 106.307 508.34 106.983 508.34 107.705V108.864C508.34 109.852 508.511 110.69 508.852 111.378C509.198 112.06 509.678 112.58 510.292 112.938C510.906 113.29 511.619 113.466 512.431 113.466C512.96 113.466 513.437 113.392 513.863 113.244C514.295 113.091 514.667 112.864 514.979 112.562C515.292 112.256 515.533 111.875 515.704 111.42L517.647 111.966C517.442 112.625 517.099 113.205 516.616 113.705C516.133 114.199 515.536 114.585 514.826 114.864C514.116 115.136 513.317 115.273 512.431 115.273ZM520.911 115V101.909H522.923V115H520.911ZM521.934 99.7273C521.542 99.7273 521.204 99.5938 520.92 99.3267C520.641 99.0597 520.502 98.7386 520.502 98.3636C520.502 97.9886 520.641 97.6676 520.92 97.4006C521.204 97.1335 521.542 97 521.934 97C522.326 97 522.661 97.1335 522.94 97.4006C523.224 97.6676 523.366 97.9886 523.366 98.3636C523.366 98.7386 523.224 99.0597 522.94 99.3267C522.661 99.5938 522.326 99.7273 521.934 99.7273ZM533.629 115V97.5455H544.163V99.4205H535.743V105.318H543.618V107.193H535.743V113.125H544.3V115H533.629ZM555.2 105.335V107.21H547.564V105.335H555.2ZM101.284 144L96.5114 126.545H98.6591L102.307 140.761H102.477L106.193 126.545H108.58L112.295 140.761H112.466L116.114 126.545H118.261L113.489 144H111.307L107.455 130.091H107.318L103.466 144H101.284ZM124.892 144.273C123.631 144.273 122.543 143.994 121.628 143.438C120.719 142.875 120.017 142.091 119.523 141.085C119.034 140.074 118.79 138.898 118.79 137.557C118.79 136.216 119.034 135.034 119.523 134.011C120.017 132.983 120.705 132.182 121.585 131.608C122.472 131.028 123.506 130.739 124.688 130.739C125.369 130.739 126.043 130.852 126.707 131.08C127.372 131.307 127.977 131.676 128.523 132.188C129.068 132.693 129.503 133.364 129.827 134.199C130.151 135.034 130.312 136.062 130.312 137.284V138.136H120.222V136.398H128.267C128.267 135.659 128.119 135 127.824 134.42C127.534 133.841 127.119 133.384 126.58 133.048C126.045 132.713 125.415 132.545 124.688 132.545C123.886 132.545 123.193 132.744 122.608 133.142C122.028 133.534 121.582 134.045 121.27 134.676C120.957 135.307 120.801 135.983 120.801 136.705V137.864C120.801 138.852 120.972 139.69 121.312 140.378C121.659 141.06 122.139 141.58 122.753 141.938C123.366 142.29 124.08 142.466 124.892 142.466C125.42 142.466 125.898 142.392 126.324 142.244C126.756 142.091 127.128 141.864 127.44 141.562C127.753 141.256 127.994 140.875 128.165 140.42L130.108 140.966C129.903 141.625 129.56 142.205 129.077 142.705C128.594 143.199 127.997 143.585 127.287 143.864C126.577 144.136 125.778 144.273 124.892 144.273ZM133.372 144V130.909H135.315V132.886H135.452C135.69 132.239 136.122 131.713 136.747 131.31C137.372 130.906 138.077 130.705 138.861 130.705C139.009 130.705 139.193 130.707 139.415 130.713C139.636 130.719 139.804 130.727 139.918 130.739V132.784C139.849 132.767 139.693 132.741 139.449 132.707C139.21 132.668 138.957 132.648 138.69 132.648C138.054 132.648 137.486 132.781 136.986 133.048C136.491 133.31 136.099 133.673 135.81 134.139C135.526 134.599 135.384 135.125 135.384 135.716V144H133.372ZM144.177 139.227L144.143 136.739H144.552L150.279 130.909H152.768L146.665 137.08H146.495L144.177 139.227ZM142.302 144V126.545H144.313V144H142.302ZM150.62 144L145.506 137.523L146.938 136.125L153.177 144H150.62ZM162.107 144V130.909H164.118V144H162.107ZM163.129 128.727C162.737 128.727 162.399 128.594 162.115 128.327C161.837 128.06 161.697 127.739 161.697 127.364C161.697 126.989 161.837 126.668 162.115 126.401C162.399 126.134 162.737 126 163.129 126C163.521 126 163.857 126.134 164.135 126.401C164.419 126.668 164.561 126.989 164.561 127.364C164.561 127.739 164.419 128.06 164.135 128.327C163.857 128.594 163.521 128.727 163.129 128.727ZM169.813 136.125V144H167.802V130.909H169.745V132.955H169.915C170.222 132.29 170.688 131.756 171.313 131.352C171.938 130.943 172.745 130.739 173.734 130.739C174.62 130.739 175.396 130.92 176.06 131.284C176.725 131.642 177.242 132.188 177.612 132.92C177.981 133.648 178.165 134.568 178.165 135.682V144H176.154V135.818C176.154 134.79 175.887 133.989 175.353 133.415C174.819 132.835 174.086 132.545 173.154 132.545C172.512 132.545 171.938 132.685 171.433 132.963C170.933 133.241 170.538 133.648 170.248 134.182C169.958 134.716 169.813 135.364 169.813 136.125ZM193.534 144.273C192.443 144.273 191.48 143.997 190.645 143.446C189.81 142.889 189.156 142.105 188.685 141.094C188.213 140.077 187.977 138.875 187.977 137.489C187.977 136.114 188.213 134.92 188.685 133.909C189.156 132.898 189.813 132.116 190.653 131.565C191.494 131.014 192.466 130.739 193.568 130.739C194.42 130.739 195.094 130.881 195.588 131.165C196.088 131.443 196.469 131.761 196.73 132.119C196.997 132.472 197.205 132.761 197.352 132.989H197.523V126.545H199.534V144H197.591V141.989H197.352C197.205 142.227 196.994 142.528 196.722 142.892C196.449 143.25 196.06 143.571 195.554 143.855C195.048 144.134 194.375 144.273 193.534 144.273ZM193.807 142.466C194.614 142.466 195.295 142.256 195.852 141.835C196.409 141.409 196.832 140.821 197.122 140.071C197.412 139.315 197.557 138.443 197.557 137.455C197.557 136.477 197.415 135.622 197.131 134.889C196.847 134.151 196.426 133.577 195.869 133.168C195.313 132.753 194.625 132.545 193.807 132.545C192.955 132.545 192.244 132.764 191.676 133.202C191.114 133.634 190.69 134.222 190.406 134.966C190.128 135.705 189.989 136.534 189.989 137.455C189.989 138.386 190.131 139.233 190.415 139.994C190.705 140.75 191.131 141.352 191.693 141.801C192.261 142.244 192.966 142.466 193.807 142.466ZM208.986 144.273C207.724 144.273 206.636 143.994 205.722 143.438C204.812 142.875 204.111 142.091 203.616 141.085C203.128 140.074 202.884 138.898 202.884 137.557C202.884 136.216 203.128 135.034 203.616 134.011C204.111 132.983 204.798 132.182 205.679 131.608C206.565 131.028 207.599 130.739 208.781 130.739C209.463 130.739 210.136 130.852 210.801 131.08C211.466 131.307 212.071 131.676 212.616 132.188C213.162 132.693 213.597 133.364 213.92 134.199C214.244 135.034 214.406 136.062 214.406 137.284V138.136H204.315V136.398H212.361C212.361 135.659 212.213 135 211.918 134.42C211.628 133.841 211.213 133.384 210.673 133.048C210.139 132.713 209.509 132.545 208.781 132.545C207.98 132.545 207.287 132.744 206.702 133.142C206.122 133.534 205.676 134.045 205.364 134.676C205.051 135.307 204.895 135.983 204.895 136.705V137.864C204.895 138.852 205.065 139.69 205.406 140.378C205.753 141.06 206.233 141.58 206.847 141.938C207.46 142.29 208.173 142.466 208.986 142.466C209.514 142.466 209.991 142.392 210.418 142.244C210.849 142.091 211.222 141.864 211.534 141.562C211.847 141.256 212.088 140.875 212.259 140.42L214.202 140.966C213.997 141.625 213.653 142.205 213.17 142.705C212.688 143.199 212.091 143.585 211.381 143.864C210.67 144.136 209.872 144.273 208.986 144.273ZM217.466 144V130.909H219.409V132.886H219.545C219.784 132.239 220.216 131.713 220.841 131.31C221.466 130.906 222.17 130.705 222.955 130.705C223.102 130.705 223.287 130.707 223.509 130.713C223.73 130.719 223.898 130.727 224.011 130.739V132.784C223.943 132.767 223.787 132.741 223.543 132.707C223.304 132.668 223.051 132.648 222.784 132.648C222.148 132.648 221.58 132.781 221.08 133.048C220.585 133.31 220.193 133.673 219.903 134.139C219.619 134.599 219.477 135.125 219.477 135.716V144H217.466ZM242.964 130.909C242.862 130.045 242.447 129.375 241.719 128.898C240.992 128.42 240.1 128.182 239.043 128.182C238.271 128.182 237.594 128.307 237.015 128.557C236.441 128.807 235.992 129.151 235.668 129.588C235.35 130.026 235.191 130.523 235.191 131.08C235.191 131.545 235.302 131.946 235.523 132.281C235.751 132.611 236.04 132.886 236.393 133.108C236.745 133.324 237.114 133.503 237.501 133.645C237.887 133.781 238.242 133.892 238.566 133.977L240.339 134.455C240.793 134.574 241.299 134.739 241.856 134.949C242.418 135.159 242.955 135.446 243.467 135.81C243.984 136.168 244.41 136.628 244.745 137.19C245.08 137.753 245.248 138.443 245.248 139.261C245.248 140.205 245.001 141.057 244.506 141.818C244.018 142.58 243.302 143.185 242.359 143.634C241.421 144.082 240.282 144.307 238.941 144.307C237.691 144.307 236.609 144.105 235.694 143.702C234.785 143.298 234.069 142.736 233.546 142.014C233.029 141.293 232.737 140.455 232.668 139.5H234.85C234.907 140.159 235.129 140.705 235.515 141.136C235.907 141.562 236.401 141.881 236.998 142.091C237.6 142.295 238.248 142.398 238.941 142.398C239.748 142.398 240.472 142.267 241.114 142.006C241.756 141.739 242.265 141.369 242.64 140.898C243.015 140.42 243.202 139.864 243.202 139.227C243.202 138.648 243.04 138.176 242.717 137.812C242.393 137.449 241.967 137.153 241.438 136.926C240.91 136.699 240.339 136.5 239.725 136.33L237.577 135.716C236.214 135.324 235.134 134.764 234.339 134.037C233.543 133.31 233.146 132.358 233.146 131.182C233.146 130.205 233.41 129.352 233.938 128.625C234.472 127.892 235.188 127.324 236.086 126.92C236.989 126.511 237.998 126.307 239.112 126.307C240.237 126.307 241.237 126.509 242.112 126.912C242.987 127.31 243.68 127.855 244.191 128.548C244.708 129.241 244.981 130.028 245.009 130.909H242.964ZM254.143 130.909V132.614H247.359V130.909H254.143ZM249.337 127.773H251.348V140.25C251.348 140.818 251.43 141.244 251.595 141.528C251.766 141.807 251.982 141.994 252.243 142.091C252.51 142.182 252.791 142.227 253.087 142.227C253.308 142.227 253.49 142.216 253.632 142.193C253.774 142.165 253.888 142.142 253.973 142.125L254.382 143.932C254.246 143.983 254.055 144.034 253.811 144.085C253.567 144.142 253.257 144.17 252.882 144.17C252.314 144.17 251.757 144.048 251.212 143.804C250.672 143.56 250.223 143.188 249.865 142.688C249.513 142.188 249.337 141.557 249.337 140.795V127.773ZM261.021 144.307C260.192 144.307 259.439 144.151 258.763 143.838C258.087 143.52 257.55 143.062 257.152 142.466C256.754 141.864 256.555 141.136 256.555 140.284C256.555 139.534 256.703 138.926 256.999 138.46C257.294 137.989 257.689 137.619 258.183 137.352C258.678 137.085 259.223 136.886 259.82 136.756C260.422 136.619 261.027 136.511 261.635 136.432C262.43 136.33 263.075 136.253 263.57 136.202C264.07 136.145 264.433 136.051 264.661 135.92C264.893 135.79 265.01 135.562 265.01 135.239V135.17C265.01 134.33 264.78 133.676 264.32 133.21C263.865 132.744 263.175 132.511 262.249 132.511C261.288 132.511 260.536 132.722 259.99 133.142C259.445 133.562 259.061 134.011 258.839 134.489L256.93 133.807C257.271 133.011 257.726 132.392 258.294 131.949C258.868 131.5 259.493 131.187 260.169 131.011C260.851 130.83 261.521 130.739 262.18 130.739C262.601 130.739 263.084 130.79 263.629 130.892C264.18 130.989 264.712 131.19 265.223 131.497C265.74 131.804 266.169 132.267 266.51 132.886C266.851 133.506 267.021 134.335 267.021 135.375V144H265.01V142.227H264.908C264.771 142.511 264.544 142.815 264.226 143.139C263.908 143.463 263.484 143.739 262.956 143.966C262.428 144.193 261.783 144.307 261.021 144.307ZM261.328 142.5C262.124 142.5 262.794 142.344 263.339 142.031C263.891 141.719 264.305 141.315 264.584 140.821C264.868 140.327 265.01 139.807 265.01 139.261V137.42C264.925 137.523 264.737 137.616 264.447 137.702C264.163 137.781 263.834 137.852 263.459 137.915C263.089 137.972 262.729 138.023 262.376 138.068C262.03 138.108 261.749 138.142 261.533 138.17C261.01 138.239 260.521 138.349 260.067 138.503C259.618 138.651 259.254 138.875 258.976 139.176C258.703 139.472 258.567 139.875 258.567 140.386C258.567 141.085 258.825 141.614 259.342 141.972C259.865 142.324 260.527 142.5 261.328 142.5ZM275.636 144.273C274.545 144.273 273.582 143.997 272.746 143.446C271.911 142.889 271.258 142.105 270.786 141.094C270.315 140.077 270.079 138.875 270.079 137.489C270.079 136.114 270.315 134.92 270.786 133.909C271.258 132.898 271.914 132.116 272.755 131.565C273.596 131.014 274.567 130.739 275.67 130.739C276.522 130.739 277.195 130.881 277.69 131.165C278.19 131.443 278.57 131.761 278.832 132.119C279.099 132.472 279.306 132.761 279.454 132.989H279.624V126.545H281.636V144H279.692V141.989H279.454C279.306 142.227 279.096 142.528 278.823 142.892C278.55 143.25 278.161 143.571 277.656 143.855C277.15 144.134 276.477 144.273 275.636 144.273ZM275.908 142.466C276.715 142.466 277.397 142.256 277.954 141.835C278.511 141.409 278.934 140.821 279.224 140.071C279.513 139.315 279.658 138.443 279.658 137.455C279.658 136.477 279.516 135.622 279.232 134.889C278.948 134.151 278.528 133.577 277.971 133.168C277.414 132.753 276.727 132.545 275.908 132.545C275.056 132.545 274.346 132.764 273.778 133.202C273.215 133.634 272.792 134.222 272.508 134.966C272.229 135.705 272.09 136.534 272.09 137.455C272.09 138.386 272.232 139.233 272.516 139.994C272.806 140.75 273.232 141.352 273.795 141.801C274.363 142.244 275.067 142.466 275.908 142.466ZM291.292 130.909V132.614H284.508V130.909H291.292ZM286.485 127.773H288.496V140.25C288.496 140.818 288.579 141.244 288.744 141.528C288.914 141.807 289.13 141.994 289.391 142.091C289.658 142.182 289.94 142.227 290.235 142.227C290.457 142.227 290.638 142.216 290.781 142.193C290.923 142.165 291.036 142.142 291.121 142.125L291.531 143.932C291.394 143.983 291.204 144.034 290.96 144.085C290.715 144.142 290.406 144.17 290.031 144.17C289.462 144.17 288.906 144.048 288.36 143.804C287.82 143.56 287.371 143.188 287.013 142.688C286.661 142.188 286.485 141.557 286.485 140.795V127.773ZM301.34 144V126.545H311.874V128.42H303.454V134.318H311.329V136.193H303.454V142.125H312.011V144H301.34ZM322.911 134.335V136.21H315.275V134.335H322.911ZM340.768 132H338.655C338.53 131.392 338.311 130.858 337.999 130.398C337.692 129.938 337.317 129.551 336.874 129.239C336.436 128.92 335.95 128.682 335.416 128.523C334.882 128.364 334.325 128.284 333.746 128.284C332.689 128.284 331.732 128.551 330.874 129.085C330.021 129.619 329.342 130.406 328.837 131.446C328.337 132.486 328.087 133.761 328.087 135.273C328.087 136.784 328.337 138.06 328.837 139.099C329.342 140.139 330.021 140.926 330.874 141.46C331.732 141.994 332.689 142.261 333.746 142.261C334.325 142.261 334.882 142.182 335.416 142.023C335.95 141.864 336.436 141.628 336.874 141.315C337.317 140.997 337.692 140.608 337.999 140.148C338.311 139.682 338.53 139.148 338.655 138.545H340.768C340.609 139.437 340.32 140.236 339.899 140.94C339.479 141.645 338.956 142.244 338.331 142.739C337.706 143.227 337.004 143.599 336.226 143.855C335.453 144.111 334.626 144.239 333.746 144.239C332.257 144.239 330.933 143.875 329.774 143.148C328.615 142.42 327.703 141.386 327.038 140.045C326.374 138.705 326.041 137.114 326.041 135.273C326.041 133.432 326.374 131.841 327.038 130.5C327.703 129.159 328.615 128.125 329.774 127.398C330.933 126.67 332.257 126.307 333.746 126.307C334.626 126.307 335.453 126.435 336.226 126.69C337.004 126.946 337.706 127.321 338.331 127.815C338.956 128.304 339.479 128.901 339.899 129.605C340.32 130.304 340.609 131.102 340.768 132ZM343.911 144V130.909H345.923V144H343.911ZM344.934 128.727C344.542 128.727 344.204 128.594 343.92 128.327C343.641 128.06 343.502 127.739 343.502 127.364C343.502 126.989 343.641 126.668 343.92 126.401C344.204 126.134 344.542 126 344.934 126C345.326 126 345.661 126.134 345.94 126.401C346.224 126.668 346.366 126.989 346.366 127.364C346.366 127.739 346.224 128.06 345.94 128.327C345.661 128.594 345.326 128.727 344.934 128.727ZM355.3 130.909V132.614H348.516V130.909H355.3ZM350.493 127.773H352.504V140.25C352.504 140.818 352.587 141.244 352.751 141.528C352.922 141.807 353.138 141.994 353.399 142.091C353.666 142.182 353.947 142.227 354.243 142.227C354.464 142.227 354.646 142.216 354.788 142.193C354.93 142.165 355.044 142.142 355.129 142.125L355.538 143.932C355.402 143.983 355.212 144.034 354.967 144.085C354.723 144.142 354.413 144.17 354.038 144.17C353.47 144.17 352.913 144.048 352.368 143.804C351.828 143.56 351.379 143.188 351.021 142.688C350.669 142.188 350.493 141.557 350.493 140.795V127.773ZM359.621 148.909C359.28 148.909 358.976 148.881 358.709 148.824C358.442 148.773 358.257 148.722 358.155 148.67L358.666 146.898C359.155 147.023 359.587 147.068 359.962 147.034C360.337 147 360.669 146.832 360.959 146.531C361.254 146.236 361.524 145.756 361.768 145.091L362.143 144.068L357.303 130.909H359.484L363.098 141.341H363.234L366.848 130.909H369.03L363.473 145.909C363.223 146.585 362.913 147.145 362.544 147.588C362.175 148.037 361.746 148.369 361.257 148.585C360.774 148.801 360.229 148.909 359.621 148.909Z" fill="black"/>
<path d="M516 205.18L525.16 196L516 186.82L518.82 184L530.82 196L518.82 208L516 205.18Z" fill="#FFD037"/>
<path d="M644.887 659.424C640.855 660.264 636.031 662.113 635.557 666.482C635.003 671.356 640.618 674.213 645.125 675.222C662.127 679.171 679.683 679.675 697.159 680.18C789.522 682.532 881.886 682.953 974.251 681.356C972.907 669.34 959.461 664.129 948.312 661.86C900.39 652.113 850.808 657.659 803.757 647.323C754.174 636.315 693.837 648.752 644.887 659.424Z" fill="url(#paint0_linear_423_2538)"/>
<path d="M644.887 659.424C640.855 660.264 636.031 662.113 635.557 666.482C635.003 671.356 640.618 674.213 645.125 675.222C662.127 679.171 679.683 679.675 697.159 680.18C789.522 682.532 881.886 682.953 974.251 681.356C972.907 669.34 959.461 664.129 948.312 661.86C900.39 652.113 850.808 657.659 803.757 647.323C754.174 636.315 693.837 648.752 644.887 659.424Z" fill="url(#paint1_linear_423_2538)"/>
<path d="M896.429 580.265C897.457 579.929 898.564 580.265 899.592 580.602C904.1 582.198 908.528 584.299 912.482 587.072C914.459 588.417 916.436 589.929 917.385 592.198C918.255 594.299 918.176 596.652 918.018 598.837C916.594 625.895 915.249 653.037 913.826 680.096C913.747 681.86 913.51 683.793 912.245 684.886C910.663 686.146 908.449 685.306 906.709 684.465C889.707 676.566 872.785 668.583 855.783 660.684C847.638 656.903 839.255 652.869 833.245 645.894C837.832 635.138 847.48 627.996 856.336 620.769C870.096 609.508 882.749 596.568 893.899 582.45C894.532 581.61 895.322 580.601 896.429 580.265Z" fill="#DDC199"/>
<path d="M976.537 440.855C972.345 439.847 968.073 438.838 963.883 437.83C939.211 485.98 917.385 535.812 898.564 586.904C902.914 589.845 908.686 592.87 912.877 589.677C914.617 588.332 915.646 586.147 916.594 584.047C937.946 536.988 957.952 489.258 976.537 440.855Z" fill="#BDB39B"/>
<g opacity="0.26">
<path opacity="0.26" d="M898.789 675.137C898.71 676.062 900.055 676.398 900.213 675.474C903.613 648.163 908.436 621.357 914.684 594.634C915.079 592.954 912.628 592.449 912.232 594.13C905.748 620.6 901.241 647.827 898.789 675.137Z" fill="#272525"/>
<path opacity="0.26" d="M871.996 663.121C882.434 639.76 893.505 616.735 905.209 594.046C905.92 592.701 903.864 591.609 903.152 592.954C890.974 615.811 879.982 639.34 869.939 663.289C870.097 663.457 870.176 663.625 870.255 663.793C870.809 663.373 871.363 663.205 871.996 663.121Z" fill="#272525"/>
<path opacity="0.26" d="M854.982 647.742C872.458 630.263 888.037 610.852 901.638 589.843C902.508 588.415 900.294 587.238 899.424 588.667C886.06 609.591 870.719 628.919 853.559 646.397C852.689 647.321 854.112 648.666 854.982 647.742Z" fill="#272525"/>
</g>
<path d="M733.765 604.214C733.845 602.954 734.003 601.609 734.081 600.348C723.643 592.785 705.297 595.222 694.226 599.088C682.364 603.205 682.364 610.936 682.522 624.045C682.601 631.44 683.234 639.76 688.611 644.549C692.723 648.247 698.496 648.751 703.874 649.087C708.697 649.423 713.442 649.675 718.266 650.011C721.587 650.179 725.303 650.263 727.913 647.994C730.523 645.642 730.918 641.692 731.235 638.078C732.104 626.734 732.974 615.474 733.765 604.214Z" fill="#2F3F47"/>
<path d="M746.506 604.214C746.427 602.954 746.269 601.609 746.189 600.348C756.628 592.785 774.974 595.222 786.045 599.088C797.907 603.205 797.907 610.936 797.749 624.045C797.67 631.44 797.037 639.76 791.659 644.549C787.547 648.247 781.775 648.751 776.397 649.087C771.574 649.423 766.829 649.675 762.005 650.011C758.684 650.179 754.967 650.263 752.358 647.994C749.748 645.642 749.353 641.692 749.037 638.078C748.246 626.734 747.376 615.474 746.506 604.214Z" fill="#2F3F47"/>
<path d="M657.448 576.148C654.838 576.735 652.308 577.576 649.856 578.668C648.037 579.424 646.219 580.433 644.953 581.945C643.214 584.13 642.739 587.156 642.423 590.097C642.028 593.963 641.869 597.828 641.949 601.693C641.949 604.97 642.186 608.332 643.768 611.105C645.982 614.971 650.331 616.735 654.443 617.827C662.272 619.929 670.417 620.432 678.483 620.853C727.274 623.374 776.224 621.692 824.778 615.895C826.755 615.643 828.969 615.307 830.313 613.71C831.104 612.786 831.5 611.525 831.895 610.348C834.425 601.777 836.086 590.097 830.63 582.114C825.964 575.307 817.345 579.172 810.861 579.088C804.218 579.004 797.496 578.416 790.853 578.164C777.884 577.576 764.916 576.987 751.947 576.567C733.68 575.895 715.334 575.307 697.066 574.803C684.73 574.551 670.18 573.122 657.448 576.148Z" fill="#516770"/>
<path d="M762.308 391.695C795.442 391.863 828.497 392.62 861.631 393.376C860.84 374.637 859.575 355.897 855.779 337.578C849.215 305.478 834.191 274.134 808.806 255.395C769.9 226.656 708.14 230.437 666.228 258.84C648.593 270.772 634.439 287.159 627.005 307.242C618.465 330.183 616.171 355.225 614.827 379.847C614.668 383.124 614.511 386.317 614.353 389.594C663.539 387.577 713.042 391.527 762.308 391.695Z" fill="#EAF1F2"/>
<path d="M759.657 401.108C711.103 401.024 662.39 397.327 613.836 399.175C611.464 455.141 613.678 511.359 620.479 566.989C621.428 574.636 622.614 582.618 627.359 588.668C634.713 597.996 647.445 593.878 657.33 593.878C674.015 593.878 691.175 594.635 708.019 595.055C739.809 595.811 771.361 595.895 802.992 592.114C818.017 590.35 848.383 595.223 855.579 580.853C861.51 569.173 859.059 545.476 859.929 532.451C860.957 516.989 861.748 501.611 862.222 486.149C863.092 458.334 862.934 430.519 861.905 402.62C827.902 401.948 793.74 401.108 759.657 401.108Z" fill="#E2ECED"/>
<path d="M874.329 491.696C874.962 491.107 875.041 490.099 875.12 489.259C876.78 465.982 878.204 442.704 879.232 419.427C879.311 417.41 879.311 415.058 877.808 413.713C876.701 412.789 875.278 412.705 873.854 412.705C868.951 412.621 864.128 412.537 859.225 412.537C856.141 439.007 854.876 465.645 855.508 492.284C860.965 492.284 866.342 492.368 871.798 492.368C872.668 492.368 873.617 492.368 874.329 491.696Z" fill="#2F3F47"/>
<path d="M899.535 545.309C900.168 543.377 900.88 541.36 902.303 539.931C903.41 538.839 904.912 538.167 906.336 537.662C912.504 535.309 918.83 533.545 925.236 532.368C930.218 535.982 934.725 540.268 938.6 545.225C939.312 546.15 940.023 547.158 940.182 548.335C940.34 549.259 940.103 550.183 939.865 551.108C937.335 561.444 934.883 571.78 932.353 582.116C928.636 582.62 924.92 582.704 921.282 582.2C922.705 575.897 924.129 569.595 925.473 563.376C926.818 557.41 927.846 550.099 923.576 545.898C919.226 547.074 914.956 548.335 910.606 549.511C909.895 549.679 909.104 549.931 908.471 550.435C907.76 551.108 907.443 552.116 907.127 553.04C905.308 558.923 903.964 564.973 903.015 571.108C900.247 570.267 897.479 569.51 894.712 568.67C894.474 560.687 897.005 552.873 899.535 545.309Z" fill="#2F3F47"/>
<path d="M933.143 536.234C933.38 535.982 933.459 535.647 933.538 535.394C934.329 531.613 935.12 527.831 935.99 524.133C930.454 522.789 924.761 521.864 919.146 521.36C918.276 524.47 917.723 527.747 917.486 531.024C917.406 531.697 917.406 532.537 917.881 533.041C918.197 533.377 918.593 533.461 918.988 533.63C923.179 534.974 927.529 535.982 931.957 536.57C932.273 536.486 932.747 536.571 933.143 536.234Z" fill="#516770"/>
<path d="M938.687 521.53C942.008 515.563 939.32 499.849 939.32 493.547C939.241 484.891 939.241 476.152 937.342 467.749C935.445 459.345 931.57 451.11 925.164 445.816C921.527 442.791 917.256 440.859 912.828 439.262C899.622 434.472 885.467 432.876 871.628 434.64C870.521 434.808 869.335 434.976 868.544 435.817C867.674 436.657 867.516 438.001 867.358 439.262C866.725 444.052 865.856 449.346 866.093 454.219C866.488 462.791 864.828 460.438 870.68 462.875C875.187 464.724 883.648 463.211 888.788 464.472C894.798 465.9 900.65 468.085 906.502 470.27C910.218 471.614 914.172 473.295 916.07 476.908C917.098 478.841 917.415 481.194 917.652 483.463C919.075 496.909 919.708 510.437 919.629 523.967C919.629 526.319 935.919 525.143 938.054 522.538C938.291 522.202 938.45 521.866 938.687 521.53Z" fill="#E2ECED"/>
<g opacity="0.15">
<path opacity="0.15" d="M911.002 443.128C910.528 451.195 908.551 458.506 905.546 465.901C904.993 467.329 906.653 468.422 907.523 467.162C912.267 460.103 914.719 451.699 915.589 443.128C915.906 440.103 911.24 440.018 911.002 443.128Z" fill="#272525"/>
<path opacity="0.15" d="M923.105 448.925C921.761 456.741 918.44 461.867 913.221 467.413C912.509 468.169 913.457 469.429 914.248 468.841C917.807 466.488 921.128 464.976 923.658 461.195C926.031 457.665 927.612 453.883 928.087 449.598C928.403 446.657 923.659 445.984 923.105 448.925Z" fill="#272525"/>
</g>
<path d="M606.075 413.209C605.442 413.797 605.364 414.806 605.284 415.646C603.624 438.923 602.2 462.2 601.172 485.477C601.093 487.494 601.093 489.847 602.596 491.191C603.703 492.116 605.126 492.2 606.549 492.2C611.452 492.284 616.276 492.368 621.179 492.368C624.263 465.898 625.528 439.259 624.896 412.621C619.439 412.621 614.062 412.537 608.606 412.537C607.736 412.537 606.708 412.537 606.075 413.209Z" fill="#2F3F47"/>
<path d="M544.78 384.554C545.017 386.571 545.254 388.755 544.542 390.604C543.989 392.116 542.961 393.377 541.854 394.554C537.346 399.511 532.444 404.134 527.145 408.251C521.135 407.411 515.284 405.646 509.827 403.041C508.799 402.537 507.692 402.033 507.059 401.024C506.585 400.268 506.348 399.343 506.189 398.419C504.133 387.999 501.998 377.495 499.942 367.075C503.026 364.89 506.348 363.041 509.827 361.696C511.172 367.999 512.595 374.301 513.939 380.604C515.283 386.57 517.418 393.629 522.954 395.31C526.354 392.201 529.676 389.091 533.076 385.982C533.63 385.478 534.262 384.89 534.579 384.134C534.974 383.209 534.816 382.116 534.657 381.108C533.788 374.974 532.522 368.924 530.783 362.957C533.63 362.369 536.397 361.781 539.244 361.192C542.882 368.335 543.831 376.57 544.78 384.554Z" fill="#2F3F47"/>
<path d="M518.509 408.503C518.43 408.839 518.509 409.176 518.509 409.428C519.379 413.209 520.249 416.906 521.039 420.688C526.575 419.259 532.031 417.411 537.329 415.226C536.855 412.032 535.985 408.839 534.799 405.814C534.562 405.142 534.246 404.469 533.613 404.217C533.218 404.049 532.822 404.133 532.347 404.217C527.998 404.974 523.728 406.15 519.537 407.663C519.141 407.831 518.667 408.083 518.509 408.503Z" fill="#516770"/>
<path d="M519.714 424.303C519.16 431.193 528.175 443.966 530.864 449.68C534.501 457.412 538.218 465.227 543.437 471.865C548.657 478.504 555.536 484.05 563.523 485.73C568.031 486.739 572.696 486.487 577.283 485.815C591.122 483.882 604.486 478.672 616.11 470.521C617.059 469.848 618.008 469.176 618.404 468C618.799 466.823 618.404 465.563 618.087 464.302C616.585 459.681 615.24 454.555 612.947 450.269C608.993 442.79 611.524 444.134 605.197 444.638C600.374 445.059 593.415 450.437 588.275 451.782C582.265 453.378 576.097 454.134 570.008 454.975C566.133 455.479 561.863 455.899 558.62 453.546C556.88 452.286 555.615 450.353 554.508 448.42C547.628 437.075 541.381 425.227 535.767 413.043C534.818 410.942 520.742 419.681 519.872 423.042C519.793 423.546 519.714 423.883 519.714 424.303Z" fill="#E2ECED"/>
<g opacity="0.15">
<path opacity="0.15" d="M577.187 481.442C574.261 473.963 572.996 466.484 572.521 458.417C572.442 456.821 570.465 456.653 570.228 458.25C568.962 466.821 570.228 475.476 573.075 483.543C574.103 486.484 578.373 484.299 577.187 481.442Z" fill="#272525"/>
<path opacity="0.15" d="M563.995 482.031C561.939 474.384 562.73 468.25 565.102 460.771C565.419 459.763 564.074 459.09 563.521 459.93C561.386 463.712 559.013 466.653 558.302 471.191C557.669 475.476 557.827 479.594 559.251 483.627C560.2 486.568 564.707 484.888 563.995 482.031Z" fill="#272525"/>
</g>
<path d="M636.436 336.739C636.514 339.932 636.672 343.209 637.938 346.151C641.18 353.461 649.72 355.814 657.233 357.159C700.172 364.805 744.061 367.411 787.238 361.612C792.931 360.856 798.625 359.932 803.844 357.411C809.064 354.89 813.729 350.604 815.627 344.974C816.813 341.36 816.892 337.495 816.971 333.63C817.05 329.764 817.05 325.815 817.129 321.949C817.129 320.185 817.129 318.42 816.497 316.739C815.785 314.974 814.362 313.546 812.859 312.453C807.166 308.336 799.969 307.411 793.09 306.655C747.383 301.781 701.122 297.496 655.652 304.05C653.754 304.302 651.776 304.638 650.432 306.067C649.72 306.739 649.246 307.664 648.534 308.336C647.19 309.428 645.371 309.344 643.79 309.932C639.361 311.445 637.78 317.244 637.226 322.202C636.594 326.991 636.356 331.865 636.436 336.739Z" fill="#2F3F47"/>
<path opacity="0.2" d="M693.679 343.796C695.182 340.855 695.419 337.41 695.103 334.049C694.945 332.032 694.47 329.932 693.284 328.419C690.753 325.226 686.088 325.562 682.213 324.806C678.813 326.318 675.965 329.259 674.542 332.873C673.672 335.057 673.277 337.41 673.514 339.763C674.068 344.553 677.785 348.671 682.213 349.511C686.72 350.52 691.544 348.082 693.679 343.796Z" fill="#EAF1F2"/>
<path opacity="0.2" d="M768.983 343.796C770.485 340.855 770.723 337.41 770.406 334.049C770.248 332.032 769.774 329.932 768.587 328.419C766.057 325.226 761.392 325.562 757.517 324.806C754.116 326.318 751.269 329.259 749.846 332.873C748.976 335.057 748.581 337.41 748.818 339.763C749.371 344.553 753.088 348.671 757.517 349.511C761.945 350.52 766.768 348.082 768.983 343.796Z" fill="#EAF1F2"/>
<defs>
<linearGradient id="paint0_linear_423_2538" x1="635.571" y1="662.658" x2="974.341" y2="662.658" gradientUnits="userSpaceOnUse">
<stop stop-color="#4D4D4D"/>
<stop offset="1"/>
</linearGradient>
<linearGradient id="paint1_linear_423_2538" x1="635.571" y1="662.658" x2="974.341" y2="662.658" gradientUnits="userSpaceOnUse">
<stop/>
<stop offset="1"/>
</linearGradient>
</defs>
</svg>
