<svg width="983" height="721" viewBox="0 0 983 721" fill="none" xmlns="http://www.w3.org/2000/svg">
<path d="M464.648 301C464.462 301 464.277 300.996 464.09 300.987C461.909 300.894 459.779 300.185 457.882 298.919C455.985 297.654 454.377 295.87 453.194 293.718C444.334 278.187 433.461 264.373 420.968 252.775C413.405 245.685 405.502 239.093 397.86 232.717C378.143 216.274 359.575 200.788 349.268 179.389C326.796 132.729 353.261 67.7384 391.068 38.5923C433.474 5.90327 489.252 0.77573 543.211 0.103761C548.819 0.0342062 554.43 -0.000362368 560.045 2.86387e-06C657.268 0.0437266 754.287 10.4486 849.904 31.0862C881.7 37.9664 914.981 46.3949 941.726 66.8494C968.311 87.1829 984.471 119.203 982.894 148.427C980.593 191.09 942.034 222.968 906.922 231.302C873.456 239.24 838.689 233.876 801.883 228.195C793.757 226.942 785.356 225.645 777.048 224.518C686.755 212.277 517.133 250.007 509.957 251.62L502.838 253.218L475.214 294.913C473.971 296.813 472.371 298.351 470.538 299.407C468.706 300.463 466.69 301.008 464.648 301Z" fill="white"/>
<path d="M450.045 74C449.858 73.4261 449.611 72.9119 449.304 72.4574C449.003 71.9972 448.642 71.6051 448.222 71.2812C447.807 70.9574 447.335 70.7102 446.807 70.5398C446.278 70.3693 445.699 70.2841 445.068 70.2841C444.034 70.2841 443.094 70.5511 442.247 71.0852C441.401 71.6193 440.727 72.4062 440.227 73.446C439.727 74.4858 439.477 75.7614 439.477 77.2727C439.477 78.7841 439.73 80.0597 440.236 81.0994C440.741 82.1392 441.426 82.9261 442.29 83.4602C443.153 83.9943 444.125 84.2614 445.205 84.2614C446.205 84.2614 447.085 84.0483 447.847 83.6222C448.614 83.1903 449.21 82.5824 449.636 81.7983C450.068 81.0085 450.284 80.0795 450.284 79.0114L450.932 79.1477H445.682V77.2727H452.33V79.1477C452.33 80.5852 452.023 81.8352 451.409 82.8977C450.801 83.9602 449.96 84.7841 448.886 85.3693C447.818 85.9489 446.591 86.2386 445.205 86.2386C443.659 86.2386 442.301 85.875 441.131 85.1477C439.966 84.4205 439.057 83.3864 438.403 82.0455C437.756 80.7045 437.432 79.1136 437.432 77.2727C437.432 75.892 437.616 74.6506 437.986 73.5483C438.361 72.4403 438.889 71.4972 439.571 70.7188C440.253 69.9403 441.06 69.3438 441.991 68.929C442.923 68.5142 443.949 68.3068 445.068 68.3068C445.989 68.3068 446.847 68.446 447.642 68.7244C448.443 68.9972 449.156 69.3864 449.781 69.892C450.412 70.392 450.938 70.9915 451.358 71.6903C451.778 72.3835 452.068 73.1534 452.227 74H450.045ZM455.677 86V72.9091H457.62V74.8864H457.756C457.995 74.2386 458.427 73.7131 459.052 73.3097C459.677 72.9062 460.381 72.7045 461.165 72.7045C461.313 72.7045 461.498 72.7074 461.719 72.7131C461.941 72.7187 462.109 72.7273 462.222 72.7386V74.7841C462.154 74.767 461.998 74.7415 461.754 74.7074C461.515 74.6676 461.262 74.6477 460.995 74.6477C460.359 74.6477 459.79 74.7812 459.29 75.0483C458.796 75.3097 458.404 75.6733 458.114 76.1392C457.83 76.5994 457.688 77.125 457.688 77.7159V86H455.677ZM469.526 86.2727C468.344 86.2727 467.308 85.9915 466.415 85.429C465.529 84.8665 464.836 84.0795 464.336 83.0682C463.842 82.0568 463.594 80.875 463.594 79.5227C463.594 78.1591 463.842 76.9687 464.336 75.9517C464.836 74.9347 465.529 74.1449 466.415 73.5824C467.308 73.0199 468.344 72.7386 469.526 72.7386C470.708 72.7386 471.742 73.0199 472.629 73.5824C473.521 74.1449 474.214 74.9347 474.708 75.9517C475.208 76.9687 475.458 78.1591 475.458 79.5227C475.458 80.875 475.208 82.0568 474.708 83.0682C474.214 84.0795 473.521 84.8665 472.629 85.429C471.742 85.9915 470.708 86.2727 469.526 86.2727ZM469.526 84.4659C470.424 84.4659 471.163 84.2358 471.742 83.7756C472.322 83.3153 472.751 82.7102 473.029 81.9602C473.308 81.2102 473.447 80.3977 473.447 79.5227C473.447 78.6477 473.308 77.8324 473.029 77.0767C472.751 76.321 472.322 75.7102 471.742 75.2443C471.163 74.7784 470.424 74.5455 469.526 74.5455C468.629 74.5455 467.89 74.7784 467.31 75.2443C466.731 75.7102 466.302 76.321 466.023 77.0767C465.745 77.8324 465.606 78.6477 465.606 79.5227C465.606 80.3977 465.745 81.2102 466.023 81.9602C466.302 82.7102 466.731 83.3153 467.31 83.7756C467.89 84.2358 468.629 84.4659 469.526 84.4659ZM478.801 86V73.0114C478.801 72.0398 479.014 71.2017 479.44 70.4972C479.872 69.7926 480.466 69.2528 481.222 68.8778C481.983 68.4972 482.858 68.3068 483.847 68.3068C484.813 68.3068 485.679 68.4886 486.446 68.8523C487.213 69.2159 487.818 69.733 488.261 70.4034C488.705 71.0739 488.926 71.875 488.926 72.8068C488.926 73.8011 488.67 74.6392 488.159 75.321C487.648 75.9972 486.983 76.4773 486.165 76.7614V76.9318C487.273 77.0398 488.179 77.4744 488.884 78.2358C489.594 78.9915 489.949 79.9773 489.949 81.1932C489.949 82.1136 489.739 82.9375 489.318 83.6648C488.898 84.3864 488.307 84.9574 487.545 85.3778C486.784 85.7926 485.892 86 484.869 86H482.96V84.125H484.903C485.523 84.125 486.057 84 486.506 83.75C486.96 83.5 487.312 83.1534 487.562 82.7102C487.812 82.267 487.938 81.7614 487.938 81.1932C487.938 80.2955 487.634 79.554 487.026 78.9688C486.418 78.3835 485.597 78.0909 484.562 78.0909H483.028V76.1818H484.119C484.693 76.1818 485.188 76.0369 485.602 75.7472C486.023 75.4517 486.347 75.071 486.574 74.6051C486.801 74.1335 486.915 73.6364 486.915 73.1136C486.915 72.2955 486.642 71.6023 486.097 71.0341C485.557 70.4659 484.818 70.1818 483.881 70.1818C483 70.1818 482.267 70.446 481.682 70.9744C481.102 71.4972 480.812 72.1761 480.812 73.0114V86H478.801ZM498.642 86.2727C497.381 86.2727 496.293 85.9943 495.378 85.4375C494.469 84.875 493.767 84.0909 493.273 83.0852C492.784 82.0739 492.54 80.8977 492.54 79.5568C492.54 78.2159 492.784 77.0341 493.273 76.0114C493.767 74.983 494.455 74.1818 495.335 73.608C496.222 73.0284 497.256 72.7386 498.438 72.7386C499.119 72.7386 499.793 72.8523 500.457 73.0795C501.122 73.3068 501.727 73.6761 502.273 74.1875C502.818 74.6932 503.253 75.3636 503.577 76.1989C503.901 77.0341 504.062 78.0625 504.062 79.2841V80.1364H493.972V78.3977H502.017C502.017 77.6591 501.869 77 501.574 76.4205C501.284 75.8409 500.869 75.3835 500.33 75.0483C499.795 74.7131 499.165 74.5455 498.438 74.5455C497.636 74.5455 496.943 74.7443 496.358 75.142C495.778 75.5341 495.332 76.0455 495.02 76.6761C494.707 77.3068 494.551 77.983 494.551 78.7045V79.8636C494.551 80.8523 494.722 81.6903 495.062 82.3778C495.409 83.0597 495.889 83.5795 496.503 83.9375C497.116 84.2898 497.83 84.4659 498.642 84.4659C499.17 84.4659 499.648 84.392 500.074 84.2443C500.506 84.0909 500.878 83.8636 501.19 83.5625C501.503 83.2557 501.744 82.875 501.915 82.4205L503.858 82.9659C503.653 83.625 503.31 84.2045 502.827 84.7045C502.344 85.1989 501.747 85.5852 501.037 85.8636C500.327 86.1364 499.528 86.2727 498.642 86.2727ZM517.315 86L512.543 68.5455H514.69L518.338 82.7614H518.509L522.224 68.5455H524.611L528.327 82.7614H528.497L532.145 68.5455H534.293L529.52 86H527.338L523.486 72.0909H523.349L519.497 86H517.315ZM540.753 86.2727C539.571 86.2727 538.534 85.9915 537.642 85.429C536.756 84.8665 536.062 84.0795 535.562 83.0682C535.068 82.0568 534.821 80.875 534.821 79.5227C534.821 78.1591 535.068 76.9687 535.562 75.9517C536.062 74.9347 536.756 74.1449 537.642 73.5824C538.534 73.0199 539.571 72.7386 540.753 72.7386C541.935 72.7386 542.969 73.0199 543.855 73.5824C544.747 74.1449 545.44 74.9347 545.935 75.9517C546.435 76.9687 546.685 78.1591 546.685 79.5227C546.685 80.875 546.435 82.0568 545.935 83.0682C545.44 84.0795 544.747 84.8665 543.855 85.429C542.969 85.9915 541.935 86.2727 540.753 86.2727ZM540.753 84.4659C541.651 84.4659 542.389 84.2358 542.969 83.7756C543.548 83.3153 543.977 82.7102 544.256 81.9602C544.534 81.2102 544.673 80.3977 544.673 79.5227C544.673 78.6477 544.534 77.8324 544.256 77.0767C543.977 76.321 543.548 75.7102 542.969 75.2443C542.389 74.7784 541.651 74.5455 540.753 74.5455C539.855 74.5455 539.116 74.7784 538.537 75.2443C537.957 75.7102 537.528 76.321 537.25 77.0767C536.972 77.8324 536.832 78.6477 536.832 79.5227C536.832 80.3977 536.972 81.2102 537.25 81.9602C537.528 82.7102 537.957 83.3153 538.537 83.7756C539.116 84.2358 539.855 84.4659 540.753 84.4659ZM551.766 68.5455V86H549.755V68.5455H551.766ZM557.325 81.2273L557.291 78.7386H557.7L563.428 72.9091H565.916L559.814 79.0795H559.643L557.325 81.2273ZM555.45 86V68.5455H557.462V86H555.45ZM563.768 86L558.655 79.5227L560.087 78.125L566.325 86H563.768ZM573.455 86.2727C572.193 86.2727 571.105 85.9943 570.19 85.4375C569.281 84.875 568.58 84.0909 568.085 83.0852C567.597 82.0739 567.352 80.8977 567.352 79.5568C567.352 78.2159 567.597 77.0341 568.085 76.0114C568.58 74.983 569.267 74.1818 570.148 73.608C571.034 73.0284 572.068 72.7386 573.25 72.7386C573.932 72.7386 574.605 72.8523 575.27 73.0795C575.935 73.3068 576.54 73.6761 577.085 74.1875C577.631 74.6932 578.065 75.3636 578.389 76.1989C578.713 77.0341 578.875 78.0625 578.875 79.2841V80.1364H568.784V78.3977H576.83C576.83 77.6591 576.682 77 576.386 76.4205C576.097 75.8409 575.682 75.3835 575.142 75.0483C574.608 74.7131 573.977 74.5455 573.25 74.5455C572.449 74.5455 571.756 74.7443 571.17 75.142C570.591 75.5341 570.145 76.0455 569.832 76.6761C569.52 77.3068 569.364 77.983 569.364 78.7045V79.8636C569.364 80.8523 569.534 81.6903 569.875 82.3778C570.222 83.0597 570.702 83.5795 571.315 83.9375C571.929 84.2898 572.642 84.4659 573.455 84.4659C573.983 84.4659 574.46 84.392 574.886 84.2443C575.318 84.0909 575.69 83.8636 576.003 83.5625C576.315 83.2557 576.557 82.875 576.727 82.4205L578.67 82.9659C578.466 83.625 578.122 84.2045 577.639 84.7045C577.156 85.1989 576.56 85.5852 575.849 85.8636C575.139 86.1364 574.341 86.2727 573.455 86.2727ZM583.946 78.125V86H581.935V72.9091H583.878V74.9545H584.048C584.355 74.2898 584.821 73.7557 585.446 73.3523C586.071 72.9432 586.878 72.7386 587.866 72.7386C588.753 72.7386 589.528 72.9205 590.193 73.2841C590.858 73.642 591.375 74.1875 591.744 74.9205C592.114 75.6477 592.298 76.5682 592.298 77.6818V86H590.287V77.8182C590.287 76.7898 590.02 75.9886 589.486 75.4148C588.952 74.8352 588.219 74.5455 587.287 74.5455C586.645 74.5455 586.071 74.6847 585.565 74.9631C585.065 75.2415 584.67 75.6477 584.381 76.1818C584.091 76.7159 583.946 77.3636 583.946 78.125ZM604.735 78.125V86H602.724V68.5455H604.735V74.9545H604.906C605.212 74.2784 605.673 73.7415 606.286 73.3438C606.906 72.9403 607.729 72.7386 608.758 72.7386C609.65 72.7386 610.431 72.9176 611.102 73.2756C611.772 73.6278 612.292 74.1705 612.661 74.9034C613.036 75.6307 613.224 76.5568 613.224 77.6818V86H611.212V77.8182C611.212 76.7784 610.942 75.9744 610.403 75.4062C609.869 74.8324 609.127 74.5455 608.178 74.5455C607.519 74.5455 606.928 74.6847 606.406 74.9631C605.888 75.2415 605.479 75.6477 605.178 76.1818C604.883 76.7159 604.735 77.3636 604.735 78.125ZM620.756 86.3068C619.926 86.3068 619.173 86.1506 618.497 85.8381C617.821 85.5199 617.284 85.0625 616.886 84.4659C616.489 83.8636 616.29 83.1364 616.29 82.2841C616.29 81.5341 616.438 80.9261 616.733 80.4602C617.028 79.9886 617.423 79.6193 617.918 79.3523C618.412 79.0852 618.957 78.8864 619.554 78.7557C620.156 78.6193 620.761 78.5114 621.369 78.4318C622.165 78.3295 622.81 78.2528 623.304 78.2017C623.804 78.1449 624.168 78.0511 624.395 77.9205C624.628 77.7898 624.744 77.5625 624.744 77.2386V77.1705C624.744 76.3295 624.514 75.6761 624.054 75.2102C623.599 74.7443 622.909 74.5114 621.983 74.5114C621.023 74.5114 620.27 74.7216 619.724 75.142C619.179 75.5625 618.795 76.0114 618.574 76.4886L616.665 75.8068C617.006 75.0114 617.46 74.392 618.028 73.9489C618.602 73.5 619.227 73.1875 619.903 73.0114C620.585 72.8295 621.256 72.7386 621.915 72.7386C622.335 72.7386 622.818 72.7898 623.364 72.892C623.915 72.9886 624.446 73.1903 624.957 73.4972C625.474 73.804 625.903 74.267 626.244 74.8864C626.585 75.5057 626.756 76.3352 626.756 77.375V86H624.744V84.2273H624.642C624.506 84.5114 624.278 84.8153 623.96 85.1392C623.642 85.4631 623.219 85.7386 622.69 85.9659C622.162 86.1932 621.517 86.3068 620.756 86.3068ZM621.062 84.5C621.858 84.5 622.528 84.3438 623.074 84.0312C623.625 83.7188 624.04 83.3153 624.318 82.821C624.602 82.3267 624.744 81.8068 624.744 81.2614V79.4205C624.659 79.5227 624.472 79.6165 624.182 79.7017C623.898 79.7812 623.568 79.8523 623.193 79.9148C622.824 79.9716 622.463 80.0227 622.111 80.0682C621.764 80.108 621.483 80.142 621.267 80.1705C620.744 80.2386 620.256 80.3494 619.801 80.5028C619.352 80.6506 618.989 80.875 618.71 81.1761C618.438 81.4716 618.301 81.875 618.301 82.3864C618.301 83.0852 618.56 83.6136 619.077 83.9716C619.599 84.3239 620.261 84.5 621.062 84.5ZM619.597 70.7273C619.239 70.7273 618.92 70.5909 618.642 70.3182C618.369 70.0398 618.233 69.7216 618.233 69.3636C618.233 68.9716 618.369 68.6477 618.642 68.392C618.92 68.1307 619.239 68 619.597 68C619.989 68 620.313 68.1307 620.568 68.392C620.83 68.6477 620.96 68.9716 620.96 69.3636C620.96 69.7216 620.83 70.0398 620.568 70.3182C620.313 70.5909 619.989 70.7273 619.597 70.7273ZM624.506 70.7273C624.148 70.7273 623.83 70.5909 623.551 70.3182C623.278 70.0398 623.142 69.7216 623.142 69.3636C623.142 68.9716 623.278 68.6477 623.551 68.392C623.83 68.1307 624.148 68 624.506 68C624.898 68 625.222 68.1307 625.477 68.392C625.739 68.6477 625.869 68.9716 625.869 69.3636C625.869 69.7216 625.739 70.0398 625.477 70.3182C625.222 70.5909 624.898 70.7273 624.506 70.7273ZM632.438 78.125V86H630.427V72.9091H632.37V74.9545H632.54C632.847 74.2898 633.313 73.7557 633.938 73.3523C634.563 72.9432 635.37 72.7386 636.359 72.7386C637.245 72.7386 638.021 72.9205 638.685 73.2841C639.35 73.642 639.867 74.1875 640.237 74.9205C640.606 75.6477 640.79 76.5682 640.79 77.6818V86H638.779V77.8182C638.779 76.7898 638.512 75.9886 637.978 75.4148C637.444 74.8352 636.711 74.5455 635.779 74.5455C635.137 74.5455 634.563 74.6847 634.058 74.9631C633.558 75.2415 633.163 75.6477 632.873 76.1818C632.583 76.7159 632.438 77.3636 632.438 78.125ZM649.75 91.1818C648.778 91.1818 647.943 91.0568 647.244 90.8068C646.545 90.5625 645.963 90.2386 645.497 89.8352C645.037 89.4375 644.67 89.0114 644.398 88.5568L646 87.4318C646.182 87.6705 646.412 87.9432 646.69 88.25C646.969 88.5625 647.349 88.8324 647.832 89.0597C648.321 89.2926 648.96 89.4091 649.75 89.4091C650.807 89.4091 651.679 89.1534 652.366 88.642C653.054 88.1307 653.398 87.3295 653.398 86.2386V83.5795H653.227C653.08 83.8182 652.869 84.1136 652.597 84.4659C652.33 84.8125 651.943 85.1222 651.438 85.3949C650.938 85.6619 650.261 85.7955 649.409 85.7955C648.352 85.7955 647.403 85.5455 646.562 85.0455C645.727 84.5455 645.065 83.8182 644.577 82.8636C644.094 81.9091 643.852 80.75 643.852 79.3864C643.852 78.0455 644.088 76.8778 644.56 75.8835C645.031 74.8835 645.688 74.1108 646.528 73.5653C647.369 73.0142 648.341 72.7386 649.443 72.7386C650.295 72.7386 650.972 72.8807 651.472 73.1648C651.977 73.4432 652.364 73.7614 652.631 74.1193C652.903 74.4716 653.114 74.7614 653.261 74.9886H653.466V72.9091H655.409V86.375C655.409 87.5 655.153 88.4148 654.642 89.1193C654.136 89.8295 653.455 90.3494 652.597 90.679C651.744 91.0142 650.795 91.1818 649.75 91.1818ZM649.682 83.9886C650.489 83.9886 651.17 83.804 651.727 83.4347C652.284 83.0653 652.707 82.5341 652.997 81.8409C653.287 81.1477 653.432 80.3182 653.432 79.3523C653.432 78.4091 653.29 77.5767 653.006 76.8551C652.722 76.1335 652.301 75.5682 651.744 75.1591C651.188 74.75 650.5 74.5455 649.682 74.5455C648.83 74.5455 648.119 74.7614 647.551 75.1932C646.989 75.625 646.565 76.2045 646.281 76.9318C646.003 77.6591 645.864 78.4659 645.864 79.3523C645.864 80.2614 646.006 81.0653 646.29 81.7642C646.58 82.4574 647.006 83.0028 647.568 83.4006C648.136 83.7926 648.841 83.9886 649.682 83.9886ZM664.58 86.2727C663.318 86.2727 662.23 85.9943 661.315 85.4375C660.406 84.875 659.705 84.0909 659.21 83.0852C658.722 82.0739 658.477 80.8977 658.477 79.5568C658.477 78.2159 658.722 77.0341 659.21 76.0114C659.705 74.983 660.392 74.1818 661.273 73.608C662.159 73.0284 663.193 72.7386 664.375 72.7386C665.057 72.7386 665.73 72.8523 666.395 73.0795C667.06 73.3068 667.665 73.6761 668.21 74.1875C668.756 74.6932 669.19 75.3636 669.514 76.1989C669.838 77.0341 670 78.0625 670 79.2841V80.1364H659.909V78.3977H667.955C667.955 77.6591 667.807 77 667.511 76.4205C667.222 75.8409 666.807 75.3835 666.267 75.0483C665.733 74.7131 665.102 74.5455 664.375 74.5455C663.574 74.5455 662.881 74.7443 662.295 75.142C661.716 75.5341 661.27 76.0455 660.957 76.6761C660.645 77.3068 660.489 77.983 660.489 78.7045V79.8636C660.489 80.8523 660.659 81.6903 661 82.3778C661.347 83.0597 661.827 83.5795 662.44 83.9375C663.054 84.2898 663.767 84.4659 664.58 84.4659C665.108 84.4659 665.585 84.392 666.011 84.2443C666.443 84.0909 666.815 83.8636 667.128 83.5625C667.44 83.2557 667.682 82.875 667.852 82.4205L669.795 82.9659C669.591 83.625 669.247 84.2045 668.764 84.7045C668.281 85.1989 667.685 85.5852 666.974 85.8636C666.264 86.1364 665.466 86.2727 664.58 86.2727ZM675.071 78.125V86H673.06V72.9091H675.003V74.9545H675.173C675.48 74.2898 675.946 73.7557 676.571 73.3523C677.196 72.9432 678.003 72.7386 678.991 72.7386C679.878 72.7386 680.653 72.9205 681.318 73.2841C681.983 73.642 682.5 74.1875 682.869 74.9205C683.239 75.6477 683.423 76.5682 683.423 77.6818V86H681.412V77.8182C681.412 76.7898 681.145 75.9886 680.611 75.4148C680.077 74.8352 679.344 74.5455 678.412 74.5455C677.77 74.5455 677.196 74.6847 676.69 74.9631C676.19 75.2415 675.795 75.6477 675.506 76.1818C675.216 76.7159 675.071 77.3636 675.071 78.125ZM702.099 80.6477V72.9091H704.11V86H702.099V83.7841H701.962C701.656 84.4489 701.178 85.0142 700.531 85.4801C699.883 85.9403 699.065 86.1705 698.076 86.1705C697.258 86.1705 696.531 85.9915 695.894 85.6335C695.258 85.2699 694.758 84.7244 694.394 83.9972C694.031 83.2642 693.849 82.3409 693.849 81.2273V72.9091H695.86V81.0909C695.86 82.0455 696.127 82.8068 696.661 83.375C697.201 83.9432 697.888 84.2273 698.724 84.2273C699.224 84.2273 699.732 84.0994 700.249 83.8438C700.772 83.5881 701.21 83.196 701.562 82.6676C701.92 82.1392 702.099 81.4659 702.099 80.6477ZM696.542 70.7273C696.184 70.7273 695.866 70.5909 695.587 70.3182C695.315 70.0398 695.178 69.7216 695.178 69.3636C695.178 68.9716 695.315 68.6477 695.587 68.392C695.866 68.1307 696.184 68 696.542 68C696.934 68 697.258 68.1307 697.513 68.392C697.775 68.6477 697.906 68.9716 697.906 69.3636C697.906 69.7216 697.775 70.0398 697.513 70.3182C697.258 70.5909 696.934 70.7273 696.542 70.7273ZM701.451 70.7273C701.093 70.7273 700.775 70.5909 700.496 70.3182C700.224 70.0398 700.087 69.7216 700.087 69.3636C700.087 68.9716 700.224 68.6477 700.496 68.392C700.775 68.1307 701.093 68 701.451 68C701.843 68 702.167 68.1307 702.423 68.392C702.684 68.6477 702.815 68.9716 702.815 69.3636C702.815 69.7216 702.684 70.0398 702.423 70.3182C702.167 70.5909 701.843 70.7273 701.451 70.7273ZM708.067 86V68.5455H710.078V74.9886H710.249C710.396 74.7614 710.601 74.4716 710.862 74.1193C711.129 73.7614 711.51 73.4432 712.004 73.1648C712.504 72.8807 713.18 72.7386 714.033 72.7386C715.135 72.7386 716.107 73.0142 716.947 73.5653C717.788 74.1165 718.445 74.8977 718.916 75.9091C719.388 76.9205 719.624 78.1136 719.624 79.4886C719.624 80.875 719.388 82.0767 718.916 83.0938C718.445 84.1051 717.791 84.8892 716.956 85.446C716.121 85.9972 715.158 86.2727 714.067 86.2727C713.226 86.2727 712.553 86.1335 712.047 85.8551C711.541 85.571 711.152 85.25 710.879 84.892C710.607 84.5284 710.396 84.2273 710.249 83.9886H710.01V86H708.067ZM710.044 79.4545C710.044 80.4432 710.189 81.3153 710.479 82.071C710.768 82.821 711.192 83.4091 711.749 83.8352C712.305 84.2557 712.987 84.4659 713.794 84.4659C714.635 84.4659 715.337 84.2443 715.899 83.8011C716.467 83.3523 716.893 82.75 717.178 81.9943C717.467 81.233 717.612 80.3864 717.612 79.4545C717.612 78.5341 717.47 77.7045 717.186 76.9659C716.908 76.2216 716.484 75.6335 715.916 75.2017C715.354 74.7642 714.646 74.5455 713.794 74.5455C712.976 74.5455 712.288 74.7528 711.732 75.1676C711.175 75.5767 710.754 76.1506 710.47 76.8892C710.186 77.6222 710.044 78.4773 710.044 79.4545ZM728.189 86.2727C726.928 86.2727 725.839 85.9943 724.925 85.4375C724.016 84.875 723.314 84.0909 722.82 83.0852C722.331 82.0739 722.087 80.8977 722.087 79.5568C722.087 78.2159 722.331 77.0341 722.82 76.0114C723.314 74.983 724.001 74.1818 724.882 73.608C725.768 73.0284 726.803 72.7386 727.984 72.7386C728.666 72.7386 729.339 72.8523 730.004 73.0795C730.669 73.3068 731.274 73.6761 731.82 74.1875C732.365 74.6932 732.8 75.3636 733.124 76.1989C733.447 77.0341 733.609 78.0625 733.609 79.2841V80.1364H723.518V78.3977H731.564C731.564 77.6591 731.416 77 731.121 76.4205C730.831 75.8409 730.416 75.3835 729.876 75.0483C729.342 74.7131 728.712 74.5455 727.984 74.5455C727.183 74.5455 726.49 74.7443 725.905 75.142C725.325 75.5341 724.879 76.0455 724.567 76.6761C724.254 77.3068 724.098 77.983 724.098 78.7045V79.8636C724.098 80.8523 724.268 81.6903 724.609 82.3778C724.956 83.0597 725.436 83.5795 726.05 83.9375C726.663 84.2898 727.376 84.4659 728.189 84.4659C728.717 84.4659 729.195 84.392 729.621 84.2443C730.053 84.0909 730.425 83.8636 730.737 83.5625C731.05 83.2557 731.291 82.875 731.462 82.4205L733.405 82.9659C733.2 83.625 732.857 84.2045 732.374 84.7045C731.891 85.1989 731.294 85.5852 730.584 85.8636C729.874 86.1364 729.075 86.2727 728.189 86.2727ZM736.669 86V72.9091H738.612V74.8864H738.749C738.987 74.2386 739.419 73.7131 740.044 73.3097C740.669 72.9062 741.374 72.7045 742.158 72.7045C742.305 72.7045 742.49 72.7074 742.712 72.7131C742.933 72.7187 743.101 72.7273 743.214 72.7386V74.7841C743.146 74.767 742.99 74.7415 742.746 74.7074C742.507 74.6676 742.254 74.6477 741.987 74.6477C741.351 74.6477 740.783 74.7812 740.283 75.0483C739.788 75.3097 739.396 75.6733 739.107 76.1392C738.822 76.5994 738.68 77.125 738.68 77.7159V86H736.669ZM760.599 80.6477V72.9091H762.61V86H760.599V83.7841H760.462C760.156 84.4489 759.678 85.0142 759.031 85.4801C758.383 85.9403 757.565 86.1705 756.576 86.1705C755.758 86.1705 755.031 85.9915 754.394 85.6335C753.758 85.2699 753.258 84.7244 752.894 83.9972C752.531 83.2642 752.349 82.3409 752.349 81.2273V72.9091H754.36V81.0909C754.36 82.0455 754.627 82.8068 755.161 83.375C755.701 83.9432 756.388 84.2273 757.224 84.2273C757.724 84.2273 758.232 84.0994 758.749 83.8438C759.272 83.5881 759.71 83.196 760.062 82.6676C760.42 82.1392 760.599 81.4659 760.599 80.6477ZM768.305 78.125V86H766.294V72.9091H768.237V74.9545H768.408C768.714 74.2898 769.18 73.7557 769.805 73.3523C770.43 72.9432 771.237 72.7386 772.226 72.7386C773.112 72.7386 773.888 72.9205 774.553 73.2841C775.217 73.642 775.734 74.1875 776.104 74.9205C776.473 75.6477 776.658 76.5682 776.658 77.6818V86H774.646V77.8182C774.646 76.7898 774.379 75.9886 773.845 75.4148C773.311 74.8352 772.578 74.5455 771.646 74.5455C771.004 74.5455 770.43 74.6847 769.925 74.9631C769.425 75.2415 769.03 75.6477 768.74 76.1818C768.45 76.7159 768.305 77.3636 768.305 78.125ZM789.606 75.8409L787.799 76.3523C787.685 76.0511 787.518 75.7585 787.296 75.4744C787.08 75.1847 786.785 74.946 786.41 74.7585C786.035 74.571 785.555 74.4773 784.969 74.4773C784.168 74.4773 783.501 74.6619 782.967 75.0312C782.438 75.3949 782.174 75.858 782.174 76.4205C782.174 76.9205 782.356 77.3153 782.719 77.6051C783.083 77.8949 783.651 78.1364 784.424 78.3295L786.367 78.8068C787.538 79.0909 788.41 79.5256 788.984 80.1108C789.558 80.6903 789.844 81.4375 789.844 82.3523C789.844 83.1023 789.629 83.7727 789.197 84.3636C788.771 84.9545 788.174 85.4205 787.407 85.7614C786.64 86.1023 785.748 86.2727 784.731 86.2727C783.396 86.2727 782.29 85.983 781.415 85.4034C780.54 84.8239 779.987 83.9773 779.754 82.8636L781.663 82.3864C781.844 83.0909 782.188 83.6193 782.694 83.9716C783.205 84.3239 783.873 84.5 784.697 84.5C785.634 84.5 786.379 84.3011 786.93 83.9034C787.487 83.5 787.765 83.017 787.765 82.4545C787.765 82 787.606 81.6193 787.288 81.3125C786.969 81 786.481 80.767 785.822 80.6136L783.64 80.1023C782.441 79.8182 781.56 79.3778 780.998 78.7812C780.441 78.179 780.163 77.4261 780.163 76.5227C780.163 75.7841 780.37 75.1307 780.785 74.5625C781.205 73.9943 781.776 73.5483 782.498 73.2244C783.225 72.9006 784.049 72.7386 784.969 72.7386C786.265 72.7386 787.282 73.0227 788.021 73.5909C788.765 74.1591 789.293 74.9091 789.606 75.8409ZM798.361 86.2727C797.099 86.2727 796.011 85.9943 795.097 85.4375C794.188 84.875 793.486 84.0909 792.991 83.0852C792.503 82.0739 792.259 80.8977 792.259 79.5568C792.259 78.2159 792.503 77.0341 792.991 76.0114C793.486 74.983 794.173 74.1818 795.054 73.608C795.94 73.0284 796.974 72.7386 798.156 72.7386C798.838 72.7386 799.511 72.8523 800.176 73.0795C800.841 73.3068 801.446 73.6761 801.991 74.1875C802.537 74.6932 802.972 75.3636 803.295 76.1989C803.619 77.0341 803.781 78.0625 803.781 79.2841V80.1364H793.69V78.3977H801.736C801.736 77.6591 801.588 77 801.293 76.4205C801.003 75.8409 800.588 75.3835 800.048 75.0483C799.514 74.7131 798.884 74.5455 798.156 74.5455C797.355 74.5455 796.662 74.7443 796.077 75.142C795.497 75.5341 795.051 76.0455 794.739 76.6761C794.426 77.3068 794.27 77.983 794.27 78.7045V79.8636C794.27 80.8523 794.44 81.6903 794.781 82.3778C795.128 83.0597 795.608 83.5795 796.222 83.9375C796.835 84.2898 797.548 84.4659 798.361 84.4659C798.889 84.4659 799.366 84.392 799.793 84.2443C800.224 84.0909 800.597 83.8636 800.909 83.5625C801.222 83.2557 801.463 82.875 801.634 82.4205L803.577 82.9659C803.372 83.625 803.028 84.2045 802.545 84.7045C802.063 85.1989 801.466 85.5852 800.756 85.8636C800.045 86.1364 799.247 86.2727 798.361 86.2727ZM806.841 86V72.9091H808.784V74.8864H808.92C809.159 74.2386 809.591 73.7131 810.216 73.3097C810.841 72.9062 811.545 72.7045 812.33 72.7045C812.477 72.7045 812.662 72.7074 812.884 72.7131C813.105 72.7187 813.273 72.7273 813.386 72.7386V74.7841C813.318 74.767 813.162 74.7415 812.918 74.7074C812.679 74.6676 812.426 74.6477 812.159 74.6477C811.523 74.6477 810.955 74.7812 810.455 75.0483C809.96 75.3097 809.568 75.6733 809.278 76.1392C808.994 76.5994 808.852 77.125 808.852 77.7159V86H806.841ZM820.861 86.2727C819.599 86.2727 818.511 85.9943 817.597 85.4375C816.688 84.875 815.986 84.0909 815.491 83.0852C815.003 82.0739 814.759 80.8977 814.759 79.5568C814.759 78.2159 815.003 77.0341 815.491 76.0114C815.986 74.983 816.673 74.1818 817.554 73.608C818.44 73.0284 819.474 72.7386 820.656 72.7386C821.338 72.7386 822.011 72.8523 822.676 73.0795C823.341 73.3068 823.946 73.6761 824.491 74.1875C825.037 74.6932 825.472 75.3636 825.795 76.1989C826.119 77.0341 826.281 78.0625 826.281 79.2841V80.1364H816.19V78.3977H824.236C824.236 77.6591 824.088 77 823.793 76.4205C823.503 75.8409 823.088 75.3835 822.548 75.0483C822.014 74.7131 821.384 74.5455 820.656 74.5455C819.855 74.5455 819.162 74.7443 818.577 75.142C817.997 75.5341 817.551 76.0455 817.239 76.6761C816.926 77.3068 816.77 77.983 816.77 78.7045V79.8636C816.77 80.8523 816.94 81.6903 817.281 82.3778C817.628 83.0597 818.108 83.5795 818.722 83.9375C819.335 84.2898 820.048 84.4659 820.861 84.4659C821.389 84.4659 821.866 84.392 822.293 84.2443C822.724 84.0909 823.097 83.8636 823.409 83.5625C823.722 83.2557 823.963 82.875 824.134 82.4205L826.077 82.9659C825.872 83.625 825.528 84.2045 825.045 84.7045C824.563 85.1989 823.966 85.5852 823.256 85.8636C822.545 86.1364 821.747 86.2727 820.861 86.2727ZM829.341 86V72.9091H831.284V74.8864H831.42C831.659 74.2386 832.091 73.7131 832.716 73.3097C833.341 72.9062 834.045 72.7045 834.83 72.7045C834.977 72.7045 835.162 72.7074 835.384 72.7131C835.605 72.7187 835.773 72.7273 835.886 72.7386V74.7841C835.818 74.767 835.662 74.7415 835.418 74.7074C835.179 74.6676 834.926 74.6477 834.659 74.6477C834.023 74.6477 833.455 74.7812 832.955 75.0483C832.46 75.3097 832.068 75.6733 831.778 76.1392C831.494 76.5994 831.352 77.125 831.352 77.7159V86H829.341ZM447.659 101.909C447.557 101.045 447.142 100.375 446.415 99.8977C445.688 99.4205 444.795 99.1818 443.739 99.1818C442.966 99.1818 442.29 99.3068 441.71 99.5568C441.136 99.8068 440.688 100.151 440.364 100.588C440.045 101.026 439.886 101.523 439.886 102.08C439.886 102.545 439.997 102.946 440.219 103.281C440.446 103.611 440.736 103.886 441.088 104.108C441.44 104.324 441.81 104.503 442.196 104.645C442.582 104.781 442.938 104.892 443.261 104.977L445.034 105.455C445.489 105.574 445.994 105.739 446.551 105.949C447.114 106.159 447.651 106.446 448.162 106.81C448.679 107.168 449.105 107.628 449.44 108.19C449.776 108.753 449.943 109.443 449.943 110.261C449.943 111.205 449.696 112.057 449.202 112.818C448.713 113.58 447.997 114.185 447.054 114.634C446.116 115.082 444.977 115.307 443.636 115.307C442.386 115.307 441.304 115.105 440.389 114.702C439.48 114.298 438.764 113.736 438.241 113.014C437.724 112.293 437.432 111.455 437.364 110.5H439.545C439.602 111.159 439.824 111.705 440.21 112.136C440.602 112.562 441.097 112.881 441.693 113.091C442.295 113.295 442.943 113.398 443.636 113.398C444.443 113.398 445.168 113.267 445.81 113.006C446.452 112.739 446.96 112.369 447.335 111.898C447.71 111.42 447.898 110.864 447.898 110.227C447.898 109.648 447.736 109.176 447.412 108.812C447.088 108.449 446.662 108.153 446.134 107.926C445.605 107.699 445.034 107.5 444.42 107.33L442.273 106.716C440.909 106.324 439.83 105.764 439.034 105.037C438.239 104.31 437.841 103.358 437.841 102.182C437.841 101.205 438.105 100.352 438.634 99.625C439.168 98.892 439.884 98.3239 440.781 97.9205C441.685 97.5114 442.693 97.3068 443.807 97.3068C444.932 97.3068 445.932 97.5085 446.807 97.9119C447.682 98.3097 448.375 98.8551 448.886 99.5483C449.403 100.241 449.676 101.028 449.705 101.909H447.659ZM458.839 101.909V103.614H452.055V101.909H458.839ZM454.032 98.7727H456.043V111.25C456.043 111.818 456.126 112.244 456.29 112.528C456.461 112.807 456.677 112.994 456.938 113.091C457.205 113.182 457.487 113.227 457.782 113.227C458.004 113.227 458.185 113.216 458.327 113.193C458.469 113.165 458.583 113.142 458.668 113.125L459.077 114.932C458.941 114.983 458.751 115.034 458.506 115.085C458.262 115.142 457.952 115.17 457.577 115.17C457.009 115.17 456.452 115.048 455.907 114.804C455.367 114.56 454.918 114.188 454.56 113.688C454.208 113.188 454.032 112.557 454.032 111.795V98.7727ZM465.717 115.307C464.887 115.307 464.134 115.151 463.458 114.838C462.782 114.52 462.245 114.062 461.847 113.466C461.45 112.864 461.251 112.136 461.251 111.284C461.251 110.534 461.398 109.926 461.694 109.46C461.989 108.989 462.384 108.619 462.879 108.352C463.373 108.085 463.918 107.886 464.515 107.756C465.117 107.619 465.722 107.511 466.33 107.432C467.126 107.33 467.771 107.253 468.265 107.202C468.765 107.145 469.129 107.051 469.356 106.92C469.589 106.79 469.705 106.562 469.705 106.239V106.17C469.705 105.33 469.475 104.676 469.015 104.21C468.56 103.744 467.87 103.511 466.944 103.511C465.984 103.511 465.231 103.722 464.685 104.142C464.14 104.562 463.756 105.011 463.535 105.489L461.626 104.807C461.967 104.011 462.421 103.392 462.989 102.949C463.563 102.5 464.188 102.187 464.864 102.011C465.546 101.83 466.217 101.739 466.876 101.739C467.296 101.739 467.779 101.79 468.325 101.892C468.876 101.989 469.407 102.19 469.918 102.497C470.435 102.804 470.864 103.267 471.205 103.886C471.546 104.506 471.717 105.335 471.717 106.375V115H469.705V113.227H469.603C469.467 113.511 469.239 113.815 468.921 114.139C468.603 114.463 468.18 114.739 467.651 114.966C467.123 115.193 466.478 115.307 465.717 115.307ZM466.023 113.5C466.819 113.5 467.489 113.344 468.035 113.031C468.586 112.719 469.001 112.315 469.279 111.821C469.563 111.327 469.705 110.807 469.705 110.261V108.42C469.62 108.523 469.433 108.616 469.143 108.702C468.859 108.781 468.529 108.852 468.154 108.915C467.785 108.972 467.424 109.023 467.072 109.068C466.725 109.108 466.444 109.142 466.228 109.17C465.705 109.239 465.217 109.349 464.762 109.503C464.313 109.651 463.95 109.875 463.671 110.176C463.398 110.472 463.262 110.875 463.262 111.386C463.262 112.085 463.521 112.614 464.038 112.972C464.56 113.324 465.222 113.5 466.023 113.5ZM480.331 115.273C479.24 115.273 478.277 114.997 477.442 114.446C476.607 113.889 475.953 113.105 475.482 112.094C475.01 111.077 474.774 109.875 474.774 108.489C474.774 107.114 475.01 105.92 475.482 104.909C475.953 103.898 476.609 103.116 477.45 102.565C478.291 102.014 479.263 101.739 480.365 101.739C481.217 101.739 481.891 101.881 482.385 102.165C482.885 102.443 483.266 102.761 483.527 103.119C483.794 103.472 484.001 103.761 484.149 103.989H484.32V97.5455H486.331V115H484.388V112.989H484.149C484.001 113.227 483.791 113.528 483.518 113.892C483.246 114.25 482.857 114.571 482.351 114.855C481.845 115.134 481.172 115.273 480.331 115.273ZM480.604 113.466C481.411 113.466 482.092 113.256 482.649 112.835C483.206 112.409 483.629 111.821 483.919 111.071C484.209 110.315 484.354 109.443 484.354 108.455C484.354 107.477 484.212 106.622 483.928 105.889C483.643 105.151 483.223 104.577 482.666 104.168C482.109 103.753 481.422 103.545 480.604 103.545C479.751 103.545 479.041 103.764 478.473 104.202C477.911 104.634 477.487 105.222 477.203 105.966C476.925 106.705 476.786 107.534 476.786 108.455C476.786 109.386 476.928 110.233 477.212 110.994C477.501 111.75 477.928 112.352 478.49 112.801C479.058 113.244 479.763 113.466 480.604 113.466ZM495.987 101.909V103.614H489.203V101.909H495.987ZM491.18 98.7727H493.192V111.25C493.192 111.818 493.274 112.244 493.439 112.528C493.609 112.807 493.825 112.994 494.087 113.091C494.354 113.182 494.635 113.227 494.93 113.227C495.152 113.227 495.334 113.216 495.476 113.193C495.618 113.165 495.732 113.142 495.817 113.125L496.226 114.932C496.089 114.983 495.899 115.034 495.655 115.085C495.411 115.142 495.101 115.17 494.726 115.17C494.158 115.17 493.601 115.048 493.055 114.804C492.516 114.56 492.067 114.188 491.709 113.688C491.357 113.188 491.18 112.557 491.18 111.795V98.7727ZM502.013 112.614L501.876 113.534C501.78 114.182 501.632 114.875 501.433 115.614C501.24 116.352 501.038 117.048 500.828 117.702C500.618 118.355 500.445 118.875 500.308 119.261H498.774C498.848 118.898 498.945 118.418 499.064 117.821C499.183 117.224 499.303 116.557 499.422 115.818C499.547 115.085 499.649 114.335 499.729 113.568L499.831 112.614H502.013ZM512.489 115V101.909H514.433V103.955H514.603C514.876 103.256 515.316 102.713 515.924 102.327C516.532 101.935 517.262 101.739 518.114 101.739C518.978 101.739 519.697 101.935 520.271 102.327C520.85 102.713 521.302 103.256 521.626 103.955H521.762C522.097 103.278 522.6 102.741 523.271 102.344C523.941 101.94 524.745 101.739 525.683 101.739C526.853 101.739 527.81 102.105 528.555 102.838C529.299 103.565 529.671 104.699 529.671 106.239V115H527.66V106.239C527.66 105.273 527.396 104.582 526.867 104.168C526.339 103.753 525.717 103.545 525.001 103.545C524.08 103.545 523.367 103.824 522.862 104.381C522.356 104.932 522.103 105.631 522.103 106.477V115H520.058V106.034C520.058 105.29 519.816 104.69 519.333 104.236C518.85 103.776 518.228 103.545 517.467 103.545C516.944 103.545 516.455 103.685 516.001 103.963C515.552 104.241 515.188 104.628 514.91 105.122C514.637 105.611 514.501 106.176 514.501 106.818V115H512.489ZM533.349 115V101.909H535.36V115H533.349ZM534.371 99.7273C533.979 99.7273 533.641 99.5938 533.357 99.3267C533.079 99.0597 532.94 98.7386 532.94 98.3636C532.94 97.9886 533.079 97.6676 533.357 97.4006C533.641 97.1335 533.979 97 534.371 97C534.763 97 535.099 97.1335 535.377 97.4006C535.661 97.6676 535.803 97.9886 535.803 98.3636C535.803 98.7386 535.661 99.0597 535.377 99.3267C535.099 99.5938 534.763 99.7273 534.371 99.7273ZM544.737 101.909V103.614H537.953V101.909H544.737ZM539.93 98.7727H541.942V111.25C541.942 111.818 542.024 112.244 542.189 112.528C542.359 112.807 542.575 112.994 542.837 113.091C543.104 113.182 543.385 113.227 543.68 113.227C543.902 113.227 544.084 113.216 544.226 113.193C544.368 113.165 544.482 113.142 544.567 113.125L544.976 114.932C544.839 114.983 544.649 115.034 544.405 115.085C544.161 115.142 543.851 115.17 543.476 115.17C542.908 115.17 542.351 115.048 541.805 114.804C541.266 114.56 540.817 114.188 540.459 113.688C540.107 113.188 539.93 112.557 539.93 111.795V98.7727ZM559.456 115.273C558.365 115.273 557.402 114.997 556.567 114.446C555.732 113.889 555.078 113.105 554.607 112.094C554.135 111.077 553.899 109.875 553.899 108.489C553.899 107.114 554.135 105.92 554.607 104.909C555.078 103.898 555.734 103.116 556.575 102.565C557.416 102.014 558.388 101.739 559.49 101.739C560.342 101.739 561.016 101.881 561.51 102.165C562.01 102.443 562.391 102.761 562.652 103.119C562.919 103.472 563.126 103.761 563.274 103.989H563.445V97.5455H565.456V115H563.513V112.989H563.274C563.126 113.227 562.916 113.528 562.643 113.892C562.371 114.25 561.982 114.571 561.476 114.855C560.97 115.134 560.297 115.273 559.456 115.273ZM559.729 113.466C560.536 113.466 561.217 113.256 561.774 112.835C562.331 112.409 562.754 111.821 563.044 111.071C563.334 110.315 563.479 109.443 563.479 108.455C563.479 107.477 563.337 106.622 563.053 105.889C562.768 105.151 562.348 104.577 561.791 104.168C561.234 103.753 560.547 103.545 559.729 103.545C558.876 103.545 558.166 103.764 557.598 104.202C557.036 104.634 556.612 105.222 556.328 105.966C556.05 106.705 555.911 107.534 555.911 108.455C555.911 109.386 556.053 110.233 556.337 110.994C556.626 111.75 557.053 112.352 557.615 112.801C558.183 113.244 558.888 113.466 559.729 113.466ZM574.908 115.273C573.646 115.273 572.558 114.994 571.643 114.438C570.734 113.875 570.033 113.091 569.538 112.085C569.05 111.074 568.805 109.898 568.805 108.557C568.805 107.216 569.05 106.034 569.538 105.011C570.033 103.983 570.72 103.182 571.601 102.608C572.487 102.028 573.521 101.739 574.703 101.739C575.385 101.739 576.058 101.852 576.723 102.08C577.388 102.307 577.993 102.676 578.538 103.188C579.084 103.693 579.518 104.364 579.842 105.199C580.166 106.034 580.328 107.062 580.328 108.284V109.136H570.237V107.398H578.283C578.283 106.659 578.135 106 577.839 105.42C577.55 104.841 577.135 104.384 576.595 104.048C576.061 103.713 575.43 103.545 574.703 103.545C573.902 103.545 573.209 103.744 572.624 104.142C572.044 104.534 571.598 105.045 571.286 105.676C570.973 106.307 570.817 106.983 570.817 107.705V108.864C570.817 109.852 570.987 110.69 571.328 111.378C571.675 112.06 572.155 112.58 572.768 112.938C573.382 113.29 574.095 113.466 574.908 113.466C575.436 113.466 575.913 113.392 576.339 113.244C576.771 113.091 577.143 112.864 577.456 112.562C577.768 112.256 578.01 111.875 578.18 111.42L580.124 111.966C579.919 112.625 579.575 113.205 579.092 113.705C578.609 114.199 578.013 114.585 577.303 114.864C576.592 115.136 575.794 115.273 574.908 115.273ZM585.399 107.125V115H583.388V101.909H585.331V103.955H585.501C585.808 103.29 586.274 102.756 586.899 102.352C587.524 101.943 588.331 101.739 589.32 101.739C590.206 101.739 590.982 101.92 591.646 102.284C592.311 102.642 592.828 103.188 593.197 103.92C593.567 104.648 593.751 105.568 593.751 106.682V115H591.74V106.818C591.74 105.79 591.473 104.989 590.939 104.415C590.405 103.835 589.672 103.545 588.74 103.545C588.098 103.545 587.524 103.685 587.018 103.963C586.518 104.241 586.124 104.648 585.834 105.182C585.544 105.716 585.399 106.364 585.399 107.125ZM602.915 115.273C601.654 115.273 600.566 114.994 599.651 114.438C598.742 113.875 598.04 113.091 597.546 112.085C597.058 111.074 596.813 109.898 596.813 108.557C596.813 107.216 597.058 106.034 597.546 105.011C598.04 103.983 598.728 103.182 599.609 102.608C600.495 102.028 601.529 101.739 602.711 101.739C603.393 101.739 604.066 101.852 604.731 102.08C605.396 102.307 606.001 102.676 606.546 103.188C607.092 103.693 607.526 104.364 607.85 105.199C608.174 106.034 608.336 107.062 608.336 108.284V109.136H598.245V107.398H606.29C606.29 106.659 606.143 106 605.847 105.42C605.558 104.841 605.143 104.384 604.603 104.048C604.069 103.713 603.438 103.545 602.711 103.545C601.91 103.545 601.217 103.744 600.631 104.142C600.052 104.534 599.606 105.045 599.293 105.676C598.981 106.307 598.825 106.983 598.825 107.705V108.864C598.825 109.852 598.995 110.69 599.336 111.378C599.683 112.06 600.163 112.58 600.776 112.938C601.39 113.29 602.103 113.466 602.915 113.466C603.444 113.466 603.921 113.392 604.347 113.244C604.779 113.091 605.151 112.864 605.464 112.562C605.776 112.256 606.018 111.875 606.188 111.42L608.131 111.966C607.927 112.625 607.583 113.205 607.1 113.705C606.617 114.199 606.021 114.585 605.31 114.864C604.6 115.136 603.802 115.273 602.915 115.273ZM613.407 107.125V115H611.396V101.909H613.339V103.955H613.509C613.816 103.29 614.282 102.756 614.907 102.352C615.532 101.943 616.339 101.739 617.327 101.739C618.214 101.739 618.989 101.92 619.654 102.284C620.319 102.642 620.836 103.188 621.205 103.92C621.575 104.648 621.759 105.568 621.759 106.682V115H619.748V106.818C619.748 105.79 619.481 104.989 618.947 104.415C618.413 103.835 617.68 103.545 616.748 103.545C616.106 103.545 615.532 103.685 615.026 103.963C614.526 104.241 614.131 104.648 613.842 105.182C613.552 105.716 613.407 106.364 613.407 107.125ZM637.128 115.273C636.037 115.273 635.074 114.997 634.239 114.446C633.403 113.889 632.75 113.105 632.278 112.094C631.807 111.077 631.571 109.875 631.571 108.489C631.571 107.114 631.807 105.92 632.278 104.909C632.75 103.898 633.406 103.116 634.247 102.565C635.088 102.014 636.06 101.739 637.162 101.739C638.014 101.739 638.688 101.881 639.182 102.165C639.682 102.443 640.063 102.761 640.324 103.119C640.591 103.472 640.798 103.761 640.946 103.989H641.116V97.5455H643.128V115H641.185V112.989H640.946C640.798 113.227 640.588 113.528 640.315 113.892C640.043 114.25 639.653 114.571 639.148 114.855C638.642 115.134 637.969 115.273 637.128 115.273ZM637.401 113.466C638.207 113.466 638.889 113.256 639.446 112.835C640.003 112.409 640.426 111.821 640.716 111.071C641.006 110.315 641.151 109.443 641.151 108.455C641.151 107.477 641.009 106.622 640.724 105.889C640.44 105.151 640.02 104.577 639.463 104.168C638.906 103.753 638.219 103.545 637.401 103.545C636.548 103.545 635.838 103.764 635.27 104.202C634.707 104.634 634.284 105.222 634 105.966C633.722 106.705 633.582 107.534 633.582 108.455C633.582 109.386 633.724 110.233 634.009 110.994C634.298 111.75 634.724 112.352 635.287 112.801C635.855 113.244 636.56 113.466 637.401 113.466ZM647.091 115V101.909H649.102V115H647.091ZM648.114 99.7273C647.722 99.7273 647.384 99.5938 647.099 99.3267C646.821 99.0597 646.682 98.7386 646.682 98.3636C646.682 97.9886 646.821 97.6676 647.099 97.4006C647.384 97.1335 647.722 97 648.114 97C648.506 97 648.841 97.1335 649.119 97.4006C649.403 97.6676 649.545 97.9886 649.545 98.3636C649.545 98.7386 649.403 99.0597 649.119 99.3267C648.841 99.5938 648.506 99.7273 648.114 99.7273ZM658.275 115.273C657.013 115.273 655.925 114.994 655.011 114.438C654.102 113.875 653.4 113.091 652.906 112.085C652.417 111.074 652.173 109.898 652.173 108.557C652.173 107.216 652.417 106.034 652.906 105.011C653.4 103.983 654.087 103.182 654.968 102.608C655.854 102.028 656.888 101.739 658.07 101.739C658.752 101.739 659.425 101.852 660.09 102.08C660.755 102.307 661.36 102.676 661.906 103.188C662.451 103.693 662.886 104.364 663.21 105.199C663.533 106.034 663.695 107.062 663.695 108.284V109.136H653.604V107.398H661.65C661.65 106.659 661.502 106 661.207 105.42C660.917 104.841 660.502 104.384 659.962 104.048C659.428 103.713 658.798 103.545 658.07 103.545C657.269 103.545 656.576 103.744 655.991 104.142C655.411 104.534 654.965 105.045 654.653 105.676C654.34 106.307 654.184 106.983 654.184 107.705V108.864C654.184 109.852 654.354 110.69 654.695 111.378C655.042 112.06 655.522 112.58 656.136 112.938C656.749 113.29 657.462 113.466 658.275 113.466C658.803 113.466 659.281 113.392 659.707 113.244C660.138 113.091 660.511 112.864 660.823 112.562C661.136 112.256 661.377 111.875 661.548 111.42L663.491 111.966C663.286 112.625 662.942 113.205 662.46 113.705C661.977 114.199 661.38 114.585 660.67 114.864C659.96 115.136 659.161 115.273 658.275 115.273ZM673.778 115V97.5455H675.891V105.318H685.198V97.5455H687.312V115H685.198V107.193H675.891V115H673.778ZM695.123 115.307C694.293 115.307 693.54 115.151 692.864 114.838C692.188 114.52 691.651 114.062 691.254 113.466C690.856 112.864 690.657 112.136 690.657 111.284C690.657 110.534 690.805 109.926 691.1 109.46C691.396 108.989 691.79 108.619 692.285 108.352C692.779 108.085 693.325 107.886 693.921 107.756C694.523 107.619 695.129 107.511 695.737 107.432C696.532 107.33 697.177 107.253 697.671 107.202C698.171 107.145 698.535 107.051 698.762 106.92C698.995 106.79 699.112 106.562 699.112 106.239V106.17C699.112 105.33 698.881 104.676 698.421 104.21C697.967 103.744 697.276 103.511 696.35 103.511C695.39 103.511 694.637 103.722 694.092 104.142C693.546 104.562 693.163 105.011 692.941 105.489L691.032 104.807C691.373 104.011 691.827 103.392 692.396 102.949C692.969 102.5 693.594 102.187 694.271 102.011C694.952 101.83 695.623 101.739 696.282 101.739C696.702 101.739 697.185 101.79 697.731 101.892C698.282 101.989 698.813 102.19 699.325 102.497C699.842 102.804 700.271 103.267 700.612 103.886C700.952 104.506 701.123 105.335 701.123 106.375V115H699.112V113.227H699.009C698.873 113.511 698.646 113.815 698.327 114.139C698.009 114.463 697.586 114.739 697.058 114.966C696.529 115.193 695.884 115.307 695.123 115.307ZM695.43 113.5C696.225 113.5 696.896 113.344 697.441 113.031C697.992 112.719 698.407 112.315 698.685 111.821C698.969 111.327 699.112 110.807 699.112 110.261V108.42C699.026 108.523 698.839 108.616 698.549 108.702C698.265 108.781 697.935 108.852 697.56 108.915C697.191 108.972 696.83 109.023 696.478 109.068C696.131 109.108 695.85 109.142 695.634 109.17C695.112 109.239 694.623 109.349 694.168 109.503C693.719 109.651 693.356 109.875 693.077 110.176C692.805 110.472 692.668 110.875 692.668 111.386C692.668 112.085 692.927 112.614 693.444 112.972C693.967 113.324 694.629 113.5 695.43 113.5ZM710.112 115.273C708.885 115.273 707.828 114.983 706.942 114.403C706.055 113.824 705.374 113.026 704.896 112.009C704.419 110.991 704.18 109.83 704.18 108.523C704.18 107.193 704.425 106.02 704.913 105.003C705.408 103.98 706.095 103.182 706.976 102.608C707.862 102.028 708.896 101.739 710.078 101.739C710.999 101.739 711.828 101.909 712.567 102.25C713.305 102.591 713.911 103.068 714.382 103.682C714.854 104.295 715.146 105.011 715.26 105.83H713.249C713.095 105.233 712.754 104.705 712.226 104.244C711.703 103.778 710.999 103.545 710.112 103.545C709.328 103.545 708.641 103.75 708.05 104.159C707.464 104.562 707.007 105.134 706.678 105.872C706.354 106.605 706.192 107.466 706.192 108.455C706.192 109.466 706.351 110.347 706.669 111.097C706.993 111.847 707.447 112.429 708.033 112.844C708.624 113.259 709.317 113.466 710.112 113.466C710.635 113.466 711.109 113.375 711.536 113.193C711.962 113.011 712.322 112.75 712.618 112.409C712.913 112.068 713.124 111.659 713.249 111.182H715.26C715.146 111.955 714.865 112.651 714.416 113.27C713.973 113.884 713.385 114.372 712.652 114.736C711.925 115.094 711.078 115.273 710.112 115.273ZM720.075 110.227L720.041 107.739H720.45L726.178 101.909H728.666L722.564 108.08H722.393L720.075 110.227ZM718.2 115V97.5455H720.212V115H718.2ZM726.518 115L721.405 108.523L722.837 107.125L729.075 115H726.518ZM736.205 115.273C734.943 115.273 733.855 114.994 732.94 114.438C732.031 113.875 731.33 113.091 730.835 112.085C730.347 111.074 730.102 109.898 730.102 108.557C730.102 107.216 730.347 106.034 730.835 105.011C731.33 103.983 732.017 103.182 732.898 102.608C733.784 102.028 734.818 101.739 736 101.739C736.682 101.739 737.355 101.852 738.02 102.08C738.685 102.307 739.29 102.676 739.835 103.188C740.381 103.693 740.815 104.364 741.139 105.199C741.463 106.034 741.625 107.062 741.625 108.284V109.136H731.534V107.398H739.58C739.58 106.659 739.432 106 739.136 105.42C738.847 104.841 738.432 104.384 737.892 104.048C737.358 103.713 736.727 103.545 736 103.545C735.199 103.545 734.506 103.744 733.92 104.142C733.341 104.534 732.895 105.045 732.582 105.676C732.27 106.307 732.114 106.983 732.114 107.705V108.864C732.114 109.852 732.284 110.69 732.625 111.378C732.972 112.06 733.452 112.58 734.065 112.938C734.679 113.29 735.392 113.466 736.205 113.466C736.733 113.466 737.21 113.392 737.636 113.244C738.068 113.091 738.44 112.864 738.753 112.562C739.065 112.256 739.307 111.875 739.477 111.42L741.42 111.966C741.216 112.625 740.872 113.205 740.389 113.705C739.906 114.199 739.31 114.585 738.599 114.864C737.889 115.136 737.091 115.273 736.205 115.273ZM744.685 115V101.909H746.628V103.886H746.764C747.003 103.239 747.435 102.713 748.06 102.31C748.685 101.906 749.389 101.705 750.173 101.705C750.321 101.705 750.506 101.707 750.727 101.713C750.949 101.719 751.116 101.727 751.23 101.739V103.784C751.162 103.767 751.006 103.741 750.761 103.707C750.523 103.668 750.27 103.648 750.003 103.648C749.366 103.648 748.798 103.781 748.298 104.048C747.804 104.31 747.412 104.673 747.122 105.139C746.838 105.599 746.696 106.125 746.696 106.716V115H744.685ZM760.364 115V101.909H762.376V115H760.364ZM761.387 99.7273C760.995 99.7273 760.657 99.5938 760.373 99.3267C760.094 99.0597 759.955 98.7386 759.955 98.3636C759.955 97.9886 760.094 97.6676 760.373 97.4006C760.657 97.1335 760.995 97 761.387 97C761.779 97 762.114 97.1335 762.393 97.4006C762.677 97.6676 762.819 97.9886 762.819 98.3636C762.819 98.7386 762.677 99.0597 762.393 99.3267C762.114 99.5938 761.779 99.7273 761.387 99.7273ZM768.071 107.125V115H766.06V97.5455H768.071V103.955H768.241C768.548 103.278 769.009 102.741 769.622 102.344C770.241 101.94 771.065 101.739 772.094 101.739C772.986 101.739 773.767 101.918 774.438 102.276C775.108 102.628 775.628 103.17 775.997 103.903C776.372 104.631 776.56 105.557 776.56 106.682V115H774.548V106.818C774.548 105.778 774.278 104.974 773.739 104.406C773.205 103.832 772.463 103.545 771.514 103.545C770.855 103.545 770.264 103.685 769.741 103.963C769.224 104.241 768.815 104.648 768.514 105.182C768.219 105.716 768.071 106.364 768.071 107.125ZM780.239 115V101.909H782.183V103.886H782.319C782.558 103.239 782.989 102.713 783.614 102.31C784.239 101.906 784.944 101.705 785.728 101.705C785.876 101.705 786.06 101.707 786.282 101.713C786.504 101.719 786.671 101.727 786.785 101.739V103.784C786.717 103.767 786.56 103.741 786.316 103.707C786.077 103.668 785.825 103.648 785.558 103.648C784.921 103.648 784.353 103.781 783.853 104.048C783.359 104.31 782.967 104.673 782.677 105.139C782.393 105.599 782.251 106.125 782.251 106.716V115H780.239ZM794.259 115.273C792.998 115.273 791.91 114.994 790.995 114.438C790.086 113.875 789.384 113.091 788.89 112.085C788.401 111.074 788.157 109.898 788.157 108.557C788.157 107.216 788.401 106.034 788.89 105.011C789.384 103.983 790.072 103.182 790.952 102.608C791.839 102.028 792.873 101.739 794.055 101.739C794.737 101.739 795.41 101.852 796.075 102.08C796.739 102.307 797.344 102.676 797.89 103.188C798.435 103.693 798.87 104.364 799.194 105.199C799.518 106.034 799.68 107.062 799.68 108.284V109.136H789.589V107.398H797.634C797.634 106.659 797.487 106 797.191 105.42C796.901 104.841 796.487 104.384 795.947 104.048C795.413 103.713 794.782 103.545 794.055 103.545C793.254 103.545 792.56 103.744 791.975 104.142C791.396 104.534 790.95 105.045 790.637 105.676C790.325 106.307 790.168 106.983 790.168 107.705V108.864C790.168 109.852 790.339 110.69 790.68 111.378C791.026 112.06 791.506 112.58 792.12 112.938C792.734 113.29 793.447 113.466 794.259 113.466C794.788 113.466 795.265 113.392 795.691 113.244C796.123 113.091 796.495 112.864 796.808 112.562C797.12 112.256 797.362 111.875 797.532 111.42L799.475 111.966C799.271 112.625 798.927 113.205 798.444 113.705C797.961 114.199 797.364 114.585 796.654 114.864C795.944 115.136 795.146 115.273 794.259 115.273ZM810.478 115H808.262L814.671 97.5455H816.853L823.262 115H821.046L815.83 100.307H815.694L810.478 115ZM811.296 108.182H820.228V110.057H811.296V108.182ZM827.719 107.125V115H825.708V101.909H827.651V103.955H827.822C828.129 103.29 828.594 102.756 829.219 102.352C829.844 101.943 830.651 101.739 831.64 101.739C832.526 101.739 833.302 101.92 833.967 102.284C834.631 102.642 835.148 103.188 835.518 103.92C835.887 104.648 836.072 105.568 836.072 106.682V115H834.06V106.818C834.06 105.79 833.793 104.989 833.259 104.415C832.725 103.835 831.992 103.545 831.06 103.545C830.418 103.545 829.844 103.685 829.339 103.963C828.839 104.241 828.444 104.648 828.154 105.182C827.864 105.716 827.719 106.364 827.719 107.125ZM845.031 120.182C844.06 120.182 843.224 120.057 842.526 119.807C841.827 119.562 841.244 119.239 840.778 118.835C840.318 118.438 839.952 118.011 839.679 117.557L841.281 116.432C841.463 116.67 841.693 116.943 841.972 117.25C842.25 117.562 842.631 117.832 843.114 118.06C843.602 118.293 844.241 118.409 845.031 118.409C846.088 118.409 846.96 118.153 847.648 117.642C848.335 117.131 848.679 116.33 848.679 115.239V112.58H848.509C848.361 112.818 848.151 113.114 847.878 113.466C847.611 113.812 847.224 114.122 846.719 114.395C846.219 114.662 845.543 114.795 844.69 114.795C843.634 114.795 842.685 114.545 841.844 114.045C841.009 113.545 840.347 112.818 839.858 111.864C839.375 110.909 839.134 109.75 839.134 108.386C839.134 107.045 839.369 105.878 839.841 104.884C840.313 103.884 840.969 103.111 841.81 102.565C842.651 102.014 843.622 101.739 844.724 101.739C845.577 101.739 846.253 101.881 846.753 102.165C847.259 102.443 847.645 102.761 847.912 103.119C848.185 103.472 848.395 103.761 848.543 103.989H848.747V101.909H850.69V115.375C850.69 116.5 850.435 117.415 849.923 118.119C849.418 118.83 848.736 119.349 847.878 119.679C847.026 120.014 846.077 120.182 845.031 120.182ZM844.963 112.989C845.77 112.989 846.452 112.804 847.009 112.435C847.565 112.065 847.989 111.534 848.278 110.841C848.568 110.148 848.713 109.318 848.713 108.352C848.713 107.409 848.571 106.577 848.287 105.855C848.003 105.134 847.582 104.568 847.026 104.159C846.469 103.75 845.781 103.545 844.963 103.545C844.111 103.545 843.401 103.761 842.832 104.193C842.27 104.625 841.847 105.205 841.562 105.932C841.284 106.659 841.145 107.466 841.145 108.352C841.145 109.261 841.287 110.065 841.571 110.764C841.861 111.457 842.287 112.003 842.849 112.401C843.418 112.793 844.122 112.989 844.963 112.989ZM854.372 115V101.909H856.315V103.886H856.452C856.69 103.239 857.122 102.713 857.747 102.31C858.372 101.906 859.077 101.705 859.861 101.705C860.009 101.705 860.193 101.707 860.415 101.713C860.636 101.719 860.804 101.727 860.918 101.739V103.784C860.849 103.767 860.693 103.741 860.449 103.707C860.21 103.668 859.957 103.648 859.69 103.648C859.054 103.648 858.486 103.781 857.986 104.048C857.491 104.31 857.099 104.673 856.81 105.139C856.526 105.599 856.384 106.125 856.384 106.716V115H854.372ZM863.302 115V101.909H865.313V115H863.302ZM864.325 99.7273C863.933 99.7273 863.594 99.5938 863.31 99.3267C863.032 99.0597 862.893 98.7386 862.893 98.3636C862.893 97.9886 863.032 97.6676 863.31 97.4006C863.594 97.1335 863.933 97 864.325 97C864.717 97 865.052 97.1335 865.33 97.4006C865.614 97.6676 865.756 97.9886 865.756 98.3636C865.756 98.7386 865.614 99.0597 865.33 99.3267C865.052 99.5938 864.717 99.7273 864.325 99.7273ZM874.827 101.909V103.614H867.77V101.909H874.827ZM869.884 115V100.102C869.884 99.3523 870.06 98.7273 870.412 98.2273C870.764 97.7273 871.222 97.3523 871.784 97.1023C872.347 96.8523 872.94 96.7273 873.565 96.7273C874.06 96.7273 874.463 96.767 874.776 96.8466C875.088 96.9261 875.321 97 875.474 97.0682L874.895 98.8068C874.793 98.7727 874.651 98.7301 874.469 98.679C874.293 98.6278 874.06 98.6023 873.77 98.6023C873.105 98.6023 872.625 98.7699 872.33 99.1051C872.04 99.4403 871.895 99.9318 871.895 100.58V115H869.884ZM883.475 101.909V103.614H876.418V101.909H883.475ZM878.532 115V100.102C878.532 99.3523 878.708 98.7273 879.06 98.2273C879.413 97.7273 879.87 97.3523 880.433 97.1023C880.995 96.8523 881.589 96.7273 882.214 96.7273C882.708 96.7273 883.112 96.767 883.424 96.8466C883.737 96.9261 883.969 97 884.123 97.0682L883.543 98.8068C883.441 98.7727 883.299 98.7301 883.117 98.679C882.941 98.6278 882.708 98.6023 882.418 98.6023C881.754 98.6023 881.273 98.7699 880.978 99.1051C880.688 99.4403 880.543 99.9318 880.543 100.58V115H878.532ZM891.244 115.273C889.982 115.273 888.894 114.994 887.979 114.438C887.07 113.875 886.369 113.091 885.874 112.085C885.386 111.074 885.141 109.898 885.141 108.557C885.141 107.216 885.386 106.034 885.874 105.011C886.369 103.983 887.056 103.182 887.937 102.608C888.823 102.028 889.857 101.739 891.039 101.739C891.721 101.739 892.394 101.852 893.059 102.08C893.724 102.307 894.329 102.676 894.874 103.188C895.42 103.693 895.854 104.364 896.178 105.199C896.502 106.034 896.664 107.062 896.664 108.284V109.136H886.573V107.398H894.619C894.619 106.659 894.471 106 894.175 105.42C893.886 104.841 893.471 104.384 892.931 104.048C892.397 103.713 891.766 103.545 891.039 103.545C890.238 103.545 889.545 103.744 888.96 104.142C888.38 104.534 887.934 105.045 887.621 105.676C887.309 106.307 887.153 106.983 887.153 107.705V108.864C887.153 109.852 887.323 110.69 887.664 111.378C888.011 112.06 888.491 112.58 889.104 112.938C889.718 113.29 890.431 113.466 891.244 113.466C891.772 113.466 892.249 113.392 892.675 113.244C893.107 113.091 893.479 112.864 893.792 112.562C894.104 112.256 894.346 111.875 894.516 111.42L896.46 111.966C896.255 112.625 895.911 113.205 895.428 113.705C894.945 114.199 894.349 114.585 893.638 114.864C892.928 115.136 892.13 115.273 891.244 115.273ZM441.693 144.307C440.864 144.307 440.111 144.151 439.435 143.838C438.759 143.52 438.222 143.062 437.824 142.466C437.426 141.864 437.227 141.136 437.227 140.284C437.227 139.534 437.375 138.926 437.67 138.46C437.966 137.989 438.361 137.619 438.855 137.352C439.349 137.085 439.895 136.886 440.491 136.756C441.094 136.619 441.699 136.511 442.307 136.432C443.102 136.33 443.747 136.253 444.241 136.202C444.741 136.145 445.105 136.051 445.332 135.92C445.565 135.79 445.682 135.562 445.682 135.239V135.17C445.682 134.33 445.452 133.676 444.991 133.21C444.537 132.744 443.847 132.511 442.92 132.511C441.96 132.511 441.207 132.722 440.662 133.142C440.116 133.562 439.733 134.011 439.511 134.489L437.602 133.807C437.943 133.011 438.398 132.392 438.966 131.949C439.54 131.5 440.165 131.187 440.841 131.011C441.523 130.83 442.193 130.739 442.852 130.739C443.273 130.739 443.756 130.79 444.301 130.892C444.852 130.989 445.384 131.19 445.895 131.497C446.412 131.804 446.841 132.267 447.182 132.886C447.523 133.506 447.693 134.335 447.693 135.375V144H445.682V142.227H445.58C445.443 142.511 445.216 142.815 444.898 143.139C444.58 143.463 444.156 143.739 443.628 143.966C443.099 144.193 442.455 144.307 441.693 144.307ZM442 142.5C442.795 142.5 443.466 142.344 444.011 142.031C444.563 141.719 444.977 141.315 445.256 140.821C445.54 140.327 445.682 139.807 445.682 139.261V137.42C445.597 137.523 445.409 137.616 445.119 137.702C444.835 137.781 444.506 137.852 444.131 137.915C443.761 137.972 443.401 138.023 443.048 138.068C442.702 138.108 442.42 138.142 442.205 138.17C441.682 138.239 441.193 138.349 440.739 138.503C440.29 138.651 439.926 138.875 439.648 139.176C439.375 139.472 439.239 139.875 439.239 140.386C439.239 141.085 439.497 141.614 440.014 141.972C440.537 142.324 441.199 142.5 442 142.5ZM459.614 138.648V130.909H461.626V144H459.614V141.784H459.478C459.171 142.449 458.694 143.014 458.046 143.48C457.398 143.94 456.58 144.17 455.592 144.17C454.773 144.17 454.046 143.991 453.41 143.634C452.773 143.27 452.273 142.724 451.91 141.997C451.546 141.264 451.364 140.341 451.364 139.227V130.909H453.376V139.091C453.376 140.045 453.643 140.807 454.177 141.375C454.717 141.943 455.404 142.227 456.239 142.227C456.739 142.227 457.248 142.099 457.765 141.844C458.288 141.588 458.725 141.196 459.077 140.668C459.435 140.139 459.614 139.466 459.614 138.648ZM471.139 130.909V132.614H464.082V130.909H471.139ZM466.196 144V129.102C466.196 128.352 466.372 127.727 466.724 127.227C467.077 126.727 467.534 126.352 468.097 126.102C468.659 125.852 469.253 125.727 469.878 125.727C470.372 125.727 470.776 125.767 471.088 125.847C471.401 125.926 471.634 126 471.787 126.068L471.207 127.807C471.105 127.773 470.963 127.73 470.781 127.679C470.605 127.628 470.372 127.602 470.082 127.602C469.418 127.602 468.938 127.77 468.642 128.105C468.352 128.44 468.207 128.932 468.207 129.58V144H466.196ZM488.958 138.648V130.909H490.969V144H488.958V141.784H488.822C488.515 142.449 488.038 143.014 487.39 143.48C486.742 143.94 485.924 144.17 484.935 144.17C484.117 144.17 483.39 143.991 482.754 143.634C482.117 143.27 481.617 142.724 481.254 141.997C480.89 141.264 480.708 140.341 480.708 139.227V130.909H482.719V139.091C482.719 140.045 482.987 140.807 483.521 141.375C484.06 141.943 484.748 142.227 485.583 142.227C486.083 142.227 486.592 142.099 487.109 141.844C487.631 141.588 488.069 141.196 488.421 140.668C488.779 140.139 488.958 139.466 488.958 138.648ZM496.665 136.125V144H494.653V130.909H496.597V132.955H496.767C497.074 132.29 497.54 131.756 498.165 131.352C498.79 130.943 499.597 130.739 500.585 130.739C501.472 130.739 502.247 130.92 502.912 131.284C503.577 131.642 504.094 132.188 504.463 132.92C504.832 133.648 505.017 134.568 505.017 135.682V144H503.006V135.818C503.006 134.79 502.739 133.989 502.205 133.415C501.67 132.835 500.938 132.545 500.006 132.545C499.364 132.545 498.79 132.685 498.284 132.963C497.784 133.241 497.389 133.648 497.099 134.182C496.81 134.716 496.665 135.364 496.665 136.125ZM517.965 133.841L516.158 134.352C516.045 134.051 515.877 133.759 515.656 133.474C515.44 133.185 515.144 132.946 514.769 132.759C514.394 132.571 513.914 132.477 513.329 132.477C512.528 132.477 511.86 132.662 511.326 133.031C510.798 133.395 510.533 133.858 510.533 134.42C510.533 134.92 510.715 135.315 511.079 135.605C511.442 135.895 512.011 136.136 512.783 136.33L514.727 136.807C515.897 137.091 516.769 137.526 517.343 138.111C517.917 138.69 518.204 139.437 518.204 140.352C518.204 141.102 517.988 141.773 517.556 142.364C517.13 142.955 516.533 143.42 515.766 143.761C514.999 144.102 514.107 144.273 513.09 144.273C511.755 144.273 510.65 143.983 509.775 143.403C508.9 142.824 508.346 141.977 508.113 140.864L510.022 140.386C510.204 141.091 510.548 141.619 511.053 141.972C511.565 142.324 512.232 142.5 513.056 142.5C513.994 142.5 514.738 142.301 515.289 141.903C515.846 141.5 516.124 141.017 516.124 140.455C516.124 140 515.965 139.619 515.647 139.312C515.329 139 514.84 138.767 514.181 138.614L511.999 138.102C510.8 137.818 509.92 137.378 509.357 136.781C508.8 136.179 508.522 135.426 508.522 134.523C508.522 133.784 508.729 133.131 509.144 132.562C509.565 131.994 510.136 131.548 510.857 131.224C511.585 130.901 512.408 130.739 513.329 130.739C514.624 130.739 515.641 131.023 516.38 131.591C517.124 132.159 517.653 132.909 517.965 133.841ZM526.72 144.273C525.459 144.273 524.371 143.994 523.456 143.438C522.547 142.875 521.845 142.091 521.351 141.085C520.862 140.074 520.618 138.898 520.618 137.557C520.618 136.216 520.862 135.034 521.351 134.011C521.845 132.983 522.533 132.182 523.413 131.608C524.3 131.028 525.334 130.739 526.516 130.739C527.197 130.739 527.871 130.852 528.536 131.08C529.2 131.307 529.805 131.676 530.351 132.188C530.896 132.693 531.331 133.364 531.655 134.199C531.979 135.034 532.141 136.062 532.141 137.284V138.136H522.05V136.398H530.095C530.095 135.659 529.947 135 529.652 134.42C529.362 133.841 528.947 133.384 528.408 133.048C527.874 132.713 527.243 132.545 526.516 132.545C525.714 132.545 525.021 132.744 524.436 133.142C523.857 133.534 523.411 134.045 523.098 134.676C522.786 135.307 522.629 135.983 522.629 136.705V137.864C522.629 138.852 522.8 139.69 523.141 140.378C523.487 141.06 523.967 141.58 524.581 141.938C525.195 142.29 525.908 142.466 526.72 142.466C527.249 142.466 527.726 142.392 528.152 142.244C528.584 142.091 528.956 141.864 529.268 141.562C529.581 141.256 529.822 140.875 529.993 140.42L531.936 140.966C531.732 141.625 531.388 142.205 530.905 142.705C530.422 143.199 529.825 143.585 529.115 143.864C528.405 144.136 527.607 144.273 526.72 144.273ZM535.2 144V130.909H537.143V132.886H537.28C537.518 132.239 537.95 131.713 538.575 131.31C539.2 130.906 539.905 130.705 540.689 130.705C540.837 130.705 541.021 130.707 541.243 130.713C541.464 130.719 541.632 130.727 541.746 130.739V132.784C541.678 132.767 541.521 132.741 541.277 132.707C541.038 132.668 540.786 132.648 540.518 132.648C539.882 132.648 539.314 132.781 538.814 133.048C538.32 133.31 537.928 133.673 537.638 134.139C537.354 134.599 537.212 135.125 537.212 135.716V144H535.2ZM560.698 130.909C560.596 130.045 560.181 129.375 559.454 128.898C558.727 128.42 557.835 128.182 556.778 128.182C556.005 128.182 555.329 128.307 554.749 128.557C554.175 128.807 553.727 129.151 553.403 129.588C553.085 130.026 552.925 130.523 552.925 131.08C552.925 131.545 553.036 131.946 553.258 132.281C553.485 132.611 553.775 132.886 554.127 133.108C554.479 133.324 554.849 133.503 555.235 133.645C555.621 133.781 555.977 133.892 556.3 133.977L558.073 134.455C558.528 134.574 559.033 134.739 559.59 134.949C560.153 135.159 560.69 135.446 561.201 135.81C561.718 136.168 562.144 136.628 562.479 137.19C562.815 137.753 562.982 138.443 562.982 139.261C562.982 140.205 562.735 141.057 562.241 141.818C561.752 142.58 561.036 143.185 560.093 143.634C559.156 144.082 558.016 144.307 556.675 144.307C555.425 144.307 554.343 144.105 553.428 143.702C552.519 143.298 551.803 142.736 551.281 142.014C550.763 141.293 550.471 140.455 550.403 139.5H552.585C552.641 140.159 552.863 140.705 553.249 141.136C553.641 141.562 554.136 141.881 554.732 142.091C555.335 142.295 555.982 142.398 556.675 142.398C557.482 142.398 558.207 142.267 558.849 142.006C559.491 141.739 559.999 141.369 560.374 140.898C560.749 140.42 560.937 139.864 560.937 139.227C560.937 138.648 560.775 138.176 560.451 137.812C560.127 137.449 559.701 137.153 559.173 136.926C558.644 136.699 558.073 136.5 557.46 136.33L555.312 135.716C553.948 135.324 552.869 134.764 552.073 134.037C551.278 133.31 550.88 132.358 550.88 131.182C550.88 130.205 551.144 129.352 551.673 128.625C552.207 127.892 552.923 127.324 553.82 126.92C554.724 126.511 555.732 126.307 556.846 126.307C557.971 126.307 558.971 126.509 559.846 126.912C560.721 127.31 561.414 127.855 561.925 128.548C562.442 129.241 562.715 130.028 562.744 130.909H560.698ZM567.48 148.909C567.139 148.909 566.835 148.881 566.568 148.824C566.301 148.773 566.116 148.722 566.014 148.67L566.526 146.898C567.014 147.023 567.446 147.068 567.821 147.034C568.196 147 568.528 146.832 568.818 146.531C569.114 146.236 569.384 145.756 569.628 145.091L570.003 144.068L565.162 130.909H567.344L570.957 141.341H571.094L574.707 130.909H576.889L571.332 145.909C571.082 146.585 570.773 147.145 570.403 147.588C570.034 148.037 569.605 148.369 569.116 148.585C568.634 148.801 568.088 148.909 567.48 148.909ZM588.817 133.841L587.01 134.352C586.896 134.051 586.729 133.759 586.507 133.474C586.291 133.185 585.996 132.946 585.621 132.759C585.246 132.571 584.766 132.477 584.18 132.477C583.379 132.477 582.712 132.662 582.178 133.031C581.649 133.395 581.385 133.858 581.385 134.42C581.385 134.92 581.567 135.315 581.93 135.605C582.294 135.895 582.862 136.136 583.635 136.33L585.578 136.807C586.749 137.091 587.621 137.526 588.195 138.111C588.768 138.69 589.055 139.437 589.055 140.352C589.055 141.102 588.839 141.773 588.408 142.364C587.982 142.955 587.385 143.42 586.618 143.761C585.851 144.102 584.959 144.273 583.942 144.273C582.607 144.273 581.501 143.983 580.626 143.403C579.751 142.824 579.197 141.977 578.964 140.864L580.874 140.386C581.055 141.091 581.399 141.619 581.905 141.972C582.416 142.324 583.084 142.5 583.908 142.5C584.845 142.5 585.589 142.301 586.141 141.903C586.697 141.5 586.976 141.017 586.976 140.455C586.976 140 586.817 139.619 586.499 139.312C586.18 139 585.692 138.767 585.033 138.614L582.851 138.102C581.652 137.818 580.771 137.378 580.209 136.781C579.652 136.179 579.374 135.426 579.374 134.523C579.374 133.784 579.581 133.131 579.996 132.562C580.416 131.994 580.987 131.548 581.709 131.224C582.436 130.901 583.26 130.739 584.18 130.739C585.476 130.739 586.493 131.023 587.232 131.591C587.976 132.159 588.504 132.909 588.817 133.841ZM597.776 130.909V132.614H590.992V130.909H597.776ZM592.969 127.773H594.981V140.25C594.981 140.818 595.063 141.244 595.228 141.528C595.398 141.807 595.614 141.994 595.876 142.091C596.143 142.182 596.424 142.227 596.719 142.227C596.941 142.227 597.123 142.216 597.265 142.193C597.407 142.165 597.521 142.142 597.606 142.125L598.015 143.932C597.879 143.983 597.688 144.034 597.444 144.085C597.2 144.142 596.89 144.17 596.515 144.17C595.947 144.17 595.39 144.048 594.844 143.804C594.305 143.56 593.856 143.188 593.498 142.688C593.146 142.188 592.969 141.557 592.969 140.795V127.773ZM606.15 144.273C604.888 144.273 603.8 143.994 602.886 143.438C601.977 142.875 601.275 142.091 600.781 141.085C600.292 140.074 600.048 138.898 600.048 137.557C600.048 136.216 600.292 135.034 600.781 134.011C601.275 132.983 601.962 132.182 602.843 131.608C603.729 131.028 604.763 130.739 605.945 130.739C606.627 130.739 607.3 130.852 607.965 131.08C608.63 131.307 609.235 131.676 609.781 132.188C610.326 132.693 610.761 133.364 611.085 134.199C611.408 135.034 611.57 136.062 611.57 137.284V138.136H601.479V136.398H609.525C609.525 135.659 609.377 135 609.082 134.42C608.792 133.841 608.377 133.384 607.837 133.048C607.303 132.713 606.673 132.545 605.945 132.545C605.144 132.545 604.451 132.744 603.866 133.142C603.286 133.534 602.84 134.045 602.528 134.676C602.215 135.307 602.059 135.983 602.059 136.705V137.864C602.059 138.852 602.229 139.69 602.57 140.378C602.917 141.06 603.397 141.58 604.011 141.938C604.624 142.29 605.337 142.466 606.15 142.466C606.678 142.466 607.156 142.392 607.582 142.244C608.013 142.091 608.386 141.864 608.698 141.562C609.011 141.256 609.252 140.875 609.423 140.42L611.366 140.966C611.161 141.625 610.817 142.205 610.335 142.705C609.852 143.199 609.255 143.585 608.545 143.864C607.835 144.136 607.036 144.273 606.15 144.273ZM614.63 144V130.909H616.573V132.955H616.744C617.016 132.256 617.457 131.713 618.065 131.327C618.673 130.935 619.403 130.739 620.255 130.739C621.119 130.739 621.837 130.935 622.411 131.327C622.991 131.713 623.442 132.256 623.766 132.955H623.903C624.238 132.278 624.741 131.741 625.411 131.344C626.082 130.94 626.886 130.739 627.823 130.739C628.994 130.739 629.951 131.105 630.695 131.838C631.44 132.565 631.812 133.699 631.812 135.239V144H629.8V135.239C629.8 134.273 629.536 133.582 629.008 133.168C628.479 132.753 627.857 132.545 627.141 132.545C626.221 132.545 625.508 132.824 625.002 133.381C624.496 133.932 624.244 134.631 624.244 135.477V144H622.198V135.034C622.198 134.29 621.957 133.69 621.474 133.236C620.991 132.776 620.369 132.545 619.607 132.545C619.085 132.545 618.596 132.685 618.141 132.963C617.692 133.241 617.329 133.628 617.05 134.122C616.778 134.611 616.641 135.176 616.641 135.818V144H614.63ZM647.183 144.273C646.092 144.273 645.129 143.997 644.293 143.446C643.458 142.889 642.805 142.105 642.333 141.094C641.862 140.077 641.626 138.875 641.626 137.489C641.626 136.114 641.862 134.92 642.333 133.909C642.805 132.898 643.461 132.116 644.302 131.565C645.143 131.014 646.114 130.739 647.217 130.739C648.069 130.739 648.742 130.881 649.237 131.165C649.737 131.443 650.117 131.761 650.379 132.119C650.646 132.472 650.853 132.761 651.001 132.989H651.171V126.545H653.183V144H651.239V141.989H651.001C650.853 142.227 650.643 142.528 650.37 142.892C650.097 143.25 649.708 143.571 649.202 143.855C648.697 144.134 648.023 144.273 647.183 144.273ZM647.455 142.466C648.262 142.466 648.944 142.256 649.501 141.835C650.058 141.409 650.481 140.821 650.771 140.071C651.06 139.315 651.205 138.443 651.205 137.455C651.205 136.477 651.063 135.622 650.779 134.889C650.495 134.151 650.075 133.577 649.518 133.168C648.961 132.753 648.273 132.545 647.455 132.545C646.603 132.545 645.893 132.764 645.325 133.202C644.762 133.634 644.339 134.222 644.055 134.966C643.776 135.705 643.637 136.534 643.637 137.455C643.637 138.386 643.779 139.233 644.063 139.994C644.353 140.75 644.779 141.352 645.342 141.801C645.91 142.244 646.614 142.466 647.455 142.466ZM665.396 138.648V130.909H667.407V144H665.396V141.784H665.259C664.952 142.449 664.475 143.014 663.827 143.48C663.18 143.94 662.362 144.17 661.373 144.17C660.555 144.17 659.827 143.991 659.191 143.634C658.555 143.27 658.055 142.724 657.691 141.997C657.327 141.264 657.146 140.341 657.146 139.227V130.909H659.157V139.091C659.157 140.045 659.424 140.807 659.958 141.375C660.498 141.943 661.185 142.227 662.021 142.227C662.521 142.227 663.029 142.099 663.546 141.844C664.069 141.588 664.506 141.196 664.859 140.668C665.217 140.139 665.396 139.466 665.396 138.648ZM671.091 144V130.909H673.034V132.886H673.17C673.409 132.239 673.841 131.713 674.466 131.31C675.091 130.906 675.795 130.705 676.58 130.705C676.727 130.705 676.912 130.707 677.134 130.713C677.355 130.719 677.523 130.727 677.636 130.739V132.784C677.568 132.767 677.412 132.741 677.168 132.707C676.929 132.668 676.676 132.648 676.409 132.648C675.773 132.648 675.205 132.781 674.705 133.048C674.21 133.31 673.818 133.673 673.528 134.139C673.244 134.599 673.102 135.125 673.102 135.716V144H671.091ZM684.94 144.273C683.713 144.273 682.656 143.983 681.77 143.403C680.884 142.824 680.202 142.026 679.724 141.009C679.247 139.991 679.009 138.83 679.009 137.523C679.009 136.193 679.253 135.02 679.741 134.003C680.236 132.98 680.923 132.182 681.804 131.608C682.69 131.028 683.724 130.739 684.906 130.739C685.827 130.739 686.656 130.909 687.395 131.25C688.134 131.591 688.739 132.068 689.21 132.682C689.682 133.295 689.974 134.011 690.088 134.83H688.077C687.923 134.233 687.582 133.705 687.054 133.244C686.531 132.778 685.827 132.545 684.94 132.545C684.156 132.545 683.469 132.75 682.878 133.159C682.293 133.562 681.835 134.134 681.506 134.872C681.182 135.605 681.02 136.466 681.02 137.455C681.02 138.466 681.179 139.347 681.497 140.097C681.821 140.847 682.276 141.429 682.861 141.844C683.452 142.259 684.145 142.466 684.94 142.466C685.463 142.466 685.938 142.375 686.364 142.193C686.79 142.011 687.151 141.75 687.446 141.409C687.741 141.068 687.952 140.659 688.077 140.182H690.088C689.974 140.955 689.693 141.651 689.244 142.27C688.801 142.884 688.213 143.372 687.48 143.736C686.753 144.094 685.906 144.273 684.94 144.273ZM695.04 136.125V144H693.028V126.545H695.04V132.955H695.21C695.517 132.278 695.977 131.741 696.591 131.344C697.21 130.94 698.034 130.739 699.062 130.739C699.955 130.739 700.736 130.918 701.406 131.276C702.077 131.628 702.597 132.17 702.966 132.903C703.341 133.631 703.528 134.557 703.528 135.682V144H701.517V135.818C701.517 134.778 701.247 133.974 700.707 133.406C700.173 132.832 699.432 132.545 698.483 132.545C697.824 132.545 697.233 132.685 696.71 132.963C696.193 133.241 695.784 133.648 695.483 134.182C695.188 134.716 695.04 135.364 695.04 136.125ZM713.038 130.909V132.614H705.981V130.909H713.038ZM708.094 144V129.102C708.094 128.352 708.271 127.727 708.623 127.227C708.975 126.727 709.433 126.352 709.995 126.102C710.558 125.852 711.151 125.727 711.776 125.727C712.271 125.727 712.674 125.767 712.987 125.847C713.299 125.926 713.532 126 713.685 126.068L713.106 127.807C713.004 127.773 712.862 127.73 712.68 127.679C712.504 127.628 712.271 127.602 711.981 127.602C711.316 127.602 710.836 127.77 710.54 128.105C710.251 128.44 710.106 128.932 710.106 129.58V144H708.094ZM724.107 138.648V130.909H726.118V144H724.107V141.784H723.97C723.663 142.449 723.186 143.014 722.538 143.48C721.891 143.94 721.072 144.17 720.084 144.17C719.266 144.17 718.538 143.991 717.902 143.634C717.266 143.27 716.766 142.724 716.402 141.997C716.038 141.264 715.857 140.341 715.857 139.227V130.909H717.868V139.091C717.868 140.045 718.135 140.807 718.669 141.375C719.209 141.943 719.896 142.227 720.732 142.227C721.232 142.227 721.74 142.099 722.257 141.844C722.78 141.588 723.217 141.196 723.57 140.668C723.928 140.139 724.107 139.466 724.107 138.648ZM718.55 128.727C718.192 128.727 717.874 128.591 717.595 128.318C717.322 128.04 717.186 127.722 717.186 127.364C717.186 126.972 717.322 126.648 717.595 126.392C717.874 126.131 718.192 126 718.55 126C718.942 126 719.266 126.131 719.521 126.392C719.783 126.648 719.913 126.972 719.913 127.364C719.913 127.722 719.783 128.04 719.521 128.318C719.266 128.591 718.942 128.727 718.55 128.727ZM723.459 128.727C723.101 128.727 722.783 128.591 722.504 128.318C722.232 128.04 722.095 127.722 722.095 127.364C722.095 126.972 722.232 126.648 722.504 126.392C722.783 126.131 723.101 126 723.459 126C723.851 126 724.175 126.131 724.43 126.392C724.692 126.648 724.822 126.972 724.822 127.364C724.822 127.722 724.692 128.04 724.43 128.318C724.175 128.591 723.851 128.727 723.459 128.727ZM731.813 136.125V144H729.802V126.545H731.813V132.955H731.984C732.29 132.278 732.751 131.741 733.364 131.344C733.984 130.94 734.808 130.739 735.836 130.739C736.728 130.739 737.509 130.918 738.18 131.276C738.85 131.628 739.37 132.17 739.739 132.903C740.114 133.631 740.302 134.557 740.302 135.682V144H738.29V135.818C738.29 134.778 738.021 133.974 737.481 133.406C736.947 132.832 736.205 132.545 735.256 132.545C734.597 132.545 734.006 132.685 733.484 132.963C732.967 133.241 732.558 133.648 732.256 134.182C731.961 134.716 731.813 135.364 731.813 136.125ZM743.982 144V130.909H745.925V132.886H746.061C746.3 132.239 746.732 131.713 747.357 131.31C747.982 130.906 748.686 130.705 749.47 130.705C749.618 130.705 749.803 130.707 750.024 130.713C750.246 130.719 750.413 130.727 750.527 130.739V132.784C750.459 132.767 750.303 132.741 750.058 132.707C749.82 132.668 749.567 132.648 749.3 132.648C748.663 132.648 748.095 132.781 747.595 133.048C747.101 133.31 746.709 133.673 746.419 134.139C746.135 134.599 745.993 135.125 745.993 135.716V144H743.982ZM758.001 144.273C756.74 144.273 755.652 143.994 754.737 143.438C753.828 142.875 753.126 142.091 752.632 141.085C752.143 140.074 751.899 138.898 751.899 137.557C751.899 136.216 752.143 135.034 752.632 134.011C753.126 132.983 753.814 132.182 754.695 131.608C755.581 131.028 756.615 130.739 757.797 130.739C758.479 130.739 759.152 130.852 759.817 131.08C760.482 131.307 761.087 131.676 761.632 132.188C762.178 132.693 762.612 133.364 762.936 134.199C763.26 135.034 763.422 136.062 763.422 137.284V138.136H753.331V136.398H761.376C761.376 135.659 761.229 135 760.933 134.42C760.643 133.841 760.229 133.384 759.689 133.048C759.155 132.713 758.524 132.545 757.797 132.545C756.996 132.545 756.303 132.744 755.717 133.142C755.138 133.534 754.692 134.045 754.379 134.676C754.067 135.307 753.911 135.983 753.911 136.705V137.864C753.911 138.852 754.081 139.69 754.422 140.378C754.768 141.06 755.249 141.58 755.862 141.938C756.476 142.29 757.189 142.466 758.001 142.466C758.53 142.466 759.007 142.392 759.433 142.244C759.865 142.091 760.237 141.864 760.55 141.562C760.862 141.256 761.104 140.875 761.274 140.42L763.217 140.966C763.013 141.625 762.669 142.205 762.186 142.705C761.703 143.199 761.107 143.585 760.396 143.864C759.686 144.136 758.888 144.273 758.001 144.273ZM768.493 136.125V144H766.482V130.909H768.425V132.955H768.595C768.902 132.29 769.368 131.756 769.993 131.352C770.618 130.943 771.425 130.739 772.413 130.739C773.3 130.739 774.075 130.92 774.74 131.284C775.405 131.642 775.922 132.188 776.291 132.92C776.661 133.648 776.845 134.568 776.845 135.682V144H774.834V135.818C774.834 134.79 774.567 133.989 774.033 133.415C773.499 132.835 772.766 132.545 771.834 132.545C771.192 132.545 770.618 132.685 770.112 132.963C769.612 133.241 769.217 133.648 768.928 134.182C768.638 134.716 768.493 135.364 768.493 136.125Z" fill="black"/>
<path d="M436 211.18L445.16 202L436 192.82L438.82 190L450.82 202L438.82 214L436 211.18Z" fill="#FFD037"/>
<path d="M332.113 694.424C336.145 695.264 340.969 697.113 341.443 701.482C341.997 706.356 336.382 709.213 331.875 710.222C314.873 714.171 297.317 714.675 279.841 715.18C187.478 717.532 95.114 717.953 2.74878 716.356C4.09277 704.34 17.5386 699.129 28.6884 696.86C76.6101 687.113 126.192 692.659 173.243 682.323C222.826 671.315 283.163 683.752 332.113 694.424Z" fill="url(#paint0_linear_432_2544)"/>
<path d="M332.113 694.424C336.145 695.264 340.969 697.113 341.443 701.482C341.997 706.356 336.382 709.213 331.875 710.222C314.873 714.171 297.317 714.675 279.841 715.18C187.478 717.532 95.114 717.953 2.74878 716.356C4.09277 704.34 17.5386 699.129 28.6884 696.86C76.6101 687.113 126.192 692.659 173.243 682.323C222.826 671.315 283.163 683.752 332.113 694.424Z" fill="url(#paint1_linear_432_2544)"/>
<path d="M80.5713 615.265C79.5433 614.929 78.436 615.265 77.408 615.602C72.9003 617.198 68.4718 619.299 64.5182 622.072C62.5409 623.417 60.564 624.929 59.6152 627.198C58.7452 629.299 58.8244 631.652 58.9824 633.837C60.4061 660.895 61.7505 688.037 63.1737 715.096C63.2529 716.86 63.4901 718.793 64.7554 719.886C66.337 721.146 68.551 720.306 70.2906 719.465C87.2926 711.566 104.215 703.583 121.217 695.684C129.362 691.903 137.745 687.869 143.755 680.894C139.168 670.138 129.52 662.996 120.664 655.769C106.904 644.508 94.2515 631.568 83.1012 617.45C82.4684 616.61 81.6781 615.601 80.5713 615.265Z" fill="#DDC199"/>
<path d="M0.462624 475.855C4.65487 474.847 8.92729 473.838 13.1167 472.83C37.7892 520.98 59.6148 570.812 78.4355 621.904C74.0863 624.845 68.3138 627.87 64.1225 624.677C62.3829 623.332 61.3544 621.147 60.4056 619.047C39.0544 571.988 19.0476 524.258 0.462624 475.855Z" fill="#BDB39B"/>
<g opacity="0.26">
<path opacity="0.26" d="M78.2105 710.137C78.2897 711.062 76.9453 711.398 76.7873 710.474C73.3868 683.163 68.5636 656.357 62.3163 629.634C61.9211 627.954 64.3723 627.449 64.7675 629.13C71.252 655.6 75.7593 682.827 78.2105 710.137Z" fill="#272525"/>
<path opacity="0.26" d="M105.004 698.121C94.5663 674.76 83.4953 651.735 71.7914 629.046C71.0798 627.701 73.1359 626.609 73.8475 627.954C86.0258 650.811 97.0175 674.34 107.061 698.289C106.903 698.457 106.824 698.625 106.745 698.793C106.191 698.373 105.637 698.205 105.004 698.121Z" fill="#272525"/>
<path opacity="0.26" d="M122.018 682.742C104.542 665.263 88.9631 645.852 75.3617 624.843C74.4916 623.415 76.7061 622.238 77.5762 623.667C90.9404 644.591 106.281 663.919 123.441 681.397C124.311 682.321 122.888 683.666 122.018 682.742Z" fill="#272525"/>
</g>
<path d="M243.235 639.214C243.155 637.954 242.997 636.609 242.919 635.348C253.357 627.785 271.703 630.222 282.774 634.088C294.636 638.205 294.636 645.936 294.478 659.045C294.399 666.44 293.766 674.76 288.389 679.549C284.277 683.247 278.504 683.751 273.126 684.087C268.303 684.423 263.558 684.675 258.734 685.011C255.413 685.179 251.696 685.263 249.087 682.994C246.477 680.642 246.082 676.692 245.765 673.078C244.896 661.734 244.026 650.474 243.235 639.214Z" fill="#2F3F47"/>
<path d="M230.494 639.214C230.573 637.954 230.731 636.609 230.811 635.348C220.372 627.785 202.026 630.222 190.955 634.088C179.093 638.205 179.093 645.936 179.251 659.045C179.33 666.44 179.963 674.76 185.341 679.549C189.453 683.247 195.225 683.751 200.603 684.087C205.426 684.423 210.171 684.675 214.995 685.011C218.316 685.179 222.033 685.263 224.642 682.994C227.252 680.642 227.647 676.692 227.963 673.078C228.754 661.734 229.624 650.474 230.494 639.214Z" fill="#2F3F47"/>
<path d="M319.552 611.148C322.162 611.735 324.692 612.576 327.144 613.668C328.963 614.424 330.781 615.433 332.047 616.945C333.786 619.13 334.261 622.156 334.577 625.097C334.972 628.963 335.131 632.828 335.051 636.693C335.051 639.97 334.814 643.332 333.232 646.105C331.018 649.971 326.669 651.735 322.557 652.827C314.728 654.929 306.583 655.432 298.517 655.853C249.726 658.374 200.776 656.692 152.222 650.895C150.245 650.643 148.031 650.307 146.687 648.71C145.896 647.786 145.5 646.525 145.105 645.348C142.575 636.777 140.914 625.097 146.37 617.114C151.036 610.307 159.655 614.172 166.139 614.088C172.782 614.004 179.504 613.416 186.147 613.164C199.116 612.576 212.084 611.987 225.053 611.567C243.32 610.895 261.666 610.307 279.934 609.803C292.27 609.551 306.82 608.122 319.552 611.148Z" fill="#516770"/>
<path d="M214.692 426.695C181.558 426.863 148.503 427.62 115.369 428.376C116.16 409.637 117.425 390.897 121.221 372.578C127.785 340.478 142.809 309.134 168.194 290.395C207.1 261.656 268.86 265.437 310.772 293.84C328.407 305.772 342.561 322.159 349.995 342.242C358.535 365.183 360.829 390.225 362.173 414.847C362.332 418.124 362.489 421.317 362.647 424.594C313.461 422.577 263.958 426.527 214.692 426.695Z" fill="#EAF1F2"/>
<path d="M217.343 436.108C265.897 436.024 314.61 432.327 363.164 434.175C365.536 490.141 363.322 546.359 356.521 601.989C355.572 609.636 354.386 617.618 349.641 623.668C342.287 632.996 329.555 628.878 319.67 628.878C302.985 628.878 285.825 629.635 268.981 630.055C237.191 630.811 205.639 630.895 174.008 627.114C158.983 625.35 128.617 630.223 121.421 615.854C115.49 604.173 117.941 580.476 117.071 567.451C116.043 551.989 115.252 536.611 114.778 521.149C113.908 493.334 114.066 465.519 115.095 437.62C149.098 436.948 183.26 436.108 217.343 436.108Z" fill="#E2ECED"/>
<path d="M102.671 526.696C102.038 526.107 101.959 525.099 101.88 524.259C100.22 500.982 98.7963 477.704 97.7683 454.427C97.6891 452.41 97.6891 450.058 99.1915 448.713C100.299 447.789 101.722 447.705 103.146 447.705C108.049 447.621 112.872 447.537 117.775 447.537C120.859 474.007 122.124 500.645 121.492 527.284C116.035 527.284 110.658 527.368 105.202 527.368C104.332 527.368 103.383 527.368 102.671 526.696Z" fill="#2F3F47"/>
<path d="M77.4645 580.309C76.8322 578.377 76.1201 576.36 74.6969 574.931C73.5896 573.839 72.0877 573.167 70.664 572.662C64.4959 570.309 58.1698 568.545 51.764 567.368C46.7824 570.982 42.2746 575.268 38.3998 580.225C37.6882 581.15 36.9766 582.158 36.8181 583.335C36.6602 584.259 36.8974 585.183 37.1346 586.108C39.665 596.444 42.1167 606.78 44.6471 617.116C48.3635 617.62 52.0804 617.704 55.7181 617.2C54.2949 610.897 52.8713 604.595 51.5268 598.376C50.1824 592.41 49.1544 585.099 53.4244 580.898C57.7737 582.074 62.0442 583.335 66.3935 584.511C67.1051 584.679 67.8964 584.931 68.5287 585.435C69.2403 586.108 69.5568 587.116 69.8732 588.04C71.692 593.923 73.0365 599.973 73.9853 606.108C76.7529 605.267 79.5205 604.51 82.2882 603.67C82.5259 595.687 79.9954 587.873 77.4645 580.309Z" fill="#2F3F47"/>
<path d="M43.8569 571.234C43.6197 570.982 43.541 570.647 43.4617 570.394C42.6709 566.613 41.8801 562.831 41.0101 559.133C46.5458 557.789 52.2391 556.864 57.8536 556.36C58.7236 559.47 59.2772 562.747 59.5144 566.024C59.5936 566.697 59.5936 567.537 59.1192 568.041C58.8028 568.377 58.4072 568.461 58.012 568.63C53.8207 569.974 49.4714 570.982 45.0429 571.57C44.7265 571.486 44.2526 571.571 43.8569 571.234Z" fill="#516770"/>
<path d="M38.3131 556.53C34.9919 550.563 37.6803 534.849 37.6803 528.547C37.7595 519.891 37.7595 511.152 39.6575 502.749C41.5551 494.345 45.4305 486.11 51.8358 480.816C55.4735 477.791 59.7435 475.859 64.172 474.262C77.3783 469.472 91.5329 467.876 105.372 469.64C106.479 469.808 107.665 469.976 108.456 470.817C109.326 471.657 109.484 473.001 109.642 474.262C110.275 479.052 111.144 484.346 110.907 489.219C110.512 497.791 112.172 495.438 106.32 497.875C101.813 499.724 93.3518 498.211 88.2117 499.472C82.2015 500.9 76.3498 503.085 70.4981 505.27C66.7817 506.614 62.8276 508.295 60.9295 511.908C59.9015 513.841 59.5851 516.194 59.3479 518.463C57.9247 531.909 57.2918 545.437 57.3711 558.967C57.3711 561.319 41.0812 560.143 38.946 557.538C38.7088 557.202 38.5503 556.866 38.3131 556.53Z" fill="#E2ECED"/>
<g opacity="0.15">
<path opacity="0.15" d="M65.9978 478.128C66.4722 486.195 68.449 493.506 71.4538 500.901C72.0075 502.329 70.3471 503.422 69.477 502.162C64.7326 495.103 62.2809 486.699 61.4109 478.128C61.0944 475.103 65.7601 475.018 65.9978 478.128Z" fill="#272525"/>
<path opacity="0.15" d="M53.8948 483.925C55.2388 491.741 58.5601 496.867 63.7794 502.413C64.491 503.169 63.5427 504.429 62.7518 503.841C59.1934 501.488 55.8721 499.976 53.3417 496.195C50.9692 492.665 49.3876 488.883 48.9132 484.598C48.5968 481.657 53.3412 480.984 53.8948 483.925Z" fill="#272525"/>
</g>
<path d="M370.925 448.209C371.558 448.797 371.636 449.806 371.716 450.646C373.376 473.923 374.8 497.2 375.828 520.477C375.907 522.494 375.907 524.847 374.404 526.191C373.297 527.116 371.874 527.2 370.451 527.2C365.548 527.284 360.724 527.368 355.821 527.368C352.737 500.898 351.472 474.259 352.104 447.621C357.561 447.621 362.938 447.537 368.394 447.537C369.264 447.537 370.292 447.537 370.925 448.209Z" fill="#2F3F47"/>
<path d="M432.22 419.554C431.983 421.571 431.746 423.755 432.458 425.604C433.011 427.116 434.039 428.377 435.146 429.554C439.654 434.511 444.556 439.134 449.855 443.251C455.865 442.411 461.716 440.646 467.173 438.041C468.201 437.537 469.308 437.033 469.941 436.024C470.415 435.268 470.652 434.343 470.811 433.419C472.867 422.999 475.002 412.495 477.058 402.075C473.974 399.89 470.652 398.041 467.173 396.696C465.828 402.999 464.405 409.301 463.061 415.604C461.717 421.57 459.582 428.629 454.046 430.31C450.646 427.201 447.324 424.091 443.924 420.982C443.37 420.478 442.738 419.89 442.421 419.134C442.026 418.209 442.184 417.116 442.343 416.108C443.212 409.974 444.478 403.924 446.217 397.957C443.37 397.369 440.603 396.781 437.756 396.192C434.118 403.335 433.169 411.57 432.22 419.554Z" fill="#2F3F47"/>
<path d="M458.491 443.503C458.57 443.839 458.491 444.176 458.491 444.428C457.621 448.209 456.751 451.906 455.961 455.688C450.425 454.259 444.969 452.411 439.671 450.226C440.145 447.032 441.015 443.839 442.201 440.814C442.438 440.142 442.754 439.469 443.387 439.217C443.782 439.049 444.178 439.133 444.653 439.217C449.002 439.974 453.272 441.15 457.463 442.663C457.859 442.831 458.333 443.083 458.491 443.503Z" fill="#516770"/>
<path d="M457.286 459.303C457.84 466.193 448.825 478.966 446.136 484.68C442.499 492.412 438.782 500.227 433.563 506.865C428.343 513.504 421.464 519.05 413.477 520.73C408.969 521.739 404.304 521.487 399.717 520.815C385.878 518.882 372.514 513.672 360.89 505.521C359.941 504.848 358.992 504.176 358.596 503C358.201 501.823 358.596 500.563 358.913 499.302C360.415 494.681 361.76 489.555 364.053 485.269C368.007 477.79 365.476 479.134 371.803 479.638C376.626 480.059 383.585 485.437 388.725 486.782C394.735 488.378 400.903 489.134 406.992 489.975C410.867 490.479 415.137 490.899 418.38 488.546C420.12 487.286 421.385 485.353 422.492 483.42C429.372 472.075 435.619 460.227 441.233 448.043C442.182 445.942 456.258 454.681 457.128 458.042C457.207 458.546 457.286 458.883 457.286 459.303Z" fill="#E2ECED"/>
<g opacity="0.15">
<path opacity="0.15" d="M399.813 516.442C402.739 508.963 404.004 501.484 404.479 493.417C404.558 491.821 406.535 491.653 406.772 493.25C408.038 501.821 406.772 510.476 403.925 518.543C402.897 521.484 398.627 519.299 399.813 516.442Z" fill="#272525"/>
<path opacity="0.15" d="M413.005 517.031C415.061 509.384 414.27 503.25 411.898 495.771C411.581 494.763 412.926 494.09 413.479 494.93C415.614 498.712 417.987 501.653 418.698 506.191C419.331 510.476 419.173 514.594 417.749 518.627C416.8 521.568 412.293 519.888 413.005 517.031Z" fill="#272525"/>
</g>
<path d="M340.564 371.739C340.486 374.932 340.328 378.209 339.062 381.151C335.82 388.461 327.28 390.814 319.767 392.159C276.828 399.805 232.939 402.411 189.762 396.612C184.069 395.856 178.375 394.932 173.156 392.411C167.936 389.89 163.271 385.604 161.373 379.974C160.187 376.36 160.108 372.495 160.029 368.63C159.95 364.764 159.95 360.815 159.871 356.949C159.871 355.185 159.871 353.42 160.503 351.739C161.215 349.974 162.638 348.546 164.141 347.453C169.834 343.336 177.031 342.411 183.91 341.655C229.617 336.781 275.878 332.496 321.348 339.05C323.246 339.302 325.224 339.638 326.568 341.067C327.28 341.739 327.754 342.664 328.466 343.336C329.81 344.428 331.629 344.344 333.21 344.932C337.639 346.445 339.22 352.244 339.774 357.202C340.406 361.991 340.644 366.865 340.564 371.739Z" fill="#2F3F47"/>
<path opacity="0.2" d="M283.321 378.796C281.818 375.855 281.581 372.41 281.897 369.049C282.055 367.032 282.53 364.932 283.716 363.419C286.247 360.226 290.912 360.562 294.787 359.806C298.187 361.318 301.035 364.259 302.458 367.873C303.328 370.057 303.723 372.41 303.486 374.763C302.932 379.553 299.215 383.671 294.787 384.511C290.28 385.52 285.456 383.082 283.321 378.796Z" fill="#EAF1F2"/>
<path opacity="0.2" d="M208.017 378.796C206.515 375.855 206.277 372.41 206.594 369.049C206.752 367.032 207.226 364.932 208.413 363.419C210.943 360.226 215.608 360.562 219.483 359.806C222.884 361.318 225.731 364.259 227.154 367.873C228.024 370.057 228.419 372.41 228.182 374.763C227.629 379.553 223.912 383.671 219.483 384.511C215.055 385.52 210.232 383.082 208.017 378.796Z" fill="#EAF1F2"/>
<defs>
<linearGradient id="paint0_linear_432_2544" x1="341.429" y1="697.658" x2="2.65919" y2="697.658" gradientUnits="userSpaceOnUse">
<stop stop-color="#4D4D4D"/>
<stop offset="1"/>
</linearGradient>
<linearGradient id="paint1_linear_432_2544" x1="341.429" y1="697.658" x2="2.65919" y2="697.658" gradientUnits="userSpaceOnUse">
<stop/>
<stop offset="1"/>
</linearGradient>
</defs>
</svg>
