<svg width="969" height="700" viewBox="0 0 969 700" fill="none" xmlns="http://www.w3.org/2000/svg">
<path d="M450.648 301C450.462 301 450.277 300.996 450.09 300.987C447.909 300.894 445.779 300.185 443.882 298.919C441.985 297.654 440.377 295.87 439.194 293.718C430.334 278.187 419.461 264.373 406.968 252.775C399.405 245.685 391.502 239.093 383.86 232.717C364.143 216.274 345.575 200.788 335.268 179.389C312.796 132.729 339.261 67.7384 377.068 38.5923C419.474 5.90327 475.252 0.77573 529.211 0.103761C534.819 0.0342062 540.43 -0.000362368 546.045 2.86387e-06C643.268 0.0437266 740.287 10.4486 835.904 31.0862C867.699 37.9664 900.981 46.3949 927.726 66.8494C954.311 87.1829 970.471 119.203 968.894 148.427C966.593 191.09 928.034 222.968 892.922 231.302C859.456 239.24 824.689 233.876 787.883 228.195C779.757 226.942 771.356 225.645 763.048 224.518C672.755 212.277 503.133 250.007 495.957 251.62L488.838 253.218L461.214 294.913C459.971 296.813 458.371 298.351 456.538 299.407C454.706 300.463 452.69 301.008 450.648 301Z" fill="white"/>
<path d="M418.284 144L413.511 126.545H415.659L419.307 140.761H419.477L423.193 126.545H425.58L429.295 140.761H429.466L433.114 126.545H435.261L430.489 144H428.307L424.455 130.091H424.318L420.466 144H418.284ZM440.256 144.307C439.426 144.307 438.673 144.151 437.997 143.838C437.321 143.52 436.784 143.062 436.386 142.466C435.989 141.864 435.79 141.136 435.79 140.284C435.79 139.534 435.938 138.926 436.233 138.46C436.528 137.989 436.923 137.619 437.418 137.352C437.912 137.085 438.457 136.886 439.054 136.756C439.656 136.619 440.261 136.511 440.869 136.432C441.665 136.33 442.31 136.253 442.804 136.202C443.304 136.145 443.668 136.051 443.895 135.92C444.128 135.79 444.244 135.562 444.244 135.239V135.17C444.244 134.33 444.014 133.676 443.554 133.21C443.099 132.744 442.409 132.511 441.483 132.511C440.523 132.511 439.77 132.722 439.224 133.142C438.679 133.562 438.295 134.011 438.074 134.489L436.165 133.807C436.506 133.011 436.96 132.392 437.528 131.949C438.102 131.5 438.727 131.187 439.403 131.011C440.085 130.83 440.756 130.739 441.415 130.739C441.835 130.739 442.318 130.79 442.864 130.892C443.415 130.989 443.946 131.19 444.457 131.497C444.974 131.804 445.403 132.267 445.744 132.886C446.085 133.506 446.256 134.335 446.256 135.375V144H444.244V142.227H444.142C444.006 142.511 443.778 142.815 443.46 143.139C443.142 143.463 442.719 143.739 442.19 143.966C441.662 144.193 441.017 144.307 440.256 144.307ZM440.562 142.5C441.358 142.5 442.028 142.344 442.574 142.031C443.125 141.719 443.54 141.315 443.818 140.821C444.102 140.327 444.244 139.807 444.244 139.261V137.42C444.159 137.523 443.972 137.616 443.682 137.702C443.398 137.781 443.068 137.852 442.693 137.915C442.324 137.972 441.963 138.023 441.611 138.068C441.264 138.108 440.983 138.142 440.767 138.17C440.244 138.239 439.756 138.349 439.301 138.503C438.852 138.651 438.489 138.875 438.21 139.176C437.938 139.472 437.801 139.875 437.801 140.386C437.801 141.085 438.06 141.614 438.577 141.972C439.099 142.324 439.761 142.5 440.562 142.5ZM459.2 133.841L457.393 134.352C457.279 134.051 457.112 133.759 456.89 133.474C456.674 133.185 456.379 132.946 456.004 132.759C455.629 132.571 455.148 132.477 454.563 132.477C453.762 132.477 453.094 132.662 452.56 133.031C452.032 133.395 451.768 133.858 451.768 134.42C451.768 134.92 451.95 135.315 452.313 135.605C452.677 135.895 453.245 136.136 454.018 136.33L455.961 136.807C457.131 137.091 458.004 137.526 458.577 138.111C459.151 138.69 459.438 139.437 459.438 140.352C459.438 141.102 459.222 141.773 458.79 142.364C458.364 142.955 457.768 143.42 457.001 143.761C456.234 144.102 455.342 144.273 454.325 144.273C452.989 144.273 451.884 143.983 451.009 143.403C450.134 142.824 449.58 141.977 449.347 140.864L451.256 140.386C451.438 141.091 451.782 141.619 452.288 141.972C452.799 142.324 453.467 142.5 454.29 142.5C455.228 142.5 455.972 142.301 456.523 141.903C457.08 141.5 457.359 141.017 457.359 140.455C457.359 140 457.2 139.619 456.881 139.312C456.563 139 456.075 138.767 455.415 138.614L453.234 138.102C452.035 137.818 451.154 137.378 450.592 136.781C450.035 136.179 449.756 135.426 449.756 134.523C449.756 133.784 449.964 133.131 450.379 132.562C450.799 131.994 451.37 131.548 452.092 131.224C452.819 130.901 453.643 130.739 454.563 130.739C455.859 130.739 456.876 131.023 457.614 131.591C458.359 132.159 458.887 132.909 459.2 133.841ZM472.182 144L468.193 130.909H470.307L473.136 140.932H473.273L476.068 130.909H478.216L480.977 140.898H481.114L483.943 130.909H486.057L482.068 144H480.091L477.227 133.943H477.023L474.159 144H472.182ZM488.716 144V130.909H490.727V144H488.716ZM489.739 128.727C489.347 128.727 489.009 128.594 488.724 128.327C488.446 128.06 488.307 127.739 488.307 127.364C488.307 126.989 488.446 126.668 488.724 126.401C489.009 126.134 489.347 126 489.739 126C490.131 126 490.466 126.134 490.744 126.401C491.028 126.668 491.17 126.989 491.17 127.364C491.17 127.739 491.028 128.06 490.744 128.327C490.466 128.594 490.131 128.727 489.739 128.727ZM496.423 126.545V144H494.411V126.545H496.423ZM502.118 126.545V144H500.107V126.545H502.118ZM515.075 133.841L513.268 134.352C513.154 134.051 512.987 133.759 512.765 133.474C512.549 133.185 512.254 132.946 511.879 132.759C511.504 132.571 511.023 132.477 510.438 132.477C509.637 132.477 508.969 132.662 508.435 133.031C507.907 133.395 507.643 133.858 507.643 134.42C507.643 134.92 507.825 135.315 508.188 135.605C508.552 135.895 509.12 136.136 509.893 136.33L511.836 136.807C513.006 137.091 513.879 137.526 514.452 138.111C515.026 138.69 515.313 139.437 515.313 140.352C515.313 141.102 515.097 141.773 514.665 142.364C514.239 142.955 513.643 143.42 512.876 143.761C512.109 144.102 511.217 144.273 510.2 144.273C508.864 144.273 507.759 143.983 506.884 143.403C506.009 142.824 505.455 141.977 505.222 140.864L507.131 140.386C507.313 141.091 507.657 141.619 508.163 141.972C508.674 142.324 509.342 142.5 510.165 142.5C511.103 142.5 511.847 142.301 512.398 141.903C512.955 141.5 513.234 141.017 513.234 140.455C513.234 140 513.075 139.619 512.756 139.312C512.438 139 511.95 138.767 511.29 138.614L509.109 138.102C507.91 137.818 507.029 137.378 506.467 136.781C505.91 136.179 505.631 135.426 505.631 134.523C505.631 133.784 505.839 133.131 506.254 132.562C506.674 131.994 507.245 131.548 507.967 131.224C508.694 130.901 509.518 130.739 510.438 130.739C511.734 130.739 512.751 131.023 513.489 131.591C514.234 132.159 514.762 132.909 515.075 133.841ZM524.034 130.909V132.614H517.25V130.909H524.034ZM519.227 127.773H521.239V140.25C521.239 140.818 521.321 141.244 521.486 141.528C521.656 141.807 521.872 141.994 522.134 142.091C522.401 142.182 522.682 142.227 522.977 142.227C523.199 142.227 523.381 142.216 523.523 142.193C523.665 142.165 523.778 142.142 523.864 142.125L524.273 143.932C524.136 143.983 523.946 144.034 523.702 144.085C523.457 144.142 523.148 144.17 522.773 144.17C522.205 144.17 521.648 144.048 521.102 143.804C520.563 143.56 520.114 143.188 519.756 142.688C519.403 142.188 519.227 141.557 519.227 140.795V127.773ZM538.753 144.273C537.662 144.273 536.699 143.997 535.864 143.446C535.028 142.889 534.375 142.105 533.903 141.094C533.432 140.077 533.196 138.875 533.196 137.489C533.196 136.114 533.432 134.92 533.903 133.909C534.375 132.898 535.031 132.116 535.872 131.565C536.713 131.014 537.685 130.739 538.787 130.739C539.639 130.739 540.313 130.881 540.807 131.165C541.307 131.443 541.688 131.761 541.949 132.119C542.216 132.472 542.423 132.761 542.571 132.989H542.741V126.545H544.753V144H542.81V141.989H542.571C542.423 142.227 542.213 142.528 541.94 142.892C541.668 143.25 541.278 143.571 540.773 143.855C540.267 144.134 539.594 144.273 538.753 144.273ZM539.026 142.466C539.832 142.466 540.514 142.256 541.071 141.835C541.628 141.409 542.051 140.821 542.341 140.071C542.631 139.315 542.776 138.443 542.776 137.455C542.776 136.477 542.634 135.622 542.349 134.889C542.065 134.151 541.645 133.577 541.088 133.168C540.531 132.753 539.844 132.545 539.026 132.545C538.173 132.545 537.463 132.764 536.895 133.202C536.332 133.634 535.909 134.222 535.625 134.966C535.347 135.705 535.207 136.534 535.207 137.455C535.207 138.386 535.349 139.233 535.634 139.994C535.923 140.75 536.349 141.352 536.912 141.801C537.48 142.244 538.185 142.466 539.026 142.466ZM556.966 138.648V130.909H558.977V144H556.966V141.784H556.83C556.523 142.449 556.045 143.014 555.398 143.48C554.75 143.94 553.932 144.17 552.943 144.17C552.125 144.17 551.398 143.991 550.761 143.634C550.125 143.27 549.625 142.724 549.261 141.997C548.898 141.264 548.716 140.341 548.716 139.227V130.909H550.727V139.091C550.727 140.045 550.994 140.807 551.528 141.375C552.068 141.943 552.756 142.227 553.591 142.227C554.091 142.227 554.599 142.099 555.116 141.844C555.639 141.588 556.077 141.196 556.429 140.668C556.787 140.139 556.966 139.466 556.966 138.648ZM569.411 144V130.909H571.354V132.955H571.525C571.798 132.256 572.238 131.713 572.846 131.327C573.454 130.935 574.184 130.739 575.036 130.739C575.9 130.739 576.619 130.935 577.192 131.327C577.772 131.713 578.224 132.256 578.548 132.955H578.684C579.019 132.278 579.522 131.741 580.192 131.344C580.863 130.94 581.667 130.739 582.604 130.739C583.775 130.739 584.732 131.105 585.477 131.838C586.221 132.565 586.593 133.699 586.593 135.239V144H584.582V135.239C584.582 134.273 584.317 133.582 583.789 133.168C583.261 132.753 582.638 132.545 581.923 132.545C581.002 132.545 580.289 132.824 579.783 133.381C579.278 133.932 579.025 134.631 579.025 135.477V144H576.979V135.034C576.979 134.29 576.738 133.69 576.255 133.236C575.772 132.776 575.15 132.545 574.388 132.545C573.866 132.545 573.377 132.685 572.923 132.963C572.474 133.241 572.11 133.628 571.832 134.122C571.559 134.611 571.423 135.176 571.423 135.818V144H569.411ZM594.123 144.307C593.293 144.307 592.54 144.151 591.864 143.838C591.188 143.52 590.651 143.062 590.254 142.466C589.856 141.864 589.657 141.136 589.657 140.284C589.657 139.534 589.805 138.926 590.1 138.46C590.396 137.989 590.79 137.619 591.285 137.352C591.779 137.085 592.325 136.886 592.921 136.756C593.523 136.619 594.129 136.511 594.737 136.432C595.532 136.33 596.177 136.253 596.671 136.202C597.171 136.145 597.535 136.051 597.762 135.92C597.995 135.79 598.112 135.562 598.112 135.239V135.17C598.112 134.33 597.881 133.676 597.421 133.21C596.967 132.744 596.276 132.511 595.35 132.511C594.39 132.511 593.637 132.722 593.092 133.142C592.546 133.562 592.163 134.011 591.941 134.489L590.032 133.807C590.373 133.011 590.827 132.392 591.396 131.949C591.969 131.5 592.594 131.187 593.271 131.011C593.952 130.83 594.623 130.739 595.282 130.739C595.702 130.739 596.185 130.79 596.731 130.892C597.282 130.989 597.813 131.19 598.325 131.497C598.842 131.804 599.271 132.267 599.612 132.886C599.952 133.506 600.123 134.335 600.123 135.375V144H598.112V142.227H598.009C597.873 142.511 597.646 142.815 597.327 143.139C597.009 143.463 596.586 143.739 596.058 143.966C595.529 144.193 594.884 144.307 594.123 144.307ZM594.43 142.5C595.225 142.5 595.896 142.344 596.441 142.031C596.992 141.719 597.407 141.315 597.685 140.821C597.969 140.327 598.112 139.807 598.112 139.261V137.42C598.026 137.523 597.839 137.616 597.549 137.702C597.265 137.781 596.935 137.852 596.56 137.915C596.191 137.972 595.83 138.023 595.478 138.068C595.131 138.108 594.85 138.142 594.634 138.17C594.112 138.239 593.623 138.349 593.168 138.503C592.719 138.651 592.356 138.875 592.077 139.176C591.805 139.472 591.668 139.875 591.668 140.386C591.668 141.085 591.927 141.614 592.444 141.972C592.967 142.324 593.629 142.5 594.43 142.5ZM609.112 144.273C607.885 144.273 606.828 143.983 605.942 143.403C605.055 142.824 604.374 142.026 603.896 141.009C603.419 139.991 603.18 138.83 603.18 137.523C603.18 136.193 603.425 135.02 603.913 134.003C604.408 132.98 605.095 132.182 605.976 131.608C606.862 131.028 607.896 130.739 609.078 130.739C609.999 130.739 610.828 130.909 611.567 131.25C612.305 131.591 612.911 132.068 613.382 132.682C613.854 133.295 614.146 134.011 614.26 134.83H612.249C612.095 134.233 611.754 133.705 611.226 133.244C610.703 132.778 609.999 132.545 609.112 132.545C608.328 132.545 607.641 132.75 607.05 133.159C606.464 133.562 606.007 134.134 605.678 134.872C605.354 135.605 605.192 136.466 605.192 137.455C605.192 138.466 605.351 139.347 605.669 140.097C605.993 140.847 606.447 141.429 607.033 141.844C607.624 142.259 608.317 142.466 609.112 142.466C609.635 142.466 610.109 142.375 610.536 142.193C610.962 142.011 611.322 141.75 611.618 141.409C611.913 141.068 612.124 140.659 612.249 140.182H614.26C614.146 140.955 613.865 141.651 613.416 142.27C612.973 142.884 612.385 143.372 611.652 143.736C610.925 144.094 610.078 144.273 609.112 144.273ZM619.212 136.125V144H617.2V126.545H619.212V132.955H619.382C619.689 132.278 620.149 131.741 620.763 131.344C621.382 130.94 622.206 130.739 623.234 130.739C624.126 130.739 624.908 130.918 625.578 131.276C626.249 131.628 626.768 132.17 627.138 132.903C627.513 133.631 627.7 134.557 627.7 135.682V144H625.689V135.818C625.689 134.778 625.419 133.974 624.879 133.406C624.345 132.832 623.604 132.545 622.655 132.545C621.996 132.545 621.405 132.685 620.882 132.963C620.365 133.241 619.956 133.648 619.655 134.182C619.359 134.716 619.212 135.364 619.212 136.125ZM636.869 144.273C635.607 144.273 634.519 143.994 633.604 143.438C632.695 142.875 631.994 142.091 631.499 141.085C631.011 140.074 630.766 138.898 630.766 137.557C630.766 136.216 631.011 135.034 631.499 134.011C631.994 132.983 632.681 132.182 633.562 131.608C634.448 131.028 635.482 130.739 636.664 130.739C637.346 130.739 638.019 130.852 638.684 131.08C639.349 131.307 639.954 131.676 640.499 132.188C641.045 132.693 641.479 133.364 641.803 134.199C642.127 135.034 642.289 136.062 642.289 137.284V138.136H632.198V136.398H640.244C640.244 135.659 640.096 135 639.8 134.42C639.511 133.841 639.096 133.384 638.556 133.048C638.022 132.713 637.391 132.545 636.664 132.545C635.863 132.545 635.17 132.744 634.585 133.142C634.005 133.534 633.559 134.045 633.246 134.676C632.934 135.307 632.778 135.983 632.778 136.705V137.864C632.778 138.852 632.948 139.69 633.289 140.378C633.636 141.06 634.116 141.58 634.729 141.938C635.343 142.29 636.056 142.466 636.869 142.466C637.397 142.466 637.874 142.392 638.3 142.244C638.732 142.091 639.104 141.864 639.417 141.562C639.729 141.256 639.971 140.875 640.141 140.42L642.085 140.966C641.88 141.625 641.536 142.205 641.053 142.705C640.57 143.199 639.974 143.585 639.263 143.864C638.553 144.136 637.755 144.273 636.869 144.273ZM647.36 136.125V144H645.349V130.909H647.292V132.955H647.462C647.769 132.29 648.235 131.756 648.86 131.352C649.485 130.943 650.292 130.739 651.281 130.739C652.167 130.739 652.942 130.92 653.607 131.284C654.272 131.642 654.789 132.188 655.158 132.92C655.528 133.648 655.712 134.568 655.712 135.682V144H653.701V135.818C653.701 134.79 653.434 133.989 652.9 133.415C652.366 132.835 651.633 132.545 650.701 132.545C650.059 132.545 649.485 132.685 648.979 132.963C648.479 133.241 648.085 133.648 647.795 134.182C647.505 134.716 647.36 135.364 647.36 136.125ZM662.013 139.091V138.989C662.024 137.903 662.138 137.04 662.354 136.398C662.57 135.756 662.876 135.236 663.274 134.838C663.672 134.44 664.149 134.074 664.706 133.739C665.041 133.534 665.342 133.293 665.609 133.014C665.876 132.73 666.087 132.403 666.24 132.034C666.399 131.665 666.479 131.256 666.479 130.807C666.479 130.25 666.348 129.767 666.087 129.358C665.825 128.949 665.476 128.634 665.038 128.412C664.601 128.19 664.115 128.08 663.581 128.08C663.115 128.08 662.666 128.176 662.234 128.369C661.803 128.562 661.442 128.866 661.152 129.281C660.862 129.696 660.695 130.239 660.649 130.909H658.501C658.547 129.943 658.797 129.116 659.251 128.429C659.712 127.741 660.317 127.216 661.067 126.852C661.822 126.489 662.661 126.307 663.581 126.307C664.581 126.307 665.45 126.506 666.189 126.903C666.933 127.301 667.507 127.847 667.911 128.54C668.32 129.233 668.524 130.023 668.524 130.909C668.524 131.534 668.428 132.099 668.234 132.605C668.047 133.111 667.774 133.562 667.416 133.96C667.064 134.358 666.638 134.71 666.138 135.017C665.638 135.33 665.237 135.659 664.936 136.006C664.635 136.347 664.416 136.753 664.28 137.224C664.143 137.696 664.07 138.284 664.058 138.989V139.091H662.013ZM663.104 144.136C662.683 144.136 662.322 143.986 662.021 143.685C661.72 143.384 661.57 143.023 661.57 142.602C661.57 142.182 661.72 141.821 662.021 141.52C662.322 141.219 662.683 141.068 663.104 141.068C663.524 141.068 663.885 141.219 664.186 141.52C664.487 141.821 664.638 142.182 664.638 142.602C664.638 142.881 664.567 143.136 664.425 143.369C664.288 143.602 664.104 143.79 663.871 143.932C663.643 144.068 663.388 144.136 663.104 144.136Z" fill="black"/>
<path d="M332.114 673.424C336.146 674.264 340.97 676.113 341.444 680.482C341.998 685.356 336.383 688.213 331.876 689.222C314.874 693.171 297.318 693.675 279.842 694.18C187.479 696.532 95.115 696.953 2.74977 695.356C4.09374 683.34 17.5396 678.129 28.6894 675.86C76.6111 666.113 126.193 671.659 173.244 661.323C222.827 650.315 283.164 662.752 332.114 673.424Z" fill="url(#paint0_linear_442_2548)"/>
<path d="M332.114 673.424C336.146 674.264 340.97 676.113 341.444 680.482C341.998 685.356 336.383 688.213 331.876 689.222C314.874 693.171 297.318 693.675 279.842 694.18C187.479 696.532 95.115 696.953 2.74977 695.356C4.09374 683.34 17.5396 678.129 28.6894 675.86C76.6111 666.113 126.193 671.659 173.244 661.323C222.827 650.315 283.164 662.752 332.114 673.424Z" fill="url(#paint1_linear_442_2548)"/>
<path d="M80.5703 594.265C79.5423 593.929 78.435 594.265 77.407 594.602C72.8993 596.198 68.4708 598.299 64.5172 601.072C62.5399 602.417 60.5631 603.929 59.6143 606.198C58.7442 608.299 58.8234 610.652 58.9814 612.837C60.4051 639.895 61.7495 667.037 63.1727 694.096C63.2519 695.86 63.4892 697.793 64.7544 698.886C66.336 700.146 68.55 699.306 70.2896 698.465C87.2916 690.566 104.214 682.583 121.216 674.684C129.361 670.903 137.744 666.869 143.754 659.894C139.167 649.138 129.519 641.996 120.663 634.769C106.903 623.508 94.2505 610.568 83.1003 596.45C82.4674 595.61 81.6771 594.601 80.5703 594.265Z" fill="#DDC199"/>
<path d="M0.46262 454.855C4.65487 453.847 8.92729 452.838 13.1167 451.83C37.7892 499.98 59.6148 549.812 78.4355 600.904C74.0863 603.845 68.3138 606.87 64.1225 603.677C62.3829 602.332 61.3544 600.147 60.4056 598.047C39.0544 550.988 19.0476 503.258 0.46262 454.855Z" fill="#BDB39B"/>
<g opacity="0.26">
<path opacity="0.26" d="M78.2095 689.137C78.2887 690.062 76.9443 690.398 76.7864 689.474C73.3859 662.163 68.5627 635.357 62.3153 608.634C61.9201 606.954 64.3714 606.449 64.7665 608.13C71.2511 634.6 75.7583 661.827 78.2095 689.137Z" fill="#272525"/>
<path opacity="0.26" d="M105.004 677.121C94.5663 653.76 83.4953 630.735 71.7914 608.046C71.0798 606.701 73.1359 605.609 73.8475 606.954C86.0258 629.811 97.0175 653.34 107.061 677.289C106.903 677.457 106.824 677.625 106.745 677.793C106.191 677.373 105.637 677.205 105.004 677.121Z" fill="#272525"/>
<path opacity="0.26" d="M122.018 661.742C104.542 644.263 88.9631 624.852 75.3617 603.843C74.4916 602.415 76.7061 601.238 77.5762 602.667C90.9404 623.591 106.281 642.919 123.441 660.397C124.311 661.321 122.888 662.666 122.018 661.742Z" fill="#272525"/>
</g>
<path d="M243.236 618.214C243.156 616.954 242.998 615.609 242.92 614.348C253.358 606.785 271.704 609.222 282.775 613.088C294.637 617.205 294.637 624.936 294.479 638.045C294.4 645.44 293.767 653.76 288.39 658.549C284.278 662.247 278.505 662.751 273.127 663.087C268.304 663.423 263.559 663.675 258.735 664.011C255.414 664.179 251.697 664.263 249.088 661.994C246.478 659.642 246.083 655.692 245.766 652.078C244.897 640.734 244.026 629.474 243.236 618.214Z" fill="#2F3F47"/>
<path d="M230.494 618.214C230.573 616.954 230.731 615.609 230.811 614.348C220.372 606.785 202.026 609.222 190.955 613.088C179.093 617.205 179.093 624.936 179.251 638.045C179.33 645.44 179.963 653.76 185.341 658.549C189.453 662.247 195.225 662.751 200.603 663.087C205.426 663.423 210.171 663.675 214.995 664.011C218.316 664.179 222.033 664.263 224.642 661.994C227.252 659.642 227.647 655.692 227.963 652.078C228.754 640.734 229.624 629.474 230.494 618.214Z" fill="#2F3F47"/>
<path d="M319.553 590.148C322.163 590.735 324.693 591.576 327.145 592.668C328.964 593.424 330.782 594.433 332.048 595.945C333.787 598.13 334.262 601.156 334.578 604.097C334.973 607.963 335.132 611.828 335.052 615.693C335.052 618.97 334.815 622.332 333.233 625.105C331.019 628.971 326.67 630.735 322.558 631.827C314.729 633.929 306.584 634.432 298.518 634.853C249.727 637.374 200.777 635.692 152.223 629.895C150.246 629.643 148.032 629.307 146.688 627.71C145.897 626.786 145.501 625.525 145.106 624.348C142.576 615.777 140.915 604.097 146.371 596.114C151.036 589.307 159.656 593.172 166.14 593.088C172.783 593.004 179.505 592.416 186.148 592.164C199.117 591.576 212.085 590.987 225.054 590.567C243.321 589.895 261.667 589.307 279.935 588.803C292.271 588.551 306.821 587.122 319.553 590.148Z" fill="#516770"/>
<path d="M214.691 405.695C181.557 405.863 148.502 406.62 115.368 407.376C116.159 388.637 117.424 369.897 121.22 351.578C127.784 319.478 142.808 288.134 168.193 269.395C207.099 240.656 268.859 244.437 310.771 272.84C328.406 284.772 342.56 301.159 349.994 321.242C358.534 344.183 360.828 369.225 362.172 393.847C362.331 397.124 362.489 400.317 362.646 403.594C313.46 401.577 263.957 405.527 214.691 405.695Z" fill="#EAF1F2"/>
<path d="M217.343 415.108C265.897 415.024 314.61 411.327 363.164 413.175C365.536 469.141 363.322 525.359 356.521 580.989C355.572 588.636 354.386 596.618 349.641 602.668C342.287 611.996 329.555 607.878 319.67 607.878C302.985 607.878 285.825 608.635 268.981 609.055C237.191 609.811 205.639 609.895 174.008 606.114C158.983 604.35 128.617 609.223 121.421 594.853C115.49 583.173 117.941 559.476 117.071 546.451C116.043 530.989 115.252 515.611 114.778 500.149C113.908 472.334 114.066 444.519 115.095 416.62C149.098 415.948 183.26 415.108 217.343 415.108Z" fill="#E2ECED"/>
<path d="M102.671 505.696C102.038 505.107 101.959 504.099 101.88 503.259C100.22 479.982 98.7963 456.704 97.7683 433.427C97.6891 431.41 97.6891 429.058 99.1915 427.713C100.299 426.789 101.722 426.705 103.146 426.705C108.049 426.621 112.872 426.537 117.775 426.537C120.859 453.007 122.124 479.645 121.492 506.284C116.035 506.284 110.658 506.368 105.202 506.368C104.332 506.368 103.383 506.368 102.671 505.696Z" fill="#2F3F47"/>
<path d="M77.4635 559.309C76.8312 557.377 76.1191 555.36 74.6959 553.931C73.5886 552.839 72.0867 552.167 70.6631 551.662C64.4949 549.309 58.1688 547.545 51.763 546.368C46.7814 549.982 42.2737 554.268 38.3988 559.225C37.6872 560.15 36.9756 561.158 36.8172 562.335C36.6592 563.259 36.8964 564.183 37.1336 565.108C39.664 575.444 42.1157 585.78 44.6461 596.116C48.3626 596.62 52.0795 596.704 55.7171 596.2C54.294 589.897 52.8703 583.595 51.5258 577.376C50.1814 571.41 49.1534 564.099 53.4235 559.898C57.7727 561.074 62.0432 562.335 66.3925 563.511C67.1041 563.679 67.8954 563.931 68.5278 564.435C69.2394 565.108 69.5558 566.116 69.8722 567.04C71.6911 572.923 73.0355 578.973 73.9843 585.108C76.7519 584.267 79.5196 583.51 82.2872 582.67C82.5249 574.687 79.9945 566.873 77.4635 559.309Z" fill="#2F3F47"/>
<path d="M43.8579 550.234C43.6207 549.982 43.5419 549.647 43.4627 549.394C42.6719 545.613 41.8811 541.831 41.011 538.133C46.5468 536.789 52.24 535.864 57.8545 535.36C58.7246 538.47 59.2782 541.747 59.5154 545.024C59.5946 545.697 59.5946 546.537 59.1202 547.041C58.8038 547.377 58.4082 547.461 58.013 547.63C53.8217 548.974 49.4724 549.982 45.0439 550.57C44.7275 550.486 44.2535 550.571 43.8579 550.234Z" fill="#516770"/>
<path d="M38.3131 535.53C34.9919 529.563 37.6803 513.849 37.6803 507.547C37.7595 498.891 37.7595 490.152 39.6575 481.749C41.5551 473.345 45.4305 465.11 51.8358 459.816C55.4735 456.791 59.7435 454.859 64.172 453.262C77.3783 448.472 91.5329 446.876 105.372 448.64C106.479 448.808 107.665 448.976 108.456 449.817C109.326 450.657 109.484 452.001 109.642 453.262C110.275 458.052 111.144 463.346 110.907 468.219C110.512 476.791 112.172 474.438 106.32 476.875C101.813 478.724 93.3518 477.211 88.2117 478.472C82.2015 479.9 76.3498 482.085 70.4981 484.27C66.7817 485.614 62.8276 487.295 60.9295 490.908C59.9015 492.841 59.5851 495.194 59.3479 497.463C57.9247 510.909 57.2918 524.437 57.3711 537.967C57.3711 540.319 41.0812 539.143 38.946 536.538C38.7088 536.202 38.5503 535.866 38.3131 535.53Z" fill="#E2ECED"/>
<g opacity="0.15">
<path opacity="0.15" d="M65.9978 457.128C66.4722 465.195 68.449 472.506 71.4538 479.901C72.0075 481.329 70.3471 482.422 69.477 481.162C64.7326 474.103 62.2809 465.699 61.4109 457.128C61.0944 454.103 65.7601 454.018 65.9978 457.128Z" fill="#272525"/>
<path opacity="0.15" d="M53.8958 462.925C55.2398 470.741 58.5611 475.867 63.7804 481.413C64.492 482.169 63.5436 483.429 62.7528 482.841C59.1944 480.488 55.8731 478.976 53.3427 475.195C50.9702 471.665 49.3885 467.883 48.9142 463.598C48.5977 460.657 53.3422 459.984 53.8958 462.925Z" fill="#272525"/>
</g>
<path d="M370.926 427.209C371.559 427.797 371.637 428.806 371.717 429.646C373.377 452.923 374.801 476.2 375.829 499.477C375.908 501.494 375.908 503.847 374.405 505.191C373.298 506.116 371.875 506.2 370.452 506.2C365.549 506.284 360.725 506.368 355.822 506.368C352.738 479.898 351.473 453.259 352.105 426.621C357.562 426.621 362.939 426.537 368.395 426.537C369.265 426.537 370.293 426.537 370.926 427.209Z" fill="#2F3F47"/>
<path d="M432.221 398.554C431.984 400.571 431.747 402.755 432.459 404.604C433.012 406.116 434.04 407.377 435.147 408.554C439.655 413.511 444.557 418.134 449.856 422.251C455.866 421.411 461.717 419.646 467.174 417.041C468.202 416.537 469.309 416.033 469.942 415.024C470.416 414.268 470.653 413.343 470.812 412.419C472.868 401.999 475.003 391.495 477.059 381.075C473.975 378.89 470.653 377.041 467.174 375.696C465.829 381.999 464.406 388.301 463.062 394.604C461.718 400.57 459.582 407.629 454.047 409.31C450.647 406.201 447.325 403.091 443.925 399.982C443.371 399.478 442.739 398.89 442.422 398.134C442.027 397.209 442.185 396.116 442.344 395.108C443.213 388.974 444.479 382.924 446.218 376.957C443.371 376.369 440.604 375.781 437.757 375.192C434.119 382.335 433.17 390.57 432.221 398.554Z" fill="#2F3F47"/>
<path d="M458.492 422.503C458.571 422.839 458.492 423.176 458.492 423.428C457.622 427.209 456.752 430.906 455.962 434.688C450.426 433.259 444.97 431.411 439.672 429.226C440.146 426.032 441.016 422.839 442.202 419.814C442.439 419.142 442.755 418.469 443.388 418.217C443.783 418.049 444.179 418.133 444.653 418.217C449.003 418.974 453.273 420.15 457.464 421.663C457.86 421.831 458.334 422.083 458.492 422.503Z" fill="#516770"/>
<path d="M457.286 438.303C457.84 445.193 448.825 457.966 446.136 463.68C442.499 471.412 438.782 479.227 433.563 485.865C428.343 492.504 421.464 498.05 413.477 499.73C408.969 500.739 404.304 500.487 399.717 499.815C385.878 497.882 372.514 492.672 360.89 484.521C359.941 483.848 358.992 483.176 358.596 482C358.201 480.823 358.596 479.563 358.913 478.302C360.415 473.681 361.76 468.555 364.053 464.269C368.007 456.79 365.476 458.134 371.803 458.638C376.626 459.059 383.585 464.437 388.725 465.782C394.735 467.378 400.903 468.134 406.992 468.975C410.867 469.479 415.137 469.899 418.38 467.546C420.12 466.286 421.385 464.353 422.492 462.42C429.372 451.075 435.619 439.227 441.233 427.043C442.182 424.942 456.258 433.681 457.128 437.042C457.207 437.546 457.286 437.883 457.286 438.303Z" fill="#E2ECED"/>
<g opacity="0.15">
<path opacity="0.15" d="M399.812 495.442C402.739 487.963 404.003 480.484 404.478 472.417C404.557 470.821 406.534 470.653 406.771 472.25C408.037 480.821 406.771 489.476 403.924 497.543C402.896 500.484 398.626 498.299 399.812 495.442Z" fill="#272525"/>
<path opacity="0.15" d="M413.004 496.031C415.06 488.384 414.269 482.25 411.897 474.771C411.58 473.763 412.925 473.09 413.478 473.93C415.613 477.712 417.986 480.653 418.697 485.191C419.33 489.476 419.172 493.594 417.748 497.627C416.799 500.568 412.292 498.888 413.004 496.031Z" fill="#272525"/>
</g>
<path d="M340.565 350.739C340.487 353.932 340.329 357.209 339.063 360.151C335.821 367.461 327.281 369.814 319.768 371.159C276.829 378.805 232.94 381.411 189.763 375.612C184.07 374.856 178.376 373.932 173.157 371.411C167.937 368.89 163.272 364.604 161.374 358.974C160.188 355.36 160.109 351.495 160.03 347.63C159.951 343.764 159.951 339.815 159.872 335.949C159.872 334.185 159.872 332.42 160.504 330.739C161.216 328.974 162.639 327.546 164.142 326.453C169.835 322.336 177.031 321.411 183.911 320.655C229.618 315.781 275.879 311.496 321.349 318.05C323.247 318.302 325.225 318.638 326.569 320.067C327.281 320.739 327.755 321.664 328.467 322.336C329.811 323.428 331.63 323.344 333.211 323.932C337.64 325.445 339.221 331.244 339.775 336.202C340.407 340.991 340.645 345.865 340.565 350.739Z" fill="#2F3F47"/>
<path opacity="0.2" d="M283.322 357.796C281.819 354.855 281.582 351.41 281.898 348.049C282.056 346.032 282.531 343.932 283.717 342.419C286.248 339.226 290.913 339.562 294.788 338.806C298.188 340.318 301.036 343.259 302.459 346.873C303.329 349.057 303.724 351.41 303.487 353.763C302.933 358.553 299.216 362.671 294.788 363.511C290.281 364.52 285.456 362.082 283.322 357.796Z" fill="#EAF1F2"/>
<path opacity="0.2" d="M208.017 357.796C206.515 354.855 206.277 351.41 206.594 348.049C206.752 346.032 207.226 343.932 208.413 342.419C210.943 339.226 215.608 339.562 219.483 338.806C222.884 340.318 225.731 343.259 227.154 346.873C228.024 349.057 228.419 351.41 228.182 353.763C227.629 358.553 223.912 362.671 219.483 363.511C215.055 364.52 210.232 362.082 208.017 357.796Z" fill="#EAF1F2"/>
<defs>
<linearGradient id="paint0_linear_442_2548" x1="341.43" y1="676.658" x2="2.66016" y2="676.658" gradientUnits="userSpaceOnUse">
<stop stop-color="#4D4D4D"/>
<stop offset="1"/>
</linearGradient>
<linearGradient id="paint1_linear_442_2548" x1="341.43" y1="676.658" x2="2.66016" y2="676.658" gradientUnits="userSpaceOnUse">
<stop/>
<stop offset="1"/>
</linearGradient>
</defs>
</svg>
