<svg width="977" height="686" viewBox="0 0 977 686" fill="none" xmlns="http://www.w3.org/2000/svg">
    <path d="M518.352 301C518.538 301 518.723 300.996 518.91 300.987C521.091 300.894 523.221 300.185 525.118 298.919C527.015 297.654 528.623 295.87 529.806 293.718C538.666 278.187 549.539 264.373 562.032 252.775C569.595 245.685 577.498 239.093 585.14 232.717C604.857 216.274 623.425 200.788 633.732 179.389C656.204 132.729 629.739 67.7384 591.932 38.5923C549.526 5.90327 493.748 0.77573 439.789 0.103761C434.181 0.0342062 428.57 -0.000362368 422.955 2.86387e-06C325.732 0.0437266 228.713 10.4486 133.096 31.0862C101.3 37.9664 68.0192 46.3949 41.2745 66.8494C14.6885 87.1829 -1.4707 119.203 0.105713 148.427C2.40741 191.09 40.9663 222.968 76.0776 231.302C109.544 239.24 144.311 233.876 181.117 228.195C189.243 226.942 197.644 225.645 205.952 224.518C296.245 212.277 465.867 250.007 473.043 251.62L480.162 253.218L507.786 294.913C509.029 296.813 510.629 298.351 512.462 299.407C514.294 300.463 516.31 301.008 518.352 301Z" fill="white" />
    <path d="M98.1136 86V68.5455H100.227V76.3182H109.534V68.5455H111.648V86H109.534V78.1932H100.227V86H98.1136ZM119.459 86.3068C118.629 86.3068 117.876 86.1506 117.2 85.8381C116.524 85.5199 115.987 85.0625 115.589 84.4659C115.192 83.8636 114.993 83.1364 114.993 82.2841C114.993 81.5341 115.141 80.9261 115.436 80.4602C115.732 79.9886 116.126 79.6193 116.621 79.3523C117.115 79.0852 117.661 78.8864 118.257 78.7557C118.859 78.6193 119.464 78.5114 120.072 78.4318C120.868 78.3295 121.513 78.2528 122.007 78.2017C122.507 78.1449 122.871 78.0511 123.098 77.9205C123.331 77.7898 123.447 77.5625 123.447 77.2386V77.1705C123.447 76.3295 123.217 75.6761 122.757 75.2102C122.303 74.7443 121.612 74.5114 120.686 74.5114C119.726 74.5114 118.973 74.7216 118.428 75.142C117.882 75.5625 117.499 76.0114 117.277 76.4886L115.368 75.8068C115.709 75.0114 116.163 74.392 116.732 73.9489C117.305 73.5 117.93 73.1875 118.607 73.0114C119.288 72.8295 119.959 72.7386 120.618 72.7386C121.038 72.7386 121.521 72.7898 122.067 72.892C122.618 72.9886 123.149 73.1903 123.661 73.4972C124.178 73.804 124.607 74.267 124.947 74.8864C125.288 75.5057 125.459 76.3352 125.459 77.375V86H123.447V84.2273H123.345C123.209 84.5114 122.982 84.8153 122.663 85.1392C122.345 85.4631 121.922 85.7386 121.393 85.9659C120.865 86.1932 120.22 86.3068 119.459 86.3068ZM119.766 84.5C120.561 84.5 121.232 84.3438 121.777 84.0312C122.328 83.7188 122.743 83.3153 123.021 82.821C123.305 82.3267 123.447 81.8068 123.447 81.2614V79.4205C123.362 79.5227 123.175 79.6165 122.885 79.7017C122.601 79.7812 122.271 79.8523 121.896 79.9148C121.527 79.9716 121.166 80.0227 120.814 80.0682C120.467 80.108 120.186 80.142 119.97 80.1705C119.447 80.2386 118.959 80.3494 118.504 80.5028C118.055 80.6506 117.692 80.875 117.413 81.1761C117.141 81.4716 117.004 81.875 117.004 82.3864C117.004 83.0852 117.263 83.6136 117.78 83.9716C118.303 84.3239 118.964 84.5 119.766 84.5ZM131.141 68.5455V86H129.13V68.5455H131.141ZM136.837 68.5455V86H134.825V68.5455H136.837ZM145.839 86.2727C144.657 86.2727 143.62 85.9915 142.728 85.429C141.842 84.8665 141.148 84.0795 140.648 83.0682C140.154 82.0568 139.907 80.875 139.907 79.5227C139.907 78.1591 140.154 76.9687 140.648 75.9517C141.148 74.9347 141.842 74.1449 142.728 73.5824C143.62 73.0199 144.657 72.7386 145.839 72.7386C147.021 72.7386 148.055 73.0199 148.941 73.5824C149.833 74.1449 150.526 74.9347 151.021 75.9517C151.521 76.9687 151.771 78.1591 151.771 79.5227C151.771 80.875 151.521 82.0568 151.021 83.0682C150.526 84.0795 149.833 84.8665 148.941 85.429C148.055 85.9915 147.021 86.2727 145.839 86.2727ZM145.839 84.4659C146.737 84.4659 147.475 84.2358 148.055 83.7756C148.634 83.3153 149.063 82.7102 149.342 81.9602C149.62 81.2102 149.759 80.3977 149.759 79.5227C149.759 78.6477 149.62 77.8324 149.342 77.0767C149.063 76.321 148.634 75.7102 148.055 75.2443C147.475 74.7784 146.737 74.5455 145.839 74.5455C144.941 74.5455 144.202 74.7784 143.623 75.2443C143.043 75.7102 142.614 76.321 142.336 77.0767C142.058 77.8324 141.918 78.6477 141.918 79.5227C141.918 80.3977 142.058 81.2102 142.336 81.9602C142.614 82.7102 143.043 83.3153 143.623 83.7756C144.202 84.2358 144.941 84.4659 145.839 84.4659ZM143.384 70.7273C143.026 70.7273 142.708 70.5909 142.43 70.3182C142.157 70.0398 142.021 69.7216 142.021 69.3636C142.021 68.9716 142.157 68.6477 142.43 68.392C142.708 68.1307 143.026 68 143.384 68C143.776 68 144.1 68.1307 144.356 68.392C144.617 68.6477 144.748 68.9716 144.748 69.3636C144.748 69.7216 144.617 70.0398 144.356 70.3182C144.1 70.5909 143.776 70.7273 143.384 70.7273ZM148.293 70.7273C147.935 70.7273 147.617 70.5909 147.339 70.3182C147.066 70.0398 146.93 69.7216 146.93 69.3636C146.93 68.9716 147.066 68.6477 147.339 68.392C147.617 68.1307 147.935 68 148.293 68C148.685 68 149.009 68.1307 149.265 68.392C149.526 68.6477 149.657 68.9716 149.657 69.3636C149.657 69.7216 149.526 70.0398 149.265 70.3182C149.009 70.5909 148.685 70.7273 148.293 70.7273ZM160.159 86.2727C158.932 86.2727 157.875 85.983 156.989 85.4034C156.102 84.8239 155.42 84.0256 154.943 83.0085C154.466 81.9915 154.227 80.8295 154.227 79.5227C154.227 78.1932 154.472 77.0199 154.96 76.0028C155.455 74.9801 156.142 74.1818 157.023 73.608C157.909 73.0284 158.943 72.7386 160.125 72.7386C161.045 72.7386 161.875 72.9091 162.614 73.25C163.352 73.5909 163.957 74.0682 164.429 74.6818C164.901 75.2955 165.193 76.0114 165.307 76.8295H163.295C163.142 76.233 162.801 75.7045 162.273 75.2443C161.75 74.7784 161.045 74.5455 160.159 74.5455C159.375 74.5455 158.688 74.75 158.097 75.1591C157.511 75.5625 157.054 76.1335 156.724 76.8722C156.401 77.6051 156.239 78.4659 156.239 79.4545C156.239 80.4659 156.398 81.3466 156.716 82.0966C157.04 82.8466 157.494 83.429 158.08 83.8438C158.67 84.2585 159.364 84.4659 160.159 84.4659C160.682 84.4659 161.156 84.375 161.582 84.1932C162.009 84.0114 162.369 83.75 162.665 83.4091C162.96 83.0682 163.17 82.6591 163.295 82.1818H165.307C165.193 82.9545 164.912 83.6506 164.463 84.2699C164.02 84.8835 163.432 85.3722 162.699 85.7358C161.972 86.0938 161.125 86.2727 160.159 86.2727ZM170.259 78.125V86H168.247V68.5455H170.259V74.9545H170.429C170.736 74.2784 171.196 73.7415 171.81 73.3438C172.429 72.9403 173.253 72.7386 174.281 72.7386C175.173 72.7386 175.955 72.9176 176.625 73.2756C177.295 73.6278 177.815 74.1705 178.185 74.9034C178.56 75.6307 178.747 76.5568 178.747 77.6818V86H176.736V77.8182C176.736 76.7784 176.466 75.9744 175.926 75.4062C175.392 74.8324 174.651 74.5455 173.702 74.5455C173.043 74.5455 172.452 74.6847 171.929 74.9631C171.412 75.2415 171.003 75.6477 170.702 76.1818C170.406 76.7159 170.259 77.3636 170.259 78.125ZM187.915 86.2727C186.654 86.2727 185.566 85.9943 184.651 85.4375C183.742 84.875 183.04 84.0909 182.546 83.0852C182.058 82.0739 181.813 80.8977 181.813 79.5568C181.813 78.2159 182.058 77.0341 182.546 76.0114C183.04 74.983 183.728 74.1818 184.609 73.608C185.495 73.0284 186.529 72.7386 187.711 72.7386C188.393 72.7386 189.066 72.8523 189.731 73.0795C190.396 73.3068 191.001 73.6761 191.546 74.1875C192.092 74.6932 192.526 75.3636 192.85 76.1989C193.174 77.0341 193.336 78.0625 193.336 79.2841V80.1364H183.245V78.3977H191.29C191.29 77.6591 191.143 77 190.847 76.4205C190.558 75.8409 190.143 75.3835 189.603 75.0483C189.069 74.7131 188.438 74.5455 187.711 74.5455C186.91 74.5455 186.217 74.7443 185.631 75.142C185.052 75.5341 184.606 76.0455 184.293 76.6761C183.981 77.3068 183.825 77.983 183.825 78.7045V79.8636C183.825 80.8523 183.995 81.6903 184.336 82.3778C184.683 83.0597 185.163 83.5795 185.776 83.9375C186.39 84.2898 187.103 84.4659 187.915 84.4659C188.444 84.4659 188.921 84.392 189.347 84.2443C189.779 84.0909 190.151 83.8636 190.464 83.5625C190.776 83.2557 191.018 82.875 191.188 82.4205L193.131 82.9659C192.927 83.625 192.583 84.2045 192.1 84.7045C191.617 85.1989 191.021 85.5852 190.31 85.8636C189.6 86.1364 188.802 86.2727 187.915 86.2727ZM198.407 78.125V86H196.396V72.9091H198.339V74.9545H198.509C198.816 74.2898 199.282 73.7557 199.907 73.3523C200.532 72.9432 201.339 72.7386 202.327 72.7386C203.214 72.7386 203.989 72.9205 204.654 73.2841C205.319 73.642 205.836 74.1875 206.205 74.9205C206.575 75.6477 206.759 76.5682 206.759 77.6818V86H204.748V77.8182C204.748 76.7898 204.481 75.9886 203.947 75.4148C203.413 74.8352 202.68 74.5455 201.748 74.5455C201.106 74.5455 200.532 74.6847 200.026 74.9631C199.526 75.2415 199.131 75.6477 198.842 76.1818C198.552 76.7159 198.407 77.3636 198.407 78.125ZM217.457 86V68.5455H227.923V70.4205H219.571V76.3182H227.139V78.1932H219.571V86H217.457ZM231.13 86V72.9091H233.073V74.8864H233.21C233.448 74.2386 233.88 73.7131 234.505 73.3097C235.13 72.9062 235.835 72.7045 236.619 72.7045C236.766 72.7045 236.951 72.7074 237.173 72.7131C237.394 72.7187 237.562 72.7273 237.675 72.7386V74.7841C237.607 74.767 237.451 74.7415 237.207 74.7074C236.968 74.6676 236.715 74.6477 236.448 74.6477C235.812 74.6477 235.244 74.7812 234.744 75.0483C234.249 75.3097 233.857 75.6733 233.567 76.1392C233.283 76.5994 233.141 77.125 233.141 77.7159V86H231.13ZM240.06 86V72.9091H242.071V86H240.06ZM241.082 70.7273C240.69 70.7273 240.352 70.5938 240.068 70.3267C239.79 70.0597 239.651 69.7386 239.651 69.3636C239.651 68.9886 239.79 68.6676 240.068 68.4006C240.352 68.1335 240.69 68 241.082 68C241.474 68 241.81 68.1335 242.088 68.4006C242.372 68.6676 242.514 68.9886 242.514 69.3636C242.514 69.7386 242.372 70.0597 242.088 70.3267C241.81 70.5938 241.474 70.7273 241.082 70.7273ZM251.448 72.9091V74.6136H244.664V72.9091H251.448ZM246.641 69.7727H248.653V82.25C248.653 82.8182 248.735 83.2443 248.9 83.5284C249.07 83.8068 249.286 83.9943 249.548 84.0909C249.815 84.1818 250.096 84.2273 250.391 84.2273C250.613 84.2273 250.795 84.2159 250.937 84.1932C251.079 84.1648 251.192 84.142 251.278 84.125L251.687 85.9318C251.55 85.983 251.36 86.0341 251.116 86.0852C250.871 86.142 250.562 86.1705 250.187 86.1705C249.619 86.1705 249.062 86.0483 248.516 85.804C247.977 85.5597 247.528 85.1875 247.17 84.6875C246.817 84.1875 246.641 83.5568 246.641 82.7955V69.7727ZM254.099 86V84.4659L261.531 74.9205V74.7841H254.337V72.9091H264.121V74.5114L256.894 83.9886V84.125H264.36V86H254.099ZM270.117 68.5455L269.947 81.0909H267.969L267.799 68.5455H270.117ZM268.958 86.1364C268.538 86.1364 268.177 85.9858 267.876 85.6847C267.575 85.3835 267.424 85.0227 267.424 84.6023C267.424 84.1818 267.575 83.821 267.876 83.5199C268.177 83.2187 268.538 83.0682 268.958 83.0682C269.379 83.0682 269.739 83.2187 270.04 83.5199C270.342 83.821 270.492 84.1818 270.492 84.6023C270.492 84.8807 270.421 85.1364 270.279 85.3693C270.143 85.6023 269.958 85.7898 269.725 85.9318C269.498 86.0682 269.242 86.1364 268.958 86.1364ZM284.331 86L279.558 68.5455H281.706L285.354 82.7614H285.524L289.24 68.5455H291.626L295.342 82.7614H295.513L299.161 68.5455H301.308L296.536 86H294.354L290.501 72.0909H290.365L286.513 86H284.331ZM307.939 86.2727C306.678 86.2727 305.589 85.9943 304.675 85.4375C303.766 84.875 303.064 84.0909 302.57 83.0852C302.081 82.0739 301.837 80.8977 301.837 79.5568C301.837 78.2159 302.081 77.0341 302.57 76.0114C303.064 74.983 303.751 74.1818 304.632 73.608C305.518 73.0284 306.553 72.7386 307.734 72.7386C308.416 72.7386 309.089 72.8523 309.754 73.0795C310.419 73.3068 311.024 73.6761 311.57 74.1875C312.115 74.6932 312.55 75.3636 312.874 76.1989C313.197 77.0341 313.359 78.0625 313.359 79.2841V80.1364H303.268V78.3977H311.314C311.314 77.6591 311.166 77 310.871 76.4205C310.581 75.8409 310.166 75.3835 309.626 75.0483C309.092 74.7131 308.462 74.5455 307.734 74.5455C306.933 74.5455 306.24 74.7443 305.655 75.142C305.075 75.5341 304.629 76.0455 304.317 76.6761C304.004 77.3068 303.848 77.983 303.848 78.7045V79.8636C303.848 80.8523 304.018 81.6903 304.359 82.3778C304.706 83.0597 305.186 83.5795 305.8 83.9375C306.413 84.2898 307.126 84.4659 307.939 84.4659C308.467 84.4659 308.945 84.392 309.371 84.2443C309.803 84.0909 310.175 83.8636 310.487 83.5625C310.8 83.2557 311.041 82.875 311.212 82.4205L313.155 82.9659C312.95 83.625 312.607 84.2045 312.124 84.7045C311.641 85.1989 311.044 85.5852 310.334 85.8636C309.624 86.1364 308.825 86.2727 307.939 86.2727ZM318.43 78.125V86H316.419V72.9091H318.362V74.9545H318.533C318.839 74.2898 319.305 73.7557 319.93 73.3523C320.555 72.9432 321.362 72.7386 322.351 72.7386C323.237 72.7386 324.013 72.9205 324.678 73.2841C325.342 73.642 325.859 74.1875 326.229 74.9205C326.598 75.6477 326.783 76.5682 326.783 77.6818V86H324.771V77.8182C324.771 76.7898 324.504 75.9886 323.97 75.4148C323.436 74.8352 322.703 74.5455 321.771 74.5455C321.129 74.5455 320.555 74.6847 320.05 74.9631C319.55 75.2415 319.155 75.6477 318.865 76.1818C318.575 76.7159 318.43 77.3636 318.43 78.125ZM332.469 78.125V86H330.458V72.9091H332.401V74.9545H332.572C332.879 74.2898 333.344 73.7557 333.969 73.3523C334.594 72.9432 335.401 72.7386 336.39 72.7386C337.276 72.7386 338.052 72.9205 338.717 73.2841C339.381 73.642 339.898 74.1875 340.268 74.9205C340.637 75.6477 340.822 76.5682 340.822 77.6818V86H338.81V77.8182C338.81 76.7898 338.543 75.9886 338.009 75.4148C337.475 74.8352 336.742 74.5455 335.81 74.5455C335.168 74.5455 334.594 74.6847 334.089 74.9631C333.589 75.2415 333.194 75.6477 332.904 76.1818C332.614 76.7159 332.469 77.3636 332.469 78.125ZM356.19 86.2727C355.099 86.2727 354.136 85.9972 353.301 85.446C352.466 84.8892 351.813 84.1051 351.341 83.0938C350.869 82.0767 350.634 80.875 350.634 79.4886C350.634 78.1136 350.869 76.9205 351.341 75.9091C351.813 74.8977 352.469 74.1165 353.31 73.5653C354.151 73.0142 355.122 72.7386 356.224 72.7386C357.077 72.7386 357.75 72.8807 358.244 73.1648C358.744 73.4432 359.125 73.7614 359.386 74.1193C359.653 74.4716 359.861 74.7614 360.009 74.9886H360.179V68.5455H362.19V86H360.247V83.9886H360.009C359.861 84.2273 359.651 84.5284 359.378 84.892C359.105 85.25 358.716 85.571 358.21 85.8551C357.705 86.1335 357.031 86.2727 356.19 86.2727ZM356.463 84.4659C357.27 84.4659 357.952 84.2557 358.509 83.8352C359.065 83.4091 359.489 82.821 359.778 82.071C360.068 81.3153 360.213 80.4432 360.213 79.4545C360.213 78.4773 360.071 77.6222 359.787 76.8892C359.503 76.1506 359.082 75.5767 358.526 75.1676C357.969 74.7528 357.281 74.5455 356.463 74.5455C355.611 74.5455 354.901 74.7642 354.332 75.2017C353.77 75.6335 353.347 76.2216 353.062 76.9659C352.784 77.7045 352.645 78.5341 352.645 79.4545C352.645 80.3864 352.787 81.233 353.071 81.9943C353.361 82.75 353.787 83.3523 354.349 83.8011C354.918 84.2443 355.622 84.4659 356.463 84.4659ZM374.403 80.6477V72.9091H376.415V86H374.403V83.7841H374.267C373.96 84.4489 373.483 85.0142 372.835 85.4801C372.188 85.9403 371.369 86.1705 370.381 86.1705C369.562 86.1705 368.835 85.9915 368.199 85.6335C367.563 85.2699 367.063 84.7244 366.699 83.9972C366.335 83.2642 366.153 82.3409 366.153 81.2273V72.9091H368.165V81.0909C368.165 82.0455 368.432 82.8068 368.966 83.375C369.506 83.9432 370.193 84.2273 371.028 84.2273C371.528 84.2273 372.037 84.0994 372.554 83.8438C373.077 83.5881 373.514 83.196 373.866 82.6676C374.224 82.1392 374.403 81.4659 374.403 80.6477ZM388.86 78.125V86H386.849V72.9091H388.792V74.9545H388.962C389.269 74.2898 389.735 73.7557 390.36 73.3523C390.985 72.9432 391.792 72.7386 392.781 72.7386C393.667 72.7386 394.442 72.9205 395.107 73.2841C395.772 73.642 396.289 74.1875 396.658 74.9205C397.028 75.6477 397.212 76.5682 397.212 77.6818V86H395.201V77.8182C395.201 76.7898 394.934 75.9886 394.4 75.4148C393.866 74.8352 393.133 74.5455 392.201 74.5455C391.559 74.5455 390.985 74.6847 390.479 74.9631C389.979 75.2415 389.585 75.6477 389.295 76.1818C389.005 76.7159 388.86 77.3636 388.86 78.125ZM406.206 86.2727C405.024 86.2727 403.987 85.9915 403.095 85.429C402.209 84.8665 401.516 84.0795 401.016 83.0682C400.521 82.0568 400.274 80.875 400.274 79.5227C400.274 78.1591 400.521 76.9687 401.016 75.9517C401.516 74.9347 402.209 74.1449 403.095 73.5824C403.987 73.0199 405.024 72.7386 406.206 72.7386C407.388 72.7386 408.422 73.0199 409.308 73.5824C410.2 74.1449 410.893 74.9347 411.388 75.9517C411.888 76.9687 412.138 78.1591 412.138 79.5227C412.138 80.875 411.888 82.0568 411.388 83.0682C410.893 84.0795 410.2 84.8665 409.308 85.429C408.422 85.9915 407.388 86.2727 406.206 86.2727ZM406.206 84.4659C407.104 84.4659 407.842 84.2358 408.422 83.7756C409.001 83.3153 409.43 82.7102 409.709 81.9602C409.987 81.2102 410.126 80.3977 410.126 79.5227C410.126 78.6477 409.987 77.8324 409.709 77.0767C409.43 76.321 409.001 75.7102 408.422 75.2443C407.842 74.7784 407.104 74.5455 406.206 74.5455C405.308 74.5455 404.57 74.7784 403.99 75.2443C403.411 75.7102 402.982 76.321 402.703 77.0767C402.425 77.8324 402.286 78.6477 402.286 79.5227C402.286 80.3977 402.425 81.2102 402.703 81.9602C402.982 82.7102 403.411 83.3153 403.99 83.7756C404.57 84.2358 405.308 84.4659 406.206 84.4659ZM420.526 86.2727C419.299 86.2727 418.242 85.983 417.356 85.4034C416.469 84.8239 415.788 84.0256 415.31 83.0085C414.833 81.9915 414.594 80.8295 414.594 79.5227C414.594 78.1932 414.839 77.0199 415.327 76.0028C415.822 74.9801 416.509 74.1818 417.39 73.608C418.276 73.0284 419.31 72.7386 420.492 72.7386C421.413 72.7386 422.242 72.9091 422.981 73.25C423.719 73.5909 424.325 74.0682 424.796 74.6818C425.268 75.2955 425.56 76.0114 425.674 76.8295H423.663C423.509 76.233 423.168 75.7045 422.64 75.2443C422.117 74.7784 421.413 74.5455 420.526 74.5455C419.742 74.5455 419.055 74.75 418.464 75.1591C417.879 75.5625 417.421 76.1335 417.092 76.8722C416.768 77.6051 416.606 78.4659 416.606 79.4545C416.606 80.4659 416.765 81.3466 417.083 82.0966C417.407 82.8466 417.862 83.429 418.447 83.8438C419.038 84.2585 419.731 84.4659 420.526 84.4659C421.049 84.4659 421.523 84.375 421.95 84.1932C422.376 84.0114 422.737 83.75 423.032 83.4091C423.327 83.0682 423.538 82.6591 423.663 82.1818H425.674C425.56 82.9545 425.279 83.6506 424.83 84.2699C424.387 84.8835 423.799 85.3722 423.066 85.7358C422.339 86.0938 421.492 86.2727 420.526 86.2727ZM430.626 78.125V86H428.614V68.5455H430.626V74.9545H430.796C431.103 74.2784 431.563 73.7415 432.177 73.3438C432.796 72.9403 433.62 72.7386 434.648 72.7386C435.54 72.7386 436.322 72.9176 436.992 73.2756C437.663 73.6278 438.183 74.1705 438.552 74.9034C438.927 75.6307 439.114 76.5568 439.114 77.6818V86H437.103V77.8182C437.103 76.7784 436.833 75.9744 436.293 75.4062C435.759 74.8324 435.018 74.5455 434.069 74.5455C433.41 74.5455 432.819 74.6847 432.296 74.9631C431.779 75.2415 431.37 75.6477 431.069 76.1818C430.773 76.7159 430.626 77.3636 430.626 78.125ZM451.555 78.125V86H449.544V72.9091H451.487V74.9545H451.658C451.964 74.2898 452.43 73.7557 453.055 73.3523C453.68 72.9432 454.487 72.7386 455.476 72.7386C456.362 72.7386 457.138 72.9205 457.803 73.2841C458.467 73.642 458.984 74.1875 459.354 74.9205C459.723 75.6477 459.908 76.5682 459.908 77.6818V86H457.896V77.8182C457.896 76.7898 457.629 75.9886 457.095 75.4148C456.561 74.8352 455.828 74.5455 454.896 74.5455C454.254 74.5455 453.68 74.6847 453.175 74.9631C452.675 75.2415 452.28 75.6477 451.99 76.1818C451.7 76.7159 451.555 77.3636 451.555 78.125ZM463.583 86V72.9091H465.594V86H463.583ZM464.606 70.7273C464.214 70.7273 463.876 70.5938 463.592 70.3267C463.313 70.0597 463.174 69.7386 463.174 69.3636C463.174 68.9886 463.313 68.6676 463.592 68.4006C463.876 68.1335 464.214 68 464.606 68C464.998 68 465.333 68.1335 465.612 68.4006C465.896 68.6676 466.038 68.9886 466.038 69.3636C466.038 69.7386 465.896 70.0597 465.612 70.3267C465.333 70.5938 464.998 70.7273 464.606 70.7273ZM474.597 86.2727C473.369 86.2727 472.313 85.983 471.426 85.4034C470.54 84.8239 469.858 84.0256 469.381 83.0085C468.903 81.9915 468.665 80.8295 468.665 79.5227C468.665 78.1932 468.909 77.0199 469.398 76.0028C469.892 74.9801 470.58 74.1818 471.46 73.608C472.347 73.0284 473.381 72.7386 474.562 72.7386C475.483 72.7386 476.312 72.9091 477.051 73.25C477.79 73.5909 478.395 74.0682 478.866 74.6818C479.338 75.2955 479.631 76.0114 479.744 76.8295H477.733C477.58 76.233 477.239 75.7045 476.71 75.2443C476.188 74.7784 475.483 74.5455 474.597 74.5455C473.813 74.5455 473.125 74.75 472.534 75.1591C471.949 75.5625 471.491 76.1335 471.162 76.8722C470.838 77.6051 470.676 78.4659 470.676 79.4545C470.676 80.4659 470.835 81.3466 471.153 82.0966C471.477 82.8466 471.932 83.429 472.517 83.8438C473.108 84.2585 473.801 84.4659 474.597 84.4659C475.119 84.4659 475.594 84.375 476.02 84.1932C476.446 84.0114 476.807 83.75 477.102 83.4091C477.398 83.0682 477.608 82.6591 477.733 82.1818H479.744C479.631 82.9545 479.349 83.6506 478.901 84.2699C478.457 84.8835 477.869 85.3722 477.136 85.7358C476.409 86.0938 475.563 86.2727 474.597 86.2727ZM484.696 78.125V86H482.685V68.5455H484.696V74.9545H484.866C485.173 74.2784 485.634 73.7415 486.247 73.3438C486.866 72.9403 487.69 72.7386 488.719 72.7386C489.611 72.7386 490.392 72.9176 491.062 73.2756C491.733 73.6278 492.253 74.1705 492.622 74.9034C492.997 75.6307 493.185 76.5568 493.185 77.6818V86H491.173V77.8182C491.173 76.7784 490.903 75.9744 490.364 75.4062C489.83 74.8324 489.088 74.5455 488.139 74.5455C487.48 74.5455 486.889 74.6847 486.366 74.9631C485.849 75.2415 485.44 75.6477 485.139 76.1818C484.844 76.7159 484.696 77.3636 484.696 78.125ZM502.558 72.9091V74.6136H495.773V72.9091H502.558ZM497.751 69.7727H499.762V82.25C499.762 82.8182 499.844 83.2443 500.009 83.5284C500.18 83.8068 500.396 83.9943 500.657 84.0909C500.924 84.1818 501.205 84.2273 501.501 84.2273C501.722 84.2273 501.904 84.2159 502.046 84.1932C502.188 84.1648 502.302 84.142 502.387 84.125L502.796 85.9318C502.66 85.983 502.469 86.0341 502.225 86.0852C501.981 86.142 501.671 86.1705 501.296 86.1705C500.728 86.1705 500.171 86.0483 499.626 85.804C499.086 85.5597 498.637 85.1875 498.279 84.6875C497.927 84.1875 497.751 83.5568 497.751 82.7955V69.7727ZM100.807 115L96.8182 101.909H98.9318L101.761 111.932H101.898L104.693 101.909H106.841L109.602 111.898H109.739L112.568 101.909H114.682L110.693 115H108.716L105.852 104.943H105.648L102.784 115H100.807ZM125.591 109.648V101.909H127.602V115H125.591V112.784H125.455C125.148 113.449 124.67 114.014 124.023 114.48C123.375 114.94 122.557 115.17 121.568 115.17C120.75 115.17 120.023 114.991 119.386 114.634C118.75 114.27 118.25 113.724 117.886 112.997C117.523 112.264 117.341 111.341 117.341 110.227V101.909H119.352V110.091C119.352 111.045 119.619 111.807 120.153 112.375C120.693 112.943 121.381 113.227 122.216 113.227C122.716 113.227 123.224 113.099 123.741 112.844C124.264 112.588 124.702 112.196 125.054 111.668C125.412 111.139 125.591 110.466 125.591 109.648ZM140.559 104.841L138.752 105.352C138.638 105.051 138.471 104.759 138.249 104.474C138.033 104.185 137.738 103.946 137.363 103.759C136.988 103.571 136.508 103.477 135.923 103.477C135.121 103.477 134.454 103.662 133.92 104.031C133.391 104.395 133.127 104.858 133.127 105.42C133.127 105.92 133.309 106.315 133.673 106.605C134.036 106.895 134.604 107.136 135.377 107.33L137.32 107.807C138.491 108.091 139.363 108.526 139.937 109.111C140.511 109.69 140.798 110.437 140.798 111.352C140.798 112.102 140.582 112.773 140.15 113.364C139.724 113.955 139.127 114.42 138.36 114.761C137.593 115.102 136.701 115.273 135.684 115.273C134.349 115.273 133.244 114.983 132.369 114.403C131.494 113.824 130.94 112.977 130.707 111.864L132.616 111.386C132.798 112.091 133.141 112.619 133.647 112.972C134.158 113.324 134.826 113.5 135.65 113.5C136.587 113.5 137.332 113.301 137.883 112.903C138.44 112.5 138.718 112.017 138.718 111.455C138.718 111 138.559 110.619 138.241 110.312C137.923 110 137.434 109.767 136.775 109.614L134.593 109.102C133.394 108.818 132.513 108.378 131.951 107.781C131.394 107.179 131.116 106.426 131.116 105.523C131.116 104.784 131.323 104.131 131.738 103.562C132.158 102.994 132.729 102.548 133.451 102.224C134.178 101.901 135.002 101.739 135.923 101.739C137.218 101.739 138.235 102.023 138.974 102.591C139.718 103.159 140.246 103.909 140.559 104.841ZM153.098 104.841L151.291 105.352C151.178 105.051 151.01 104.759 150.788 104.474C150.572 104.185 150.277 103.946 149.902 103.759C149.527 103.571 149.047 103.477 148.462 103.477C147.661 103.477 146.993 103.662 146.459 104.031C145.93 104.395 145.666 104.858 145.666 105.42C145.666 105.92 145.848 106.315 146.212 106.605C146.575 106.895 147.143 107.136 147.916 107.33L149.859 107.807C151.03 108.091 151.902 108.526 152.476 109.111C153.05 109.69 153.337 110.437 153.337 111.352C153.337 112.102 153.121 112.773 152.689 113.364C152.263 113.955 151.666 114.42 150.899 114.761C150.132 115.102 149.24 115.273 148.223 115.273C146.888 115.273 145.783 114.983 144.908 114.403C144.033 113.824 143.479 112.977 143.246 111.864L145.155 111.386C145.337 112.091 145.68 112.619 146.186 112.972C146.697 113.324 147.365 113.5 148.189 113.5C149.126 113.5 149.871 113.301 150.422 112.903C150.979 112.5 151.257 112.017 151.257 111.455C151.257 111 151.098 110.619 150.78 110.312C150.462 110 149.973 109.767 149.314 109.614L147.132 109.102C145.933 108.818 145.053 108.378 144.49 107.781C143.933 107.179 143.655 106.426 143.655 105.523C143.655 104.784 143.862 104.131 144.277 103.562C144.697 102.994 145.268 102.548 145.99 102.224C146.717 101.901 147.541 101.739 148.462 101.739C149.757 101.739 150.774 102.023 151.513 102.591C152.257 103.159 152.786 103.909 153.098 104.841ZM162.058 101.909V103.614H155.273V101.909H162.058ZM157.251 98.7727H159.262V111.25C159.262 111.818 159.344 112.244 159.509 112.528C159.68 112.807 159.896 112.994 160.157 113.091C160.424 113.182 160.705 113.227 161.001 113.227C161.222 113.227 161.404 113.216 161.546 113.193C161.688 113.165 161.802 113.142 161.887 113.125L162.296 114.932C162.16 114.983 161.969 115.034 161.725 115.085C161.481 115.142 161.171 115.17 160.796 115.17C160.228 115.17 159.671 115.048 159.126 114.804C158.586 114.56 158.137 114.188 157.779 113.688C157.427 113.188 157.251 112.557 157.251 111.795V98.7727ZM170.431 115.273C169.17 115.273 168.082 114.994 167.167 114.438C166.258 113.875 165.556 113.091 165.062 112.085C164.573 111.074 164.329 109.898 164.329 108.557C164.329 107.216 164.573 106.034 165.062 105.011C165.556 103.983 166.244 103.182 167.124 102.608C168.011 102.028 169.045 101.739 170.227 101.739C170.908 101.739 171.582 101.852 172.246 102.08C172.911 102.307 173.516 102.676 174.062 103.188C174.607 103.693 175.042 104.364 175.366 105.199C175.69 106.034 175.852 107.062 175.852 108.284V109.136H165.761V107.398H173.806C173.806 106.659 173.658 106 173.363 105.42C173.073 104.841 172.658 104.384 172.119 104.048C171.585 103.713 170.954 103.545 170.227 103.545C169.425 103.545 168.732 103.744 168.147 104.142C167.567 104.534 167.121 105.045 166.809 105.676C166.496 106.307 166.34 106.983 166.34 107.705V108.864C166.34 109.852 166.511 110.69 166.852 111.378C167.198 112.06 167.678 112.58 168.292 112.938C168.906 113.29 169.619 113.466 170.431 113.466C170.96 113.466 171.437 113.392 171.863 113.244C172.295 113.091 172.667 112.864 172.979 112.562C173.292 112.256 173.533 111.875 173.704 111.42L175.647 111.966C175.442 112.625 175.099 113.205 174.616 113.705C174.133 114.199 173.536 114.585 172.826 114.864C172.116 115.136 171.317 115.273 170.431 115.273ZM188.184 104.841L186.377 105.352C186.263 105.051 186.096 104.759 185.874 104.474C185.658 104.185 185.363 103.946 184.988 103.759C184.613 103.571 184.133 103.477 183.548 103.477C182.746 103.477 182.079 103.662 181.545 104.031C181.016 104.395 180.752 104.858 180.752 105.42C180.752 105.92 180.934 106.315 181.298 106.605C181.661 106.895 182.229 107.136 183.002 107.33L184.945 107.807C186.116 108.091 186.988 108.526 187.562 109.111C188.136 109.69 188.423 110.437 188.423 111.352C188.423 112.102 188.207 112.773 187.775 113.364C187.349 113.955 186.752 114.42 185.985 114.761C185.218 115.102 184.326 115.273 183.309 115.273C181.974 115.273 180.869 114.983 179.994 114.403C179.119 113.824 178.565 112.977 178.332 111.864L180.241 111.386C180.423 112.091 180.766 112.619 181.272 112.972C181.783 113.324 182.451 113.5 183.275 113.5C184.212 113.5 184.957 113.301 185.508 112.903C186.065 112.5 186.343 112.017 186.343 111.455C186.343 111 186.184 110.619 185.866 110.312C185.548 110 185.059 109.767 184.4 109.614L182.218 109.102C181.019 108.818 180.138 108.378 179.576 107.781C179.019 107.179 178.741 106.426 178.741 105.523C178.741 104.784 178.948 104.131 179.363 103.562C179.783 102.994 180.354 102.548 181.076 102.224C181.803 101.901 182.627 101.739 183.548 101.739C184.843 101.739 185.86 102.023 186.599 102.591C187.343 103.159 187.871 103.909 188.184 104.841ZM197.143 101.909V103.614H190.359V101.909H197.143ZM192.337 98.7727H194.348V111.25C194.348 111.818 194.43 112.244 194.595 112.528C194.766 112.807 194.982 112.994 195.243 113.091C195.51 113.182 195.791 113.227 196.087 113.227C196.308 113.227 196.49 113.216 196.632 113.193C196.774 113.165 196.888 113.142 196.973 113.125L197.382 114.932C197.246 114.983 197.055 115.034 196.811 115.085C196.567 115.142 196.257 115.17 195.882 115.17C195.314 115.17 194.757 115.048 194.212 114.804C193.672 114.56 193.223 114.188 192.865 113.688C192.513 113.188 192.337 112.557 192.337 111.795V98.7727ZM203.169 112.614L203.033 113.534C202.936 114.182 202.788 114.875 202.589 115.614C202.396 116.352 202.195 117.048 201.984 117.702C201.774 118.355 201.601 118.875 201.464 119.261H199.93C200.004 118.898 200.101 118.418 200.22 117.821C200.339 117.224 200.459 116.557 200.578 115.818C200.703 115.085 200.805 114.335 200.885 113.568L200.987 112.614H203.169ZM218.589 115.273C217.498 115.273 216.535 114.997 215.7 114.446C214.864 113.889 214.211 113.105 213.739 112.094C213.268 111.077 213.032 109.875 213.032 108.489C213.032 107.114 213.268 105.92 213.739 104.909C214.211 103.898 214.867 103.116 215.708 102.565C216.549 102.014 217.521 101.739 218.623 101.739C219.475 101.739 220.148 101.881 220.643 102.165C221.143 102.443 221.523 102.761 221.785 103.119C222.052 103.472 222.259 103.761 222.407 103.989H222.577V97.5455H224.589V115H222.646V112.989H222.407C222.259 113.227 222.049 113.528 221.776 113.892C221.504 114.25 221.114 114.571 220.609 114.855C220.103 115.134 219.43 115.273 218.589 115.273ZM218.862 113.466C219.668 113.466 220.35 113.256 220.907 112.835C221.464 112.409 221.887 111.821 222.177 111.071C222.467 110.315 222.612 109.443 222.612 108.455C222.612 107.477 222.469 106.622 222.185 105.889C221.901 105.151 221.481 104.577 220.924 104.168C220.367 103.753 219.68 103.545 218.862 103.545C218.009 103.545 217.299 103.764 216.731 104.202C216.168 104.634 215.745 105.222 215.461 105.966C215.183 106.705 215.043 107.534 215.043 108.455C215.043 109.386 215.185 110.233 215.469 110.994C215.759 111.75 216.185 112.352 216.748 112.801C217.316 113.244 218.021 113.466 218.862 113.466ZM236.802 109.648V101.909H238.813V115H236.802V112.784H236.665C236.359 113.449 235.881 114.014 235.234 114.48C234.586 114.94 233.768 115.17 232.779 115.17C231.961 115.17 231.234 114.991 230.597 114.634C229.961 114.27 229.461 113.724 229.097 112.997C228.734 112.264 228.552 111.341 228.552 110.227V101.909H230.563V110.091C230.563 111.045 230.83 111.807 231.364 112.375C231.904 112.943 232.592 113.227 233.427 113.227C233.927 113.227 234.435 113.099 234.952 112.844C235.475 112.588 235.913 112.196 236.265 111.668C236.623 111.139 236.802 110.466 236.802 109.648ZM249.52 115V97.5455H251.531V103.989H251.702C251.849 103.761 252.054 103.472 252.315 103.119C252.582 102.761 252.963 102.443 253.457 102.165C253.957 101.881 254.634 101.739 255.486 101.739C256.588 101.739 257.56 102.014 258.401 102.565C259.241 103.116 259.898 103.898 260.369 104.909C260.841 105.92 261.077 107.114 261.077 108.489C261.077 109.875 260.841 111.077 260.369 112.094C259.898 113.105 259.244 113.889 258.409 114.446C257.574 114.997 256.611 115.273 255.52 115.273C254.679 115.273 254.006 115.134 253.5 114.855C252.994 114.571 252.605 114.25 252.332 113.892C252.06 113.528 251.849 113.227 251.702 112.989H251.463V115H249.52ZM251.497 108.455C251.497 109.443 251.642 110.315 251.932 111.071C252.222 111.821 252.645 112.409 253.202 112.835C253.759 113.256 254.44 113.466 255.247 113.466C256.088 113.466 256.79 113.244 257.352 112.801C257.92 112.352 258.347 111.75 258.631 110.994C258.92 110.233 259.065 109.386 259.065 108.455C259.065 107.534 258.923 106.705 258.639 105.966C258.361 105.222 257.938 104.634 257.369 104.202C256.807 103.764 256.099 103.545 255.247 103.545C254.429 103.545 253.741 103.753 253.185 104.168C252.628 104.577 252.207 105.151 251.923 105.889C251.639 106.622 251.497 107.477 251.497 108.455ZM264.153 115V101.909H266.165V115H264.153ZM265.176 99.7273C264.784 99.7273 264.446 99.5938 264.162 99.3267C263.884 99.0597 263.744 98.7386 263.744 98.3636C263.744 97.9886 263.884 97.6676 264.162 97.4006C264.446 97.1335 264.784 97 265.176 97C265.568 97 265.903 97.1335 266.182 97.4006C266.466 97.6676 266.608 97.9886 266.608 98.3636C266.608 98.7386 266.466 99.0597 266.182 99.3267C265.903 99.5938 265.568 99.7273 265.176 99.7273ZM279.121 104.841L277.315 105.352C277.201 105.051 277.033 104.759 276.812 104.474C276.596 104.185 276.3 103.946 275.925 103.759C275.55 103.571 275.07 103.477 274.485 103.477C273.684 103.477 273.016 103.662 272.482 104.031C271.954 104.395 271.69 104.858 271.69 105.42C271.69 105.92 271.871 106.315 272.235 106.605C272.599 106.895 273.167 107.136 273.94 107.33L275.883 107.807C277.053 108.091 277.925 108.526 278.499 109.111C279.073 109.69 279.36 110.437 279.36 111.352C279.36 112.102 279.144 112.773 278.712 113.364C278.286 113.955 277.69 114.42 276.923 114.761C276.156 115.102 275.263 115.273 274.246 115.273C272.911 115.273 271.806 114.983 270.931 114.403C270.056 113.824 269.502 112.977 269.269 111.864L271.178 111.386C271.36 112.091 271.704 112.619 272.21 112.972C272.721 113.324 273.388 113.5 274.212 113.5C275.15 113.5 275.894 113.301 276.445 112.903C277.002 112.5 277.281 112.017 277.281 111.455C277.281 111 277.121 110.619 276.803 110.312C276.485 110 275.996 109.767 275.337 109.614L273.156 109.102C271.957 108.818 271.076 108.378 270.513 107.781C269.957 107.179 269.678 106.426 269.678 105.523C269.678 104.784 269.886 104.131 270.3 103.562C270.721 102.994 271.292 102.548 272.013 102.224C272.741 101.901 273.565 101.739 274.485 101.739C275.781 101.739 276.798 102.023 277.536 102.591C278.281 103.159 278.809 103.909 279.121 104.841ZM288.081 101.909V103.614H281.297V101.909H288.081ZM283.274 98.7727H285.286V111.25C285.286 111.818 285.368 112.244 285.533 112.528C285.703 112.807 285.919 112.994 286.18 113.091C286.447 113.182 286.729 113.227 287.024 113.227C287.246 113.227 287.428 113.216 287.57 113.193C287.712 113.165 287.825 113.142 287.911 113.125L288.32 114.932C288.183 114.983 287.993 115.034 287.749 115.085C287.504 115.142 287.195 115.17 286.82 115.17C286.251 115.17 285.695 115.048 285.149 114.804C284.609 114.56 284.161 114.188 283.803 113.688C283.45 113.188 283.274 112.557 283.274 111.795V98.7727ZM303.345 115.273C302.084 115.273 300.996 114.994 300.081 114.438C299.172 113.875 298.47 113.091 297.976 112.085C297.487 111.074 297.243 109.898 297.243 108.557C297.243 107.216 297.487 106.034 297.976 105.011C298.47 103.983 299.158 103.182 300.038 102.608C300.925 102.028 301.959 101.739 303.141 101.739C303.822 101.739 304.496 101.852 305.161 102.08C305.825 102.307 306.43 102.676 306.976 103.188C307.521 103.693 307.956 104.364 308.28 105.199C308.604 106.034 308.766 107.062 308.766 108.284V109.136H298.675V107.398H306.72C306.72 106.659 306.572 106 306.277 105.42C305.987 104.841 305.572 104.384 305.033 104.048C304.499 103.713 303.868 103.545 303.141 103.545C302.339 103.545 301.646 103.744 301.061 104.142C300.482 104.534 300.036 105.045 299.723 105.676C299.411 106.307 299.254 106.983 299.254 107.705V108.864C299.254 109.852 299.425 110.69 299.766 111.378C300.112 112.06 300.592 112.58 301.206 112.938C301.82 113.29 302.533 113.466 303.345 113.466C303.874 113.466 304.351 113.392 304.777 113.244C305.209 113.091 305.581 112.864 305.893 112.562C306.206 112.256 306.447 111.875 306.618 111.42L308.561 111.966C308.357 112.625 308.013 113.205 307.53 113.705C307.047 114.199 306.45 114.585 305.74 114.864C305.03 115.136 304.232 115.273 303.345 115.273ZM311.825 115V101.909H313.837V115H311.825ZM312.848 99.7273C312.456 99.7273 312.118 99.5938 311.834 99.3267C311.555 99.0597 311.416 98.7386 311.416 98.3636C311.416 97.9886 311.555 97.6676 311.834 97.4006C312.118 97.1335 312.456 97 312.848 97C313.24 97 313.575 97.1335 313.854 97.4006C314.138 97.6676 314.28 97.9886 314.28 98.3636C314.28 98.7386 314.138 99.0597 313.854 99.3267C313.575 99.5938 313.24 99.7273 312.848 99.7273ZM319.532 107.125V115H317.521V101.909H319.464V103.955H319.634C319.941 103.29 320.407 102.756 321.032 102.352C321.657 101.943 322.464 101.739 323.452 101.739C324.339 101.739 325.114 101.92 325.779 102.284C326.444 102.642 326.961 103.188 327.33 103.92C327.7 104.648 327.884 105.568 327.884 106.682V115H325.873V106.818C325.873 105.79 325.606 104.989 325.072 104.415C324.538 103.835 323.805 103.545 322.873 103.545C322.231 103.545 321.657 103.685 321.151 103.963C320.651 104.241 320.256 104.648 319.967 105.182C319.677 105.716 319.532 106.364 319.532 107.125ZM340.696 97.5455V115H338.582V97.5455H340.696ZM346.673 107.125V115H344.661V101.909H346.604V103.955H346.775C347.082 103.29 347.548 102.756 348.173 102.352C348.798 101.943 349.604 101.739 350.593 101.739C351.479 101.739 352.255 101.92 352.92 102.284C353.585 102.642 354.102 103.188 354.471 103.92C354.84 104.648 355.025 105.568 355.025 106.682V115H353.013V106.818C353.013 105.79 352.746 104.989 352.212 104.415C351.678 103.835 350.945 103.545 350.013 103.545C349.371 103.545 348.798 103.685 348.292 103.963C347.792 104.241 347.397 104.648 347.107 105.182C346.817 105.716 346.673 106.364 346.673 107.125ZM363.984 120.182C363.013 120.182 362.178 120.057 361.479 119.807C360.78 119.562 360.197 119.239 359.732 118.835C359.271 118.438 358.905 118.011 358.632 117.557L360.234 116.432C360.416 116.67 360.646 116.943 360.925 117.25C361.203 117.562 361.584 117.832 362.067 118.06C362.555 118.293 363.195 118.409 363.984 118.409C365.041 118.409 365.913 118.153 366.601 117.642C367.288 117.131 367.632 116.33 367.632 115.239V112.58H367.462C367.314 112.818 367.104 113.114 366.831 113.466C366.564 113.812 366.178 114.122 365.672 114.395C365.172 114.662 364.496 114.795 363.643 114.795C362.587 114.795 361.638 114.545 360.797 114.045C359.962 113.545 359.3 112.818 358.811 111.864C358.328 110.909 358.087 109.75 358.087 108.386C358.087 107.045 358.322 105.878 358.794 104.884C359.266 103.884 359.922 103.111 360.763 102.565C361.604 102.014 362.575 101.739 363.678 101.739C364.53 101.739 365.206 101.881 365.706 102.165C366.212 102.443 366.598 102.761 366.865 103.119C367.138 103.472 367.348 103.761 367.496 103.989H367.7V101.909H369.643V115.375C369.643 116.5 369.388 117.415 368.876 118.119C368.371 118.83 367.689 119.349 366.831 119.679C365.979 120.014 365.03 120.182 363.984 120.182ZM363.916 112.989C364.723 112.989 365.405 112.804 365.962 112.435C366.518 112.065 366.942 111.534 367.232 110.841C367.521 110.148 367.666 109.318 367.666 108.352C367.666 107.409 367.524 106.577 367.24 105.855C366.956 105.134 366.536 104.568 365.979 104.159C365.422 103.75 364.734 103.545 363.916 103.545C363.064 103.545 362.354 103.761 361.786 104.193C361.223 104.625 360.8 105.205 360.516 105.932C360.237 106.659 360.098 107.466 360.098 108.352C360.098 109.261 360.24 110.065 360.524 110.764C360.814 111.457 361.24 112.003 361.803 112.401C362.371 112.793 363.075 112.989 363.916 112.989ZM378.814 115.273C377.553 115.273 376.464 114.994 375.55 114.438C374.641 113.875 373.939 113.091 373.445 112.085C372.956 111.074 372.712 109.898 372.712 108.557C372.712 107.216 372.956 106.034 373.445 105.011C373.939 103.983 374.626 103.182 375.507 102.608C376.393 102.028 377.428 101.739 378.609 101.739C379.291 101.739 379.964 101.852 380.629 102.08C381.294 102.307 381.899 102.676 382.445 103.188C382.99 103.693 383.425 104.364 383.749 105.199C384.072 106.034 384.234 107.062 384.234 108.284V109.136H374.143V107.398H382.189C382.189 106.659 382.041 106 381.746 105.42C381.456 104.841 381.041 104.384 380.501 104.048C379.967 103.713 379.337 103.545 378.609 103.545C377.808 103.545 377.115 103.744 376.53 104.142C375.95 104.534 375.504 105.045 375.192 105.676C374.879 106.307 374.723 106.983 374.723 107.705V108.864C374.723 109.852 374.893 110.69 375.234 111.378C375.581 112.06 376.061 112.58 376.675 112.938C377.288 113.29 378.001 113.466 378.814 113.466C379.342 113.466 379.82 113.392 380.246 113.244C380.678 113.091 381.05 112.864 381.362 112.562C381.675 112.256 381.916 111.875 382.087 111.42L384.03 111.966C383.825 112.625 383.482 113.205 382.999 113.705C382.516 114.199 381.919 114.585 381.209 114.864C380.499 115.136 379.7 115.273 378.814 115.273ZM389.305 107.125V115H387.294V101.909H389.237V103.955H389.408C389.714 103.29 390.18 102.756 390.805 102.352C391.43 101.943 392.237 101.739 393.226 101.739C394.112 101.739 394.888 101.92 395.553 102.284C396.217 102.642 396.734 103.188 397.104 103.92C397.473 104.648 397.658 105.568 397.658 106.682V115H395.646V106.818C395.646 105.79 395.379 104.989 394.845 104.415C394.311 103.835 393.578 103.545 392.646 103.545C392.004 103.545 391.43 103.685 390.925 103.963C390.425 104.241 390.03 104.648 389.74 105.182C389.45 105.716 389.305 106.364 389.305 107.125ZM401.333 115V101.909H403.344V115H401.333ZM402.356 99.7273C401.964 99.7273 401.626 99.5938 401.342 99.3267C401.063 99.0597 400.924 98.7386 400.924 98.3636C400.924 97.9886 401.063 97.6676 401.342 97.4006C401.626 97.1335 401.964 97 402.356 97C402.748 97 403.083 97.1335 403.362 97.4006C403.646 97.6676 403.788 97.9886 403.788 98.3636C403.788 98.7386 403.646 99.0597 403.362 99.3267C403.083 99.5938 402.748 99.7273 402.356 99.7273ZM415.278 109.648V101.909H417.29V115H415.278V112.784H415.142C414.835 113.449 414.358 114.014 413.71 114.48C413.063 114.94 412.244 115.17 411.256 115.17C410.438 115.17 409.71 114.991 409.074 114.634C408.438 114.27 407.938 113.724 407.574 112.997C407.21 112.264 407.028 111.341 407.028 110.227V101.909H409.04V110.091C409.04 111.045 409.307 111.807 409.841 112.375C410.381 112.943 411.068 113.227 411.903 113.227C412.403 113.227 412.912 113.099 413.429 112.844C413.952 112.588 414.389 112.196 414.741 111.668C415.099 111.139 415.278 110.466 415.278 109.648ZM426.462 115.273C425.201 115.273 424.113 114.994 423.198 114.438C422.289 113.875 421.587 113.091 421.093 112.085C420.604 111.074 420.36 109.898 420.36 108.557C420.36 107.216 420.604 106.034 421.093 105.011C421.587 103.983 422.275 103.182 423.156 102.608C424.042 102.028 425.076 101.739 426.258 101.739C426.94 101.739 427.613 101.852 428.278 102.08C428.942 102.307 429.548 102.676 430.093 103.188C430.638 103.693 431.073 104.364 431.397 105.199C431.721 106.034 431.883 107.062 431.883 108.284V109.136H421.792V107.398H429.837C429.837 106.659 429.69 106 429.394 105.42C429.104 104.841 428.69 104.384 428.15 104.048C427.616 103.713 426.985 103.545 426.258 103.545C425.457 103.545 424.763 103.744 424.178 104.142C423.599 104.534 423.153 105.045 422.84 105.676C422.528 106.307 422.371 106.983 422.371 107.705V108.864C422.371 109.852 422.542 110.69 422.883 111.378C423.229 112.06 423.71 112.58 424.323 112.938C424.937 113.29 425.65 113.466 426.462 113.466C426.991 113.466 427.468 113.392 427.894 113.244C428.326 113.091 428.698 112.864 429.011 112.562C429.323 112.256 429.565 111.875 429.735 111.42L431.678 111.966C431.474 112.625 431.13 113.205 430.647 113.705C430.164 114.199 429.567 114.585 428.857 114.864C428.147 115.136 427.349 115.273 426.462 115.273ZM434.942 115V101.909H436.886V103.886H437.022C437.261 103.239 437.692 102.713 438.317 102.31C438.942 101.906 439.647 101.705 440.431 101.705C440.579 101.705 440.763 101.707 440.985 101.713C441.207 101.719 441.374 101.727 441.488 101.739V103.784C441.42 103.767 441.263 103.741 441.019 103.707C440.781 103.668 440.528 103.648 440.261 103.648C439.624 103.648 439.056 103.781 438.556 104.048C438.062 104.31 437.67 104.673 437.38 105.139C437.096 105.599 436.954 106.125 436.954 106.716V115H434.942ZM458.872 109.648V101.909H460.884V115H458.872V112.784H458.736C458.429 113.449 457.952 114.014 457.304 114.48C456.656 114.94 455.838 115.17 454.849 115.17C454.031 115.17 453.304 114.991 452.668 114.634C452.031 114.27 451.531 113.724 451.168 112.997C450.804 112.264 450.622 111.341 450.622 110.227V101.909H452.634V110.091C452.634 111.045 452.901 111.807 453.435 112.375C453.974 112.943 454.662 113.227 455.497 113.227C455.997 113.227 456.506 113.099 457.023 112.844C457.545 112.588 457.983 112.196 458.335 111.668C458.693 111.139 458.872 110.466 458.872 109.648ZM466.579 107.125V115H464.567V101.909H466.511V103.955H466.681C466.988 103.29 467.454 102.756 468.079 102.352C468.704 101.943 469.511 101.739 470.499 101.739C471.386 101.739 472.161 101.92 472.826 102.284C473.491 102.642 474.008 103.188 474.377 103.92C474.746 104.648 474.931 105.568 474.931 106.682V115H472.92V106.818C472.92 105.79 472.653 104.989 472.119 104.415C471.585 103.835 470.852 103.545 469.92 103.545C469.278 103.545 468.704 103.685 468.198 103.963C467.698 104.241 467.303 104.648 467.013 105.182C466.724 105.716 466.579 106.364 466.579 107.125ZM483.55 115.273C482.459 115.273 481.496 114.997 480.661 114.446C479.825 113.889 479.172 113.105 478.7 112.094C478.229 111.077 477.993 109.875 477.993 108.489C477.993 107.114 478.229 105.92 478.7 104.909C479.172 103.898 479.828 103.116 480.669 102.565C481.51 102.014 482.482 101.739 483.584 101.739C484.436 101.739 485.109 101.881 485.604 102.165C486.104 102.443 486.484 102.761 486.746 103.119C487.013 103.472 487.22 103.761 487.368 103.989H487.538V97.5455H489.55V115H487.607V112.989H487.368C487.22 113.227 487.01 113.528 486.737 113.892C486.464 114.25 486.075 114.571 485.57 114.855C485.064 115.134 484.391 115.273 483.55 115.273ZM483.822 113.466C484.629 113.466 485.311 113.256 485.868 112.835C486.425 112.409 486.848 111.821 487.138 111.071C487.428 110.315 487.572 109.443 487.572 108.455C487.572 107.477 487.43 106.622 487.146 105.889C486.862 105.151 486.442 104.577 485.885 104.168C485.328 103.753 484.641 103.545 483.822 103.545C482.97 103.545 482.26 103.764 481.692 104.202C481.129 104.634 480.706 105.222 480.422 105.966C480.143 106.705 480.004 107.534 480.004 108.455C480.004 109.386 480.146 110.233 480.43 110.994C480.72 111.75 481.146 112.352 481.709 112.801C482.277 113.244 482.982 113.466 483.822 113.466ZM101.693 144.307C100.864 144.307 100.111 144.151 99.4347 143.838C98.7585 143.52 98.2216 143.062 97.8239 142.466C97.4261 141.864 97.2273 141.136 97.2273 140.284C97.2273 139.534 97.375 138.926 97.6705 138.46C97.9659 137.989 98.3608 137.619 98.8551 137.352C99.3494 137.085 99.8949 136.886 100.491 136.756C101.094 136.619 101.699 136.511 102.307 136.432C103.102 136.33 103.747 136.253 104.241 136.202C104.741 136.145 105.105 136.051 105.332 135.92C105.565 135.79 105.682 135.562 105.682 135.239V135.17C105.682 134.33 105.452 133.676 104.991 133.21C104.537 132.744 103.847 132.511 102.92 132.511C101.96 132.511 101.207 132.722 100.662 133.142C100.116 133.562 99.733 134.011 99.5114 134.489L97.6023 133.807C97.9432 133.011 98.3977 132.392 98.9659 131.949C99.5398 131.5 100.165 131.187 100.841 131.011C101.523 130.83 102.193 130.739 102.852 130.739C103.273 130.739 103.756 130.79 104.301 130.892C104.852 130.989 105.384 131.19 105.895 131.497C106.412 131.804 106.841 132.267 107.182 132.886C107.523 133.506 107.693 134.335 107.693 135.375V144H105.682V142.227H105.58C105.443 142.511 105.216 142.815 104.898 143.139C104.58 143.463 104.156 143.739 103.628 143.966C103.099 144.193 102.455 144.307 101.693 144.307ZM102 142.5C102.795 142.5 103.466 142.344 104.011 142.031C104.563 141.719 104.977 141.315 105.256 140.821C105.54 140.327 105.682 139.807 105.682 139.261V137.42C105.597 137.523 105.409 137.616 105.119 137.702C104.835 137.781 104.506 137.852 104.131 137.915C103.761 137.972 103.401 138.023 103.048 138.068C102.702 138.108 102.42 138.142 102.205 138.17C101.682 138.239 101.193 138.349 100.739 138.503C100.29 138.651 99.9261 138.875 99.6477 139.176C99.375 139.472 99.2386 139.875 99.2386 140.386C99.2386 141.085 99.4972 141.614 100.014 141.972C100.537 142.324 101.199 142.5 102 142.5ZM111.364 144V130.909H113.308V132.886H113.444C113.683 132.239 114.114 131.713 114.739 131.31C115.364 130.906 116.069 130.705 116.853 130.705C117.001 130.705 117.185 130.707 117.407 130.713C117.629 130.719 117.796 130.727 117.91 130.739V132.784C117.842 132.767 117.685 132.741 117.441 132.707C117.202 132.668 116.95 132.648 116.683 132.648C116.046 132.648 115.478 132.781 114.978 133.048C114.484 133.31 114.092 133.673 113.802 134.139C113.518 134.599 113.376 135.125 113.376 135.716V144H111.364ZM120.567 144V126.545H122.578V132.989H122.749C122.896 132.761 123.101 132.472 123.362 132.119C123.629 131.761 124.01 131.443 124.504 131.165C125.004 130.881 125.68 130.739 126.533 130.739C127.635 130.739 128.607 131.014 129.447 131.565C130.288 132.116 130.945 132.898 131.416 133.909C131.888 134.92 132.124 136.114 132.124 137.489C132.124 138.875 131.888 140.077 131.416 141.094C130.945 142.105 130.291 142.889 129.456 143.446C128.621 143.997 127.658 144.273 126.567 144.273C125.726 144.273 125.053 144.134 124.547 143.855C124.041 143.571 123.652 143.25 123.379 142.892C123.107 142.528 122.896 142.227 122.749 141.989H122.51V144H120.567ZM122.544 137.455C122.544 138.443 122.689 139.315 122.979 140.071C123.268 140.821 123.692 141.409 124.249 141.835C124.805 142.256 125.487 142.466 126.294 142.466C127.135 142.466 127.837 142.244 128.399 141.801C128.967 141.352 129.393 140.75 129.678 139.994C129.967 139.233 130.112 138.386 130.112 137.455C130.112 136.534 129.97 135.705 129.686 134.966C129.408 134.222 128.984 133.634 128.416 133.202C127.854 132.764 127.146 132.545 126.294 132.545C125.476 132.545 124.788 132.753 124.232 133.168C123.675 133.577 123.254 134.151 122.97 134.889C122.686 135.622 122.544 136.477 122.544 137.455ZM140.689 144.273C139.428 144.273 138.339 143.994 137.425 143.438C136.516 142.875 135.814 142.091 135.32 141.085C134.831 140.074 134.587 138.898 134.587 137.557C134.587 136.216 134.831 135.034 135.32 134.011C135.814 132.983 136.501 132.182 137.382 131.608C138.268 131.028 139.303 130.739 140.484 130.739C141.166 130.739 141.839 130.852 142.504 131.08C143.169 131.307 143.774 131.676 144.32 132.188C144.865 132.693 145.3 133.364 145.624 134.199C145.947 135.034 146.109 136.062 146.109 137.284V138.136H136.018V136.398H144.064C144.064 135.659 143.916 135 143.621 134.42C143.331 133.841 142.916 133.384 142.376 133.048C141.842 132.713 141.212 132.545 140.484 132.545C139.683 132.545 138.99 132.744 138.405 133.142C137.825 133.534 137.379 134.045 137.067 134.676C136.754 135.307 136.598 135.983 136.598 136.705V137.864C136.598 138.852 136.768 139.69 137.109 140.378C137.456 141.06 137.936 141.58 138.55 141.938C139.163 142.29 139.876 142.466 140.689 142.466C141.217 142.466 141.695 142.392 142.121 142.244C142.553 142.091 142.925 141.864 143.237 141.562C143.55 141.256 143.791 140.875 143.962 140.42L145.905 140.966C145.7 141.625 145.357 142.205 144.874 142.705C144.391 143.199 143.794 143.585 143.084 143.864C142.374 144.136 141.575 144.273 140.689 144.273ZM149.169 144V130.909H151.18V144H149.169ZM150.192 128.727C149.8 128.727 149.462 128.594 149.178 128.327C148.899 128.06 148.76 127.739 148.76 127.364C148.76 126.989 148.899 126.668 149.178 126.401C149.462 126.134 149.8 126 150.192 126C150.584 126 150.919 126.134 151.197 126.401C151.482 126.668 151.624 126.989 151.624 127.364C151.624 127.739 151.482 128.06 151.197 128.327C150.919 128.594 150.584 128.727 150.192 128.727ZM160.558 130.909V132.614H153.773V130.909H160.558ZM155.751 127.773H157.762V140.25C157.762 140.818 157.844 141.244 158.009 141.528C158.18 141.807 158.396 141.994 158.657 142.091C158.924 142.182 159.205 142.227 159.501 142.227C159.722 142.227 159.904 142.216 160.046 142.193C160.188 142.165 160.302 142.142 160.387 142.125L160.796 143.932C160.66 143.983 160.469 144.034 160.225 144.085C159.981 144.142 159.671 144.17 159.296 144.17C158.728 144.17 158.171 144.048 157.626 143.804C157.086 143.56 156.637 143.188 156.279 142.688C155.927 142.188 155.751 141.557 155.751 140.795V127.773ZM168.931 144.273C167.67 144.273 166.582 143.994 165.667 143.438C164.758 142.875 164.056 142.091 163.562 141.085C163.073 140.074 162.829 138.898 162.829 137.557C162.829 136.216 163.073 135.034 163.562 134.011C164.056 132.983 164.744 132.182 165.624 131.608C166.511 131.028 167.545 130.739 168.727 130.739C169.408 130.739 170.082 130.852 170.746 131.08C171.411 131.307 172.016 131.676 172.562 132.188C173.107 132.693 173.542 133.364 173.866 134.199C174.19 135.034 174.352 136.062 174.352 137.284V138.136H164.261V136.398H172.306C172.306 135.659 172.158 135 171.863 134.42C171.573 133.841 171.158 133.384 170.619 133.048C170.085 132.713 169.454 132.545 168.727 132.545C167.925 132.545 167.232 132.744 166.647 133.142C166.067 133.534 165.621 134.045 165.309 134.676C164.996 135.307 164.84 135.983 164.84 136.705V137.864C164.84 138.852 165.011 139.69 165.352 140.378C165.698 141.06 166.178 141.58 166.792 141.938C167.406 142.29 168.119 142.466 168.931 142.466C169.46 142.466 169.937 142.392 170.363 142.244C170.795 142.091 171.167 141.864 171.479 141.562C171.792 141.256 172.033 140.875 172.204 140.42L174.147 140.966C173.942 141.625 173.599 142.205 173.116 142.705C172.633 143.199 172.036 143.585 171.326 143.864C170.616 144.136 169.817 144.273 168.931 144.273ZM186.684 133.841L184.877 134.352C184.763 134.051 184.596 133.759 184.374 133.474C184.158 133.185 183.863 132.946 183.488 132.759C183.113 132.571 182.633 132.477 182.048 132.477C181.246 132.477 180.579 132.662 180.045 133.031C179.516 133.395 179.252 133.858 179.252 134.42C179.252 134.92 179.434 135.315 179.798 135.605C180.161 135.895 180.729 136.136 181.502 136.33L183.445 136.807C184.616 137.091 185.488 137.526 186.062 138.111C186.636 138.69 186.923 139.437 186.923 140.352C186.923 141.102 186.707 141.773 186.275 142.364C185.849 142.955 185.252 143.42 184.485 143.761C183.718 144.102 182.826 144.273 181.809 144.273C180.474 144.273 179.369 143.983 178.494 143.403C177.619 142.824 177.065 141.977 176.832 140.864L178.741 140.386C178.923 141.091 179.266 141.619 179.772 141.972C180.283 142.324 180.951 142.5 181.775 142.5C182.712 142.5 183.457 142.301 184.008 141.903C184.565 141.5 184.843 141.017 184.843 140.455C184.843 140 184.684 139.619 184.366 139.312C184.048 139 183.559 138.767 182.9 138.614L180.718 138.102C179.519 137.818 178.638 137.378 178.076 136.781C177.519 136.179 177.241 135.426 177.241 134.523C177.241 133.784 177.448 133.131 177.863 132.562C178.283 131.994 178.854 131.548 179.576 131.224C180.303 130.901 181.127 130.739 182.048 130.739C183.343 130.739 184.36 131.023 185.099 131.591C185.843 132.159 186.371 132.909 186.684 133.841ZM195.643 130.909V132.614H188.859V130.909H195.643ZM190.837 127.773H192.848V140.25C192.848 140.818 192.93 141.244 193.095 141.528C193.266 141.807 193.482 141.994 193.743 142.091C194.01 142.182 194.291 142.227 194.587 142.227C194.808 142.227 194.99 142.216 195.132 142.193C195.274 142.165 195.388 142.142 195.473 142.125L195.882 143.932C195.746 143.983 195.555 144.034 195.311 144.085C195.067 144.142 194.757 144.17 194.382 144.17C193.814 144.17 193.257 144.048 192.712 143.804C192.172 143.56 191.723 143.188 191.365 142.688C191.013 142.188 190.837 141.557 190.837 140.795V127.773ZM205.692 144V126.545H207.703V132.989H207.874C208.021 132.761 208.226 132.472 208.487 132.119C208.754 131.761 209.135 131.443 209.629 131.165C210.129 130.881 210.805 130.739 211.658 130.739C212.76 130.739 213.732 131.014 214.572 131.565C215.413 132.116 216.07 132.898 216.541 133.909C217.013 134.92 217.249 136.114 217.249 137.489C217.249 138.875 217.013 140.077 216.541 141.094C216.07 142.105 215.416 142.889 214.581 143.446C213.746 143.997 212.783 144.273 211.692 144.273C210.851 144.273 210.178 144.134 209.672 143.855C209.166 143.571 208.777 143.25 208.504 142.892C208.232 142.528 208.021 142.227 207.874 141.989H207.635V144H205.692ZM207.669 137.455C207.669 138.443 207.814 139.315 208.104 140.071C208.393 140.821 208.817 141.409 209.374 141.835C209.93 142.256 210.612 142.466 211.419 142.466C212.26 142.466 212.962 142.244 213.524 141.801C214.092 141.352 214.518 140.75 214.803 139.994C215.092 139.233 215.237 138.386 215.237 137.455C215.237 136.534 215.095 135.705 214.811 134.966C214.533 134.222 214.109 133.634 213.541 133.202C212.979 132.764 212.271 132.545 211.419 132.545C210.601 132.545 209.913 132.753 209.357 133.168C208.8 133.577 208.379 134.151 208.095 134.889C207.811 135.622 207.669 136.477 207.669 137.455ZM225.814 144.273C224.553 144.273 223.464 143.994 222.55 143.438C221.641 142.875 220.939 142.091 220.445 141.085C219.956 140.074 219.712 138.898 219.712 137.557C219.712 136.216 219.956 135.034 220.445 134.011C220.939 132.983 221.626 132.182 222.507 131.608C223.393 131.028 224.428 130.739 225.609 130.739C226.291 130.739 226.964 130.852 227.629 131.08C228.294 131.307 228.899 131.676 229.445 132.188C229.99 132.693 230.425 133.364 230.749 134.199C231.072 135.034 231.234 136.062 231.234 137.284V138.136H221.143V136.398H229.189C229.189 135.659 229.041 135 228.746 134.42C228.456 133.841 228.041 133.384 227.501 133.048C226.967 132.713 226.337 132.545 225.609 132.545C224.808 132.545 224.115 132.744 223.53 133.142C222.95 133.534 222.504 134.045 222.192 134.676C221.879 135.307 221.723 135.983 221.723 136.705V137.864C221.723 138.852 221.893 139.69 222.234 140.378C222.581 141.06 223.061 141.58 223.675 141.938C224.288 142.29 225.001 142.466 225.814 142.466C226.342 142.466 226.82 142.392 227.246 142.244C227.678 142.091 228.05 141.864 228.362 141.562C228.675 141.256 228.916 140.875 229.087 140.42L231.03 140.966C230.825 141.625 230.482 142.205 229.999 142.705C229.516 143.199 228.919 143.585 228.209 143.864C227.499 144.136 226.7 144.273 225.814 144.273ZM234.294 144V130.909H236.305V144H234.294ZM235.317 128.727C234.925 128.727 234.587 128.594 234.303 128.327C234.024 128.06 233.885 127.739 233.885 127.364C233.885 126.989 234.024 126.668 234.303 126.401C234.587 126.134 234.925 126 235.317 126C235.709 126 236.044 126.134 236.322 126.401C236.607 126.668 236.749 126.989 236.749 127.364C236.749 127.739 236.607 128.06 236.322 128.327C236.044 128.594 235.709 128.727 235.317 128.727ZM247.012 144V126.545H257.546V128.42H249.126V134.318H257.001V136.193H249.126V142.125H257.683V144H247.012ZM268.583 134.335V136.21H260.947V134.335H268.583ZM274.347 144L269.574 126.545H271.722L275.369 140.761H275.54L279.256 126.545H281.642L285.358 140.761H285.528L289.176 126.545H291.324L286.551 144H284.369L280.517 130.091H280.381L276.528 144H274.347ZM297.955 144.273C296.693 144.273 295.605 143.994 294.69 143.438C293.781 142.875 293.08 142.091 292.585 141.085C292.097 140.074 291.852 138.898 291.852 137.557C291.852 136.216 292.097 135.034 292.585 134.011C293.08 132.983 293.767 132.182 294.648 131.608C295.534 131.028 296.568 130.739 297.75 130.739C298.432 130.739 299.105 130.852 299.77 131.08C300.435 131.307 301.04 131.676 301.585 132.188C302.131 132.693 302.565 133.364 302.889 134.199C303.213 135.034 303.375 136.062 303.375 137.284V138.136H293.284V136.398H301.33C301.33 135.659 301.182 135 300.886 134.42C300.597 133.841 300.182 133.384 299.642 133.048C299.108 132.713 298.477 132.545 297.75 132.545C296.949 132.545 296.256 132.744 295.67 133.142C295.091 133.534 294.645 134.045 294.332 134.676C294.02 135.307 293.864 135.983 293.864 136.705V137.864C293.864 138.852 294.034 139.69 294.375 140.378C294.722 141.06 295.202 141.58 295.815 141.938C296.429 142.29 297.142 142.466 297.955 142.466C298.483 142.466 298.96 142.392 299.386 142.244C299.818 142.091 300.19 141.864 300.503 141.562C300.815 141.256 301.057 140.875 301.227 140.42L303.17 140.966C302.966 141.625 302.622 142.205 302.139 142.705C301.656 143.199 301.06 143.585 300.349 143.864C299.639 144.136 298.841 144.273 297.955 144.273ZM306.435 144V130.909H308.378V132.886H308.514C308.753 132.239 309.185 131.713 309.81 131.31C310.435 130.906 311.139 130.705 311.923 130.705C312.071 130.705 312.256 130.707 312.477 130.713C312.699 130.719 312.866 130.727 312.98 130.739V132.784C312.912 132.767 312.756 132.741 312.511 132.707C312.273 132.668 312.02 132.648 311.753 132.648C311.116 132.648 310.548 132.781 310.048 133.048C309.554 133.31 309.162 133.673 308.872 134.139C308.588 134.599 308.446 135.125 308.446 135.716V144H306.435ZM317.239 139.227L317.205 136.739H317.614L323.342 130.909H325.83L319.728 137.08H319.558L317.239 139.227ZM315.364 144V126.545H317.376V144H315.364ZM323.683 144L318.569 137.523L320.001 136.125L326.239 144H323.683ZM335.169 144V130.909H337.18V144H335.169ZM336.192 128.727C335.8 128.727 335.462 128.594 335.178 128.327C334.899 128.06 334.76 127.739 334.76 127.364C334.76 126.989 334.899 126.668 335.178 126.401C335.462 126.134 335.8 126 336.192 126C336.584 126 336.919 126.134 337.197 126.401C337.482 126.668 337.624 126.989 337.624 127.364C337.624 127.739 337.482 128.06 337.197 128.327C336.919 128.594 336.584 128.727 336.192 128.727ZM342.876 136.125V144H340.864V130.909H342.808V132.955H342.978C343.285 132.29 343.751 131.756 344.376 131.352C345.001 130.943 345.808 130.739 346.796 130.739C347.683 130.739 348.458 130.92 349.123 131.284C349.788 131.642 350.305 132.188 350.674 132.92C351.043 133.648 351.228 134.568 351.228 135.682V144H349.217V135.818C349.217 134.79 348.95 133.989 348.415 133.415C347.881 132.835 347.148 132.545 346.217 132.545C345.575 132.545 345.001 132.685 344.495 132.963C343.995 133.241 343.6 133.648 343.31 134.182C343.021 134.716 342.876 135.364 342.876 136.125ZM366.597 144.273C365.506 144.273 364.543 143.997 363.707 143.446C362.872 142.889 362.219 142.105 361.747 141.094C361.276 140.077 361.04 138.875 361.04 137.489C361.04 136.114 361.276 134.92 361.747 133.909C362.219 132.898 362.875 132.116 363.716 131.565C364.557 131.014 365.528 130.739 366.631 130.739C367.483 130.739 368.156 130.881 368.651 131.165C369.151 131.443 369.531 131.761 369.793 132.119C370.06 132.472 370.267 132.761 370.415 132.989H370.585V126.545H372.597V144H370.653V141.989H370.415C370.267 142.227 370.057 142.528 369.784 142.892C369.511 143.25 369.122 143.571 368.616 143.855C368.111 144.134 367.438 144.273 366.597 144.273ZM366.869 142.466C367.676 142.466 368.358 142.256 368.915 141.835C369.472 141.409 369.895 140.821 370.185 140.071C370.474 139.315 370.619 138.443 370.619 137.455C370.619 136.477 370.477 135.622 370.193 134.889C369.909 134.151 369.489 133.577 368.932 133.168C368.375 132.753 367.688 132.545 366.869 132.545C366.017 132.545 365.307 132.764 364.739 133.202C364.176 133.634 363.753 134.222 363.469 134.966C363.19 135.705 363.051 136.534 363.051 137.455C363.051 138.386 363.193 139.233 363.477 139.994C363.767 140.75 364.193 141.352 364.756 141.801C365.324 142.244 366.028 142.466 366.869 142.466ZM382.048 144.273C380.787 144.273 379.699 143.994 378.784 143.438C377.875 142.875 377.173 142.091 376.679 141.085C376.19 140.074 375.946 138.898 375.946 137.557C375.946 136.216 376.19 135.034 376.679 134.011C377.173 132.983 377.861 132.182 378.741 131.608C379.628 131.028 380.662 130.739 381.844 130.739C382.526 130.739 383.199 130.852 383.864 131.08C384.528 131.307 385.134 131.676 385.679 132.188C386.224 132.693 386.659 133.364 386.983 134.199C387.307 135.034 387.469 136.062 387.469 137.284V138.136H377.378V136.398H385.423C385.423 135.659 385.276 135 384.98 134.42C384.69 133.841 384.276 133.384 383.736 133.048C383.202 132.713 382.571 132.545 381.844 132.545C381.043 132.545 380.349 132.744 379.764 133.142C379.185 133.534 378.739 134.045 378.426 134.676C378.114 135.307 377.957 135.983 377.957 136.705V137.864C377.957 138.852 378.128 139.69 378.469 140.378C378.815 141.06 379.295 141.58 379.909 141.938C380.523 142.29 381.236 142.466 382.048 142.466C382.577 142.466 383.054 142.392 383.48 142.244C383.912 142.091 384.284 141.864 384.597 141.562C384.909 141.256 385.151 140.875 385.321 140.42L387.264 140.966C387.06 141.625 386.716 142.205 386.233 142.705C385.75 143.199 385.153 143.585 384.443 143.864C383.733 144.136 382.935 144.273 382.048 144.273ZM390.528 144V130.909H392.472V132.886H392.608C392.847 132.239 393.278 131.713 393.903 131.31C394.528 130.906 395.233 130.705 396.017 130.705C396.165 130.705 396.349 130.707 396.571 130.713C396.793 130.719 396.96 130.727 397.074 130.739V132.784C397.006 132.767 396.849 132.741 396.605 132.707C396.366 132.668 396.114 132.648 395.847 132.648C395.21 132.648 394.642 132.781 394.142 133.048C393.648 133.31 393.256 133.673 392.966 134.139C392.682 134.599 392.54 135.125 392.54 135.716V144H390.528ZM416.026 130.909C415.924 130.045 415.509 129.375 414.782 128.898C414.055 128.42 413.163 128.182 412.106 128.182C411.333 128.182 410.657 128.307 410.077 128.557C409.504 128.807 409.055 129.151 408.731 129.588C408.413 130.026 408.254 130.523 408.254 131.08C408.254 131.545 408.364 131.946 408.586 132.281C408.813 132.611 409.103 132.886 409.455 133.108C409.808 133.324 410.177 133.503 410.563 133.645C410.95 133.781 411.305 133.892 411.629 133.977L413.401 134.455C413.856 134.574 414.362 134.739 414.918 134.949C415.481 135.159 416.018 135.446 416.529 135.81C417.046 136.168 417.472 136.628 417.808 137.19C418.143 137.753 418.31 138.443 418.31 139.261C418.31 140.205 418.063 141.057 417.569 141.818C417.08 142.58 416.364 143.185 415.421 143.634C414.484 144.082 413.344 144.307 412.004 144.307C410.754 144.307 409.671 144.105 408.756 143.702C407.847 143.298 407.131 142.736 406.609 142.014C406.092 141.293 405.799 140.455 405.731 139.5H407.913C407.969 140.159 408.191 140.705 408.577 141.136C408.969 141.562 409.464 141.881 410.06 142.091C410.663 142.295 411.31 142.398 412.004 142.398C412.81 142.398 413.535 142.267 414.177 142.006C414.819 141.739 415.327 141.369 415.702 140.898C416.077 140.42 416.265 139.864 416.265 139.227C416.265 138.648 416.103 138.176 415.779 137.812C415.455 137.449 415.029 137.153 414.501 136.926C413.972 136.699 413.401 136.5 412.788 136.33L410.64 135.716C409.276 135.324 408.197 134.764 407.401 134.037C406.606 133.31 406.208 132.358 406.208 131.182C406.208 130.205 406.472 129.352 407.001 128.625C407.535 127.892 408.251 127.324 409.148 126.92C410.052 126.511 411.06 126.307 412.174 126.307C413.299 126.307 414.299 126.509 415.174 126.912C416.049 127.31 416.742 127.855 417.254 128.548C417.771 129.241 418.043 130.028 418.072 130.909H416.026ZM427.206 130.909V132.614H420.422V130.909H427.206ZM422.399 127.773H424.411V140.25C424.411 140.818 424.493 141.244 424.658 141.528C424.828 141.807 425.044 141.994 425.305 142.091C425.572 142.182 425.854 142.227 426.149 142.227C426.371 142.227 426.553 142.216 426.695 142.193C426.837 142.165 426.95 142.142 427.036 142.125L427.445 143.932C427.308 143.983 427.118 144.034 426.874 144.085C426.629 144.142 426.32 144.17 425.945 144.17C425.376 144.17 424.82 144.048 424.274 143.804C423.734 143.56 423.286 143.188 422.928 142.688C422.575 142.188 422.399 141.557 422.399 140.795V127.773ZM434.084 144.307C433.254 144.307 432.501 144.151 431.825 143.838C431.149 143.52 430.612 143.062 430.214 142.466C429.817 141.864 429.618 141.136 429.618 140.284C429.618 139.534 429.766 138.926 430.061 138.46C430.357 137.989 430.751 137.619 431.246 137.352C431.74 137.085 432.286 136.886 432.882 136.756C433.484 136.619 434.089 136.511 434.697 136.432C435.493 136.33 436.138 136.253 436.632 136.202C437.132 136.145 437.496 136.051 437.723 135.92C437.956 135.79 438.072 135.562 438.072 135.239V135.17C438.072 134.33 437.842 133.676 437.382 133.21C436.928 132.744 436.237 132.511 435.311 132.511C434.351 132.511 433.598 132.722 433.053 133.142C432.507 133.562 432.124 134.011 431.902 134.489L429.993 133.807C430.334 133.011 430.788 132.392 431.357 131.949C431.93 131.5 432.555 131.187 433.232 131.011C433.913 130.83 434.584 130.739 435.243 130.739C435.663 130.739 436.146 130.79 436.692 130.892C437.243 130.989 437.774 131.19 438.286 131.497C438.803 131.804 439.232 132.267 439.572 132.886C439.913 133.506 440.084 134.335 440.084 135.375V144H438.072V142.227H437.97C437.834 142.511 437.607 142.815 437.288 143.139C436.97 143.463 436.547 143.739 436.018 143.966C435.49 144.193 434.845 144.307 434.084 144.307ZM434.391 142.5C435.186 142.5 435.857 142.344 436.402 142.031C436.953 141.719 437.368 141.315 437.646 140.821C437.93 140.327 438.072 139.807 438.072 139.261V137.42C437.987 137.523 437.8 137.616 437.51 137.702C437.226 137.781 436.896 137.852 436.521 137.915C436.152 137.972 435.791 138.023 435.439 138.068C435.092 138.108 434.811 138.142 434.595 138.17C434.072 138.239 433.584 138.349 433.129 138.503C432.68 138.651 432.317 138.875 432.038 139.176C431.766 139.472 431.629 139.875 431.629 140.386C431.629 141.085 431.888 141.614 432.405 141.972C432.928 142.324 433.589 142.5 434.391 142.5ZM448.698 144.273C447.607 144.273 446.644 143.997 445.809 143.446C444.974 142.889 444.32 142.105 443.849 141.094C443.377 140.077 443.141 138.875 443.141 137.489C443.141 136.114 443.377 134.92 443.849 133.909C444.32 132.898 444.977 132.116 445.817 131.565C446.658 131.014 447.63 130.739 448.732 130.739C449.585 130.739 450.258 130.881 450.752 131.165C451.252 131.443 451.633 131.761 451.894 132.119C452.161 132.472 452.369 132.761 452.516 132.989H452.687V126.545H454.698V144H452.755V141.989H452.516C452.369 142.227 452.158 142.528 451.886 142.892C451.613 143.25 451.224 143.571 450.718 143.855C450.212 144.134 449.539 144.273 448.698 144.273ZM448.971 142.466C449.778 142.466 450.46 142.256 451.016 141.835C451.573 141.409 451.996 140.821 452.286 140.071C452.576 139.315 452.721 138.443 452.721 137.455C452.721 136.477 452.579 135.622 452.295 134.889C452.011 134.151 451.59 133.577 451.033 133.168C450.477 132.753 449.789 132.545 448.971 132.545C448.119 132.545 447.408 132.764 446.84 133.202C446.278 133.634 445.854 134.222 445.57 134.966C445.292 135.705 445.153 136.534 445.153 137.455C445.153 138.386 445.295 139.233 445.579 139.994C445.869 140.75 446.295 141.352 446.857 141.801C447.425 142.244 448.13 142.466 448.971 142.466ZM464.354 130.909V132.614H457.57V130.909H464.354ZM459.548 127.773H461.559V140.25C461.559 140.818 461.641 141.244 461.806 141.528C461.977 141.807 462.192 141.994 462.454 142.091C462.721 142.182 463.002 142.227 463.298 142.227C463.519 142.227 463.701 142.216 463.843 142.193C463.985 142.165 464.099 142.142 464.184 142.125L464.593 143.932C464.457 143.983 464.266 144.034 464.022 144.085C463.778 144.142 463.468 144.17 463.093 144.17C462.525 144.17 461.968 144.048 461.423 143.804C460.883 143.56 460.434 143.188 460.076 142.688C459.724 142.188 459.548 141.557 459.548 140.795V127.773ZM474.403 144V126.545H484.937V128.42H476.516V134.318H484.391V136.193H476.516V142.125H485.073V144H474.403ZM495.974 134.335V136.21H488.337V134.335H495.974ZM513.831 132H511.717C511.592 131.392 511.374 130.858 511.061 130.398C510.754 129.938 510.379 129.551 509.936 129.239C509.499 128.92 509.013 128.682 508.479 128.523C507.945 128.364 507.388 128.284 506.808 128.284C505.751 128.284 504.794 128.551 503.936 129.085C503.084 129.619 502.405 130.406 501.899 131.446C501.399 132.486 501.149 133.761 501.149 135.273C501.149 136.784 501.399 138.06 501.899 139.099C502.405 140.139 503.084 140.926 503.936 141.46C504.794 141.994 505.751 142.261 506.808 142.261C507.388 142.261 507.945 142.182 508.479 142.023C509.013 141.864 509.499 141.628 509.936 141.315C510.379 140.997 510.754 140.608 511.061 140.148C511.374 139.682 511.592 139.148 511.717 138.545H513.831C513.672 139.437 513.382 140.236 512.962 140.94C512.541 141.645 512.018 142.244 511.393 142.739C510.768 143.227 510.067 143.599 509.288 143.855C508.516 144.111 507.689 144.239 506.808 144.239C505.32 144.239 503.996 143.875 502.837 143.148C501.678 142.42 500.766 141.386 500.101 140.045C499.436 138.705 499.104 137.114 499.104 135.273C499.104 133.432 499.436 131.841 500.101 130.5C500.766 129.159 501.678 128.125 502.837 127.398C503.996 126.67 505.32 126.307 506.808 126.307C507.689 126.307 508.516 126.435 509.288 126.69C510.067 126.946 510.768 127.321 511.393 127.815C512.018 128.304 512.541 128.901 512.962 129.605C513.382 130.304 513.672 131.102 513.831 132ZM516.974 144V130.909H518.985V144H516.974ZM517.996 128.727C517.604 128.727 517.266 128.594 516.982 128.327C516.704 128.06 516.565 127.739 516.565 127.364C516.565 126.989 516.704 126.668 516.982 126.401C517.266 126.134 517.604 126 517.996 126C518.388 126 518.724 126.134 519.002 126.401C519.286 126.668 519.428 126.989 519.428 127.364C519.428 127.739 519.286 128.06 519.002 128.327C518.724 128.594 518.388 128.727 517.996 128.727ZM528.362 130.909V132.614H521.578V130.909H528.362ZM523.555 127.773H525.567V140.25C525.567 140.818 525.649 141.244 525.814 141.528C525.984 141.807 526.2 141.994 526.462 142.091C526.729 142.182 527.01 142.227 527.305 142.227C527.527 142.227 527.709 142.216 527.851 142.193C527.993 142.165 528.107 142.142 528.192 142.125L528.601 143.932C528.464 143.983 528.274 144.034 528.03 144.085C527.786 144.142 527.476 144.17 527.101 144.17C526.533 144.17 525.976 144.048 525.43 143.804C524.891 143.56 524.442 143.188 524.084 142.688C523.732 142.188 523.555 141.557 523.555 140.795V127.773ZM532.683 148.909C532.342 148.909 532.038 148.881 531.771 148.824C531.504 148.773 531.32 148.722 531.217 148.67L531.729 146.898C532.217 147.023 532.649 147.068 533.024 147.034C533.399 147 533.732 146.832 534.021 146.531C534.317 146.236 534.587 145.756 534.831 145.091L535.206 144.068L530.365 130.909H532.547L536.161 141.341H536.297L539.911 130.909H542.092L536.536 145.909C536.286 146.585 535.976 147.145 535.607 147.588C535.237 148.037 534.808 148.369 534.32 148.585C533.837 148.801 533.291 148.909 532.683 148.909Z" fill="black" />
    <path d="M516 205.18L525.16 196L516 186.82L518.82 184L530.82 196L518.82 208L516 205.18Z" fill="#FFD037" />
    <path d="M644.887 659.424C640.855 660.264 636.031 662.113 635.557 666.482C635.003 671.356 640.618 674.213 645.125 675.222C662.127 679.171 679.683 679.675 697.159 680.18C789.522 682.532 881.886 682.953 974.251 681.356C972.907 669.34 959.461 664.129 948.312 661.86C900.39 652.113 850.808 657.659 803.757 647.323C754.174 636.315 693.837 648.752 644.887 659.424Z" fill="url(#paint0_linear_423_2538)" />
    <path d="M644.887 659.424C640.855 660.264 636.031 662.113 635.557 666.482C635.003 671.356 640.618 674.213 645.125 675.222C662.127 679.171 679.683 679.675 697.159 680.18C789.522 682.532 881.886 682.953 974.251 681.356C972.907 669.34 959.461 664.129 948.312 661.86C900.39 652.113 850.808 657.659 803.757 647.323C754.174 636.315 693.837 648.752 644.887 659.424Z" fill="url(#paint1_linear_423_2538)" />
    <path d="M896.429 580.265C897.457 579.929 898.564 580.265 899.592 580.602C904.1 582.198 908.528 584.299 912.482 587.072C914.459 588.417 916.436 589.929 917.385 592.198C918.255 594.299 918.176 596.652 918.018 598.837C916.594 625.895 915.249 653.037 913.826 680.096C913.747 681.86 913.51 683.793 912.245 684.886C910.663 686.146 908.449 685.306 906.709 684.465C889.707 676.566 872.785 668.583 855.783 660.684C847.638 656.903 839.255 652.869 833.245 645.894C837.832 635.138 847.48 627.996 856.336 620.769C870.096 609.508 882.749 596.568 893.899 582.45C894.532 581.61 895.322 580.601 896.429 580.265Z" fill="#DDC199" />
    <path d="M976.537 440.855C972.345 439.847 968.073 438.838 963.883 437.83C939.211 485.98 917.385 535.812 898.564 586.904C902.914 589.845 908.686 592.87 912.877 589.677C914.617 588.332 915.646 586.147 916.594 584.047C937.946 536.988 957.952 489.258 976.537 440.855Z" fill="#BDB39B" />
    <g opacity="0.26">
        <path opacity="0.26" d="M898.789 675.137C898.71 676.062 900.055 676.398 900.213 675.474C903.613 648.163 908.436 621.357 914.684 594.634C915.079 592.954 912.628 592.449 912.232 594.13C905.748 620.6 901.241 647.827 898.789 675.137Z" fill="#272525" />
        <path opacity="0.26" d="M871.996 663.121C882.434 639.76 893.505 616.735 905.209 594.046C905.92 592.701 903.864 591.609 903.153 592.954C890.974 615.811 879.982 639.34 869.939 663.289C870.097 663.457 870.176 663.625 870.255 663.793C870.809 663.373 871.363 663.205 871.996 663.121Z" fill="#272525" />
        <path opacity="0.26" d="M854.982 647.742C872.458 630.263 888.037 610.852 901.638 589.843C902.508 588.415 900.294 587.238 899.424 588.667C886.06 609.591 870.719 628.919 853.559 646.397C852.689 647.321 854.112 648.666 854.982 647.742Z" fill="#272525" />
    </g>
    <path d="M733.765 604.214C733.845 602.954 734.003 601.609 734.081 600.348C723.643 592.785 705.297 595.222 694.226 599.088C682.364 603.205 682.364 610.936 682.522 624.045C682.601 631.44 683.234 639.76 688.611 644.549C692.723 648.247 698.496 648.751 703.874 649.087C708.697 649.423 713.442 649.675 718.266 650.011C721.587 650.179 725.304 650.263 727.913 647.994C730.523 645.642 730.918 641.692 731.235 638.078C732.104 626.734 732.974 615.474 733.765 604.214Z" fill="#2F3F47" />
    <path d="M746.506 604.214C746.427 602.954 746.269 601.609 746.189 600.348C756.628 592.785 774.974 595.222 786.045 599.088C797.907 603.205 797.907 610.936 797.749 624.045C797.67 631.44 797.037 639.76 791.659 644.549C787.547 648.247 781.775 648.751 776.397 649.087C771.574 649.423 766.829 649.675 762.005 650.011C758.684 650.179 754.967 650.263 752.358 647.994C749.748 645.642 749.353 641.692 749.037 638.078C748.246 626.734 747.376 615.474 746.506 604.214Z" fill="#2F3F47" />
    <path d="M657.448 576.148C654.838 576.735 652.308 577.576 649.856 578.668C648.037 579.424 646.219 580.433 644.953 581.945C643.214 584.13 642.739 587.156 642.423 590.097C642.028 593.963 641.869 597.828 641.949 601.693C641.949 604.97 642.186 608.332 643.768 611.105C645.982 614.971 650.331 616.735 654.443 617.827C662.272 619.929 670.417 620.432 678.483 620.853C727.274 623.374 776.224 621.692 824.778 615.895C826.755 615.643 828.969 615.307 830.313 613.71C831.104 612.786 831.5 611.525 831.895 610.348C834.425 601.777 836.086 590.097 830.63 582.114C825.964 575.307 817.345 579.172 810.861 579.088C804.218 579.004 797.496 578.416 790.853 578.164C777.884 577.576 764.916 576.987 751.947 576.567C733.68 575.895 715.334 575.307 697.066 574.803C684.73 574.551 670.18 573.122 657.448 576.148Z" fill="#516770" />
    <path d="M762.308 391.695C795.442 391.863 828.497 392.62 861.631 393.376C860.84 374.637 859.575 355.897 855.779 337.578C849.215 305.478 834.191 274.134 808.806 255.395C769.9 226.656 708.14 230.437 666.228 258.84C648.593 270.772 634.439 287.159 627.005 307.242C618.465 330.183 616.171 355.225 614.827 379.847C614.668 383.124 614.511 386.317 614.353 389.594C663.539 387.577 713.042 391.527 762.308 391.695Z" fill="#EAF1F2" />
    <path d="M759.657 401.108C711.103 401.024 662.39 397.327 613.836 399.175C611.464 455.141 613.678 511.359 620.479 566.989C621.428 574.636 622.614 582.618 627.359 588.668C634.713 597.996 647.445 593.878 657.33 593.878C674.015 593.878 691.175 594.635 708.019 595.055C739.809 595.811 771.361 595.895 802.992 592.114C818.017 590.35 848.383 595.223 855.579 580.854C861.51 569.173 859.059 545.476 859.929 532.451C860.957 516.989 861.748 501.611 862.222 486.149C863.092 458.334 862.934 430.519 861.905 402.62C827.902 401.948 793.74 401.108 759.657 401.108Z" fill="#E2ECED" />
    <path d="M874.329 491.696C874.962 491.107 875.041 490.099 875.12 489.259C876.78 465.982 878.204 442.704 879.232 419.427C879.311 417.41 879.311 415.058 877.808 413.713C876.701 412.789 875.278 412.705 873.854 412.705C868.951 412.621 864.128 412.537 859.225 412.537C856.141 439.007 854.876 465.645 855.508 492.284C860.965 492.284 866.342 492.368 871.798 492.368C872.668 492.368 873.617 492.368 874.329 491.696Z" fill="#2F3F47" />
    <path d="M899.535 545.309C900.168 543.377 900.88 541.36 902.303 539.931C903.41 538.839 904.912 538.167 906.336 537.662C912.504 535.309 918.83 533.545 925.236 532.368C930.218 535.982 934.725 540.268 938.6 545.225C939.312 546.15 940.023 547.158 940.182 548.335C940.34 549.259 940.103 550.183 939.865 551.108C937.335 561.444 934.883 571.78 932.353 582.116C928.636 582.62 924.92 582.704 921.282 582.2C922.705 575.897 924.129 569.595 925.473 563.376C926.818 557.41 927.846 550.099 923.576 545.898C919.226 547.074 914.956 548.335 910.606 549.511C909.895 549.679 909.104 549.931 908.471 550.435C907.76 551.108 907.443 552.116 907.127 553.04C905.308 558.923 903.964 564.973 903.015 571.108C900.247 570.267 897.479 569.51 894.712 568.67C894.474 560.687 897.005 552.873 899.535 545.309Z" fill="#2F3F47" />
    <path d="M933.143 536.234C933.38 535.982 933.459 535.647 933.538 535.394C934.329 531.613 935.12 527.831 935.99 524.133C930.454 522.789 924.761 521.864 919.146 521.36C918.276 524.47 917.723 527.747 917.486 531.024C917.406 531.697 917.406 532.537 917.881 533.041C918.197 533.377 918.593 533.461 918.988 533.63C923.179 534.974 927.529 535.982 931.957 536.57C932.273 536.486 932.747 536.571 933.143 536.234Z" fill="#516770" />
    <path d="M938.687 521.53C942.008 515.563 939.32 499.849 939.32 493.547C939.241 484.891 939.241 476.152 937.342 467.749C935.445 459.345 931.57 451.11 925.164 445.816C921.527 442.791 917.256 440.859 912.828 439.262C899.622 434.472 885.467 432.876 871.628 434.64C870.521 434.808 869.335 434.976 868.544 435.817C867.674 436.657 867.516 438.001 867.358 439.262C866.725 444.052 865.856 449.346 866.093 454.219C866.488 462.791 864.828 460.438 870.68 462.875C875.187 464.724 883.648 463.211 888.788 464.472C894.798 465.9 900.65 468.085 906.502 470.27C910.218 471.614 914.172 473.295 916.07 476.908C917.098 478.841 917.415 481.194 917.652 483.463C919.075 496.909 919.708 510.437 919.629 523.967C919.629 526.319 935.919 525.143 938.054 522.538C938.291 522.202 938.45 521.866 938.687 521.53Z" fill="#E2ECED" />
    <g opacity="0.15">
        <path opacity="0.15" d="M911.002 443.128C910.528 451.195 908.551 458.506 905.546 465.901C904.993 467.329 906.653 468.422 907.523 467.162C912.267 460.103 914.719 451.699 915.589 443.128C915.906 440.103 911.24 440.018 911.002 443.128Z" fill="#272525" />
        <path opacity="0.15" d="M923.105 448.925C921.761 456.741 918.44 461.867 913.221 467.413C912.509 468.169 913.457 469.429 914.248 468.841C917.807 466.488 921.128 464.976 923.658 461.195C926.031 457.665 927.612 453.883 928.087 449.598C928.403 446.657 923.659 445.984 923.105 448.925Z" fill="#272525" />
    </g>
    <path d="M606.075 413.209C605.442 413.797 605.364 414.806 605.284 415.646C603.624 438.923 602.2 462.2 601.172 485.477C601.093 487.494 601.093 489.847 602.596 491.191C603.703 492.116 605.126 492.2 606.549 492.2C611.452 492.284 616.276 492.368 621.179 492.368C624.263 465.898 625.528 439.259 624.896 412.621C619.439 412.621 614.062 412.537 608.606 412.537C607.736 412.537 606.708 412.537 606.075 413.209Z" fill="#2F3F47" />
    <path d="M544.78 384.554C545.017 386.571 545.254 388.755 544.542 390.604C543.989 392.116 542.961 393.377 541.854 394.554C537.346 399.511 532.444 404.134 527.145 408.251C521.135 407.411 515.284 405.646 509.827 403.041C508.799 402.537 507.692 402.033 507.059 401.024C506.585 400.268 506.348 399.343 506.189 398.419C504.133 387.999 501.998 377.495 499.942 367.075C503.026 364.89 506.348 363.041 509.827 361.696C511.172 367.999 512.595 374.301 513.939 380.604C515.283 386.57 517.418 393.629 522.954 395.31C526.354 392.201 529.676 389.091 533.076 385.982C533.63 385.478 534.262 384.89 534.579 384.134C534.974 383.209 534.816 382.116 534.657 381.108C533.788 374.974 532.522 368.924 530.783 362.957C533.63 362.369 536.397 361.781 539.244 361.192C542.882 368.335 543.831 376.57 544.78 384.554Z" fill="#2F3F47" />
    <path d="M518.509 408.503C518.43 408.839 518.509 409.176 518.509 409.428C519.379 413.209 520.249 416.906 521.039 420.688C526.575 419.259 532.031 417.411 537.329 415.226C536.855 412.032 535.985 408.839 534.799 405.814C534.562 405.142 534.246 404.469 533.613 404.217C533.218 404.049 532.822 404.133 532.347 404.217C527.998 404.974 523.728 406.15 519.537 407.663C519.141 407.831 518.667 408.083 518.509 408.503Z" fill="#516770" />
    <path d="M519.714 424.303C519.16 431.193 528.175 443.966 530.864 449.68C534.501 457.412 538.218 465.227 543.437 471.865C548.657 478.504 555.536 484.05 563.523 485.73C568.031 486.739 572.696 486.487 577.283 485.815C591.122 483.882 604.486 478.672 616.11 470.521C617.059 469.848 618.008 469.176 618.404 468C618.799 466.823 618.404 465.563 618.087 464.302C616.585 459.681 615.24 454.555 612.947 450.269C608.993 442.79 611.524 444.134 605.197 444.638C600.374 445.059 593.415 450.437 588.275 451.782C582.265 453.378 576.097 454.134 570.008 454.975C566.133 455.479 561.863 455.899 558.62 453.546C556.88 452.286 555.615 450.353 554.508 448.42C547.628 437.075 541.381 425.227 535.767 413.043C534.818 410.942 520.742 419.681 519.872 423.042C519.793 423.546 519.714 423.883 519.714 424.303Z" fill="#E2ECED" />
    <g opacity="0.15">
        <path opacity="0.15" d="M577.187 481.442C574.261 473.963 572.996 466.484 572.521 458.417C572.442 456.821 570.465 456.653 570.228 458.25C568.962 466.821 570.228 475.476 573.075 483.543C574.103 486.484 578.373 484.299 577.187 481.442Z" fill="#272525" />
        <path opacity="0.15" d="M563.995 482.031C561.939 474.384 562.73 468.25 565.102 460.771C565.419 459.763 564.074 459.09 563.521 459.93C561.386 463.712 559.013 466.653 558.302 471.191C557.669 475.476 557.827 479.594 559.251 483.627C560.2 486.568 564.707 484.888 563.995 482.031Z" fill="#272525" />
    </g>
    <path d="M636.436 336.739C636.514 339.932 636.672 343.209 637.938 346.151C641.18 353.461 649.72 355.814 657.233 357.159C700.172 364.805 744.061 367.411 787.238 361.612C792.931 360.856 798.625 359.932 803.844 357.411C809.064 354.89 813.729 350.604 815.627 344.974C816.813 341.36 816.892 337.495 816.971 333.63C817.05 329.764 817.05 325.815 817.129 321.949C817.129 320.185 817.129 318.42 816.497 316.739C815.785 314.974 814.362 313.546 812.859 312.453C807.166 308.336 799.969 307.411 793.09 306.655C747.383 301.781 701.122 297.496 655.652 304.05C653.754 304.302 651.776 304.638 650.432 306.067C649.72 306.739 649.246 307.664 648.534 308.336C647.19 309.428 645.371 309.344 643.79 309.932C639.361 311.445 637.78 317.244 637.226 322.202C636.594 326.991 636.356 331.865 636.436 336.739Z" fill="#2F3F47" />
    <path opacity="0.2" d="M693.679 343.796C695.182 340.855 695.419 337.41 695.103 334.049C694.945 332.032 694.47 329.932 693.284 328.419C690.753 325.226 686.088 325.562 682.213 324.806C678.813 326.318 675.965 329.259 674.542 332.873C673.672 335.057 673.277 337.41 673.514 339.763C674.068 344.553 677.785 348.671 682.213 349.511C686.72 350.52 691.544 348.082 693.679 343.796Z" fill="#EAF1F2" />
    <path opacity="0.2" d="M768.983 343.796C770.485 340.855 770.723 337.41 770.406 334.049C770.248 332.032 769.774 329.932 768.587 328.419C766.057 325.226 761.392 325.562 757.517 324.806C754.116 326.318 751.269 329.259 749.846 332.873C748.976 335.057 748.581 337.41 748.818 339.763C749.371 344.553 753.088 348.671 757.517 349.511C761.945 350.52 766.768 348.082 768.983 343.796Z" fill="#EAF1F2" />
    <defs>
        <linearGradient id="paint0_linear_423_2538" x1="635.571" y1="662.658" x2="974.341" y2="662.658" gradientUnits="userSpaceOnUse">
            <stop stop-color="#4D4D4D" />
            <stop offset="1" />
        </linearGradient>
        <linearGradient id="paint1_linear_423_2538" x1="635.571" y1="662.658" x2="974.341" y2="662.658" gradientUnits="userSpaceOnUse">
            <stop />
            <stop offset="1" />
        </linearGradient>
    </defs>
</svg>