<svg width="994" height="721" viewBox="0 0 994 721" fill="none" xmlns="http://www.w3.org/2000/svg">
<path d="M332.113 694.424C336.145 695.264 340.969 697.113 341.443 701.482C341.997 706.356 336.382 709.213 331.875 710.222C314.873 714.171 297.317 714.675 279.841 715.18C187.478 717.532 95.114 717.953 2.74878 716.356C4.09277 704.34 17.5386 699.129 28.6884 696.86C76.6101 687.113 126.192 692.659 173.243 682.323C222.826 671.315 283.163 683.752 332.113 694.424Z" fill="url(#paint0_linear_432_2542)"/>
<path d="M332.113 694.424C336.145 695.264 340.969 697.113 341.443 701.482C341.997 706.356 336.382 709.213 331.875 710.222C314.873 714.171 297.317 714.675 279.841 715.18C187.478 717.532 95.114 717.953 2.74878 716.356C4.09277 704.34 17.5386 699.129 28.6884 696.86C76.6101 687.113 126.192 692.659 173.243 682.323C222.826 671.315 283.163 683.752 332.113 694.424Z" fill="url(#paint1_linear_432_2542)"/>
<path d="M80.5713 615.265C79.5433 614.929 78.436 615.265 77.408 615.602C72.9003 617.198 68.4718 619.299 64.5182 622.072C62.5409 623.417 60.564 624.929 59.6152 627.198C58.7452 629.299 58.8244 631.652 58.9824 633.837C60.4061 660.895 61.7505 688.037 63.1737 715.096C63.2529 716.86 63.4901 718.793 64.7554 719.886C66.337 721.146 68.551 720.306 70.2906 719.465C87.2926 711.566 104.215 703.583 121.217 695.684C129.362 691.903 137.745 687.869 143.755 680.894C139.168 670.138 129.52 662.996 120.664 655.769C106.904 644.508 94.2515 631.568 83.1012 617.45C82.4684 616.61 81.6781 615.601 80.5713 615.265Z" fill="#DDC199"/>
<path d="M0.462624 475.855C4.65487 474.847 8.92729 473.838 13.1167 472.83C37.7892 520.98 59.6148 570.812 78.4355 621.904C74.0863 624.845 68.3138 627.87 64.1225 624.677C62.3829 623.332 61.3544 621.147 60.4056 619.047C39.0544 571.988 19.0476 524.258 0.462624 475.855Z" fill="#BDB39B"/>
<g opacity="0.26">
<path opacity="0.26" d="M78.2105 710.137C78.2897 711.062 76.9453 711.398 76.7873 710.474C73.3868 683.163 68.5636 656.357 62.3163 629.634C61.9211 627.954 64.3723 627.449 64.7675 629.13C71.252 655.6 75.7593 682.827 78.2105 710.137Z" fill="#272525"/>
<path opacity="0.26" d="M105.004 698.121C94.5663 674.76 83.4953 651.735 71.7914 629.046C71.0798 627.701 73.1359 626.609 73.8475 627.954C86.0258 650.811 97.0175 674.34 107.061 698.289C106.903 698.457 106.824 698.625 106.745 698.793C106.191 698.373 105.637 698.205 105.004 698.121Z" fill="#272525"/>
<path opacity="0.26" d="M122.018 682.742C104.542 665.263 88.9631 645.852 75.3617 624.843C74.4916 623.415 76.7061 622.238 77.5762 623.667C90.9404 644.591 106.281 663.919 123.441 681.397C124.311 682.321 122.888 683.666 122.018 682.742Z" fill="#272525"/>
</g>
<path d="M243.235 639.214C243.155 637.954 242.997 636.609 242.919 635.348C253.357 627.785 271.703 630.222 282.774 634.088C294.636 638.205 294.636 645.936 294.478 659.045C294.399 666.44 293.766 674.76 288.389 679.549C284.277 683.247 278.504 683.751 273.126 684.087C268.303 684.423 263.558 684.675 258.734 685.011C255.413 685.179 251.696 685.263 249.087 682.994C246.477 680.642 246.082 676.692 245.765 673.078C244.896 661.734 244.026 650.474 243.235 639.214Z" fill="#2F3F47"/>
<path d="M230.494 639.214C230.573 637.954 230.731 636.609 230.811 635.348C220.372 627.785 202.026 630.222 190.955 634.088C179.093 638.205 179.093 645.936 179.251 659.045C179.33 666.44 179.963 674.76 185.341 679.549C189.453 683.247 195.225 683.751 200.603 684.087C205.426 684.423 210.171 684.675 214.995 685.011C218.316 685.179 222.033 685.263 224.642 682.994C227.252 680.642 227.647 676.692 227.963 673.078C228.754 661.734 229.624 650.474 230.494 639.214Z" fill="#2F3F47"/>
<path d="M319.552 611.148C322.162 611.735 324.692 612.576 327.144 613.668C328.963 614.424 330.781 615.433 332.047 616.945C333.786 619.13 334.261 622.156 334.577 625.097C334.972 628.963 335.131 632.828 335.051 636.693C335.051 639.97 334.814 643.332 333.232 646.105C331.018 649.971 326.669 651.735 322.557 652.827C314.728 654.929 306.583 655.432 298.517 655.853C249.726 658.374 200.776 656.692 152.222 650.895C150.245 650.643 148.031 650.307 146.687 648.71C145.896 647.786 145.5 646.525 145.105 645.348C142.575 636.777 140.914 625.097 146.37 617.114C151.036 610.307 159.655 614.172 166.139 614.088C172.782 614.004 179.504 613.416 186.147 613.164C199.116 612.576 212.084 611.987 225.053 611.567C243.32 610.895 261.666 610.307 279.934 609.803C292.27 609.551 306.82 608.122 319.552 611.148Z" fill="#516770"/>
<path d="M214.692 426.695C181.558 426.863 148.503 427.62 115.369 428.376C116.16 409.637 117.425 390.897 121.221 372.578C127.785 340.478 142.809 309.134 168.194 290.395C207.1 261.656 268.86 265.437 310.772 293.84C328.407 305.772 342.561 322.159 349.995 342.242C358.535 365.183 360.829 390.225 362.173 414.847C362.332 418.124 362.489 421.317 362.647 424.594C313.461 422.577 263.958 426.527 214.692 426.695Z" fill="#EAF1F2"/>
<path d="M217.343 436.108C265.897 436.024 314.61 432.327 363.164 434.175C365.536 490.141 363.322 546.359 356.521 601.989C355.572 609.636 354.386 617.618 349.641 623.668C342.287 632.996 329.555 628.878 319.67 628.878C302.985 628.878 285.825 629.635 268.981 630.055C237.191 630.811 205.639 630.895 174.008 627.114C158.983 625.35 128.617 630.223 121.421 615.854C115.49 604.173 117.941 580.476 117.071 567.451C116.043 551.989 115.252 536.611 114.778 521.149C113.908 493.334 114.066 465.519 115.095 437.62C149.098 436.948 183.26 436.108 217.343 436.108Z" fill="#E2ECED"/>
<path d="M102.671 526.696C102.038 526.107 101.959 525.099 101.88 524.259C100.22 500.982 98.7963 477.704 97.7683 454.427C97.6891 452.41 97.6891 450.058 99.1915 448.713C100.299 447.789 101.722 447.705 103.146 447.705C108.049 447.621 112.872 447.537 117.775 447.537C120.859 474.007 122.124 500.645 121.492 527.284C116.035 527.284 110.658 527.368 105.202 527.368C104.332 527.368 103.383 527.368 102.671 526.696Z" fill="#2F3F47"/>
<path d="M77.4645 580.309C76.8322 578.377 76.1201 576.36 74.6969 574.931C73.5896 573.839 72.0877 573.167 70.664 572.662C64.4959 570.309 58.1698 568.545 51.764 567.368C46.7824 570.982 42.2746 575.268 38.3998 580.225C37.6882 581.15 36.9766 582.158 36.8181 583.335C36.6602 584.259 36.8974 585.183 37.1346 586.108C39.665 596.444 42.1167 606.78 44.6471 617.116C48.3635 617.62 52.0804 617.704 55.7181 617.2C54.2949 610.897 52.8713 604.595 51.5268 598.376C50.1824 592.41 49.1544 585.099 53.4244 580.898C57.7737 582.074 62.0442 583.335 66.3935 584.511C67.1051 584.679 67.8964 584.931 68.5287 585.435C69.2403 586.108 69.5568 587.116 69.8732 588.04C71.692 593.923 73.0365 599.973 73.9853 606.108C76.7529 605.267 79.5205 604.51 82.2882 603.67C82.5259 595.687 79.9954 587.873 77.4645 580.309Z" fill="#2F3F47"/>
<path d="M43.8569 571.234C43.6197 570.982 43.541 570.647 43.4617 570.394C42.6709 566.613 41.8801 562.831 41.0101 559.133C46.5458 557.789 52.2391 556.864 57.8536 556.36C58.7236 559.47 59.2772 562.747 59.5144 566.024C59.5936 566.697 59.5936 567.537 59.1192 568.041C58.8028 568.377 58.4072 568.461 58.012 568.63C53.8207 569.974 49.4714 570.982 45.0429 571.57C44.7265 571.486 44.2526 571.571 43.8569 571.234Z" fill="#516770"/>
<path d="M38.3131 556.53C34.9919 550.563 37.6803 534.849 37.6803 528.547C37.7595 519.891 37.7595 511.152 39.6575 502.749C41.5551 494.345 45.4305 486.11 51.8358 480.816C55.4735 477.791 59.7435 475.859 64.172 474.262C77.3783 469.472 91.5329 467.876 105.372 469.64C106.479 469.808 107.665 469.976 108.456 470.817C109.326 471.657 109.484 473.001 109.642 474.262C110.275 479.052 111.144 484.346 110.907 489.219C110.512 497.791 112.172 495.438 106.32 497.875C101.813 499.724 93.3518 498.211 88.2117 499.472C82.2015 500.9 76.3498 503.085 70.4981 505.27C66.7817 506.614 62.8276 508.295 60.9295 511.908C59.9015 513.841 59.5851 516.194 59.3479 518.463C57.9247 531.909 57.2918 545.437 57.3711 558.967C57.3711 561.319 41.0812 560.143 38.946 557.538C38.7088 557.202 38.5503 556.866 38.3131 556.53Z" fill="#E2ECED"/>
<g opacity="0.15">
<path opacity="0.15" d="M65.9978 478.128C66.4722 486.195 68.449 493.506 71.4538 500.901C72.0075 502.329 70.3471 503.422 69.477 502.162C64.7326 495.103 62.2809 486.699 61.4109 478.128C61.0944 475.103 65.7601 475.018 65.9978 478.128Z" fill="#272525"/>
<path opacity="0.15" d="M53.8948 483.925C55.2388 491.741 58.5601 496.867 63.7794 502.413C64.491 503.169 63.5427 504.429 62.7518 503.841C59.1934 501.488 55.8721 499.976 53.3417 496.195C50.9692 492.665 49.3876 488.883 48.9132 484.598C48.5968 481.657 53.3412 480.984 53.8948 483.925Z" fill="#272525"/>
</g>
<path d="M370.925 448.209C371.558 448.797 371.636 449.806 371.716 450.646C373.376 473.923 374.8 497.2 375.828 520.477C375.907 522.494 375.907 524.847 374.404 526.191C373.297 527.116 371.874 527.2 370.451 527.2C365.548 527.284 360.724 527.368 355.821 527.368C352.737 500.898 351.472 474.259 352.104 447.621C357.561 447.621 362.938 447.537 368.394 447.537C369.264 447.537 370.292 447.537 370.925 448.209Z" fill="#2F3F47"/>
<path d="M432.22 419.554C431.983 421.571 431.746 423.755 432.458 425.604C433.011 427.116 434.039 428.377 435.146 429.554C439.654 434.511 444.556 439.134 449.855 443.251C455.865 442.411 461.716 440.646 467.173 438.041C468.201 437.537 469.308 437.033 469.941 436.024C470.415 435.268 470.652 434.343 470.811 433.419C472.867 422.999 475.002 412.495 477.058 402.075C473.974 399.89 470.652 398.041 467.173 396.696C465.828 402.999 464.405 409.301 463.061 415.604C461.717 421.57 459.582 428.629 454.046 430.31C450.646 427.201 447.324 424.091 443.924 420.982C443.37 420.478 442.738 419.89 442.421 419.134C442.026 418.209 442.184 417.116 442.343 416.108C443.212 409.974 444.478 403.924 446.217 397.957C443.37 397.369 440.603 396.781 437.756 396.192C434.118 403.335 433.169 411.57 432.22 419.554Z" fill="#2F3F47"/>
<path d="M458.491 443.503C458.57 443.839 458.491 444.176 458.491 444.428C457.621 448.209 456.751 451.906 455.961 455.688C450.425 454.259 444.969 452.411 439.671 450.226C440.145 447.032 441.015 443.839 442.201 440.814C442.438 440.142 442.754 439.469 443.387 439.217C443.782 439.049 444.178 439.133 444.653 439.217C449.002 439.974 453.272 441.15 457.463 442.663C457.859 442.831 458.333 443.083 458.491 443.503Z" fill="#516770"/>
<path d="M457.286 459.303C457.84 466.193 448.825 478.966 446.136 484.68C442.499 492.412 438.782 500.227 433.563 506.865C428.343 513.504 421.464 519.05 413.477 520.73C408.969 521.739 404.304 521.487 399.717 520.815C385.878 518.882 372.514 513.672 360.89 505.521C359.941 504.848 358.992 504.176 358.596 503C358.201 501.823 358.596 500.563 358.913 499.302C360.415 494.681 361.76 489.555 364.053 485.269C368.007 477.79 365.476 479.134 371.803 479.638C376.626 480.059 383.585 485.437 388.725 486.782C394.735 488.378 400.903 489.134 406.992 489.975C410.867 490.479 415.137 490.899 418.38 488.546C420.12 487.286 421.385 485.353 422.492 483.42C429.372 472.075 435.619 460.227 441.233 448.043C442.182 445.942 456.258 454.681 457.128 458.042C457.207 458.546 457.286 458.883 457.286 459.303Z" fill="#E2ECED"/>
<g opacity="0.15">
<path opacity="0.15" d="M399.813 516.442C402.739 508.963 404.004 501.484 404.479 493.417C404.558 491.821 406.535 491.653 406.772 493.25C408.038 501.821 406.772 510.476 403.925 518.543C402.897 521.484 398.627 519.299 399.813 516.442Z" fill="#272525"/>
<path opacity="0.15" d="M413.005 517.031C415.061 509.384 414.27 503.25 411.898 495.771C411.581 494.763 412.926 494.09 413.479 494.93C415.614 498.712 417.987 501.653 418.698 506.191C419.331 510.476 419.173 514.594 417.749 518.627C416.8 521.568 412.293 519.888 413.005 517.031Z" fill="#272525"/>
</g>
<path d="M340.564 371.739C340.486 374.932 340.328 378.209 339.062 381.151C335.82 388.461 327.28 390.814 319.767 392.159C276.828 399.805 232.939 402.411 189.762 396.612C184.069 395.856 178.375 394.932 173.156 392.411C167.936 389.89 163.271 385.604 161.373 379.974C160.187 376.36 160.108 372.495 160.029 368.63C159.95 364.764 159.95 360.815 159.871 356.949C159.871 355.185 159.871 353.42 160.503 351.739C161.215 349.974 162.638 348.546 164.141 347.453C169.834 343.336 177.031 342.411 183.91 341.655C229.617 336.781 275.878 332.496 321.348 339.05C323.246 339.302 325.224 339.638 326.568 341.067C327.28 341.739 327.754 342.664 328.466 343.336C329.81 344.428 331.629 344.344 333.21 344.932C337.639 346.445 339.22 352.244 339.774 357.202C340.406 361.991 340.644 366.865 340.564 371.739Z" fill="#2F3F47"/>
<path opacity="0.2" d="M283.321 378.796C281.818 375.855 281.581 372.41 281.897 369.049C282.055 367.032 282.53 364.932 283.716 363.419C286.247 360.226 290.912 360.562 294.787 359.806C298.187 361.318 301.035 364.259 302.458 367.873C303.328 370.057 303.723 372.41 303.486 374.763C302.932 379.553 299.215 383.671 294.787 384.511C290.28 385.52 285.456 383.082 283.321 378.796Z" fill="#EAF1F2"/>
<path opacity="0.2" d="M208.017 378.796C206.515 375.855 206.277 372.41 206.594 369.049C206.752 367.032 207.226 364.932 208.413 363.419C210.943 360.226 215.608 360.562 219.483 359.806C222.884 361.318 225.731 364.259 227.154 367.873C228.024 370.057 228.419 372.41 228.182 374.763C227.629 379.553 223.912 383.671 219.483 384.511C215.055 385.52 210.232 383.082 208.017 378.796Z" fill="#EAF1F2"/>
<path d="M475.648 301C475.462 301 475.277 300.996 475.09 300.987C472.909 300.894 470.779 300.185 468.882 298.919C466.985 297.654 465.377 295.87 464.194 293.718C455.334 278.187 444.461 264.373 431.968 252.775C424.405 245.685 416.502 239.093 408.86 232.717C389.143 216.274 370.575 200.788 360.268 179.389C337.796 132.729 364.261 67.7384 402.068 38.5923C444.474 5.90327 500.252 0.77573 554.211 0.103761C559.819 0.0342062 565.43 -0.000362368 571.045 2.86387e-06C668.268 0.0437266 765.287 10.4486 860.904 31.0862C892.7 37.9664 925.981 46.3949 952.726 66.8494C979.311 87.1829 995.471 119.203 993.894 148.427C991.593 191.09 953.034 222.968 917.922 231.302C884.456 239.24 849.689 233.876 812.883 228.195C804.757 226.942 796.356 225.645 788.048 224.518C697.755 212.277 528.133 250.007 520.957 251.62L513.838 253.218L486.214 294.913C484.971 296.813 483.371 298.351 481.538 299.407C479.706 300.463 477.69 301.008 475.648 301Z" fill="white"/>
<path d="M449.114 86V68.5455H459.648V70.4205H451.227V76.3182H459.102V78.1932H451.227V84.125H459.784V86H449.114ZM470.685 76.3352V78.2102H463.048V76.3352H470.685ZM476.448 86L471.675 68.5455H473.823L477.471 82.7614H477.641L481.357 68.5455H483.744L487.46 82.7614H487.63L491.278 68.5455H493.425L488.653 86H486.471L482.619 72.0909H482.482L478.63 86H476.448ZM500.056 86.2727C498.795 86.2727 497.707 85.9943 496.792 85.4375C495.883 84.875 495.181 84.0909 494.687 83.0852C494.198 82.0739 493.954 80.8977 493.954 79.5568C493.954 78.2159 494.198 77.0341 494.687 76.0114C495.181 74.983 495.869 74.1818 496.749 73.608C497.636 73.0284 498.67 72.7386 499.852 72.7386C500.533 72.7386 501.207 72.8523 501.871 73.0795C502.536 73.3068 503.141 73.6761 503.687 74.1875C504.232 74.6932 504.667 75.3636 504.991 76.1989C505.315 77.0341 505.477 78.0625 505.477 79.2841V80.1364H495.386V78.3977H503.431C503.431 77.6591 503.283 77 502.988 76.4205C502.698 75.8409 502.283 75.3835 501.744 75.0483C501.21 74.7131 500.579 74.5455 499.852 74.5455C499.05 74.5455 498.357 74.7443 497.772 75.142C497.192 75.5341 496.746 76.0455 496.434 76.6761C496.121 77.3068 495.965 77.983 495.965 78.7045V79.8636C495.965 80.8523 496.136 81.6903 496.477 82.3778C496.823 83.0597 497.303 83.5795 497.917 83.9375C498.531 84.2898 499.244 84.4659 500.056 84.4659C500.585 84.4659 501.062 84.392 501.488 84.2443C501.92 84.0909 502.292 83.8636 502.604 83.5625C502.917 83.2557 503.158 82.875 503.329 82.4205L505.272 82.9659C505.067 83.625 504.724 84.2045 504.241 84.7045C503.758 85.1989 503.161 85.5852 502.451 85.8636C501.741 86.1364 500.942 86.2727 500.056 86.2727ZM508.536 86V72.9091H510.479V74.8864H510.616C510.854 74.2386 511.286 73.7131 511.911 73.3097C512.536 72.9062 513.241 72.7045 514.025 72.7045C514.173 72.7045 514.357 72.7074 514.579 72.7131C514.8 72.7187 514.968 72.7273 515.082 72.7386V74.7841C515.013 74.767 514.857 74.7415 514.613 74.7074C514.374 74.6676 514.121 74.6477 513.854 74.6477C513.218 74.6477 512.65 74.7812 512.15 75.0483C511.656 75.3097 511.263 75.6733 510.974 76.1392C510.69 76.5994 510.548 77.125 510.548 77.7159V86H508.536ZM519.341 81.2273L519.307 78.7386H519.716L525.443 72.9091H527.932L521.83 79.0795H521.659L519.341 81.2273ZM517.466 86V68.5455H519.477V86H517.466ZM525.784 86L520.67 79.5227L522.102 78.125L528.341 86H525.784ZM547.975 72.9091L543.134 86H541.089L536.248 72.9091H538.43L542.043 83.3409H542.18L545.793 72.9091H547.975ZM555.65 86.2727C554.388 86.2727 553.3 85.9943 552.386 85.4375C551.477 84.875 550.775 84.0909 550.281 83.0852C549.792 82.0739 549.548 80.8977 549.548 79.5568C549.548 78.2159 549.792 77.0341 550.281 76.0114C550.775 74.983 551.462 74.1818 552.343 73.608C553.229 73.0284 554.263 72.7386 555.445 72.7386C556.127 72.7386 556.8 72.8523 557.465 73.0795C558.13 73.3068 558.735 73.6761 559.281 74.1875C559.826 74.6932 560.261 75.3636 560.585 76.1989C560.908 77.0341 561.07 78.0625 561.07 79.2841V80.1364H550.979V78.3977H559.025C559.025 77.6591 558.877 77 558.582 76.4205C558.292 75.8409 557.877 75.3835 557.337 75.0483C556.803 74.7131 556.173 74.5455 555.445 74.5455C554.644 74.5455 553.951 74.7443 553.366 75.142C552.786 75.5341 552.34 76.0455 552.028 76.6761C551.715 77.3068 551.559 77.983 551.559 78.7045V79.8636C551.559 80.8523 551.729 81.6903 552.07 82.3778C552.417 83.0597 552.897 83.5795 553.511 83.9375C554.124 84.2898 554.837 84.4659 555.65 84.4659C556.178 84.4659 556.656 84.392 557.082 84.2443C557.513 84.0909 557.886 83.8636 558.198 83.5625C558.511 83.2557 558.752 82.875 558.923 82.4205L560.866 82.9659C560.661 83.625 560.317 84.2045 559.835 84.7045C559.352 85.1989 558.755 85.5852 558.045 85.8636C557.335 86.1364 556.536 86.2727 555.65 86.2727ZM564.13 86V72.9091H566.073V74.8864H566.21C566.448 74.2386 566.88 73.7131 567.505 73.3097C568.13 72.9062 568.835 72.7045 569.619 72.7045C569.766 72.7045 569.951 72.7074 570.173 72.7131C570.394 72.7187 570.562 72.7273 570.675 72.7386V74.7841C570.607 74.767 570.451 74.7415 570.207 74.7074C569.968 74.6676 569.715 74.6477 569.448 74.6477C568.812 74.6477 568.244 74.7812 567.744 75.0483C567.249 75.3097 566.857 75.6733 566.567 76.1392C566.283 76.5994 566.141 77.125 566.141 77.7159V86H564.13ZM582.332 75.8409L580.526 76.3523C580.412 76.0511 580.244 75.7585 580.023 75.4744C579.807 75.1847 579.511 74.946 579.136 74.7585C578.761 74.571 578.281 74.4773 577.696 74.4773C576.895 74.4773 576.227 74.6619 575.693 75.0312C575.165 75.3949 574.901 75.858 574.901 76.4205C574.901 76.9205 575.082 77.3153 575.446 77.6051C575.81 77.8949 576.378 78.1364 577.151 78.3295L579.094 78.8068C580.264 79.0909 581.136 79.5256 581.71 80.1108C582.284 80.6903 582.571 81.4375 582.571 82.3523C582.571 83.1023 582.355 83.7727 581.923 84.3636C581.497 84.9545 580.901 85.4205 580.134 85.7614C579.366 86.1023 578.474 86.2727 577.457 86.2727C576.122 86.2727 575.017 85.983 574.142 85.4034C573.267 84.8239 572.713 83.9773 572.48 82.8636L574.389 82.3864C574.571 83.0909 574.915 83.6193 575.42 83.9716C575.932 84.3239 576.599 84.5 577.423 84.5C578.361 84.5 579.105 84.3011 579.656 83.9034C580.213 83.5 580.491 83.017 580.491 82.4545C580.491 82 580.332 81.6193 580.014 81.3125C579.696 81 579.207 80.767 578.548 80.6136L576.366 80.1023C575.168 79.8182 574.287 79.3778 573.724 78.7812C573.168 78.179 572.889 77.4261 572.889 76.5227C572.889 75.7841 573.097 75.1307 573.511 74.5625C573.932 73.9943 574.503 73.5483 575.224 73.2244C575.952 72.9006 576.776 72.7386 577.696 72.7386C578.991 72.7386 580.009 73.0227 580.747 73.5909C581.491 74.1591 582.02 74.9091 582.332 75.8409ZM593.849 80.6477V72.9091H595.86V86H593.849V83.7841H593.712C593.406 84.4489 592.928 85.0142 592.281 85.4801C591.633 85.9403 590.815 86.1705 589.826 86.1705C589.008 86.1705 588.281 85.9915 587.644 85.6335C587.008 85.2699 586.508 84.7244 586.144 83.9972C585.781 83.2642 585.599 82.3409 585.599 81.2273V72.9091H587.61V81.0909C587.61 82.0455 587.877 82.8068 588.411 83.375C588.951 83.9432 589.638 84.2273 590.474 84.2273C590.974 84.2273 591.482 84.0994 591.999 83.8438C592.522 83.5881 592.96 83.196 593.312 82.6676C593.67 82.1392 593.849 81.4659 593.849 80.6477ZM604.862 86.2727C603.635 86.2727 602.578 85.983 601.692 85.4034C600.805 84.8239 600.124 84.0256 599.646 83.0085C599.169 81.9915 598.93 80.8295 598.93 79.5227C598.93 78.1932 599.175 77.0199 599.663 76.0028C600.158 74.9801 600.845 74.1818 601.726 73.608C602.612 73.0284 603.646 72.7386 604.828 72.7386C605.749 72.7386 606.578 72.9091 607.317 73.25C608.055 73.5909 608.661 74.0682 609.132 74.6818C609.604 75.2955 609.896 76.0114 610.01 76.8295H607.999C607.845 76.233 607.504 75.7045 606.976 75.2443C606.453 74.7784 605.749 74.5455 604.862 74.5455C604.078 74.5455 603.391 74.75 602.8 75.1591C602.214 75.5625 601.757 76.1335 601.428 76.8722C601.104 77.6051 600.942 78.4659 600.942 79.4545C600.942 80.4659 601.101 81.3466 601.419 82.0966C601.743 82.8466 602.197 83.429 602.783 83.8438C603.374 84.2585 604.067 84.4659 604.862 84.4659C605.385 84.4659 605.859 84.375 606.286 84.1932C606.712 84.0114 607.072 83.75 607.368 83.4091C607.663 83.0682 607.874 82.6591 607.999 82.1818H610.01C609.896 82.9545 609.615 83.6506 609.166 84.2699C608.723 84.8835 608.135 85.3722 607.402 85.7358C606.675 86.0938 605.828 86.2727 604.862 86.2727ZM614.962 78.125V86H612.95V68.5455H614.962V74.9545H615.132C615.439 74.2784 615.899 73.7415 616.513 73.3438C617.132 72.9403 617.956 72.7386 618.984 72.7386C619.876 72.7386 620.658 72.9176 621.328 73.2756C621.999 73.6278 622.518 74.1705 622.888 74.9034C623.263 75.6307 623.45 76.5568 623.45 77.6818V86H621.439V77.8182C621.439 76.7784 621.169 75.9744 620.629 75.4062C620.095 74.8324 619.354 74.5455 618.405 74.5455C617.746 74.5455 617.155 74.6847 616.632 74.9631C616.115 75.2415 615.706 75.6477 615.405 76.1818C615.109 76.7159 614.962 77.3636 614.962 78.125ZM632.823 72.9091V74.6136H626.039V72.9091H632.823ZM628.016 69.7727H630.028V82.25C630.028 82.8182 630.11 83.2443 630.275 83.5284C630.445 83.8068 630.661 83.9943 630.923 84.0909C631.19 84.1818 631.471 84.2273 631.766 84.2273C631.988 84.2273 632.17 84.2159 632.312 84.1932C632.454 84.1648 632.567 84.142 632.653 84.125L633.062 85.9318C632.925 85.983 632.735 86.0341 632.491 86.0852C632.246 86.142 631.937 86.1705 631.562 86.1705C630.994 86.1705 630.437 86.0483 629.891 85.804C629.352 85.5597 628.903 85.1875 628.545 84.6875C628.192 84.1875 628.016 83.5568 628.016 82.7955V69.7727ZM647.542 86.2727C646.451 86.2727 645.488 85.9972 644.653 85.446C643.817 84.8892 643.164 84.1051 642.692 83.0938C642.221 82.0767 641.985 80.875 641.985 79.4886C641.985 78.1136 642.221 76.9205 642.692 75.9091C643.164 74.8977 643.82 74.1165 644.661 73.5653C645.502 73.0142 646.474 72.7386 647.576 72.7386C648.428 72.7386 649.102 72.8807 649.596 73.1648C650.096 73.4432 650.477 73.7614 650.738 74.1193C651.005 74.4716 651.212 74.7614 651.36 74.9886H651.531V68.5455H653.542V86H651.599V83.9886H651.36C651.212 84.2273 651.002 84.5284 650.729 84.892C650.457 85.25 650.067 85.571 649.562 85.8551C649.056 86.1335 648.383 86.2727 647.542 86.2727ZM647.815 84.4659C648.621 84.4659 649.303 84.2557 649.86 83.8352C650.417 83.4091 650.84 82.821 651.13 82.071C651.42 81.3153 651.565 80.4432 651.565 79.4545C651.565 78.4773 651.423 77.6222 651.138 76.8892C650.854 76.1506 650.434 75.5767 649.877 75.1676C649.32 74.7528 648.633 74.5455 647.815 74.5455C646.962 74.5455 646.252 74.7642 645.684 75.2017C645.121 75.6335 644.698 76.2216 644.414 76.9659C644.136 77.7045 643.996 78.5341 643.996 79.4545C643.996 80.3864 644.138 81.233 644.423 81.9943C644.712 82.75 645.138 83.3523 645.701 83.8011C646.269 84.2443 646.974 84.4659 647.815 84.4659ZM657.505 86V72.9091H659.516V86H657.505ZM658.528 70.7273C658.136 70.7273 657.798 70.5938 657.513 70.3267C657.235 70.0597 657.096 69.7386 657.096 69.3636C657.096 68.9886 657.235 68.6676 657.513 68.4006C657.798 68.1335 658.136 68 658.528 68C658.92 68 659.255 68.1335 659.533 68.4006C659.817 68.6676 659.96 68.9886 659.96 69.3636C659.96 69.7386 659.817 70.0597 659.533 70.3267C659.255 70.5938 658.92 70.7273 658.528 70.7273ZM668.689 86.2727C667.428 86.2727 666.339 85.9943 665.425 85.4375C664.516 84.875 663.814 84.0909 663.32 83.0852C662.831 82.0739 662.587 80.8977 662.587 79.5568C662.587 78.2159 662.831 77.0341 663.32 76.0114C663.814 74.983 664.501 74.1818 665.382 73.608C666.268 73.0284 667.303 72.7386 668.484 72.7386C669.166 72.7386 669.839 72.8523 670.504 73.0795C671.169 73.3068 671.774 73.6761 672.32 74.1875C672.865 74.6932 673.3 75.3636 673.624 76.1989C673.947 77.0341 674.109 78.0625 674.109 79.2841V80.1364H664.018V78.3977H672.064C672.064 77.6591 671.916 77 671.621 76.4205C671.331 75.8409 670.916 75.3835 670.376 75.0483C669.842 74.7131 669.212 74.5455 668.484 74.5455C667.683 74.5455 666.99 74.7443 666.405 75.142C665.825 75.5341 665.379 76.0455 665.067 76.6761C664.754 77.3068 664.598 77.983 664.598 78.7045V79.8636C664.598 80.8523 664.768 81.6903 665.109 82.3778C665.456 83.0597 665.936 83.5795 666.55 83.9375C667.163 84.2898 667.876 84.4659 668.689 84.4659C669.217 84.4659 669.695 84.392 670.121 84.2443C670.553 84.0909 670.925 83.8636 671.237 83.5625C671.55 83.2557 671.791 82.875 671.962 82.4205L673.905 82.9659C673.7 83.625 673.357 84.2045 672.874 84.7045C672.391 85.1989 671.794 85.5852 671.084 85.8636C670.374 86.1364 669.575 86.2727 668.689 86.2727ZM689.203 91.1818C688.232 91.1818 687.396 91.0568 686.697 90.8068C685.999 90.5625 685.416 90.2386 684.95 89.8352C684.49 89.4375 684.124 89.0114 683.851 88.5568L685.453 87.4318C685.635 87.6705 685.865 87.9432 686.143 88.25C686.422 88.5625 686.803 88.8324 687.286 89.0597C687.774 89.2926 688.413 89.4091 689.203 89.4091C690.26 89.4091 691.132 89.1534 691.82 88.642C692.507 88.1307 692.851 87.3295 692.851 86.2386V83.5795H692.68C692.533 83.8182 692.322 84.1136 692.05 84.4659C691.783 84.8125 691.396 85.1222 690.891 85.3949C690.391 85.6619 689.714 85.7955 688.862 85.7955C687.805 85.7955 686.857 85.5455 686.016 85.0455C685.18 84.5455 684.518 83.8182 684.03 82.8636C683.547 81.9091 683.305 80.75 683.305 79.3864C683.305 78.0455 683.541 76.8778 684.013 75.8835C684.484 74.8835 685.141 74.1108 685.982 73.5653C686.822 73.0142 687.794 72.7386 688.896 72.7386C689.749 72.7386 690.425 72.8807 690.925 73.1648C691.43 73.4432 691.817 73.7614 692.084 74.1193C692.357 74.4716 692.567 74.7614 692.714 74.9886H692.919V72.9091H694.862V86.375C694.862 87.5 694.607 88.4148 694.095 89.1193C693.589 89.8295 692.908 90.3494 692.05 90.679C691.197 91.0142 690.249 91.1818 689.203 91.1818ZM689.135 83.9886C689.942 83.9886 690.624 83.804 691.18 83.4347C691.737 83.0653 692.161 82.5341 692.45 81.8409C692.74 81.1477 692.885 80.3182 692.885 79.3523C692.885 78.4091 692.743 77.5767 692.459 76.8551C692.175 76.1335 691.754 75.5682 691.197 75.1591C690.641 74.75 689.953 74.5455 689.135 74.5455C688.283 74.5455 687.572 74.7614 687.004 75.1932C686.442 75.625 686.018 76.2045 685.734 76.9318C685.456 77.6591 685.317 78.4659 685.317 79.3523C685.317 80.2614 685.459 81.0653 685.743 81.7642C686.033 82.4574 686.459 83.0028 687.021 83.4006C687.589 83.7926 688.294 83.9886 689.135 83.9886ZM702.396 86.3068C701.567 86.3068 700.814 86.1506 700.138 85.8381C699.462 85.5199 698.925 85.0625 698.527 84.4659C698.129 83.8636 697.93 83.1364 697.93 82.2841C697.93 81.5341 698.078 80.9261 698.374 80.4602C698.669 79.9886 699.064 79.6193 699.558 79.3523C700.053 79.0852 700.598 78.8864 701.195 78.7557C701.797 78.6193 702.402 78.5114 703.01 78.4318C703.805 78.3295 704.45 78.2528 704.945 78.2017C705.445 78.1449 705.808 78.0511 706.036 77.9205C706.268 77.7898 706.385 77.5625 706.385 77.2386V77.1705C706.385 76.3295 706.155 75.6761 705.695 75.2102C705.24 74.7443 704.55 74.5114 703.624 74.5114C702.663 74.5114 701.911 74.7216 701.365 75.142C700.82 75.5625 700.436 76.0114 700.214 76.4886L698.305 75.8068C698.646 75.0114 699.101 74.392 699.669 73.9489C700.243 73.5 700.868 73.1875 701.544 73.0114C702.226 72.8295 702.896 72.7386 703.555 72.7386C703.976 72.7386 704.459 72.7898 705.004 72.892C705.555 72.9886 706.087 73.1903 706.598 73.4972C707.115 73.804 707.544 74.267 707.885 74.8864C708.226 75.5057 708.396 76.3352 708.396 77.375V86H706.385V84.2273H706.283C706.146 84.5114 705.919 84.8153 705.601 85.1392C705.283 85.4631 704.859 85.7386 704.331 85.9659C703.803 86.1932 703.158 86.3068 702.396 86.3068ZM702.703 84.5C703.499 84.5 704.169 84.3438 704.714 84.0312C705.266 83.7188 705.68 83.3153 705.959 82.821C706.243 82.3267 706.385 81.8068 706.385 81.2614V79.4205C706.3 79.5227 706.112 79.6165 705.822 79.7017C705.538 79.7812 705.209 79.8523 704.834 79.9148C704.464 79.9716 704.104 80.0227 703.751 80.0682C703.405 80.108 703.124 80.142 702.908 80.1705C702.385 80.2386 701.896 80.3494 701.442 80.5028C700.993 80.6506 700.629 80.875 700.351 81.1761C700.078 81.4716 699.942 81.875 699.942 82.3864C699.942 83.0852 700.2 83.6136 700.717 83.9716C701.24 84.3239 701.902 84.5 702.703 84.5ZM714.079 78.125V86H712.067V72.9091H714.011V74.9545H714.181C714.488 74.2898 714.954 73.7557 715.579 73.3523C716.204 72.9432 717.011 72.7386 717.999 72.7386C718.886 72.7386 719.661 72.9205 720.326 73.2841C720.991 73.642 721.508 74.1875 721.877 74.9205C722.246 75.6477 722.431 76.5682 722.431 77.6818V86H720.42V77.8182C720.42 76.7898 720.153 75.9886 719.619 75.4148C719.085 74.8352 718.352 74.5455 717.42 74.5455C716.778 74.5455 716.204 74.6847 715.698 74.9631C715.198 75.2415 714.803 75.6477 714.513 76.1818C714.224 76.7159 714.079 77.3636 714.079 78.125ZM725.732 86V84.4659L733.163 74.9205V74.7841H725.97V72.9091H735.754V74.5114L728.527 83.9886V84.125H735.993V86H725.732ZM744.205 86.2727C742.943 86.2727 741.855 85.9943 740.94 85.4375C740.031 84.875 739.33 84.0909 738.835 83.0852C738.347 82.0739 738.102 80.8977 738.102 79.5568C738.102 78.2159 738.347 77.0341 738.835 76.0114C739.33 74.983 740.017 74.1818 740.898 73.608C741.784 73.0284 742.818 72.7386 744 72.7386C744.682 72.7386 745.355 72.8523 746.02 73.0795C746.685 73.3068 747.29 73.6761 747.835 74.1875C748.381 74.6932 748.815 75.3636 749.139 76.1989C749.463 77.0341 749.625 78.0625 749.625 79.2841V80.1364H739.534V78.3977H747.58C747.58 77.6591 747.432 77 747.136 76.4205C746.847 75.8409 746.432 75.3835 745.892 75.0483C745.358 74.7131 744.727 74.5455 744 74.5455C743.199 74.5455 742.506 74.7443 741.92 75.142C741.341 75.5341 740.895 76.0455 740.582 76.6761C740.27 77.3068 740.114 77.983 740.114 78.7045V79.8636C740.114 80.8523 740.284 81.6903 740.625 82.3778C740.972 83.0597 741.452 83.5795 742.065 83.9375C742.679 84.2898 743.392 84.4659 744.205 84.4659C744.733 84.4659 745.21 84.392 745.636 84.2443C746.068 84.0909 746.44 83.8636 746.753 83.5625C747.065 83.2557 747.307 82.875 747.477 82.4205L749.42 82.9659C749.216 83.625 748.872 84.2045 748.389 84.7045C747.906 85.1989 747.31 85.5852 746.599 85.8636C745.889 86.1364 745.091 86.2727 744.205 86.2727ZM769.253 72.9091C769.151 72.0455 768.736 71.375 768.009 70.8977C767.281 70.4205 766.389 70.1818 765.332 70.1818C764.56 70.1818 763.884 70.3068 763.304 70.5568C762.73 70.8068 762.281 71.1506 761.957 71.5881C761.639 72.0256 761.48 72.5227 761.48 73.0795C761.48 73.5455 761.591 73.946 761.812 74.2812C762.04 74.6108 762.33 74.8864 762.682 75.108C763.034 75.3239 763.403 75.5028 763.79 75.6449C764.176 75.7812 764.531 75.892 764.855 75.9773L766.628 76.4545C767.082 76.5739 767.588 76.7386 768.145 76.9489C768.707 77.1591 769.244 77.446 769.756 77.8097C770.273 78.1676 770.699 78.6278 771.034 79.1903C771.369 79.7528 771.537 80.4432 771.537 81.2614C771.537 82.2045 771.29 83.0568 770.795 83.8182C770.307 84.5795 769.591 85.1847 768.648 85.6335C767.71 86.0824 766.571 86.3068 765.23 86.3068C763.98 86.3068 762.898 86.1051 761.983 85.7017C761.074 85.2983 760.358 84.7358 759.835 84.0142C759.318 83.2926 759.026 82.4545 758.957 81.5H761.139C761.196 82.1591 761.418 82.7045 761.804 83.1364C762.196 83.5625 762.69 83.8807 763.287 84.0909C763.889 84.2955 764.537 84.3977 765.23 84.3977C766.037 84.3977 766.761 84.267 767.403 84.0057C768.045 83.7386 768.554 83.3693 768.929 82.8977C769.304 82.4205 769.491 81.8636 769.491 81.2273C769.491 80.6477 769.33 80.1761 769.006 79.8125C768.682 79.4489 768.256 79.1534 767.727 78.9261C767.199 78.6989 766.628 78.5 766.014 78.3295L763.866 77.7159C762.503 77.3239 761.423 76.7642 760.628 76.0369C759.832 75.3097 759.435 74.358 759.435 73.1818C759.435 72.2045 759.699 71.3523 760.227 70.625C760.761 69.892 761.477 69.3239 762.375 68.9205C763.278 68.5114 764.287 68.3068 765.401 68.3068C766.526 68.3068 767.526 68.5085 768.401 68.9119C769.276 69.3097 769.969 69.8551 770.48 70.5483C770.997 71.2415 771.27 72.0284 771.298 72.9091H769.253ZM780.433 72.9091V74.6136H773.648V72.9091H780.433ZM775.626 69.7727H777.637V82.25C777.637 82.8182 777.719 83.2443 777.884 83.5284C778.055 83.8068 778.271 83.9943 778.532 84.0909C778.799 84.1818 779.08 84.2273 779.376 84.2273C779.597 84.2273 779.779 84.2159 779.921 84.1932C780.063 84.1648 780.177 84.142 780.262 84.125L780.671 85.9318C780.535 85.983 780.344 86.0341 780.1 86.0852C779.856 86.142 779.546 86.1705 779.171 86.1705C778.603 86.1705 778.046 86.0483 777.501 85.804C776.961 85.5597 776.512 85.1875 776.154 84.6875C775.802 84.1875 775.626 83.5568 775.626 82.7955V69.7727ZM787.31 86.3068C786.481 86.3068 785.728 86.1506 785.052 85.8381C784.376 85.5199 783.839 85.0625 783.441 84.4659C783.043 83.8636 782.844 83.1364 782.844 82.2841C782.844 81.5341 782.992 80.9261 783.288 80.4602C783.583 79.9886 783.978 79.6193 784.472 79.3523C784.967 79.0852 785.512 78.8864 786.109 78.7557C786.711 78.6193 787.316 78.5114 787.924 78.4318C788.719 78.3295 789.364 78.2528 789.859 78.2017C790.359 78.1449 790.722 78.0511 790.95 77.9205C791.183 77.7898 791.299 77.5625 791.299 77.2386V77.1705C791.299 76.3295 791.069 75.6761 790.609 75.2102C790.154 74.7443 789.464 74.5114 788.538 74.5114C787.577 74.5114 786.825 74.7216 786.279 75.142C785.734 75.5625 785.35 76.0114 785.129 76.4886L783.219 75.8068C783.56 75.0114 784.015 74.392 784.583 73.9489C785.157 73.5 785.782 73.1875 786.458 73.0114C787.14 72.8295 787.81 72.7386 788.469 72.7386C788.89 72.7386 789.373 72.7898 789.918 72.892C790.469 72.9886 791.001 73.1903 791.512 73.4972C792.029 73.804 792.458 74.267 792.799 74.8864C793.14 75.5057 793.31 76.3352 793.31 77.375V86H791.299V84.2273H791.197C791.06 84.5114 790.833 84.8153 790.515 85.1392C790.197 85.4631 789.773 85.7386 789.245 85.9659C788.717 86.1932 788.072 86.3068 787.31 86.3068ZM787.617 84.5C788.413 84.5 789.083 84.3438 789.629 84.0312C790.18 83.7188 790.594 83.3153 790.873 82.821C791.157 82.3267 791.299 81.8068 791.299 81.2614V79.4205C791.214 79.5227 791.026 79.6165 790.737 79.7017C790.452 79.7812 790.123 79.8523 789.748 79.9148C789.379 79.9716 789.018 80.0227 788.665 80.0682C788.319 80.108 788.038 80.142 787.822 80.1705C787.299 80.2386 786.81 80.3494 786.356 80.5028C785.907 80.6506 785.543 80.875 785.265 81.1761C784.992 81.4716 784.856 81.875 784.856 82.3864C784.856 83.0852 785.114 83.6136 785.631 83.9716C786.154 84.3239 786.816 84.5 787.617 84.5ZM801.925 86.2727C800.834 86.2727 799.871 85.9972 799.036 85.446C798.2 84.8892 797.547 84.1051 797.075 83.0938C796.604 82.0767 796.368 80.875 796.368 79.4886C796.368 78.1136 796.604 76.9205 797.075 75.9091C797.547 74.8977 798.203 74.1165 799.044 73.5653C799.885 73.0142 800.857 72.7386 801.959 72.7386C802.811 72.7386 803.484 72.8807 803.979 73.1648C804.479 73.4432 804.859 73.7614 805.121 74.1193C805.388 74.4716 805.595 74.7614 805.743 74.9886H805.913V68.5455H807.925V86H805.982V83.9886H805.743C805.595 84.2273 805.385 84.5284 805.112 84.892C804.839 85.25 804.45 85.571 803.945 85.8551C803.439 86.1335 802.766 86.2727 801.925 86.2727ZM802.197 84.4659C803.004 84.4659 803.686 84.2557 804.243 83.8352C804.8 83.4091 805.223 82.821 805.513 82.071C805.803 81.3153 805.947 80.4432 805.947 79.4545C805.947 78.4773 805.805 77.6222 805.521 76.8892C805.237 76.1506 804.817 75.5767 804.26 75.1676C803.703 74.7528 803.016 74.5455 802.197 74.5455C801.345 74.5455 800.635 74.7642 800.067 75.2017C799.504 75.6335 799.081 76.2216 798.797 76.9659C798.518 77.7045 798.379 78.5341 798.379 79.4545C798.379 80.3864 798.521 81.233 798.805 81.9943C799.095 82.75 799.521 83.3523 800.084 83.8011C800.652 84.2443 801.357 84.4659 802.197 84.4659ZM817.581 72.9091V74.6136H810.797V72.9091H817.581ZM812.774 69.7727H814.786V82.25C814.786 82.8182 814.868 83.2443 815.033 83.5284C815.203 83.8068 815.419 83.9943 815.68 84.0909C815.947 84.1818 816.229 84.2273 816.524 84.2273C816.746 84.2273 816.928 84.2159 817.07 84.1932C817.212 84.1648 817.325 84.142 817.411 84.125L817.82 85.9318C817.683 85.983 817.493 86.0341 817.249 86.0852C817.004 86.142 816.695 86.1705 816.32 86.1705C815.751 86.1705 815.195 86.0483 814.649 85.804C814.109 85.5597 813.661 85.1875 813.303 84.6875C812.95 84.1875 812.774 83.5568 812.774 82.7955V69.7727ZM827.357 86V72.9091H829.3V74.9545H829.47C829.743 74.2557 830.183 73.7131 830.791 73.3267C831.399 72.9347 832.129 72.7386 832.982 72.7386C833.845 72.7386 834.564 72.9347 835.138 73.3267C835.717 73.7131 836.169 74.2557 836.493 74.9545H836.629C836.964 74.2784 837.467 73.7415 838.138 73.3438C838.808 72.9403 839.612 72.7386 840.55 72.7386C841.72 72.7386 842.678 73.1051 843.422 73.8381C844.166 74.5653 844.538 75.6989 844.538 77.2386V86H842.527V77.2386C842.527 76.2727 842.263 75.5824 841.734 75.1676C841.206 74.7528 840.584 74.5455 839.868 74.5455C838.947 74.5455 838.234 74.8239 837.729 75.3807C837.223 75.9318 836.97 76.6307 836.97 77.4773V86H834.925V77.0341C834.925 76.2898 834.683 75.6903 834.2 75.2358C833.717 74.7756 833.095 74.5455 832.334 74.5455C831.811 74.5455 831.322 74.6847 830.868 74.9631C830.419 75.2415 830.055 75.6278 829.777 76.1222C829.504 76.6108 829.368 77.1761 829.368 77.8182V86H827.357ZM848.216 86V72.9091H850.227V86H848.216ZM849.239 70.7273C848.847 70.7273 848.509 70.5938 848.224 70.3267C847.946 70.0597 847.807 69.7386 847.807 69.3636C847.807 68.9886 847.946 68.6676 848.224 68.4006C848.509 68.1335 848.847 68 849.239 68C849.631 68 849.966 68.1335 850.244 68.4006C850.528 68.6676 850.67 68.9886 850.67 69.3636C850.67 69.7386 850.528 70.0597 850.244 70.3267C849.966 70.5938 849.631 70.7273 849.239 70.7273ZM859.604 72.9091V74.6136H852.82V72.9091H859.604ZM854.798 69.7727H856.809V82.25C856.809 82.8182 856.891 83.2443 857.056 83.5284C857.227 83.8068 857.442 83.9943 857.704 84.0909C857.971 84.1818 858.252 84.2273 858.548 84.2273C858.769 84.2273 858.951 84.2159 859.093 84.1932C859.235 84.1648 859.349 84.142 859.434 84.125L859.843 85.9318C859.707 85.983 859.516 86.0341 859.272 86.0852C859.028 86.142 858.718 86.1705 858.343 86.1705C857.775 86.1705 857.218 86.0483 856.673 85.804C856.133 85.5597 855.684 85.1875 855.326 84.6875C854.974 84.1875 854.798 83.5568 854.798 82.7955V69.7727ZM874.323 86.2727C873.232 86.2727 872.269 85.9972 871.434 85.446C870.599 84.8892 869.945 84.1051 869.474 83.0938C869.002 82.0767 868.766 80.875 868.766 79.4886C868.766 78.1136 869.002 76.9205 869.474 75.9091C869.945 74.8977 870.602 74.1165 871.442 73.5653C872.283 73.0142 873.255 72.7386 874.357 72.7386C875.21 72.7386 875.883 72.8807 876.377 73.1648C876.877 73.4432 877.258 73.7614 877.519 74.1193C877.786 74.4716 877.994 74.7614 878.141 74.9886H878.312V68.5455H880.323V86H878.38V83.9886H878.141C877.994 84.2273 877.783 84.5284 877.511 84.892C877.238 85.25 876.849 85.571 876.343 85.8551C875.837 86.1335 875.164 86.2727 874.323 86.2727ZM874.596 84.4659C875.403 84.4659 876.085 84.2557 876.641 83.8352C877.198 83.4091 877.621 82.821 877.911 82.071C878.201 81.3153 878.346 80.4432 878.346 79.4545C878.346 78.4773 878.204 77.6222 877.92 76.8892C877.636 76.1506 877.215 75.5767 876.658 75.1676C876.102 74.7528 875.414 74.5455 874.596 74.5455C873.744 74.5455 873.033 74.7642 872.465 75.2017C871.903 75.6335 871.479 76.2216 871.195 76.9659C870.917 77.7045 870.778 78.5341 870.778 79.4545C870.778 80.3864 870.92 81.233 871.204 81.9943C871.494 82.75 871.92 83.3523 872.482 83.8011C873.05 84.2443 873.755 84.4659 874.596 84.4659ZM889.775 86.2727C888.513 86.2727 887.425 85.9943 886.511 85.4375C885.602 84.875 884.9 84.0909 884.406 83.0852C883.917 82.0739 883.673 80.8977 883.673 79.5568C883.673 78.2159 883.917 77.0341 884.406 76.0114C884.9 74.983 885.587 74.1818 886.468 73.608C887.354 73.0284 888.388 72.7386 889.57 72.7386C890.252 72.7386 890.925 72.8523 891.59 73.0795C892.255 73.3068 892.86 73.6761 893.406 74.1875C893.951 74.6932 894.386 75.3636 894.71 76.1989C895.033 77.0341 895.195 78.0625 895.195 79.2841V80.1364H885.104V78.3977H893.15C893.15 77.6591 893.002 77 892.707 76.4205C892.417 75.8409 892.002 75.3835 891.462 75.0483C890.928 74.7131 890.298 74.5455 889.57 74.5455C888.769 74.5455 888.076 74.7443 887.491 75.142C886.911 75.5341 886.465 76.0455 886.153 76.6761C885.84 77.3068 885.684 77.983 885.684 78.7045V79.8636C885.684 80.8523 885.854 81.6903 886.195 82.3778C886.542 83.0597 887.022 83.5795 887.636 83.9375C888.249 84.2898 888.962 84.4659 889.775 84.4659C890.303 84.4659 890.781 84.392 891.207 84.2443C891.638 84.0909 892.011 83.8636 892.323 83.5625C892.636 83.2557 892.877 82.875 893.048 82.4205L894.991 82.9659C894.786 83.625 894.442 84.2045 893.96 84.7045C893.477 85.1989 892.88 85.5852 892.17 85.8636C891.46 86.1364 890.661 86.2727 889.775 86.2727ZM898.255 86V72.9091H900.198V74.8864H900.335C900.573 74.2386 901.005 73.7131 901.63 73.3097C902.255 72.9062 902.96 72.7045 903.744 72.7045C903.891 72.7045 904.076 72.7074 904.298 72.7131C904.519 72.7187 904.687 72.7273 904.8 72.7386V74.7841C904.732 74.767 904.576 74.7415 904.332 74.7074C904.093 74.6676 903.84 74.6477 903.573 74.6477C902.937 74.6477 902.369 74.7812 901.869 75.0483C901.374 75.3097 900.982 75.6733 900.692 76.1392C900.408 76.5994 900.266 77.125 900.266 77.7159V86H898.255ZM449.114 115V97.5455H459.648V99.4205H451.227V105.318H459.102V107.193H451.227V113.125H459.784V115H449.114ZM465.196 107.125V115H463.185V101.909H465.128V103.955H465.298C465.605 103.29 466.071 102.756 466.696 102.352C467.321 101.943 468.128 101.739 469.116 101.739C470.003 101.739 470.778 101.92 471.443 102.284C472.108 102.642 472.625 103.188 472.994 103.92C473.364 104.648 473.548 105.568 473.548 106.682V115H471.537V106.818C471.537 105.79 471.27 104.989 470.736 104.415C470.202 103.835 469.469 103.545 468.537 103.545C467.895 103.545 467.321 103.685 466.815 103.963C466.315 104.241 465.92 104.648 465.631 105.182C465.341 105.716 465.196 106.364 465.196 107.125ZM482.712 115.273C481.451 115.273 480.363 114.994 479.448 114.438C478.539 113.875 477.837 113.091 477.343 112.085C476.854 111.074 476.61 109.898 476.61 108.557C476.61 107.216 476.854 106.034 477.343 105.011C477.837 103.983 478.525 103.182 479.406 102.608C480.292 102.028 481.326 101.739 482.508 101.739C483.19 101.739 483.863 101.852 484.528 102.08C485.192 102.307 485.798 102.676 486.343 103.188C486.888 103.693 487.323 104.364 487.647 105.199C487.971 106.034 488.133 107.062 488.133 108.284V109.136H478.042V107.398H486.087C486.087 106.659 485.94 106 485.644 105.42C485.354 104.841 484.94 104.384 484.4 104.048C483.866 103.713 483.235 103.545 482.508 103.545C481.707 103.545 481.013 103.744 480.428 104.142C479.849 104.534 479.403 105.045 479.09 105.676C478.778 106.307 478.621 106.983 478.621 107.705V108.864C478.621 109.852 478.792 110.69 479.133 111.378C479.479 112.06 479.96 112.58 480.573 112.938C481.187 113.29 481.9 113.466 482.712 113.466C483.241 113.466 483.718 113.392 484.144 113.244C484.576 113.091 484.948 112.864 485.261 112.562C485.573 112.256 485.815 111.875 485.985 111.42L487.928 111.966C487.724 112.625 487.38 113.205 486.897 113.705C486.414 114.199 485.817 114.585 485.107 114.864C484.397 115.136 483.599 115.273 482.712 115.273ZM491.192 115V101.909H493.136V103.886H493.272C493.511 103.239 493.942 102.713 494.567 102.31C495.192 101.906 495.897 101.705 496.681 101.705C496.829 101.705 497.013 101.707 497.235 101.713C497.457 101.719 497.624 101.727 497.738 101.739V103.784C497.67 103.767 497.513 103.741 497.269 103.707C497.031 103.668 496.778 103.648 496.511 103.648C495.874 103.648 495.306 103.781 494.806 104.048C494.312 104.31 493.92 104.673 493.63 105.139C493.346 105.599 493.204 106.125 493.204 106.716V115H491.192ZM505.008 120.182C504.036 120.182 503.201 120.057 502.502 119.807C501.803 119.562 501.221 119.239 500.755 118.835C500.295 118.438 499.928 118.011 499.656 117.557L501.258 116.432C501.44 116.67 501.67 116.943 501.948 117.25C502.227 117.562 502.607 117.832 503.09 118.06C503.579 118.293 504.218 118.409 505.008 118.409C506.065 118.409 506.937 118.153 507.624 117.642C508.312 117.131 508.656 116.33 508.656 115.239V112.58H508.485C508.337 112.818 508.127 113.114 507.854 113.466C507.587 113.812 507.201 114.122 506.695 114.395C506.195 114.662 505.519 114.795 504.667 114.795C503.61 114.795 502.661 114.545 501.82 114.045C500.985 113.545 500.323 112.818 499.835 111.864C499.352 110.909 499.11 109.75 499.11 108.386C499.11 107.045 499.346 105.878 499.817 104.884C500.289 103.884 500.945 103.111 501.786 102.565C502.627 102.014 503.599 101.739 504.701 101.739C505.553 101.739 506.229 101.881 506.729 102.165C507.235 102.443 507.621 102.761 507.888 103.119C508.161 103.472 508.371 103.761 508.519 103.989H508.724V101.909H510.667V115.375C510.667 116.5 510.411 117.415 509.9 118.119C509.394 118.83 508.712 119.349 507.854 119.679C507.002 120.014 506.053 120.182 505.008 120.182ZM504.94 112.989C505.746 112.989 506.428 112.804 506.985 112.435C507.542 112.065 507.965 111.534 508.255 110.841C508.545 110.148 508.69 109.318 508.69 108.352C508.69 107.409 508.548 106.577 508.263 105.855C507.979 105.134 507.559 104.568 507.002 104.159C506.445 103.75 505.758 103.545 504.94 103.545C504.087 103.545 503.377 103.761 502.809 104.193C502.246 104.625 501.823 105.205 501.539 105.932C501.261 106.659 501.121 107.466 501.121 108.352C501.121 109.261 501.263 110.065 501.548 110.764C501.837 111.457 502.263 112.003 502.826 112.401C503.394 112.793 504.099 112.989 504.94 112.989ZM514.349 115V101.909H516.36V115H514.349ZM515.371 99.7273C514.979 99.7273 514.641 99.5938 514.357 99.3267C514.079 99.0597 513.94 98.7386 513.94 98.3636C513.94 97.9886 514.079 97.6676 514.357 97.4006C514.641 97.1335 514.979 97 515.371 97C515.763 97 516.099 97.1335 516.377 97.4006C516.661 97.6676 516.803 97.9886 516.803 98.3636C516.803 98.7386 516.661 99.0597 516.377 99.3267C516.099 99.5938 515.763 99.7273 515.371 99.7273ZM525.533 115.273C524.271 115.273 523.183 114.994 522.268 114.438C521.359 113.875 520.658 113.091 520.163 112.085C519.675 111.074 519.43 109.898 519.43 108.557C519.43 107.216 519.675 106.034 520.163 105.011C520.658 103.983 521.345 103.182 522.226 102.608C523.112 102.028 524.146 101.739 525.328 101.739C526.01 101.739 526.683 101.852 527.348 102.08C528.013 102.307 528.618 102.676 529.163 103.188C529.709 103.693 530.143 104.364 530.467 105.199C530.791 106.034 530.953 107.062 530.953 108.284V109.136H520.862V107.398H528.908C528.908 106.659 528.76 106 528.464 105.42C528.175 104.841 527.76 104.384 527.22 104.048C526.686 103.713 526.055 103.545 525.328 103.545C524.527 103.545 523.834 103.744 523.249 104.142C522.669 104.534 522.223 105.045 521.911 105.676C521.598 106.307 521.442 106.983 521.442 107.705V108.864C521.442 109.852 521.612 110.69 521.953 111.378C522.3 112.06 522.78 112.58 523.393 112.938C524.007 113.29 524.72 113.466 525.533 113.466C526.061 113.466 526.538 113.392 526.964 113.244C527.396 113.091 527.768 112.864 528.081 112.562C528.393 112.256 528.635 111.875 528.805 111.42L530.749 111.966C530.544 112.625 530.2 113.205 529.717 113.705C529.234 114.199 528.638 114.585 527.928 114.864C527.217 115.136 526.419 115.273 525.533 115.273ZM537.013 112.614L536.876 113.534C536.78 114.182 536.632 114.875 536.433 115.614C536.24 116.352 536.038 117.048 535.828 117.702C535.618 118.355 535.445 118.875 535.308 119.261H533.774C533.848 118.898 533.945 118.418 534.064 117.821C534.183 117.224 534.303 116.557 534.422 115.818C534.547 115.085 534.649 114.335 534.729 113.568L534.831 112.614H537.013ZM552.433 115.273C551.342 115.273 550.379 114.997 549.543 114.446C548.708 113.889 548.055 113.105 547.583 112.094C547.112 111.077 546.876 109.875 546.876 108.489C546.876 107.114 547.112 105.92 547.583 104.909C548.055 103.898 548.711 103.116 549.552 102.565C550.393 102.014 551.364 101.739 552.467 101.739C553.319 101.739 553.992 101.881 554.487 102.165C554.987 102.443 555.367 102.761 555.629 103.119C555.896 103.472 556.103 103.761 556.251 103.989H556.421V97.5455H558.433V115H556.489V112.989H556.251C556.103 113.227 555.893 113.528 555.62 113.892C555.347 114.25 554.958 114.571 554.452 114.855C553.947 115.134 553.273 115.273 552.433 115.273ZM552.705 113.466C553.512 113.466 554.194 113.256 554.751 112.835C555.308 112.409 555.731 111.821 556.021 111.071C556.31 110.315 556.455 109.443 556.455 108.455C556.455 107.477 556.313 106.622 556.029 105.889C555.745 105.151 555.325 104.577 554.768 104.168C554.211 103.753 553.523 103.545 552.705 103.545C551.853 103.545 551.143 103.764 550.575 104.202C550.012 104.634 549.589 105.222 549.305 105.966C549.026 106.705 548.887 107.534 548.887 108.455C548.887 109.386 549.029 110.233 549.313 110.994C549.603 111.75 550.029 112.352 550.592 112.801C551.16 113.244 551.864 113.466 552.705 113.466ZM562.396 115V101.909H564.407V115H562.396ZM563.418 99.7273C563.026 99.7273 562.688 99.5938 562.404 99.3267C562.126 99.0597 561.987 98.7386 561.987 98.3636C561.987 97.9886 562.126 97.6676 562.404 97.4006C562.688 97.1335 563.026 97 563.418 97C563.81 97 564.146 97.1335 564.424 97.4006C564.708 97.6676 564.85 97.9886 564.85 98.3636C564.85 98.7386 564.708 99.0597 564.424 99.3267C564.146 99.5938 563.81 99.7273 563.418 99.7273ZM573.58 115.273C572.318 115.273 571.23 114.994 570.315 114.438C569.406 113.875 568.705 113.091 568.21 112.085C567.722 111.074 567.477 109.898 567.477 108.557C567.477 107.216 567.722 106.034 568.21 105.011C568.705 103.983 569.392 103.182 570.273 102.608C571.159 102.028 572.193 101.739 573.375 101.739C574.057 101.739 574.73 101.852 575.395 102.08C576.06 102.307 576.665 102.676 577.21 103.188C577.756 103.693 578.19 104.364 578.514 105.199C578.838 106.034 579 107.062 579 108.284V109.136H568.909V107.398H576.955C576.955 106.659 576.807 106 576.511 105.42C576.222 104.841 575.807 104.384 575.267 104.048C574.733 103.713 574.102 103.545 573.375 103.545C572.574 103.545 571.881 103.744 571.295 104.142C570.716 104.534 570.27 105.045 569.957 105.676C569.645 106.307 569.489 106.983 569.489 107.705V108.864C569.489 109.852 569.659 110.69 570 111.378C570.347 112.06 570.827 112.58 571.44 112.938C572.054 113.29 572.767 113.466 573.58 113.466C574.108 113.466 574.585 113.392 575.011 113.244C575.443 113.091 575.815 112.864 576.128 112.562C576.44 112.256 576.682 111.875 576.852 111.42L578.795 111.966C578.591 112.625 578.247 113.205 577.764 113.705C577.281 114.199 576.685 114.585 575.974 114.864C575.264 115.136 574.466 115.273 573.58 115.273ZM593.753 115.273C592.662 115.273 591.699 114.997 590.864 114.446C590.028 113.889 589.375 113.105 588.903 112.094C588.432 111.077 588.196 109.875 588.196 108.489C588.196 107.114 588.432 105.92 588.903 104.909C589.375 103.898 590.031 103.116 590.872 102.565C591.713 102.014 592.685 101.739 593.787 101.739C594.639 101.739 595.313 101.881 595.807 102.165C596.307 102.443 596.688 102.761 596.949 103.119C597.216 103.472 597.423 103.761 597.571 103.989H597.741V97.5455H599.753V115H597.81V112.989H597.571C597.423 113.227 597.213 113.528 596.94 113.892C596.668 114.25 596.278 114.571 595.773 114.855C595.267 115.134 594.594 115.273 593.753 115.273ZM594.026 113.466C594.832 113.466 595.514 113.256 596.071 112.835C596.628 112.409 597.051 111.821 597.341 111.071C597.631 110.315 597.776 109.443 597.776 108.455C597.776 107.477 597.634 106.622 597.349 105.889C597.065 105.151 596.645 104.577 596.088 104.168C595.531 103.753 594.844 103.545 594.026 103.545C593.173 103.545 592.463 103.764 591.895 104.202C591.332 104.634 590.909 105.222 590.625 105.966C590.347 106.705 590.207 107.534 590.207 108.455C590.207 109.386 590.349 110.233 590.634 110.994C590.923 111.75 591.349 112.352 591.912 112.801C592.48 113.244 593.185 113.466 594.026 113.466ZM607.568 115.307C606.739 115.307 605.986 115.151 605.31 114.838C604.634 114.52 604.097 114.062 603.699 113.466C603.301 112.864 603.102 112.136 603.102 111.284C603.102 110.534 603.25 109.926 603.545 109.46C603.841 108.989 604.236 108.619 604.73 108.352C605.224 108.085 605.77 107.886 606.366 107.756C606.969 107.619 607.574 107.511 608.182 107.432C608.977 107.33 609.622 107.253 610.116 107.202C610.616 107.145 610.98 107.051 611.207 106.92C611.44 106.79 611.557 106.562 611.557 106.239V106.17C611.557 105.33 611.327 104.676 610.866 104.21C610.412 103.744 609.722 103.511 608.795 103.511C607.835 103.511 607.082 103.722 606.537 104.142C605.991 104.562 605.608 105.011 605.386 105.489L603.477 104.807C603.818 104.011 604.273 103.392 604.841 102.949C605.415 102.5 606.04 102.187 606.716 102.011C607.398 101.83 608.068 101.739 608.727 101.739C609.148 101.739 609.631 101.79 610.176 101.892C610.727 101.989 611.259 102.19 611.77 102.497C612.287 102.804 612.716 103.267 613.057 103.886C613.398 104.506 613.568 105.335 613.568 106.375V115H611.557V113.227H611.455C611.318 113.511 611.091 113.815 610.773 114.139C610.455 114.463 610.031 114.739 609.503 114.966C608.974 115.193 608.33 115.307 607.568 115.307ZM607.875 113.5C608.67 113.5 609.341 113.344 609.886 113.031C610.438 112.719 610.852 112.315 611.131 111.821C611.415 111.327 611.557 110.807 611.557 110.261V108.42C611.472 108.523 611.284 108.616 610.994 108.702C610.71 108.781 610.381 108.852 610.006 108.915C609.636 108.972 609.276 109.023 608.923 109.068C608.577 109.108 608.295 109.142 608.08 109.17C607.557 109.239 607.068 109.349 606.614 109.503C606.165 109.651 605.801 109.875 605.523 110.176C605.25 110.472 605.114 110.875 605.114 111.386C605.114 112.085 605.372 112.614 605.889 112.972C606.412 113.324 607.074 113.5 607.875 113.5ZM626.512 104.841L624.705 105.352C624.592 105.051 624.424 104.759 624.202 104.474C623.987 104.185 623.691 103.946 623.316 103.759C622.941 103.571 622.461 103.477 621.876 103.477C621.075 103.477 620.407 103.662 619.873 104.031C619.344 104.395 619.08 104.858 619.08 105.42C619.08 105.92 619.262 106.315 619.626 106.605C619.989 106.895 620.558 107.136 621.33 107.33L623.273 107.807C624.444 108.091 625.316 108.526 625.89 109.111C626.464 109.69 626.751 110.437 626.751 111.352C626.751 112.102 626.535 112.773 626.103 113.364C625.677 113.955 625.08 114.42 624.313 114.761C623.546 115.102 622.654 115.273 621.637 115.273C620.302 115.273 619.197 114.983 618.322 114.403C617.447 113.824 616.893 112.977 616.66 111.864L618.569 111.386C618.751 112.091 619.094 112.619 619.6 112.972C620.112 113.324 620.779 113.5 621.603 113.5C622.54 113.5 623.285 113.301 623.836 112.903C624.393 112.5 624.671 112.017 624.671 111.455C624.671 111 624.512 110.619 624.194 110.312C623.876 110 623.387 109.767 622.728 109.614L620.546 109.102C619.347 108.818 618.467 108.378 617.904 107.781C617.347 107.179 617.069 106.426 617.069 105.523C617.069 104.784 617.276 104.131 617.691 103.562C618.112 102.994 618.683 102.548 619.404 102.224C620.131 101.901 620.955 101.739 621.876 101.739C623.171 101.739 624.188 102.023 624.927 102.591C625.671 103.159 626.2 103.909 626.512 104.841ZM636.801 115V97.5455H647.335V99.4205H638.915V105.318H646.79V107.193H638.915V113.125H647.472V115H636.801ZM658.372 105.335V107.21H650.736V105.335H658.372ZM664.136 115L659.363 97.5455H661.511L665.158 111.761H665.329L669.045 97.5455H671.431L675.147 111.761H675.317L678.965 97.5455H681.113L676.34 115H674.158L670.306 101.091H670.17L666.317 115H664.136ZM687.744 115.273C686.482 115.273 685.394 114.994 684.479 114.438C683.57 113.875 682.869 113.091 682.374 112.085C681.886 111.074 681.641 109.898 681.641 108.557C681.641 107.216 681.886 106.034 682.374 105.011C682.869 103.983 683.556 103.182 684.437 102.608C685.323 102.028 686.357 101.739 687.539 101.739C688.221 101.739 688.894 101.852 689.559 102.08C690.224 102.307 690.829 102.676 691.374 103.188C691.92 103.693 692.354 104.364 692.678 105.199C693.002 106.034 693.164 107.062 693.164 108.284V109.136H683.073V107.398H691.119C691.119 106.659 690.971 106 690.675 105.42C690.386 104.841 689.971 104.384 689.431 104.048C688.897 103.713 688.266 103.545 687.539 103.545C686.738 103.545 686.045 103.744 685.46 104.142C684.88 104.534 684.434 105.045 684.121 105.676C683.809 106.307 683.653 106.983 683.653 107.705V108.864C683.653 109.852 683.823 110.69 684.164 111.378C684.511 112.06 684.991 112.58 685.604 112.938C686.218 113.29 686.931 113.466 687.744 113.466C688.272 113.466 688.749 113.392 689.175 113.244C689.607 113.091 689.979 112.864 690.292 112.562C690.604 112.256 690.846 111.875 691.016 111.42L692.96 111.966C692.755 112.625 692.411 113.205 691.928 113.705C691.445 114.199 690.849 114.585 690.138 114.864C689.428 115.136 688.63 115.273 687.744 115.273ZM696.224 115V101.909H698.167V103.886H698.303C698.542 103.239 698.974 102.713 699.599 102.31C700.224 101.906 700.928 101.705 701.712 101.705C701.86 101.705 702.045 101.707 702.266 101.713C702.488 101.719 702.656 101.727 702.769 101.739V103.784C702.701 103.767 702.545 103.741 702.3 103.707C702.062 103.668 701.809 103.648 701.542 103.648C700.906 103.648 700.337 103.781 699.837 104.048C699.343 104.31 698.951 104.673 698.661 105.139C698.377 105.599 698.235 106.125 698.235 106.716V115H696.224ZM707.028 110.227L706.994 107.739H707.403L713.131 101.909H715.619L709.517 108.08H709.347L707.028 110.227ZM705.153 115V97.5455H707.165V115H705.153ZM713.472 115L708.358 108.523L709.79 107.125L716.028 115H713.472ZM724.958 119.909V101.909H726.901V103.989H727.14C727.288 103.761 727.492 103.472 727.754 103.119C728.021 102.761 728.401 102.443 728.896 102.165C729.396 101.881 730.072 101.739 730.924 101.739C732.026 101.739 732.998 102.014 733.839 102.565C734.68 103.116 735.336 103.898 735.808 104.909C736.279 105.92 736.515 107.114 736.515 108.489C736.515 109.875 736.279 111.077 735.808 112.094C735.336 113.105 734.683 113.889 733.847 114.446C733.012 114.997 732.049 115.273 730.958 115.273C730.117 115.273 729.444 115.134 728.938 114.855C728.433 114.571 728.043 114.25 727.771 113.892C727.498 113.528 727.288 113.227 727.14 112.989H726.969V119.909H724.958ZM726.935 108.455C726.935 109.443 727.08 110.315 727.37 111.071C727.66 111.821 728.083 112.409 728.64 112.835C729.197 113.256 729.879 113.466 730.685 113.466C731.526 113.466 732.228 113.244 732.79 112.801C733.359 112.352 733.785 111.75 734.069 110.994C734.359 110.233 734.504 109.386 734.504 108.455C734.504 107.534 734.362 106.705 734.077 105.966C733.799 105.222 733.376 104.634 732.808 104.202C732.245 103.764 731.538 103.545 730.685 103.545C729.867 103.545 729.18 103.753 728.623 104.168C728.066 104.577 727.646 105.151 727.362 105.889C727.077 106.622 726.935 107.477 726.935 108.455ZM739.583 115V101.909H741.526V103.886H741.663C741.901 103.239 742.333 102.713 742.958 102.31C743.583 101.906 744.288 101.705 745.072 101.705C745.219 101.705 745.404 101.707 745.626 101.713C745.847 101.719 746.015 101.727 746.129 101.739V103.784C746.06 103.767 745.904 103.741 745.66 103.707C745.421 103.668 745.168 103.648 744.901 103.648C744.265 103.648 743.697 103.781 743.197 104.048C742.702 104.31 742.31 104.673 742.021 105.139C741.737 105.599 741.594 106.125 741.594 106.716V115H739.583ZM753.433 115.273C752.251 115.273 751.214 114.991 750.322 114.429C749.435 113.866 748.742 113.08 748.242 112.068C747.748 111.057 747.501 109.875 747.501 108.523C747.501 107.159 747.748 105.969 748.242 104.952C748.742 103.935 749.435 103.145 750.322 102.582C751.214 102.02 752.251 101.739 753.433 101.739C754.614 101.739 755.648 102.02 756.535 102.582C757.427 103.145 758.12 103.935 758.614 104.952C759.114 105.969 759.364 107.159 759.364 108.523C759.364 109.875 759.114 111.057 758.614 112.068C758.12 113.08 757.427 113.866 756.535 114.429C755.648 114.991 754.614 115.273 753.433 115.273ZM753.433 113.466C754.33 113.466 755.069 113.236 755.648 112.776C756.228 112.315 756.657 111.71 756.935 110.96C757.214 110.21 757.353 109.398 757.353 108.523C757.353 107.648 757.214 106.832 756.935 106.077C756.657 105.321 756.228 104.71 755.648 104.244C755.069 103.778 754.33 103.545 753.433 103.545C752.535 103.545 751.796 103.778 751.217 104.244C750.637 104.71 750.208 105.321 749.93 106.077C749.651 106.832 749.512 107.648 749.512 108.523C749.512 109.398 749.651 110.21 749.93 110.96C750.208 111.71 750.637 112.315 751.217 112.776C751.796 113.236 752.535 113.466 753.433 113.466ZM767.378 115.273C766.287 115.273 765.324 114.997 764.489 114.446C763.653 113.889 763 113.105 762.528 112.094C762.057 111.077 761.821 109.875 761.821 108.489C761.821 107.114 762.057 105.92 762.528 104.909C763 103.898 763.656 103.116 764.497 102.565C765.338 102.014 766.31 101.739 767.412 101.739C768.264 101.739 768.938 101.881 769.432 102.165C769.932 102.443 770.313 102.761 770.574 103.119C770.841 103.472 771.048 103.761 771.196 103.989H771.366V97.5455H773.378V115H771.435V112.989H771.196C771.048 113.227 770.838 113.528 770.565 113.892C770.293 114.25 769.903 114.571 769.398 114.855C768.892 115.134 768.219 115.273 767.378 115.273ZM767.651 113.466C768.457 113.466 769.139 113.256 769.696 112.835C770.253 112.409 770.676 111.821 770.966 111.071C771.256 110.315 771.401 109.443 771.401 108.455C771.401 107.477 771.259 106.622 770.974 105.889C770.69 105.151 770.27 104.577 769.713 104.168C769.156 103.753 768.469 103.545 767.651 103.545C766.798 103.545 766.088 103.764 765.52 104.202C764.957 104.634 764.534 105.222 764.25 105.966C763.972 106.705 763.832 107.534 763.832 108.455C763.832 109.386 763.974 110.233 764.259 110.994C764.548 111.75 764.974 112.352 765.537 112.801C766.105 113.244 766.81 113.466 767.651 113.466ZM785.591 109.648V101.909H787.602V115H785.591V112.784H785.455C785.148 113.449 784.67 114.014 784.023 114.48C783.375 114.94 782.557 115.17 781.568 115.17C780.75 115.17 780.023 114.991 779.386 114.634C778.75 114.27 778.25 113.724 777.886 112.997C777.523 112.264 777.341 111.341 777.341 110.227V101.909H779.352V110.091C779.352 111.045 779.619 111.807 780.153 112.375C780.693 112.943 781.381 113.227 782.216 113.227C782.716 113.227 783.224 113.099 783.741 112.844C784.264 112.588 784.702 112.196 785.054 111.668C785.412 111.139 785.591 110.466 785.591 109.648ZM790.911 115V113.466L798.343 103.92V103.784H791.15V101.909H800.934V103.511L793.707 112.989V113.125H801.173V115H790.911ZM804.271 115V101.909H806.282V115H804.271ZM805.293 99.7273C804.901 99.7273 804.563 99.5938 804.279 99.3267C804.001 99.0597 803.862 98.7386 803.862 98.3636C803.862 97.9886 804.001 97.6676 804.279 97.4006C804.563 97.1335 804.901 97 805.293 97C805.685 97 806.021 97.1335 806.299 97.4006C806.583 97.6676 806.725 97.9886 806.725 98.3636C806.725 98.7386 806.583 99.0597 806.299 99.3267C806.021 99.5938 805.685 99.7273 805.293 99.7273ZM815.455 115.273C814.193 115.273 813.105 114.994 812.19 114.438C811.281 113.875 810.58 113.091 810.085 112.085C809.597 111.074 809.352 109.898 809.352 108.557C809.352 107.216 809.597 106.034 810.085 105.011C810.58 103.983 811.267 103.182 812.148 102.608C813.034 102.028 814.068 101.739 815.25 101.739C815.932 101.739 816.605 101.852 817.27 102.08C817.935 102.307 818.54 102.676 819.085 103.188C819.631 103.693 820.065 104.364 820.389 105.199C820.713 106.034 820.875 107.062 820.875 108.284V109.136H810.784V107.398H818.83C818.83 106.659 818.682 106 818.386 105.42C818.097 104.841 817.682 104.384 817.142 104.048C816.608 103.713 815.977 103.545 815.25 103.545C814.449 103.545 813.756 103.744 813.17 104.142C812.591 104.534 812.145 105.045 811.832 105.676C811.52 106.307 811.364 106.983 811.364 107.705V108.864C811.364 109.852 811.534 110.69 811.875 111.378C812.222 112.06 812.702 112.58 813.315 112.938C813.929 113.29 814.642 113.466 815.455 113.466C815.983 113.466 816.46 113.392 816.886 113.244C817.318 113.091 817.69 112.864 818.003 112.562C818.315 112.256 818.557 111.875 818.727 111.42L820.67 111.966C820.466 112.625 820.122 113.205 819.639 113.705C819.156 114.199 818.56 114.585 817.849 114.864C817.139 115.136 816.341 115.273 815.455 115.273ZM823.935 115V101.909H825.878V103.886H826.014C826.253 103.239 826.685 102.713 827.31 102.31C827.935 101.906 828.639 101.705 829.423 101.705C829.571 101.705 829.756 101.707 829.977 101.713C830.199 101.719 830.366 101.727 830.48 101.739V103.784C830.412 103.767 830.256 103.741 830.011 103.707C829.773 103.668 829.52 103.648 829.253 103.648C828.616 103.648 828.048 103.781 827.548 104.048C827.054 104.31 826.662 104.673 826.372 105.139C826.088 105.599 825.946 106.125 825.946 106.716V115H823.935ZM839.378 101.909V103.614H832.594V101.909H839.378ZM834.571 98.7727H836.582V111.25C836.582 111.818 836.665 112.244 836.83 112.528C837 112.807 837.216 112.994 837.477 113.091C837.744 113.182 838.026 113.227 838.321 113.227C838.543 113.227 838.724 113.216 838.866 113.193C839.009 113.165 839.122 113.142 839.207 113.125L839.616 114.932C839.48 114.983 839.29 115.034 839.045 115.085C838.801 115.142 838.491 115.17 838.116 115.17C837.548 115.17 836.991 115.048 836.446 114.804C835.906 114.56 835.457 114.188 835.099 113.688C834.747 113.188 834.571 112.557 834.571 111.795V98.7727ZM843.869 115.136C843.449 115.136 843.088 114.986 842.787 114.685C842.486 114.384 842.335 114.023 842.335 113.602C842.335 113.182 842.486 112.821 842.787 112.52C843.088 112.219 843.449 112.068 843.869 112.068C844.29 112.068 844.651 112.219 844.952 112.52C845.253 112.821 845.403 113.182 845.403 113.602C845.403 113.881 845.332 114.136 845.19 114.369C845.054 114.602 844.869 114.79 844.636 114.932C844.409 115.068 844.153 115.136 843.869 115.136Z" fill="black"/>
<path d="M447 211.18L456.16 202L447 192.82L449.82 190L461.82 202L449.82 214L447 211.18Z" fill="#FFD037"/>
<defs>
<linearGradient id="paint0_linear_432_2542" x1="341.429" y1="697.658" x2="2.65919" y2="697.658" gradientUnits="userSpaceOnUse">
<stop stop-color="#4D4D4D"/>
<stop offset="1"/>
</linearGradient>
<linearGradient id="paint1_linear_432_2542" x1="341.429" y1="697.658" x2="2.65919" y2="697.658" gradientUnits="userSpaceOnUse">
<stop/>
<stop offset="1"/>
</linearGradient>
</defs>
</svg>
